<svg xmlns="http://www.w3.org/2000/svg" width="23" height="24" viewBox="0 0 23 24">
    <g fill="none" fill-rule="evenodd">
        <g fill="#FFF">
            <g>
                <path d="M-2.037 9.877h26.742c.663 0 1.2.537 1.2 1.2v.514c0 .663-.537 1.2-1.2 1.2H-2.037c-.663 0-1.2-.537-1.2-1.2v-.514c0-.663.537-1.2 1.2-1.2z" transform="translate(-336.000000, -28.000000) translate(336.000000, 28.000000) translate(11.333809, 11.333810) rotate(-315.000000) translate(-11.333809, -11.333810)"/>
                <path d="M-2.037 10.362h26.742c.663 0 1.2.538 1.2 1.2v.515c0 .662-.537 1.2-1.2 1.2H-2.037c-.663 0-1.2-.538-1.2-1.2v-.515c0-.662.537-1.2 1.2-1.2z" transform="translate(-336.000000, -28.000000) translate(336.000000, 28.000000) translate(11.333809, 11.819519) rotate(-45.000000) translate(-11.333809, -11.819519)"/>
            </g>
        </g>
    </g>
</svg>
