<?xml version="1.0" encoding="UTF-8"?>
<svg xmlns="http://www.w3.org/2000/svg" version="1.1" viewBox="0 0 68.3 31.7">
  <defs>
    <style>
      .cls-1 {
        fill-rule: evenodd;
      }

      .cls-1, .cls-2 {
        fill: #fff;
      }
    </style>
  </defs>
  <!-- Generator: Adobe Illustrator 28.6.0, SVG Export Plug-In . SVG Version: 1.2.0 Build 709)  -->
  <g>
    <g id="Layer_1">
      <g>
        <path class="cls-1" d="M63.3,18.6c0-.4.1-.7.4-1,.3-.3.6-.4,1-.4s.7.1,1,.4c.3.3.4.6.4,1s-.1.8-.4,1c-.3.3-.6.4-1,.4s-.7-.1-1-.4c-.3-.3-.4-.6-.4-1M63.6,18.6c0,.4.1.6.3.9.2.2.5.4.8.4s.6-.1.8-.4c.2-.2.3-.5.3-.9s-.1-.6-.3-.9c-.2-.2-.5-.3-.8-.3s-.6.1-.8.3c-.2.2-.3.5-.3.9M64.2,19.5v-1.6h.6c.4,0,.6.2.6.5s-.1.4-.4.5l.5.7h-.3l-.4-.7h-.3v.7h-.2ZM64.4,18v.5h.3c.1,0,.2,0,.3,0,0,0,.1-.1.1-.2,0-.2-.1-.2-.3-.2h-.3Z"/>
        <g>
          <path class="cls-1" d="M19.5,30.4c0,.5.3.8.3.8l.5.4h-4.6l.5-.4s.4-.3.4-.8v-11.8c0-.5-.4-.8-.4-.8l-.6-.4h4.6l-.5.4s-.3.3-.3.8v11.8Z"/>
          <path class="cls-2" d="M.5,29.7c.8.2,1.4.7,2.5,1.1,1.5.6,2.6.9,5,.9,4.1,0,7.3-2.1,7.3-5.3s-3.4-4.1-6.2-4.6c-.7-.1-1.4-.2-2-.3-.6-.1-1.2-.2-1.7-.4-1.3-.4-1.8-1.2-1.8-2,0-1.3,1.1-2.5,3.9-2.5s2.8.2,3.8.9c.9.6,1.3,1.6,1.3,1.6,0,0,.8-1.5,1-1.9.4-.9,1.1-2.1,1.1-2.1l-1.3.6c-1.6-.4-3.7-1.3-5.5-1.3-4.1,0-7.3,1.9-7.3,5.2s3.1,4.4,5.9,4.8c.7.1,1.4.1,2,.2.6.1,1.7.2,2.2.4,1,.3,1.8.9,1.8,1.8,0,1.8-2.2,2.7-4.4,2.7s-3.6-.3-5.2-1.7c-.7-.6-.8-1.5-.8-1.5L0,29.8s.4-.1.5,0h0Z"/>
          <path class="cls-2" d="M61,24.3l-2.2-5.9-3.8,11.8c0,0,0,.2,0,.2,0,.1,0,.2,0,.2,0,.2.3.5.4.6.1.1.2.3.2.3h-4.6s.6-.8.9-1.5l4.7-13.3c0-.1.2-.5.2-.7,0-.3-.3-.6-.3-.6l-.3-.3h5.2s-.2.3-.3.4c-.2.3-.3.4-.3.6s.2.6.3.8c0,0,3.8,10.4,5,13.3.2.5.7,1,.7,1,0,.1.4.3.4.3h-4.4l.2-.3s.3-.4.3-.6,0-.2-.1-.4c0-.1-2.2-5.9-2.2-5.9h0Z"/>
          <path class="cls-1" d="M24.9,23.4h3.8c1.8,0,2.3-.6,2.3-1.9s-.7-2-2.7-2h-3.4s0,3.9,0,3.9ZM24.9,25.6v4.8c0,.5.4.8.4.8l.5.4h-4.5l.5-.4s.4-.3.4-.8v-11.8c0-.2,0-.4-.1-.6,0,0-.1-.1-.1-.2,0,0-.5-.4-.5-.4h7.4c3.3,0,4.9,1.7,4.9,3.8s-1.3,3.8-3.3,4.3l2.7,4.9c.2.3.8.8.8.8l.6.4h-4.8l.4-.3s.2-.4.2-.5,0,0,0-.1,0-.1-.1-.2l-2.7-4.8h-2.7Z"/>
          <path class="cls-1" d="M49.6,30.4v-11.7c0-.4.2-.7.3-.9.2-.2.6-.4.6-.4h-4.8l.3.3c.2.1.3.4.2.7l-3.1,7.6-3.1-7.6c-.2-.3,0-.6.2-.7l.3-.3h-4.8s.4.2.6.4c.1.1.4.4.3.9v11.7c0,.5-.4.8-.4.8l-.5.3h4.4s-.4-.3-.5-.4c0,0-.4-.3-.4-.8v-8.5l4.1,9.8,4.1-9.8v8.5c0,.5-.3.7-.4.8-.1.1-.5.4-.5.4h4.4l-.5-.3s-.4-.4-.4-.8h0Z"/>
        </g>
        <path class="cls-2" d="M59,23.6c-6.8.3-7.5,4.6-7.5,4.6.9-1.6,3.3-2.8,7.9-2.9,8.6-.1,8.8-4.6,8.8-4.6-1.7,2.3-7,2.8-9.1,2.9"/>
      </g>
      <path class="cls-2" d="M9.4,12.6s13-7.1,13.3-7.2,3,0,3,0c0,0,5.2-2.6,5.5-2.7.3-.2,3.6-2.6,3.6-2.6l-.3,1.4-2.8,2-5.6,2.6.7,1.6,10.4,2.8-9.9-1.4,6.1,4.1h-9.4l1.1-1.9-2.5-1.2,1.4-2.2-1.5-.7-13,5.6h0Z"/>
      <path class="cls-2" d="M45,12.6l-4.7-2.6-.3-3.3-2.6-1.1s.6-1.8.3-1.8-3.7-.4-3.7-.4L34.8,0l4.9,2.2,7.3,5.2,3.6.4,9.4,4.8-11.2-2.7-5.6-.8,1.8,3.4h0Z"/>
    </g>
  </g>
</svg>