<svg width="199" height="95" viewBox="0 0 199 95" fill="none" xmlns="http://www.w3.org/2000/svg">
<g clip-path="url(#clip0_275_480)">
<path fill-rule="evenodd" clip-rule="evenodd" d="M52.034 0.812988C68.034 0.872988 81.383 1.86199 88.016 2.21299C101.301 2.89899 132.173 4.21899 151.158 4.66199C167.05 5.01699 192.568 2.75099 197.617 2.28899V90.104C186.242 93.004 131.317 92.385 114.331 91.428C97.282 90.479 85.719 88.983 52.471 89.154C23.557 89.315 5.11302 92.302 0.809021 93.067V4.78099C17.889 1.56599 36.257 0.748988 52.034 0.812988Z" fill="white"/>
<path fill-rule="evenodd" clip-rule="evenodd" d="M1.52588e-05 4.10799V94.045C1.52588e-05 94.045 19.353 90.145 52.481 89.969C85.699 89.785 97.25 91.285 114.281 92.234C131.512 93.191 188.286 93.858 198.428 90.711V1.40298C198.428 1.40298 168.833 4.25998 151.174 3.84898C132.196 3.41398 101.35 2.09898 88.056 1.40298C74.762 0.706984 34.621 -2.52901 -0.00299072 4.10799" fill="#00703C"/>
<path fill-rule="evenodd" clip-rule="evenodd" d="M139.889 19.277C140.958 19.764 141.607 21.192 140.771 23.047C139.915 24.937 138.411 25.38 137.345 24.898C136.259 24.398 135.608 22.979 136.463 21.108C137.318 19.237 138.81 18.782 139.889 19.277Z" fill="white"/>
<path fill-rule="evenodd" clip-rule="evenodd" d="M176.793 19.277C177.855 19.764 178.516 21.192 177.674 23.047C176.818 24.937 175.32 25.38 174.248 24.898C173.179 24.398 172.526 22.979 173.37 21.108C174.214 19.237 175.73 18.782 176.793 19.277Z" fill="white"/>
<path fill-rule="evenodd" clip-rule="evenodd" d="M19.159 64.361C19.159 65.174 19.388 65.346 20.134 65.346C21.5191 65.3081 22.8985 65.1518 24.257 64.879C24.201 63.723 24.085 61.829 24.085 57.791V47.245C25.631 49.204 45.159 69.698 48.485 73.096C49.859 74.524 50.721 74.939 52.085 74.939C53.4196 74.9882 54.7493 74.7516 55.985 74.245V74.125C51.525 70.216 32.962 50.703 29.285 46.264C33.3 42.116 40.563 34.681 44.229 30.932C45.429 29.603 45.489 29.032 44.173 28.746C43.306 28.5403 42.4199 28.4253 41.529 28.403C36.441 33.88 28.829 41.94 24.084 46.723V31.633C24.084 29.093 24.028 28.746 23.224 28.746C21.8043 28.8121 20.39 28.965 18.989 29.204C19.102 30.304 19.158 32.663 19.158 36.524L19.159 64.361Z" fill="white"/>
<path fill-rule="evenodd" clip-rule="evenodd" d="M119.449 30.473C116.986 36.345 112.459 47.657 108.679 57.273L100.325 35.2C98.785 31.279 98.091 29.6 97.353 28.746C95.9169 28.757 94.4897 28.9718 93.114 29.384L93.514 30.704C90.931 43.672 88.245 59.116 87.114 64.828C88.1454 65.2488 89.2599 65.4264 90.371 65.347C90.826 65.347 91.117 65.175 91.292 64.477C92.2 58.717 94.845 44.019 96.043 35.598C99.19 44.37 104.677 59.463 106.404 64.998C107.218 64.9714 108.026 64.8551 108.814 64.651C109.163 64.5338 109.477 64.3296 109.725 64.0575C109.974 63.7854 110.149 63.4545 110.234 63.096C114.185 52.555 118.589 41.249 120.642 35.546L123.342 53.12C124.078 58.357 124.431 60.954 125.001 64.197C125.101 65.05 125.565 65.346 126.201 65.346C127.514 65.3159 128.821 65.1419 130.096 64.827C129.468 62.055 128.721 57.79 127.696 51.74L124.074 30.242C123.914 29.029 123.565 28.742 123.104 28.742C121.82 28.758 120.547 28.9732 119.329 29.38L119.449 30.473Z" fill="white"/>
<path fill-rule="evenodd" clip-rule="evenodd" d="M148.818 63.722L149.56 64.759C152.877 65.2033 156.222 65.3996 159.568 65.346C161.766 65.3997 163.965 65.3209 166.153 65.11C166.803 64.8327 167.367 64.3878 167.789 63.8209C168.211 63.2539 168.474 62.5852 168.553 61.883L168.434 61.764C166.262 62 162.61 62.055 160.023 62.055C157.918 62.1333 155.811 61.9794 153.74 61.596V31.857C153.74 29.093 153.506 28.746 152.862 28.746C151.446 28.7902 150.035 28.9433 148.642 29.204C148.742 30.357 148.817 32.723 148.817 36.58L148.818 63.722Z" fill="white"/>
<path fill-rule="evenodd" clip-rule="evenodd" d="M172.967 64.238C172.967 65.175 173.253 65.347 173.875 65.347C175.282 65.3399 176.685 65.1834 178.059 64.88C177.997 63.723 177.882 61.83 177.882 57.792V31.742C177.882 29.149 177.768 28.742 176.974 28.742C175.569 28.7981 174.17 28.9515 172.786 29.201C172.9 30.238 172.967 32.659 172.967 36.52V64.238Z" fill="white"/>
<path fill-rule="evenodd" clip-rule="evenodd" d="M136.058 64.238C136.058 65.175 136.343 65.347 136.976 65.347C138.38 65.3399 139.779 65.1834 141.15 64.88C141.088 63.723 140.974 61.83 140.974 57.792V31.742C140.974 29.149 140.865 28.742 140.067 28.742C138.665 28.7986 137.268 28.952 135.887 29.201C136 30.238 136.058 32.659 136.058 36.52V64.238Z" fill="white"/>
<path fill-rule="evenodd" clip-rule="evenodd" d="M70.188 29.906C59.461 26.429 50.355 32.247 46.948 42.718C44.433 50.444 46.041 61.804 58.609 65.896C70.048 69.61 78.65 62.777 81.752 53.184C84.895 43.539 80.967 33.416 70.24 29.926L70.188 29.906ZM68.903 32.766C76.135 35.116 79.48 42.989 76.592 51.866C73.387 61.73 66.808 65.288 59.957 63.066C53.476 60.96 49 53.625 52.169 43.876C55.286 34.284 62.037 30.534 68.846 32.752L68.903 32.766Z" fill="white"/>
<path fill-rule="evenodd" clip-rule="evenodd" d="M73.839 53.292C72.7045 55.3797 71.1664 57.221 69.314 58.709C67.176 60.428 66.482 58.856 68.546 57.042C70.2749 55.5061 71.727 53.6846 72.839 51.657C74.9259 48.027 75.7245 43.7981 75.105 39.657C76.758 43.446 76.427 48.623 73.839 53.294" fill="white"/>
<g clip-path="url(#clip1_275_480)">
<mask id="mask0_275_480" style="mask-type:alpha" maskUnits="userSpaceOnUse" x="9" y="9" width="180" height="75">
<path d="M9 12.5C24.4 9.8 39.7 9 52.9 9C53.4 9 53.9 9 54.4 9C64.6 9 73.5 9.5 80.3 10C80.5 10.4 80.7 10.8 81 11.3C74.2 10.9 65.1 10.3 54.5 10.3C41.4 10.2 26.1 10.8 10.7 13.4L10.2 13.5V82.2L11 82C18.4 80.8 31.7 79.3 52.2 79.2C85.6 79 97.2 80.5 114.3 81.5C130 82.4 171.8 82.9 187.1 81L187.7 80.9V12.2L187 12.3C178.5 13.1 163.1 14.4 150.8 14.1C140.9 13.9 127.8 13.4 115.6 12.9C115.9 12.5 116.2 12.1 116.5 11.7C128.4 12.2 141.1 12.6 150.8 12.8C164.1 13.1 181 11.6 188.9 10.8V81.9C175 84.1 130.5 83.6 114.3 82.7C97.2 81.7 85.6 80.2 52.3 80.4C29.7 80.5 15.9 82.4 9.1 83.6V12.5" fill="black"/>
</mask>
<g mask="url(#mask0_275_480)">
<path d="M189.171 9.03796H9.31897V84.164H189.171V9.03796Z" fill="url(#paint0_linear_275_480)"/>
</g>
</g>
<g clip-path="url(#clip2_275_480)">
<path fill-rule="evenodd" clip-rule="evenodd" d="M83.5172 10.2693H83.818H87.9285H88.2292C88.2543 10.2821 88.2825 10.2948 88.3125 10.3084C88.5222 10.4032 88.8182 10.5371 88.7305 10.9834C88.7305 11.3914 88.3295 11.4934 88.2292 11.4934H87.9285C87.1264 11.4934 87.0262 11.5954 87.0262 12.2074V16.8997C87.0262 17.4993 87.1224 17.5115 87.8804 17.6076C87.8961 17.6096 87.9121 17.6117 87.9285 17.6137H88.2292C88.3295 17.6137 88.7305 17.8178 88.7305 18.2258C88.7305 18.7358 88.3295 18.8378 88.2292 18.8378H87.9285H83.818H83.417C83.3987 18.8193 83.3706 18.7974 83.3373 18.7714C83.2075 18.6705 83 18.509 83 18.2507C83 18.2108 83.005 18.1685 83.016 18.1238C83.016 17.7158 83.417 17.6137 83.5172 17.6137H83.818C84.7203 17.6137 84.7203 17.5117 84.7203 16.8997V12.2074C84.7203 11.5954 84.7203 11.4934 83.818 11.4934H83.417C83.3962 11.4723 83.3625 11.4511 83.3231 11.4264C83.193 11.3447 83 11.2236 83 10.9329C83 10.8863 83.005 10.8353 83.016 10.7794C83.016 10.3713 83.417 10.2693 83.5172 10.2693ZM101.663 22H103.969L104.07 21.694L105.674 16.0837L106.776 12.6155L107.178 11.4934L107.278 11.1874C107.378 10.9834 107.278 10.8814 107.278 10.8814C107.278 10.6773 107.178 10.4733 106.977 10.3713C106.877 10.2693 106.776 10.2693 106.676 10.2693H106.275L101.864 10.1673C101.826 10.1284 101.802 10.0894 101.782 10.0561C101.749 10.0023 101.725 9.96331 101.663 9.96331C101.563 9.8613 101.363 9.7593 101.162 9.7593C100.962 9.7593 100.661 10.0653 100.661 10.1673L100.46 10.5753C100.36 10.7794 100.059 11.3914 99.8589 11.9014L99.5581 12.7175L99.4578 13.0235V13.3295C99.4578 13.5335 99.6584 13.9415 100.16 13.9415C100.36 13.9415 100.561 13.7375 100.561 13.6355L100.661 13.4315C101.262 12.4114 101.463 12.3094 102.766 12.3094H104.07H104.872H105.373C101.663 21.694 101.663 22 101.663 22ZM112.108 7C110.366 6.99999 108.681 8.39655 108.681 10.2693C108.681 11.6974 109.483 12.6155 110.386 13.3295C109.383 14.0435 108.581 15.1656 108.581 16.5937C108.581 18.6338 110.486 19.9599 112.19 19.9599C114.296 19.9599 116 18.4298 116 16.1857C116 14.5536 115.198 13.5335 114.095 12.8195C114.997 12.2074 115.9 11.1874 115.9 9.96331C115.9 7.92319 113.794 7.00514 112.291 7.00514C112.23 7.0017 112.169 7 112.108 7ZM94.4632 7C92.7214 6.99999 91.0364 8.39655 91.0364 10.2693C91.0364 11.6974 91.8384 12.6155 92.7407 13.3295C91.7382 14.0435 90.9361 15.1656 90.9361 16.5937C90.9361 18.6338 92.841 19.9599 94.5453 19.9599C96.6507 19.9599 98.355 18.4298 98.355 16.1857C98.355 14.5536 97.553 13.5335 96.4502 12.8195C97.3525 12.2074 98.2548 11.1874 98.2548 9.96331C98.2548 7.92319 96.1494 7.00514 94.6456 7.00514C94.5848 7.0017 94.5239 7 94.4632 7ZM94.1443 14.1455C93.4425 14.6556 92.9412 15.7776 92.9412 16.6957C92.9412 17.8178 93.5428 18.6338 94.6456 18.7358C95.7484 18.7358 96.4502 17.9198 96.4502 16.7977C96.4502 15.6756 95.2471 14.5536 94.1443 14.1455ZM94.6456 8.1272C93.7433 8.1272 93.0415 8.73924 93.0415 9.65729C93.0415 10.6773 93.9438 11.4934 95.0466 12.0034C95.6481 11.4934 96.2497 10.4733 96.2497 9.7593C96.2497 8.84124 95.5479 8.1272 94.6456 8.1272ZM111.789 14.1455C111.087 14.6556 110.586 15.7776 110.586 16.6957C110.586 17.8178 111.188 18.6338 112.291 18.7358C113.393 18.7358 114.095 17.9198 114.095 16.7977C114.095 15.6756 112.892 14.5536 111.789 14.1455ZM112.291 8.1272C111.288 8.1272 110.686 8.73924 110.686 9.65729C110.686 10.6773 111.589 11.4934 112.692 12.0034C113.293 11.4934 113.895 10.4733 113.895 9.7593C113.895 8.84124 113.193 8.1272 112.291 8.1272Z" fill="url(#paint1_linear_275_480)"/>
</g>
</g>
<defs>
<linearGradient id="paint0_linear_275_480" x1="8.99997" y1="8.99997" x2="187.5" y2="8.99997" gradientUnits="userSpaceOnUse">
<stop offset="0.006" stop-color="#EBC17D"/>
<stop offset="0.0061" stop-color="#EBC17D"/>
<stop offset="0.154" stop-color="#ECCC86"/>
<stop offset="0.185" stop-color="#EDD089"/>
<stop offset="0.41" stop-color="#F4E8D9"/>
<stop offset="0.908" stop-color="#E1B16E"/>
<stop offset="0.949" stop-color="#EABE81"/>
<stop offset="1" stop-color="#EABE81"/>
</linearGradient>
<linearGradient id="paint1_linear_275_480" x1="83" y1="15" x2="116" y2="15" gradientUnits="userSpaceOnUse">
<stop offset="0.006" stop-color="#EBC17D"/>
<stop offset="0.154" stop-color="#ECCC86"/>
<stop offset="0.1875" stop-color="#EDD089"/>
<stop offset="0.41" stop-color="#F4E8D9"/>
<stop offset="0.478" stop-color="#E7CFAE"/>
<stop offset="0.599" stop-color="#D2A666"/>
<stop offset="0.686" stop-color="#C58C3A"/>
<stop offset="0.73" stop-color="#C08329"/>
<stop offset="0.789" stop-color="#C98F3C"/>
<stop offset="0.908" stop-color="#E1B16E"/>
<stop offset="0.949" stop-color="#EABE81"/>
<stop offset="1" stop-color="#EABE81"/>
</linearGradient>
<clipPath id="clip0_275_480">
<rect width="198.427" height="94.045" fill="white"/>
</clipPath>
<clipPath id="clip1_275_480">
<rect width="179.9" height="74.6" fill="white" transform="translate(9 9)"/>
</clipPath>
<clipPath id="clip2_275_480">
<rect width="33" height="15" fill="white" transform="translate(83 7)"/>
</clipPath>
</defs>
</svg>
