<?xml version="1.0" encoding="UTF-8"?> <svg xmlns="http://www.w3.org/2000/svg" xmlns:xlink="http://www.w3.org/1999/xlink" version="1.1" id="katman_1" x="0px" y="0px" viewBox="0 0 256 33.83" style="enable-background:new 0 0 256 33.83;" xml:space="preserve"> <style type="text/css"> .st0{fill:#37131B;} </style> <path class="st0" d="M0.32,16.92c0-10,7.86-17.36,17.51-17.36c6.27,0,10.85,2.44,13.78,6.82l-3.98,2.99 c-2.09-3.09-4.98-4.98-9.9-4.98c-6.92,0-11.89,5.38-11.89,12.54c0,7.16,4.93,12.59,11.94,12.59c5.87,0,9.01-2.74,10.2-6.02h-9.55 v-4.73h15.72c-0.2,9.75-6.47,15.52-16.32,15.52C8.19,34.28,0.32,26.92,0.32,16.92"></path> <path class="st0" d="M50.09,33.83h-5.38L59.54-0.7h0.3l14.88,34.53h-5.62l-1.94-4.73H52.03L50.09,33.83z M59.64,10.99l-5.62,13.38 h11.14C65.21,24.38,59.64,10.99,59.64,10.99"></path> <path class="st0" d="M89.8,0h11.34c6.96,0,12.29,3.28,12.29,10.75c0,5.03-2.74,8.26-6.87,9.7l7.96,13.38h-6.02l-7.31-12.54h-6.12 v12.54H89.8V0z M100.94,16.87c4.48,0,7.07-1.84,7.07-6.12c0-4.38-2.64-6.12-7.07-6.12h-5.87v12.24H100.94z"></path> <rect x="130.16" class="st0" width="5.33" height="33.83"></rect> <path class="st0" d="M154.84,24.93c1.54,2.99,4.18,4.58,7.66,4.58c3.58,0,5.97-1.69,5.97-4.43c0-3.18-2.39-4.28-5.37-5.62 l-2.34-1.04c-4.97-2.19-8.36-4.78-8.36-10.05c0-5.17,3.83-8.81,9.4-8.81c4.33,0,7.51,1.74,9.65,5.32l-4.03,2.64 c-1.3-2.19-2.99-3.28-5.52-3.28c-2.74,0-4.33,1.59-4.33,3.93c0,2.69,1.64,3.73,5.32,5.37l2.34,1.04c5.12,2.29,8.51,4.63,8.51,10.35 c0,6.22-4.77,9.35-11.19,9.35c-5.72,0-9.9-2.79-12.19-7.12L154.84,24.93z"></path> <path class="st0" d="M191.56,33.83h-5.38L201.01-0.7h0.3l14.88,34.53h-5.62l-1.94-4.73H193.5L191.56,33.83z M201.12,10.99 l-5.62,13.38h11.14C206.69,24.38,201.12,10.99,201.12,10.99"></path> <path class="st0" d="M231.27,0h11.34c6.96,0,12.29,3.28,12.29,10.75c0,5.03-2.74,8.26-6.87,9.7L256,33.83h-6.02l-7.31-12.54h-6.12 v12.54h-5.27V0z M242.42,16.87c4.48,0,7.06-1.84,7.06-6.12c0-4.38-2.64-6.12-7.06-6.12h-5.87v12.24H242.42z"></path> </svg> 