<svg xmlns="http://www.w3.org/2000/svg" id="Layer_2" data-name="Layer 2" viewBox="0 0 146.88 146.35"><defs><style>      .cls-1 {        fill: #fff;      }    </style></defs><g id="Layer_2-2" data-name="Layer 2"><g id="Layer_1-2" data-name="Layer 1-2"><g><path class="cls-1" d="M130.21,71.46c-7.47-5.2-13.4-5.65-21.62-8.18-5.86-1.8-9.76-6.46-9.91-12.65-.14-5.35,2.64-13.81,8.89-14.43,10.43-1.03,18.19,8.26,16.92,18.36-.2,1.6-1.29,3.31-1.42,4.94.88.85,1.85-2.98,1.95-3.45,4.39-19.53-24.67-29.52-31.94-10.31-2.58,6.82-1.34,14.14,4.27,18.92,7.04,6,15.54,5.4,23.55,8.88,15.17,6.61,19.93,21.34,18.26,36.99-1.54,14.47-12.61,32.17-28.35,33.51-4.87.42-10.65-.69-14.9-3.12-2.72-1.56-5.92-5.62-4.98-8.94.73-2.59,5.21-5.52,7.06-7.47,2.84-2.99,4.66-6.77,4.65-10.97-.42-.11-.48.17-.72.36-1.14.88-2.33,2.09-3.52,2.96-3.76,2.76-9.35,4.98-9.9,10.28-.31,3,.4,5.61.93,8.5l-2.53-2.39c-1.58-1.84-4.17-6.29-4.44-8.66-.15-1.39.03-3.52.6-4.81.26-.58,2.02-3.21,2.53-3.36.06-.02.16,0,.24,0,.5.52,1.26.46,1.92.48,2.01.05,3.47-.59,5.03-1.82,2.32-1.83,4.72-6.38,1.54-8.47-3.4-2.23-8.48,1.18-9.69,4.52-.47,1.3-.61,1.76-.47,3.23.03.28.21.54.33.79.03.11.06.22.09.32v.06c-.07.45-1.48,1.83-1.88,2.44-.71,1.12-1.17,2.41-1.68,3.61l-.48-.6c0-.08.01-.16,0-.24-.58-4.15-1.89-7.61-.42-11.83,1.1-3.14,3.28-3.54,5.94-4.75,1.29-.58,2.72-.96,3.93-1.72,3.51-2.2,5.71-7.03,6.17-11.01l.16-1.3c-.02.43-.13.97-.16,1.3l.48-2.4c-.47-.13-.51.21-.66.41-.02.02-.04.05-.06.07-6.75,5.96-10.82,5.87-15.38,14.89-.69,1.37-1.55,2.77-1.92,4.31h-.01c-.31.02-.38-.66-.47-.95-1.36-4.12-1.7-8.54-3.8-12.42-3.17-5.87-9.87-7.59-15.35-10.6-.48-.26-.97-1.07-1.51-.65,2.16,4.95,5.05,9.63,9.39,12.96,3.32,2.55,7.5,3.69,8.95,8.11,1.16,3.54,1.41,7.8,2.09,11.48-.38.09-.49-.13-.73-.35-5.12-4.82-7.09-6.38-14.12-8.23-2-.53-4.51-.77-6.3-1.51-.52-.21-1.06-.97-1.92-.72.11.38.53.65.72.96.19.3.29.66.48.96.33.53.6.93.96,1.44,2.58,3.63,5.52,6.66,10.24,7.18,2.99.33,6.74-.59,9.35,1.46,2.55,2,2.59,5.78,3.85,8.65.27.62,1.94,3.41,1.8,3.61-.76-.43-1.58-.37-2.4-.48-.45,0-.82.03-1.06.05-.6.05-.95.11-1.54.08-.28,0-.51-.04-.77-.13-1.03-.37-1.01-1.13-1.69-1.8-3.03-2.98-10.54-1.53-12.38,2.28-1.38,2.88.21,5.04,3.05,5.85,4.21,1.19,9.3-.63,10.53-5.12.53-.13.99-.16,1.31-.15.45,0,.8.07,1.02.11.42.08.77.19,1.04.28,4.18,2.17,5.56,3.38,9.02,6.47,2.62,2.34,3.84,3.55,7.08,5.3,6.3,3.4,11.55,4.28,18.58,2.91.06,0,.12-.02.16-.03,33.91-6.74,45.05-54.08,16.04-74.29l-.02.04ZM110.66,146.01c-.08.02-.17,0-.27,0h.29-.02s0,0,0,0Z"></path><path class="cls-1" d="M7.57.02v35.76c.8-.68,1.47-1.74,2.07-2.61C17.07,22.39,23.94,11.2,31.32.38c.48-.56,1.27-.32,1.93-.35l-5.65,8.86c-3.73,5.21-7.14,10.63-10.67,15.97-.72,1.09-4.05,5.22-4.01,6.2l21.78,72.4h-7.32L7.57,39.38v64.08H.37V.02h7.2Z"></path><g><path class="cls-1" d="M83.86,35.07v56.04c0,.45-.5,2.12-.66,2.7-.93,3.38-2.86,6.16-5.7,8.22-.13-1.71-1.63-4.17-1.78-5.67s.75-3.86.72-5.48v-55.81h7.43-.01Z"></path><path class="cls-1" d="M55.54,35.07v56.76c0,6.1,9.15,13.45,15.07,11.23.51-.19,1.52-.99,1.65-1.01.25-.03,1.88,1.74,1.76,1.9-6.92,2.58-14.62-.6-18.13-6.95-.67-1.22-1.79-3.83-1.79-5.17v-56.76s1.44,0,1.44,0Z"></path></g><g><path class="cls-1" d="M47.77,35.78v67.68h-7.2V35.78c2.07,1.82,5.06,1.52,7.2,0Z"></path><path class="cls-1" d="M42.9,25.76c3.33-.76,5.24,1.29,4.57,4.57-.4,1.96-2.88,2.43-4.57,2.04-2.78-.64-2.66-6.01,0-6.62h0Z"></path></g><g><path class="cls-1" d="M5.31,111.34c0-.18,0-.33-.01-.44,0-.11-.03-.2-.05-.26-.03-.06-.07-.11-.12-.14-.05-.03-.13-.06-.22-.09-.04-.01-.09-.02-.15-.02h-.16c-.05,0-.07-.02-.07-.05,0-.05.05-.07.14-.07h1.89c.1,0,.14.02.14.07,0,.04-.02.05-.07.05h-.09s-.08.01-.13.02c-.12.02-.2.08-.25.16s-.07.2-.09.36c-.01.14-.02.29-.02.43v1.75c0,.06,0,.1-.01.13,0,.03-.02.05-.04.07-.02.01-.04.03-.06.04-.14.08-.3.14-.47.19-.17.05-.34.09-.51.13-.17.03-.34.06-.49.07s-.3.02-.44.02c-.17,0-.38,0-.61-.03-.23-.02-.48-.06-.75-.13s-.54-.16-.81-.29-.53-.3-.79-.52c-.14-.12-.27-.27-.4-.44-.13-.18-.24-.37-.34-.59-.1-.22-.18-.46-.24-.71-.06-.26-.09-.53-.09-.81,0-.36.04-.69.12-1,.08-.31.19-.58.33-.83s.3-.47.48-.66.37-.35.57-.47c.2-.13.41-.23.62-.3.21-.08.42-.13.62-.17s.4-.06.6-.08c.19-.01.38-.02.55-.02.14,0,.29,0,.43.02s.28.03.4.04c.13.02.24.04.33.05s.16.03.21.04c.1.02.21.04.35.06.14.01.26.03.38.03.05,0,.08.02.09.03s.02.03.02.05v.12c0,.05-.01.13-.02.22,0,.1-.02.22-.02.37v.56c0,.07,0,.12-.02.15-.01.03-.03.04-.06.04s-.05-.04-.06-.13c0-.07-.02-.15-.05-.27-.03-.11-.07-.22-.14-.33-.05-.08-.14-.17-.26-.26-.12-.09-.27-.17-.44-.23-.18-.07-.38-.12-.62-.17-.24-.04-.5-.07-.79-.07-.14,0-.29,0-.44.02-.15.01-.31.04-.47.08s-.33.1-.5.18-.34.19-.51.32c-.26.21-.48.51-.64.9s-.25.85-.25,1.38c0,.32.03.61.1.88s.15.51.25.72.2.39.31.54c.11.15.2.26.28.34.36.35.74.59,1.14.74s.8.22,1.22.22h.26c.1,0,.19-.02.28-.03.09-.02.18-.04.27-.06.08-.02.16-.05.22-.09.12-.07.18-.17.18-.31v-1.53h0Z"></path><path class="cls-1" d="M10.85,109.44v-1.71c0-.08,0-.16-.01-.23-.01-.16-.04-.27-.09-.35s-.15-.13-.3-.16c-.04-.01-.09-.02-.15-.02h-.16c-.05,0-.07-.02-.07-.05,0-.05.05-.07.14-.07h.64l.37.02h2.06c.17-.01.3-.03.39-.04.02,0,.04-.02.06-.03s.04-.02.06-.02.04.03.04.08c0,.03,0,.08-.03.14s-.03.16-.04.28v.12c0,.06,0,.11-.01.18,0,.06-.01.12-.01.18s0,.1-.01.12c0,.02-.01.05-.02.07,0,.02-.02.03-.04.03-.05,0-.07-.04-.07-.12v-.14c0-.07-.02-.13-.04-.18-.03-.07-.08-.13-.16-.18s-.24-.09-.48-.12c-.04,0-.12,0-.24-.01h-1s-.05.03-.05.09v2.48c0,.06.02.09.05.09h1.13c.14,0,.24,0,.3-.01.11-.01.19-.02.26-.04s.12-.04.16-.09c.07-.08.11-.12.13-.12.03,0,.04.02.04.07,0,.03,0,.08-.03.16-.02.08-.03.19-.04.34,0,.05-.01.1-.01.16v.17c-.01.06-.02.11-.02.15v.2s-.02.06-.05.06c-.04,0-.06-.03-.06-.08v-.14s-.01-.1-.03-.16c-.02-.07-.06-.13-.12-.19-.06-.06-.18-.1-.35-.12-.06,0-.15-.01-.28-.02-.13,0-.26-.01-.4-.01h-.61s-.06.02-.06.06v2.33c0,.16.02.28.05.38s.08.17.15.22.18.09.31.11c.13.02.31.03.53.03.12,0,.26,0,.43-.01.17,0,.31-.04.43-.09s.21-.12.27-.22.1-.24.13-.43c.02-.09.04-.13.08-.13.03,0,.05.01.05.04v.09s0,.06-.01.14c0,.07-.02.16-.03.25-.01.09-.02.18-.04.27s-.02.16-.04.21c-.02.06-.04.1-.05.13s-.04.05-.08.07c-.04.01-.08.02-.13.03h-1.1c-.25,0-.46-.01-.63-.02-.17-.01-.32-.02-.43-.02h-1.15c-.1,0-.14-.02-.14-.07,0-.04.02-.05.07-.05h.13c.05,0,.09-.02.13-.03.09-.02.15-.07.18-.16.03-.09.06-.2.08-.33.02-.19.04-.46.04-.79v-2.73l-.02-.06Z"></path><path class="cls-1" d="M25.08,112.47c0,.08.02.17.04.27s.04.19.08.28c.03.09.08.17.14.25s.14.13.23.16c.13.04.25.07.35.07h.23s.07.01.07.04-.02.05-.05.06c-.04.01-.08.02-.13.02h-.27c-.13,0-.28,0-.43-.01s-.31-.01-.45-.02c-.15,0-.26-.01-.35-.02-.1-.01-.17-.02-.2-.04-.03-.01-.05-.03-.05-.05,0-.04.02-.06.06-.06.02,0,.04-.04.04-.1v-.22l-.43-4.63h-.03l-2.2,4.67c-.1.2-.16.33-.19.39s-.07.09-.11.09c-.03,0-.06-.03-.1-.08-.04-.06-.1-.17-.18-.33-.06-.11-.15-.27-.26-.5s-.22-.45-.34-.68c-.11-.23-.22-.43-.31-.61s-.14-.28-.15-.3-.05-.1-.11-.22c-.06-.13-.13-.28-.22-.45-.08-.18-.17-.37-.27-.57-.09-.2-.18-.39-.26-.57s-.16-.34-.22-.47c-.06-.13-.1-.22-.12-.26h-.04l-.36,4.17v.45c0,.07.02.13.07.18.04.05.1.09.17.1.08.02.15.03.21.04h.13s.07.01.07.04c0,.05-.05.08-.16.08h-1.6c-.1,0-.15-.03-.15-.08,0-.03.03-.04.09-.04h.11s.09,0,.16-.02c.15-.03.24-.12.28-.26.04-.15.06-.31.08-.48l.65-5.86c.01-.11.04-.16.1-.16.05,0,.09.04.13.13l2.75,5.65,2.64-5.64c.04-.1.09-.14.13-.14.05,0,.09.08.11.24l.6,5.51.02-.02Z"></path><path class="cls-1" d="M30.64,111.04c0,.66.01,1.15.04,1.46s.08.51.16.59c.04.04.08.07.13.09.05.03.12.05.2.06.08.01.18.03.31.04s.27.01.44.01c.24,0,.45-.01.64-.04.19-.02.34-.1.44-.23.06-.07.11-.16.15-.26s.07-.19.08-.28c0-.08.04-.12.08-.12s.05.04.05.13v.14c0,.07-.02.15-.03.24s-.03.18-.04.27c0,.09-.03.17-.05.24-.02.05-.03.1-.05.13s-.04.05-.08.07-.09.03-.16.04-.16,0-.28,0h-.84c-.24,0-.46-.01-.65-.02-.19-.01-.36-.02-.5-.02h-.78c-.09,0-.18.01-.27.01h-.24c-.1,0-.14-.02-.14-.07,0-.04.02-.05.07-.05h.13s.09-.02.13-.03c.09-.02.15-.07.18-.16.03-.09.06-.2.08-.33.02-.19.04-.46.04-.79v-4.44c0-.08,0-.16-.01-.23-.01-.16-.04-.27-.09-.35s-.15-.13-.3-.16c-.04-.01-.09-.02-.15-.02h-.16s-.07-.02-.07-.05c0-.05.05-.07.14-.07h1.98c.1,0,.14.02.14.07,0,.04-.02.05-.07.05h-.13c-.06,0-.11,0-.17.02-.13.02-.22.08-.27.16-.04.08-.07.2-.08.36,0,.07-.01.15-.01.23v3.31h0Z"></path><path class="cls-1" d="M38.03,111.02v1.15c0,.34.02.6.04.79,0,.13.04.24.08.33.04.09.13.14.27.16.07.01.14.02.22.03h.18s.07.02.07.05c0,.05-.05.07-.14.07h-1.99c-.1,0-.14-.02-.14-.07,0-.04.02-.05.07-.05h.13s.09-.02.13-.03c.09-.02.15-.07.18-.16.03-.09.06-.2.08-.33.02-.19.04-.46.04-.79v-4.44c0-.08,0-.16,0-.23-.02-.29-.12-.46-.31-.5-.05-.01-.1-.02-.15-.03s-.1,0-.13,0c-.05,0-.07-.02-.07-.05,0-.05.05-.07.14-.07h1.79c.1,0,.14.02.14.07,0,.04-.02.05-.07.05h-.09s-.08,0-.13.02c-.12.02-.2.08-.25.16-.04.08-.07.2-.08.36,0,.07,0,.15,0,.23v3.29h0ZM37.3,105.99c-.07-.1-.11-.2-.11-.31s.04-.21.11-.31.19-.16.35-.16c.13,0,.24.04.33.12s.13.19.13.32-.04.25-.13.35-.2.14-.34.14c-.16,0-.28-.05-.35-.15h0Z"></path><path class="cls-1" d="M43.29,109.44v-1.71c0-.08,0-.16,0-.23,0-.16-.04-.27-.09-.35s-.15-.13-.3-.16c-.04-.01-.09-.02-.15-.02h-.16s-.07-.02-.07-.05c0-.05.05-.07.14-.07h1.86c.1,0,.14.02.14.07,0,.04-.02.05-.07.05h-.09s-.08,0-.13.02c-.12.02-.2.08-.25.16-.04.08-.07.2-.09.36,0,.07,0,.15,0,.23v2.25h.04l.18-.2c.1-.1.22-.22.35-.36s.29-.29.45-.46c.16-.16.32-.32.46-.47.15-.15.28-.29.4-.41.12-.12.2-.21.26-.27.13-.13.24-.25.34-.36s.15-.21.15-.28c0-.1-.04-.16-.12-.19-.05-.02-.08-.05-.08-.07,0-.04.04-.06.11-.06.09,0,.2,0,.32.01.13,0,.24.01.35.01h.64c.09-.01.17-.01.22-.01.09,0,.13.02.13.06s-.03.06-.09.06c-.15,0-.32.04-.5.13-.09.04-.17.09-.25.13s-.15.1-.22.17c-.07.06-.15.13-.23.21-.08.08-.17.17-.27.26-.04.04-.11.1-.21.21-.1.1-.22.22-.36.35s-.28.27-.43.42-.3.29-.43.43-.25.25-.35.35-.16.17-.19.21c.04.04.12.12.24.25.12.13.26.27.43.44.16.17.34.35.52.54s.36.37.53.54.32.33.46.46c.13.14.23.23.29.29.19.17.34.32.46.43s.23.21.33.28c.1.07.18.13.26.18.08.05.18.09.28.13.12.05.23.08.35.09s.18.02.21.02c.08,0,.12.02.12.05,0,.02,0,.04-.04.05-.03.01-.08.02-.16.02h-.79c-.09,0-.19,0-.29-.02-.12-.01-.23-.03-.32-.06s-.18-.07-.26-.11c-.08-.04-.16-.1-.24-.16-.08-.06-.17-.13-.27-.21-.07-.05-.17-.15-.31-.29-.14-.14-.3-.3-.48-.49-.18-.19-.36-.39-.56-.6s-.39-.42-.57-.62c-.18-.2-.35-.38-.49-.54-.14-.16-.25-.29-.32-.38h-.04v2.03c0,.34.02.6.04.79,0,.13.04.24.08.33.04.09.13.14.27.16.07.01.13.02.19.03s.12,0,.16,0c.05,0,.07.02.07.05,0,.05-.05.07-.14.07h-1.91c-.1,0-.14-.02-.14-.07,0-.04.02-.05.07-.05h.13s.09-.02.13-.03c.09-.02.15-.07.18-.16.03-.09.06-.2.08-.33.02-.19.04-.46.04-.79v-2.73h.02Z"></path></g></g></g></g></svg>