<svg xmlns="http://www.w3.org/2000/svg" viewBox="0 0 280 60" fill="none">
  <!-- Olive branch icon -->
  <g transform="translate(0, 4)">
    <!-- Main branch -->
    <path d="M8 42 C12 36, 18 28, 28 22 C32 19, 36 16, 42 14" stroke="#6B8F5E" stroke-width="2.5" stroke-linecap="round" fill="none"/>
    <!-- Leaves -->
    <ellipse cx="18" cy="28" rx="7" ry="3.5" transform="rotate(-35 18 28)" fill="#8FB573"/>
    <ellipse cx="18" cy="28" rx="7" ry="3.5" transform="rotate(-35 18 28)" fill="none" stroke="#6B8F5E" stroke-width="0.5" opacity="0.5"/>
    <ellipse cx="28" cy="20" rx="7" ry="3.5" transform="rotate(-25 28 20)" fill="#6B8F5E"/>
    <ellipse cx="14" cy="36" rx="6" ry="3" transform="rotate(-45 14 36)" fill="#8FB573"/>
    <ellipse cx="36" cy="14" rx="6" ry="3" transform="rotate(-15 36 14)" fill="#8FB573"/>
    <ellipse cx="24" cy="32" rx="5" ry="2.8" transform="rotate(25 24 32)" fill="#6B8F5E"/>
    <ellipse cx="34" cy="24" rx="5" ry="2.8" transform="rotate(20 34 24)" fill="#8FB573" opacity="0.8"/>
    <!-- Olives -->
    <ellipse cx="42" cy="10" rx="5" ry="6.5" transform="rotate(-10 42 10)" fill="#4A6741"/>
    <ellipse cx="42" cy="9" rx="2.5" ry="3.5" transform="rotate(-10 42 9)" fill="#6B8F5E" opacity="0.4"/>
    <ellipse cx="10" cy="42" rx="4.5" ry="5.5" transform="rotate(10 10 42)" fill="#4A6741"/>
    <ellipse cx="10" cy="41" rx="2" ry="3" transform="rotate(10 10 41)" fill="#6B8F5E" opacity="0.4"/>
    <!-- Oil drop -->
    <path d="M48 30 C48 30, 52 22, 52 18 C52 14.5, 50 12, 48 12 C46 12, 44 14.5, 44 18 C44 22, 48 30, 48 30Z" fill="#C5A55A" opacity="0.9"/>
    <ellipse cx="47.5" cy="17" rx="1.5" ry="2" fill="#E8D5A3" opacity="0.6"/>
  </g>
  <!-- Text -->
  <text x="64" y="40" font-family="Georgia, 'Playfair Display', serif" font-size="30" font-weight="700" fill="#2C3E2D" letter-spacing="-0.5">
    Zeytinyağlarımız
  </text>
</svg>