<svg width="132" height="94" viewBox="0 0 132 94" fill="none" xmlns="http://www.w3.org/2000/svg">
<path fill-rule="evenodd" clip-rule="evenodd" d="M37.377 50.8783L38.7756 49.1681C38.7756 49.1681 38.6611 46.051 40.5818 44.963C42.1246 44.0898 43.3162 45.0688 44.1017 44.8051C44.8873 44.5414 44.9892 43.6082 44.9359 42.5407C44.8826 41.4732 43.8838 37.2223 49.4499 32.1187C53.125 28.7489 61.0225 25.4865 67.0825 22.87C71.5039 20.9656 75.0615 19.2902 75.0615 19.2902C75.0615 19.2902 57.062 30.8539 56.9146 37.1892C56.8284 40.6379 61.057 43.376 70.3468 38.3119C82.0826 31.9071 97.8368 12.7812 97.8368 12.7812C97.8368 12.7812 85.3407 30.4338 74.2086 41.7354C74.2086 41.7354 82.9214 41.3137 96.4069 27.2583C96.4069 27.2583 84.8703 45.7541 65.2888 51.7878C54.1426 55.2239 45.8045 55.5508 40.6727 51.4799C40.1365 51.0567 39.7728 50.5941 39.3134 50.5514C38.854 50.5088 37.3849 50.8783 37.3849 50.8783" fill="white"/>
<path fill-rule="evenodd" clip-rule="evenodd" d="M60.8126 47.5432C62.9606 46.9779 63.9045 46.4031 64.3592 46.2137C64.8139 46.0242 65.0036 47.218 61.0007 50.4693C56.8521 53.8375 49.8686 53.6275 48.0985 53.0906C46.3283 52.5537 44.475 51.5336 44.8529 50.0508C45.2308 48.5681 49.7134 48.7591 50.4378 48.7213C52.4086 48.617 58.4795 48.1575 60.8126 47.5432Z" fill="#373A39"/>
<path fill-rule="evenodd" clip-rule="evenodd" d="M39.964 47.2779C39.964 47.153 40.0008 47.0309 40.0697 46.927C40.1386 46.8231 40.2366 46.7422 40.3512 46.6944C40.4658 46.6466 40.5919 46.6341 40.7135 46.6584C40.8352 46.6828 40.9469 46.743 41.0347 46.8313C41.1224 46.9196 41.1821 47.0322 41.2063 47.1547C41.2305 47.2772 41.2181 47.4042 41.1706 47.5196C41.1231 47.6351 41.0428 47.7337 40.9396 47.8031C40.8365 47.8725 40.7152 47.9096 40.5912 47.9096C40.4249 47.9096 40.2653 47.843 40.1477 47.7246C40.0301 47.6061 39.964 47.4455 39.964 47.2779Z" fill="#373A39"/>
<path d="M47.1214 63.7668C47.2153 63.1858 47.1834 62.5911 47.0278 62.0236C46.8722 61.4562 46.5966 60.9293 46.2199 60.4791C45.4234 59.5475 44.3541 59.058 43.0449 59.0359C42.5902 59.0264 42.1355 59.0248 41.6808 59.0248C41.6808 59.0248 39.5861 59.0359 39.4936 59.0485L39.2286 59.0785V70.0911H41.5146V67.2692C41.5146 67.2692 42.6121 67.2692 42.8442 67.2692L42.9147 67.3087C43.2001 67.7824 44.4293 69.7973 44.4293 69.7973C44.4808 69.8949 44.5582 69.9761 44.6529 70.0319C44.7476 70.0877 44.8559 70.1158 44.9656 70.1132H47.33L45.2509 66.7165C45.7521 66.3879 46.1781 65.9556 46.5006 65.4484C46.8231 64.9412 47.0347 64.3706 47.1214 63.7747V63.7668ZM43.1405 64.9638C42.9069 64.9795 41.6338 64.9732 41.5256 64.9732V61.2971C41.5256 61.2971 42.8944 61.2971 43.1876 61.3303C43.6532 61.355 44.0912 61.5602 44.4099 61.903C44.7286 62.2458 44.9032 62.6995 44.8971 63.169C44.891 63.6385 44.7047 64.0875 44.3773 64.4218C44.0498 64.756 43.6066 64.9497 43.1405 64.9622" fill="white"/>
<path d="M64.5191 62.1577C64.2761 60.6402 63.4874 59.6043 62.1672 59.0816C61.5723 58.8564 60.9345 58.7689 60.3014 58.8258C58.6708 58.9379 57.393 59.9707 56.9665 61.5245C56.8295 62.0465 56.7599 62.5842 56.7596 63.1241C56.7423 64.7032 56.7454 66.2712 56.747 67.8456V70.0879H59.0628V67.3482H62.3083V70.0926H64.5975V67.724C64.5975 66.1902 64.5975 64.6574 64.5975 63.1257C64.5997 62.7996 64.5766 62.4739 64.5285 62.1514L64.5191 62.1577ZM62.324 65.0411H59.0706L59.0973 62.6141C59.101 62.5609 59.1089 62.5081 59.1208 62.4562C59.3278 61.365 60.2074 60.8439 61.2579 61.1929C61.8129 61.3792 62.1343 61.8024 62.2394 62.4862C62.2859 62.8665 62.3079 63.2494 62.3052 63.6326V63.9263C62.313 64.2421 62.3052 64.55 62.3052 64.8737L62.324 65.0411Z" fill="white"/>
<path d="M72.9214 65.1201L66.399 58.3869V70.0911H68.6756V64.0163L75.2011 70.7401V59.039H72.9214V65.1201Z" fill="white"/>
<path d="M30.2902 63.9405C31.3203 62.6299 34.0986 59.0248 34.0986 59.0248C34.0986 59.0248 31.8706 59.0248 31.5774 59.0248C31.4683 59.0222 31.3602 59.0465 31.2626 59.0958C31.165 59.1451 31.0809 59.2178 31.0177 59.3075C30.1021 60.4929 29.1848 61.6777 28.266 62.862L27.7753 63.4937V59.0422H25.5144V70.0864H27.7831C27.7831 70.0864 27.7831 67.8756 27.7831 67.1871C27.7831 67.1572 27.7873 67.1274 27.7957 67.0987C28.1187 66.6803 28.4479 66.2681 28.7787 65.8544L28.7944 65.837C28.7944 65.837 30.5536 68.5578 31.3658 69.8069C31.4125 69.8862 31.4767 69.9538 31.5533 70.0044C31.6299 70.055 31.717 70.0874 31.8079 70.099C32.2187 70.099 34.3166 70.099 34.3166 70.099C34.3166 70.099 31.4849 65.7454 30.2839 63.9405" fill="white"/>
<path d="M50.6509 59.0358H48.3712V70.0879H55.7592V67.8061H50.6509V59.0358Z" fill="white"/>
<path d="M37.3034 59.0327H35.0205V70.0926H37.3034V59.0327Z" fill="white"/>
<path d="M86.2769 63.6958H81.4164V65.9633H84.0097C84.0097 65.9633 84.0097 67.094 83.9846 67.5014C83.1128 67.9763 82.1 68.1182 81.1326 67.9009C80.6611 67.8 80.2173 67.5962 79.8326 67.3037C79.4479 67.0112 79.1316 66.6372 78.9062 66.2081C78.6673 65.7571 78.5294 65.2588 78.5023 64.7484C78.4752 64.2379 78.5596 63.7277 78.7494 63.2536C79.2197 62.063 80.0695 61.3587 81.2784 61.1661C82.4872 60.9734 83.4735 61.4061 84.2433 62.442C84.2745 62.4838 84.3091 62.5229 84.3468 62.5588L84.5302 62.7483L86.0981 61.5624L86.2549 61.3966L86.1859 61.1913L86.1389 61.0887C86.1075 61.0429 86.0746 60.9971 86.0385 60.9497C84.6274 59.1969 82.7946 58.5116 80.6403 58.9364C78.3057 59.3975 76.5778 61.305 76.2392 63.7889C76.1196 64.6006 76.176 65.4288 76.4044 66.2165C76.6329 67.0042 77.0279 67.7328 77.5624 68.3521C78.0969 68.9715 78.7582 69.4669 79.5009 69.8044C80.2436 70.142 81.05 70.3135 81.8648 70.3074C82.2758 70.305 82.6858 70.2686 83.0909 70.1984C84.1577 70.0398 85.156 69.573 85.9648 68.8546C86.0661 68.7677 86.1468 68.659 86.2011 68.5366C86.2553 68.4142 86.2818 68.2812 86.2784 68.1472C86.2784 67.0945 86.2784 66.0449 86.2784 64.9985L86.2769 63.6958Z" fill="white"/>
<path d="M99.8892 66.1387L99.4502 66.7024C98.6177 67.7241 97.6565 68.1062 96.4932 67.871C95.1118 67.5883 94.2417 66.7561 93.9014 65.3965C93.5612 64.0369 93.9344 62.87 95.0099 61.9225C95.5721 61.4287 96.2913 61.1542 97.0372 61.1488C97.6487 61.1488 98.5424 61.3462 99.3154 62.2857L99.7058 62.7595L101.308 61.5672L101.509 61.373L101.322 61.0667C100.72 60.2148 99.8827 59.5601 98.9138 59.1844C97.9449 58.8087 96.8877 58.7285 95.8738 58.9539C93.3307 59.5365 91.5653 61.7204 91.4837 64.3875C91.4006 67.0183 92.9764 69.2827 95.4145 70.0564C95.3564 70.2428 94.9551 71.5708 94.9551 71.5708C94.9551 71.5708 96.523 71.5708 96.7315 71.5708H96.7393C96.8512 71.5765 96.9619 71.5454 97.0547 71.4822C97.1475 71.4189 97.2173 71.327 97.2536 71.2202L97.6346 70.2949C97.6768 70.2812 97.7205 70.2727 97.7647 70.2696C99.3326 70.058 100.562 69.2527 101.528 67.8062L101.684 67.5741L99.8892 66.1387Z" fill="white"/>
<path d="M90.1841 59.0469H87.9043V70.1037H90.1841V59.0469Z" fill="white"/>
</svg>
