<svg width="36" height="36" viewBox="0 0 36 36" fill="none" xmlns="http://www.w3.org/2000/svg">
<path d="M17.3066 25.6166C17.3038 25.6767 17.2458 27.1031 17.9497 28.2857C18.0432 28.4429 18.1907 28.5482 18.3544 28.5921C18.5239 28.6375 18.7109 28.6171 18.8737 28.5202C19.1936 28.3297 19.2986 27.9161 19.1081 27.5962C18.6185 26.7735 18.6523 25.7028 18.6533 25.6779C18.6697 25.3068 18.3829 24.9916 18.0114 24.9747C17.6395 24.9573 17.324 25.2447 17.3066 25.6166Z" fill="#3A4052"/>
<path d="M9.90372 28.3007C9.87503 28.3536 9.20386 29.6135 9.32491 30.9845C9.34096 31.1666 9.42811 31.3255 9.55656 31.4361C9.68965 31.5506 9.86693 31.6133 10.0555 31.5967C10.4265 31.5639 10.7005 31.2368 10.6677 30.8659C10.5837 29.9122 11.0788 28.9623 11.0904 28.9403C11.2662 28.6131 11.1446 28.2046 10.8171 28.0282C10.4898 27.8512 10.0807 27.9732 9.90372 28.3007Z" fill="#3A4052"/>
<path d="M33.2474 11.768C33.1875 11.2655 32.7022 10.9372 31.5725 10.6345C30.4028 10.3211 28.5026 10.0638 26.6776 10.2818C25.4512 10.4282 24.0635 10.8326 22.8704 11.3915C22.3567 11.6321 21.9139 11.8854 21.5901 12.1238C21.4476 12.2287 21.125 12.5204 21.125 12.5204C21.9036 11.7315 22.7533 10.9476 23.6804 10.1814C23.9674 9.94424 24.0077 9.51931 23.7706 9.23236C23.5333 8.94527 23.1085 8.90496 22.8216 9.1422C20.9884 10.6572 19.4531 12.2367 18.1735 13.7719L17.7098 12.9045C17.846 12.4962 17.9119 11.795 17.7513 10.5607C17.5581 9.07557 17.0983 7.4986 16.4898 6.23402C15.1801 3.51204 12.7151 1.06727 11.7558 0.810223C11.4793 0.736133 11.2712 0.79276 11.1455 0.853348C10.8968 0.973085 10.3793 1.22214 10.7166 3.84287C10.8378 4.78349 11.1675 6.62478 12.0155 8.38701C13.2561 10.965 15.5362 13.0042 16.4767 13.4572L17.2576 14.9177C16.9567 15.3107 16.6724 15.6987 16.4045 16.0799C16.3728 16.1162 16.345 16.1562 16.3215 16.1992C15.8386 16.8924 15.4089 17.5619 15.0286 18.1964L14.6263 17.6183C14.7139 17.1969 14.6974 16.4928 14.3936 15.2858C14.0284 13.8334 13.3874 12.3209 12.6354 11.1361C11.0663 8.66408 8.47728 6.60915 7.45329 6.33478C7.16177 6.25666 6.90788 6.28429 6.69899 6.41693C6.46599 6.56488 5.9812 6.87258 6.62241 9.43601C6.85253 10.3562 7.39514 12.1462 8.44317 13.7973C9.97637 16.2127 12.5065 18.0057 13.47 18.3172L14.2889 19.4939C14.1717 19.7109 14.0601 19.9225 13.9556 20.1265C12.8462 22.2931 12.2606 24.0221 11.9963 24.9203C10.8287 24.8678 9.63666 25.2688 8.75636 26.2629C7.93145 27.1944 7.39739 28.4795 7.25259 29.8815C6.97029 32.6116 8.26369 35.0739 10.261 35.6091C10.4219 35.6522 10.5877 35.6828 10.7536 35.6999C11.8807 35.8165 12.9864 35.3331 13.8668 34.339C14.6917 33.4076 15.2259 32.1225 15.3708 30.7205C15.6076 28.4282 14.7334 26.3252 13.2647 25.3926C13.5628 24.3676 14.4089 21.8474 16.2462 18.7959C16.3481 20.5313 16.6541 21.7297 16.8729 22.3903C16.1547 22.8765 15.6377 23.6614 15.3916 24.6619C15.1023 25.8376 15.2236 27.1859 15.7328 28.4586C16.4425 30.2322 17.8145 31.5835 19.3136 31.9852C20.0297 32.1771 20.7472 32.1428 21.3884 31.8862C22.4147 31.4756 23.1502 30.5574 23.4593 29.3005C23.7487 28.1248 23.6275 26.7764 23.1181 25.5038C22.4085 23.7302 21.0364 22.3789 19.5372 21.9772C19.0612 21.8497 18.5848 21.8226 18.1306 21.8937C17.8774 21.0974 17.4732 19.3794 17.5772 16.7583C18.2192 15.8492 18.9469 14.9148 19.7704 13.976L21.3408 13.8558C21.6108 14.0261 22.0509 14.2062 22.7729 14.3998C23.4637 14.5849 25.2787 14.9904 27.2122 14.7594C28.9212 14.5554 30.4425 13.9297 31.1974 13.5751C31.7053 13.3364 32.1728 13.0765 32.5139 12.8436C32.9279 12.5608 33.3032 12.2348 33.2474 11.768ZM13.2303 7.80232C12.3052 5.88006 11.9808 3.63934 11.9544 2.48897C12.8082 3.20299 14.3203 4.83445 15.2749 6.81841C16.2004 8.74175 16.4924 10.8314 16.4955 11.8681C15.6521 11.1949 14.1387 9.69028 13.2303 7.80232ZM9.58142 13.0747C8.43856 11.2743 7.85468 9.0876 7.69373 7.9478C8.62917 8.55576 10.3076 9.98444 11.4971 11.8586C12.64 13.659 13.1741 15.6983 13.299 16.7285C12.3802 16.1544 10.6972 14.8324 9.58142 13.0747ZM21.8665 26.0046C22.272 27.0178 22.3728 28.0738 22.1503 28.9784C21.9477 29.8016 21.4992 30.3897 20.8875 30.6345C20.5135 30.7842 20.1013 30.8005 19.6625 30.683C18.5657 30.3891 17.5396 29.3448 16.9845 27.9579C16.5792 26.9444 16.4783 25.8884 16.7008 24.984C16.9034 24.1607 17.3518 23.5726 17.9638 23.3277C18.3377 23.178 18.7497 23.1618 19.1883 23.2793C20.2853 23.5733 21.3116 24.6176 21.8665 26.0046ZM14.0299 30.5819C13.8024 32.7815 12.3655 34.5111 10.8921 34.3589C10.7971 34.3491 10.7022 34.3316 10.6099 34.3068C9.2679 33.9473 8.38227 32.0644 8.5935 30.0201C8.82085 27.8204 10.2576 26.0907 11.7309 26.2429C11.826 26.2528 11.9209 26.2703 12.0131 26.295C13.3552 26.6546 14.2409 28.5377 14.0299 30.5819ZM27.0525 13.4208C25.3516 13.6239 23.7373 13.2625 23.1221 13.0976C22.9776 13.0589 22.847 13.0203 22.7309 12.9833C23.5369 12.5068 25.1028 11.8276 26.8375 11.6204C28.4724 11.4252 30.1753 11.6559 31.2236 11.9368C31.2722 11.9498 31.3182 11.9627 31.362 11.9753C30.4546 12.4882 28.7594 13.2169 27.0525 13.4208Z" fill="#3A4052"/>
</svg>
