<?xml version="1.0" encoding="utf-8"?>
<!-- Generator: Adobe Illustrator 22.1.0, SVG Export Plug-In . SVG Version: 6.00 Build 0)  -->
<svg version="1.1" id="Layer_1" xmlns="http://www.w3.org/2000/svg" xmlns:xlink="http://www.w3.org/1999/xlink" x="0px" y="0px"
	 viewBox="0 0 90.2 131.4" style="enable-background:new 0 0 90.2 131.4;" xml:space="preserve">
<g>
	<path d="M41.3,22.1c1,1.4,2.3,2.6,3.8,3.4c1.5-0.8,2.8-2,3.8-3.4c2.8-4,3.5-9.9,0.4-16.2c-1-2-2.3-4-4.1-5.9c-1.8,2-3.1,4-4.1,6
		C37.9,12.2,38.5,18.2,41.3,22.1z"/>
	<path d="M30.4,27.1c1.6,0.7,3.3,1.1,5,1.1c0.9-1.4,1.4-3.1,1.5-4.8c0.5-4.8-1.9-10.3-7.8-14.2c-1.8-1.2-4-2.3-6.5-3.1
		c-0.6,2.6-0.7,5-0.6,7.2C22.4,20.2,26,25.1,30.4,27.1z"/>
	<path d="M23.4,36.8c1.7-0.2,3.4-0.7,4.8-1.5c0-1.7-0.4-3.4-1.1-5c-2-4.4-6.8-8-13.8-8.4c-2.2-0.1-4.6,0-7.2,0.6
		C6.9,25,8,27.2,9.2,29C13.1,34.9,18.6,37.3,23.4,36.8z"/>
	<path d="M22.2,48.8c1.4-1,2.6-2.3,3.4-3.8c-0.8-1.5-2-2.8-3.4-3.8c-4-2.8-9.9-3.5-16.2-0.4c-2,1-4,2.3-6,4.1C2,46.7,4,48,6,49
		C12.3,52.2,18.3,51.6,22.2,48.8z"/>
	<path d="M27.2,59.7c0.7-1.6,1.1-3.3,1.1-5c-1.4-0.9-3.1-1.4-4.8-1.5c-4.9-0.5-10.4,1.9-14.3,7.8c-1.2,1.8-2.3,4-3.1,6.5
		c2.6,0.6,5,0.7,7.2,0.6C20.3,67.7,25.2,64.1,27.2,59.7z"/>
	<path d="M36.9,66.7c-0.2-1.7-0.7-3.4-1.5-4.8c-1.7,0-3.4,0.4-5,1.1c-4.4,2-8,6.8-8.4,13.8c-0.1,2.2,0,4.6,0.6,7.2
		c2.5-0.8,4.7-1.9,6.5-3.1C35,77,37.4,71.5,36.9,66.7z"/>
	<path d="M59.8,62.9c-1.6-0.7-3.3-1.1-5-1.1c-0.9,1.4-1.4,3.1-1.5,4.8c-0.5,4.9,1.9,10.4,7.8,14.3c1.8,1.2,4,2.3,6.5,3.1
		c0.6-2.6,0.7-5,0.6-7.2C67.8,69.8,64.2,64.9,59.8,62.9z"/>
	<path d="M66.8,53.2c-1.7,0.2-3.4,0.7-4.8,1.5c0,1.7,0.4,3.4,1.1,5c2,4.4,6.8,8,13.8,8.4c2.2,0.1,4.6,0,7.2-0.6
		C83.3,65,82.2,62.8,81,61C77.1,55.1,71.6,52.7,66.8,53.2z"/>
	<path d="M68,41.2c-1.4,1-2.6,2.3-3.4,3.8c0.8,1.5,2,2.8,3.4,3.8c4,2.8,9.9,3.5,16.2,0.4c2-1,4-2.3,6-4.1c-2-1.8-4-3.1-6-4.1
		C77.9,37.8,71.9,38.4,68,41.2z"/>
	<path d="M63,30.3c-0.7,1.6-1.1,3.3-1.1,5c1.4,0.9,3.1,1.4,4.8,1.5c4.8,0.5,10.3-1.9,14.2-7.8c1.2-1.8,2.3-4,3.1-6.5
		c-2.6-0.6-5-0.7-7.2-0.6C69.9,22.3,65,25.9,63,30.3z"/>
	<path d="M53.3,23.3c0.2,1.7,0.7,3.4,1.5,4.8c1.7,0,3.4-0.4,5-1.1c4.4-2,8-6.8,8.4-13.8c0.1-2.2,0-4.6-0.6-7.2
		c-2.5,0.8-4.7,1.9-6.5,3.1C55.2,13,52.8,18.5,53.3,23.3z"/>
	<path d="M48.9,67.9c-1-1.4-2.3-2.6-3.8-3.4c-1.5,0.8-2.8,2-3.8,3.4c-2.8,4-3.5,9.9-0.4,16.2c1,2,2.3,4,4.1,6c1.8-2,3.1-4,4.1-6
		C52.3,77.8,51.7,71.8,48.9,67.9z"/>
	<g>
		<circle cx="45.1" cy="45" r="15.1"/>
	</g>
</g>
<path d="M53.9,101.7c-4,3-6.5,7.5-7.1,12.4l16.4-12c0.3-0.2,0.6-0.1,0.8,0.1s0.1,0.6-0.1,0.8l-16.4,12c4.9,0.9,9.9-0.2,14-3
	c4.2-3.2,6.8-8,7.2-13.2C63.6,97.7,58.2,98.7,53.9,101.7z"/>
<path d="M27,102.1l16.4,12c-0.6-4.9-3.2-9.4-7.1-12.4c-4.3-3-9.7-4.1-14.8-2.9c0.4,5.2,3.1,10,7.2,13.2c4.1,2.8,9.1,3.9,14,3
	l-16.4-12c-0.3-0.1-0.5-0.5-0.3-0.8c0.1-0.3,0.5-0.5,0.8-0.3C26.9,102,27,102.1,27,102.1z"/>
<path d="M44.1,89.1v41c0,0.7,0.4,1.3,1,1.3s1-0.6,1-1.3v-41"/>
</svg>
