<svg id="Group_6" data-name="Group 6" xmlns="http://www.w3.org/2000/svg" xmlns:xlink="http://www.w3.org/1999/xlink" width="215" height="94.146" viewBox="0 0 215 94.146">
  <defs>
    <clipPath id="clip-path">
      <rect id="Rectangle_7" data-name="Rectangle 7" width="215" height="94.145" fill="none"/>
    </clipPath>
  </defs>
  <g id="Group_3" data-name="Group 3" clip-path="url(#clip-path)">
    <path id="Path_1257" data-name="Path 1257" d="M126.387,78.212a9.009,9.009,0,0,1,3.854,1.192,13.69,13.69,0,0,1,3.218,2.583,13.523,13.523,0,0,1,2.345,3.538,18,18,0,0,1,1.311,3.973,15.833,15.833,0,0,1,.318,3.259,16.689,16.689,0,0,1-1.232,6.359,14.97,14.97,0,0,1-3.7,5.324,12.841,12.841,0,0,1-7.788,3.577,8.45,8.45,0,0,1-4.133-.557,11.9,11.9,0,0,1-3.576-2.225,13.816,13.816,0,0,1-3.935-6.557,19.1,19.1,0,0,1-.675-7.749,17.153,17.153,0,0,1,1.47-5.563,13.42,13.42,0,0,1,2.981-4.173,11.317,11.317,0,0,1,4.252-2.5,12.421,12.421,0,0,1,5.286-.476M124.32,86.08a3.761,3.761,0,0,0-1.868.516,4.36,4.36,0,0,0-1.55,1.55,7.355,7.355,0,0,0-.914,2.544,9.88,9.88,0,0,0,.041,3.417,10.745,10.745,0,0,0,1.033,3.338,3.435,3.435,0,0,0,1.51,1.51,2.511,2.511,0,0,0,2.9-.795,10.141,10.141,0,0,0,2.345-3.736,7.808,7.808,0,0,0,.4-2.623,6.825,6.825,0,0,0-1.152-3.973,3.535,3.535,0,0,0-2.742-1.749" transform="translate(-47.285 -32.906)" fill="#65673b"/>
    <path id="Path_1258" data-name="Path 1258" d="M165.126,50.671a3.4,3.4,0,0,1,1.034-1.877,2.447,2.447,0,0,1,1.589-.589,2.921,2.921,0,0,1,2.265,1.18,3.864,3.864,0,0,1,.6,3.323,79.565,79.565,0,0,0-1.233,9.807q-.357,5.307-.358,10.988,0,5.04.2,10.076t.4,9.915q.2,4.878.357,9.379t.08,8.361a3.236,3.236,0,0,1-.835,2.358,2.634,2.634,0,0,1-1.947.858,3.573,3.573,0,0,1-1.947-.644,4.613,4.613,0,0,1-1.629-2.037,17.912,17.912,0,0,1-1.113-3.751,25.422,25.422,0,0,1-.556-3.483q-.16-1.769-.318-3.591-.4-4.072-.635-8.253t-.238-8.254q0-2.356.079-4.663t.238-4.663q.16-2.677.477-5.949t.835-6.538q.517-3.269,1.152-6.379a41.684,41.684,0,0,1,1.51-5.573" transform="translate(-67.746 -20.305)" fill="#65673b"/>
    <path id="Path_1259" data-name="Path 1259" d="M187.152,101q-2.226-.637-3.218-3.855a25.482,25.482,0,0,1-.994-7.51,41,41,0,0,1,.517-6.438,34.086,34.086,0,0,1,1.431-5.881,14.156,14.156,0,0,1,2.185-4.212,3.008,3.008,0,0,1,2.862-1.351,2.151,2.151,0,0,1,1.827,1.112,4.917,4.917,0,0,1,.477,2.226A14.283,14.283,0,0,1,192,77.709q-.239,1.271-.4,2.146-.081.557-.12,1.351t-.039,1.828q0,2.306.079,5.285t.08,5.6q0,2.144-.08,3.735a4.14,4.14,0,0,1-.4,1.988A3.871,3.871,0,0,1,189.3,101a3,3,0,0,1-2.147,0m7.073-40.057a9.613,9.613,0,0,1,.12,3.538,6.117,6.117,0,0,1-.994,2.464,4.59,4.59,0,0,1-1.669,1.47,4.227,4.227,0,0,1-1.907.478,3.636,3.636,0,0,1-2.425-.914,3.3,3.3,0,0,1-1.073-2.662,8.831,8.831,0,0,1,1.192-3.815,4.879,4.879,0,0,1,1.55-1.709,3.655,3.655,0,0,1,3.736-.158,4.3,4.3,0,0,1,1.47,1.31" transform="translate(-77.057 -24.932)" fill="#65673b"/>
    <path id="Path_1260" data-name="Path 1260" d="M226.768,75.385a3.052,3.052,0,0,1,1.749.755,2.235,2.235,0,0,1,.795,1.788,4.039,4.039,0,0,1-.874,2.345q-.8.994-1.669,1.947a20.6,20.6,0,0,0-3.576,5.721q-1.431,3.339-2.782,6.716t-2.822,6.319a13.172,13.172,0,0,1-3.616,4.61,4.251,4.251,0,0,1-3.815.953,4.193,4.193,0,0,1-1.669-1.112,6.24,6.24,0,0,1-1.033-1.589,26.7,26.7,0,0,1-1.471-5.643q-.438-2.941-1.072-5.961-.558-3.1-1.153-6.2t-1.073-6.2a3.924,3.924,0,0,1,.358-2.265,2.822,2.822,0,0,1,1.868-1.47,3.85,3.85,0,0,1,2.622.317,3.144,3.144,0,0,1,1.749,1.75q.874,2.941,1.629,5.88t1.55,5.961a9.993,9.993,0,0,1,.4,1.749q.636-1.192,1.271-2.384t1.272-2.3q1.113-1.828,2.027-3.418a21.373,21.373,0,0,1,2.265-3.179q.636-.716,1.391-1.669a13.06,13.06,0,0,1,1.668-1.749,8.589,8.589,0,0,1,1.908-1.272,4.125,4.125,0,0,1,2.106-.4" transform="translate(-85.359 -31.749)" fill="#65673b"/>
    <path id="Path_1261" data-name="Path 1261" d="M273.12,103.283a7.46,7.46,0,0,1,.478,2.463,5.966,5.966,0,0,1-1.5,4.134,4.27,4.27,0,0,1-3.15,1.669,2.834,2.834,0,0,1-2.128-1.034,5.1,5.1,0,0,1-1.142-1.908q-.2-.8-.433-2.225a51.741,51.741,0,0,1-.513-6.875q-.041-3.615-.117-6.875a15.83,15.83,0,0,0-.478-3.656q-.318-.873-.954-.476a6,6,0,0,0-1.867,3.06,37.86,37.86,0,0,0-1.272,5.007q-.518,2.741-.835,5.4t-.636,4.173a3.259,3.259,0,0,1-.834,1.39,4.366,4.366,0,0,1-1.312.914,3.056,3.056,0,0,1-1.589.317,5.319,5.319,0,0,1-1.589-.476,4.5,4.5,0,0,1-1.59-1.312,8.53,8.53,0,0,1-1.072-1.868,11.784,11.784,0,0,1-.677-2.146q-.237-1.111-.4-2.066a34.023,34.023,0,0,1-.6-3.735,36.321,36.321,0,0,1-.2-3.735A58.844,58.844,0,0,1,249,86.156a42,42,0,0,1,1.39-7.113,2.051,2.051,0,0,1,1.073-1.152,3.8,3.8,0,0,1,1.789-.438,3.223,3.223,0,0,1,1.589.4,1.784,1.784,0,0,1,.875,1.351,22.169,22.169,0,0,1,.357,4.531q-.041,2.465.12,4.609a21.227,21.227,0,0,1,1.51-4.649,9.36,9.36,0,0,1,1.947-2.782,5.653,5.653,0,0,1,2.464-1.351,15.231,15.231,0,0,1,3.055-.436,5.48,5.48,0,0,1,3.739,1.272,8.87,8.87,0,0,1,2.284,3.139,17.814,17.814,0,0,1,1.221,4.053q.392,2.186.629,4.013a9.362,9.362,0,0,1,.159,1.669v1.589q0,1.59-.08,2.98t-.079,2.981v1.232a9.784,9.784,0,0,0,.079,1.232" transform="translate(-104.759 -32.624)" fill="#65673b"/>
    <path id="Path_1262" data-name="Path 1262" d="M303.473,101q-2.226-.637-3.218-3.855a25.483,25.483,0,0,1-.994-7.51,41.007,41.007,0,0,1,.517-6.438,34.082,34.082,0,0,1,1.431-5.881,14.153,14.153,0,0,1,2.186-4.212,3.008,3.008,0,0,1,2.862-1.351,2.151,2.151,0,0,1,1.827,1.112,4.917,4.917,0,0,1,.478,2.226,14.279,14.279,0,0,1-.238,2.623q-.239,1.271-.4,2.146-.081.557-.12,1.351t-.039,1.828q0,2.306.079,5.285t.08,5.6q0,2.144-.08,3.735a4.14,4.14,0,0,1-.4,1.988A3.871,3.871,0,0,1,305.62,101a3,3,0,0,1-2.147,0m7.073-40.057a9.612,9.612,0,0,1,.12,3.538,6.116,6.116,0,0,1-.994,2.464A4.59,4.59,0,0,1,308,68.409a4.226,4.226,0,0,1-1.907.478,3.636,3.636,0,0,1-2.425-.914A3.3,3.3,0,0,1,302.6,65.31a8.831,8.831,0,0,1,1.192-3.815,4.879,4.879,0,0,1,1.55-1.709,3.655,3.655,0,0,1,3.736-.158,4.3,4.3,0,0,1,1.47,1.31" transform="translate(-126.053 -24.932)" fill="#65673b"/>
    <path id="Path_1263" data-name="Path 1263" d="M348.117,84.906a42.865,42.865,0,0,0-.795,7.869,29.724,29.724,0,0,0,.6,6,43.4,43.4,0,0,0,1.788,6.159,2.813,2.813,0,0,1-.515,3.06,5.58,5.58,0,0,1-3.855,1.391,2.845,2.845,0,0,1-2.461-.954,6.353,6.353,0,0,1-1.273-2.583,20.465,20.465,0,0,1-.556-3.259c-.109-1.139-.186-2.133-.239-2.981a10.848,10.848,0,0,1-1.512,2.742,18.226,18.226,0,0,1-2.66,2.94,16.44,16.44,0,0,1-3.377,2.345,7.011,7.011,0,0,1-3.58.875,11.389,11.389,0,0,1-3.852-.835,7.644,7.644,0,0,1-3.219-2.5,10.133,10.133,0,0,1-1.869-3.933,14.509,14.509,0,0,1-.358-4.412,19.638,19.638,0,0,1,2.3-7.907,15.971,15.971,0,0,1,5.007-5.762,8.663,8.663,0,0,1,4.767-1.431,7.808,7.808,0,0,1,3.9,1.034,9.291,9.291,0,0,1,3.178,3.1q.158-.636.28-1.192a4.273,4.273,0,0,1,.357-1.034,6.21,6.21,0,0,1,1.905-3.1,3.175,3.175,0,0,1,3.1-.476,3.593,3.593,0,0,1,2.144,1.828,6.114,6.114,0,0,1,.795,3.02m-8.822,6.53a1.4,1.4,0,0,0-.6-1.4,3.233,3.233,0,0,0-1.788-.441,7.957,7.957,0,0,0-2.583.48,10.278,10.278,0,0,0-2.623,1.362,8.81,8.81,0,0,0-2.063,2.042,4.33,4.33,0,0,0-.835,2.6,6.141,6.141,0,0,0,.117,1.162,3.737,3.737,0,0,0,.519,1.241,2.613,2.613,0,0,0,.993.963,3.125,3.125,0,0,0,1.626.4,4.573,4.573,0,0,0,1.751-.4,6.046,6.046,0,0,0,1.905-1.362,12.182,12.182,0,0,0,1.869-2.563,21.561,21.561,0,0,0,1.707-4.086" transform="translate(-134.933 -33.64)" fill="#65673b"/>
    <path id="Path_1264" data-name="Path 1264" d="M49.091,46.234a16.463,16.463,0,0,0-8.843-10.42,19.338,19.338,0,0,0-3.862-1.392,20.589,20.589,0,0,1,4.677-7.562H37.489l-2.166,5.523s-3.488-2.995-8.34-11.156C21.34,11.735,10.2,1.949.015,0c0,0-.808,12.723,9.856,21.012,9.783,7.6,25.019,12.347,25.019,12.347s-.072.258-.192.706c-.89-.159-1.817-.285-2.794-.368a19.527,19.527,0,0,0-7.764.747,23.957,23.957,0,0,0-7.015,3.4,27.111,27.111,0,0,0-5.813,5.978A12.1,12.1,0,0,0,9.9,46.857a16.953,16.953,0,0,0-.664,3.113,5.118,5.118,0,0,0,.457,2.159,4.514,4.514,0,0,0,1.2,1.619,2.529,2.529,0,0,0,1.661.623,2.813,2.813,0,0,0,1.909-1,21.993,21.993,0,0,0,1.868-2.324,21.717,21.717,0,0,1,1.785-2.242,18.114,18.114,0,0,1,6.311-4.94,16.733,16.733,0,0,1,7.223-1.786c.387,0,.761.025,1.128.061-.107.534-.208,1.066-.3,1.585a1.7,1.7,0,0,0-1.36,1.652,1.726,1.726,0,0,0,3.452,0,1.7,1.7,0,0,0-.769-1.4c.077-.452.177-1,.3-1.621a8.572,8.572,0,0,1,3.69,1.88q2.491,2.16,2.325,6.892a44.855,44.855,0,0,1-1.786,11.583,29.984,29.984,0,0,1-3.778,8.179,17.11,17.11,0,0,1-4.815,4.857,9.154,9.154,0,0,1-4.816,1.619,5.386,5.386,0,0,1-4.276-1.993q-1.7-1.992-1.7-5.978a23.651,23.651,0,0,1,.954-6.144,45.6,45.6,0,0,1,3.114-7.887,2.835,2.835,0,0,0,.166-1.91,2.042,2.042,0,0,0-1.079-1.412,1.88,1.88,0,0,0-1.827-.332,3.081,3.081,0,0,0-1.5,1.163A47.982,47.982,0,0,0,14.8,59.146a27.627,27.627,0,0,0-2.574,7.015q-.333,1.5-.54,3.114a25.785,25.785,0,0,0-.207,3.28,20.275,20.275,0,0,0,.539,4.691,12.176,12.176,0,0,0,1.951,4.276,14.14,14.14,0,0,0,4.692,4.193A12.088,12.088,0,0,0,24.6,87.251a12.364,12.364,0,0,0,3.4-.5,23.026,23.026,0,0,0,8.676-4.774,36.625,36.625,0,0,0,7.016-8.1,41.859,41.859,0,0,0,4.692-10,34.586,34.586,0,0,0,1.7-10.5,25.292,25.292,0,0,0-1-7.14" transform="translate(0)" fill="#65673b"/>
  </g>
</svg>
