<svg version="1.1" id="Layer_1" xmlns="http://www.w3.org/2000/svg" xmlns:xlink="http://www.w3.org/1999/xlink" x="0px" y="0px" viewBox="12.209999084472656 28.117996215820312 81.6500015258789 18.761001586914062" style="enable-background:new 0 0 841.89 595.28;" xml:space="preserve" width="202" height="56"><style type="text/css">.st0{fill:#005641;}</style><g><g><path class="st0" d="M31.931 28.427h9.401v2.379h-6.354v3.587h5.924v2.321h-5.924v3.702h6.461v2.398h-9.509z"/><path class="st0" d="M54.304 28.427h3.048v11.988h5.796v2.398h-8.843z"/><path class="st0" d="M64.705 28.427h9.401v2.379h-6.354v3.587h5.924v2.321h-5.924v3.702h6.461v2.398h-9.509z"/><path class="st0" d="M81.013 37.251h-1.589v5.563H76.376V28.427h6.14c3.133 0 5.409 1.938 5.409 4.431 0 2.034 -1.482 3.645 -3.692 4.182l4.802 6.586 -3.916 -0.301zm3.841 -4.354c0 -1.17 -1.009 -2.09 -2.641 -2.09h-2.791v4.201h2.791c1.633 0 2.641 -0.978 2.641 -2.11"/><path class="st0" d="m25.617 42.813 -6.366 0.811 -0.001 -15.197h6.063c2.944 0 4.95 1.535 4.95 3.818 0 1.285 -0.764 2.589 -2.399 3.146 1.919 0.595 2.769 2.071 2.769 3.548 0 2.148 -2.028 3.874 -5.016 3.874m-3.272 -8.362h2.661c1.309 0 2.137 -0.825 2.137 -1.842 0 -1.036 -0.806 -1.842 -2.181 -1.842h-2.617zm5.148 4.105c0 -1.017 -0.85 -1.88 -2.181 -1.88h-2.966v3.76h2.923c1.395 0 2.224 -0.825 2.224 -1.88"/><path class="st0" d="M50.594 34.505"/><path class="st0" d="M52.307 35.058"/></g><path class="st0" d="M93.86 43.967c-8.978 -1.238 -23.913 -2.049 -40.825 -2.049s-31.847 0.81 -40.825 2.049l1.356 2.912c8.711 -2.346 23.138 -3.881 39.469 -3.881s30.758 1.535 39.469 3.881z"/></g><g><g><path class="st0" d="m50.04 35.047 -0.853 -0.464c0.609 0.644 0.964 1.819 0.816 2.885 -0.069 0.496 -0.418 2.955 -2.287 3.12 -1.761 0.155 -2.599 -1.427 -2.749 -2.57l-2.663 0.876c0.362 2.304 2.025 4.112 5.327 4.112 3.046 0 5.157 -1.619 5.157 -4.093 0 -1.904 -1.236 -3.046 -2.748 -3.865"/><path class="st0" d="m45.756 35.79 0.228 0.121c-0.383 -0.392 -0.672 -0.924 -0.777 -1.548 -0.411 -2.434 0.882 -3.311 0.882 -3.311v0.001c0.292 -0.362 0.805 -0.573 1.436 -0.573 1.107 0 1.982 0.476 2.493 1.79l2.599 -0.838c-0.639 -2.056 -2.216 -3.314 -5.007 -3.314 -2.962 0 -4.751 1.809 -4.751 3.865 -0.001 2.187 1.448 3.044 2.897 3.806"/></g><path class="st0" d="M45.793 32.016c-0.059 1.625 1.882 1.624 3.238 2.919 1.357 1.295 0.393 3.461 0.393 3.461s0.302 -2.454 -1.63 -2.965c0.548 0.222 1.121 0.764 1.54 2.544 -0.374 -1.053 -1.727 -1.431 -2.6 -1.853 -1.278 -0.615 -1.751 -2.924 -0.94 -4.106"/></g></svg>