<svg xmlns="http://www.w3.org/2000/svg" id="Layer_2" data-name="Layer 2" viewBox="0 0 465.23 215.58"><defs><style>      .cls-1 {        fill: #fff;      }    </style></defs><g id="katman_1" data-name="katman 1"><g><path class="cls-1" d="M52.72,166.05c-2.82-2.55-6.15-4.54-9.88-5.9-3.73-1.36-7.77-2.06-12.01-2.06s-8.27.69-11.97,2.06c-3.7,1.37-7.01,3.35-9.83,5.9-2.83,2.55-5.06,5.62-6.64,9.11-1.58,3.49-2.38,7.42-2.38,11.67s.8,8.18,2.38,11.67c1.58,3.49,3.81,6.56,6.64,9.11,2.82,2.55,6.13,4.54,9.83,5.9,3.7,1.36,7.73,2.06,11.97,2.06s8.28-.69,12.01-2.06c3.73-1.37,7.06-3.35,9.88-5.9,2.83-2.55,5.06-5.62,6.64-9.11,1.58-3.5,2.38-7.42,2.38-11.67s-.8-8.18-2.38-11.67c-1.58-3.49-3.82-6.56-6.64-9.11ZM54.37,186.84c0,4.99-1.05,9.44-3.12,13.23-2.07,3.79-4.92,6.79-8.47,8.92-3.55,2.13-7.57,3.21-11.95,3.21s-8.31-1.08-11.86-3.21c-3.55-2.13-6.4-5.13-8.47-8.92-2.07-3.79-3.13-8.24-3.13-13.23s1.05-9.51,3.13-13.27c2.07-3.76,4.92-6.75,8.47-8.88,3.55-2.13,7.54-3.21,11.86-3.21s8.4,1.08,11.95,3.21c3.55,2.13,6.4,5.12,8.47,8.88,2.07,3.76,3.12,8.23,3.12,13.27Z"></path><path class="cls-1" d="M129.56,200.91c-.83,1.9-1.82,3.62-2.95,5.14-1.11,1.49-2.57,2.67-4.35,3.52-1.78.85-4.19,1.28-7.14,1.28h-36.65v-45.35c0-1.3.48-2.36,1.47-3.23.99-.87,2.18-1.32,3.53-1.32h1.42v-1.58h-19.4v1.58h1.42c1.41,0,2.62.44,3.57,1.31.97.88,1.46,1.94,1.52,3.24v42.69c-.06,1.24-.54,2.32-1.44,3.22-.91.91-2.04,1.35-3.47,1.35h-1.6v1.58h60.53l5.23-13.61h-1.61l-.09.2Z"></path><path class="cls-1" d="M112.77,198.79h-1.21c-1.31,0-2.38-.44-3.29-1.35-.9-.9-1.39-1.98-1.44-3.2v-28.74c.06-1.31.53-2.37,1.44-3.26.91-.88,1.99-1.31,3.3-1.31h1.21l.16-1.58h-18.53v1.58h1.33c1.31,0,2.39.43,3.29,1.31.91.88,1.35,1.94,1.35,3.24v28.75c0,1.25-.44,2.29-1.35,3.2-.91.91-1.98,1.35-3.29,1.35h-1.33v1.58h18.53l-.16-1.58Z"></path><path class="cls-1" d="M177.66,162.19c1.27-.83,2.51-1.26,3.71-1.26h1.06v-1.58h-17.86v1.58h.97c.99,0,1.85.45,2.64,1.37.69.81.81,1.91.39,3.33l-16.47,38.99-15.93-38.81c-.43-1.51-.31-2.7.37-3.52.75-.92,1.57-1.37,2.5-1.37h1.06v-1.58h-19.22v1.58h1.06c1.13,0,2.35.42,3.62,1.26,1.27.83,2.35,2.26,3.23,4.24l22.26,49.14h1.33l.03-.3c.06-.57.26-1.36.62-2.36.36-1.01.77-2.06,1.21-3.1.47-1.09,1.03-2.35,1.67-3.74l18.86-40.42c.85-1.58,1.83-2.74,2.92-3.46Z"></path><path class="cls-1" d="M299.93,211.45c-1.04-.78-1.7-1.86-1.97-3.21l-7.35-50.14h-1.31l-22.88,45.51-23.67-45.51h-1.4l-7.01,49.49h-.05l-.03.3c-.17,1.55-.8,2.72-1.91,3.57-.93.71-2.01,1.13-3.21,1.25-.97-.11-2-.52-3.05-1.22-1.27-.83-2.35-2.26-3.23-4.24l-22.26-49.15h-1.33l-.03.3c-.06.58-.27,1.37-.62,2.37-.36,1.01-.77,2.06-1.21,3.1-.44,1.02-.98,2.25-1.67,3.74l-18.85,40.42c-.85,1.58-1.83,2.74-2.92,3.46-1.26.83-2.51,1.26-3.71,1.26h-1.06v1.58h17.95v-1.58h-1.06c-.99,0-1.86-.45-2.64-1.37-.69-.81-.81-1.91-.39-3.33l5.11-12.09h22.41l4.94,12.03c.44,1.47.32,2.57-.37,3.38-.79.93-1.62,1.37-2.55,1.37h-1.06v1.58h32.61v-1.48h-1.59c-1.22-.05-2.02-.43-2.44-1.15-.33-.56-.53-1.17-.58-1.79l3.98-35.59,21.35,41.27h1.39l.05-.27c.24-1.25.6-2.59,1.07-3.98.48-1.4,1.17-3.14,2.06-5.16l16.57-32.65,4.58,35.42h-.03l.05.38c.11.77-.05,1.55-.46,2.33-.4.74-1.21,1.13-2.46,1.18h-1.69v1.48h19.49v-1.58h-1.69c-1.43,0-2.73-.43-3.87-1.29ZM209.19,192.56h-19.59l9.94-23.52,9.65,23.52Z"></path><path class="cls-1" d="M356.81,166.05c-2.82-2.55-6.15-4.54-9.88-5.9-3.73-1.36-7.77-2.06-12.01-2.06s-8.27.69-11.97,2.06c-3.7,1.37-7.01,3.35-9.83,5.9-2.83,2.55-5.06,5.62-6.64,9.11-1.58,3.5-2.38,7.42-2.38,11.67s.8,8.18,2.38,11.67c1.58,3.49,3.81,6.56,6.64,9.11,2.82,2.55,6.13,4.54,9.83,5.9,3.7,1.36,7.73,2.06,11.97,2.06s8.28-.69,12.01-2.06c3.73-1.37,7.06-3.35,9.88-5.9,2.83-2.55,5.06-5.62,6.64-9.11,1.58-3.5,2.38-7.42,2.38-11.67s-.8-8.18-2.38-11.67c-1.58-3.49-3.81-6.56-6.64-9.11ZM358.47,186.84c0,4.99-1.05,9.44-3.13,13.23-2.07,3.79-4.92,6.79-8.47,8.92-3.55,2.13-7.57,3.21-11.95,3.21s-8.31-1.08-11.86-3.21c-3.55-2.13-6.4-5.13-8.47-8.92-2.07-3.79-3.13-8.24-3.13-13.23s1.05-9.51,3.13-13.27c2.07-3.76,4.92-6.75,8.47-8.88,3.55-2.13,7.54-3.21,11.86-3.21s8.4,1.08,11.95,3.21c3.55,2.13,6.4,5.12,8.47,8.88,2.07,3.76,3.12,8.23,3.12,13.27Z"></path><path class="cls-1" d="M463.62,200.71l-.09.2c-.83,1.9-1.82,3.62-2.95,5.14-1.11,1.49-2.57,2.67-4.35,3.52-1.78.85-4.19,1.28-7.14,1.28h-13.42v-22.31h15.04c1.17,0,2,.33,2.54,1,.55.69.83,1.52.83,2.46v1.51h1.66v-13.34h-1.66v1.51c0,.94-.28,1.77-.83,2.46-.54.68-1.37,1.01-2.54,1.01h-15.04v-22.31h18.39c1.3,0,2.3.41,3.05,1.25.76.85,1.14,1.84,1.14,3.03v1.69h1.67v-11.05l-.46.18c-.76.29-2.2.61-4.27.93-2.08.33-4.07.49-5.92.49h-26.57v1.58h1.6c1.41,0,2.58.43,3.48,1.27.91.85,1.38,1.9,1.43,3.19v42.78c-.06,1.24-.54,2.32-1.44,3.22-.91.91-2.04,1.35-3.47,1.35h-1.27c-1.57,0-2.97-.28-4.16-.83-1.2-.55-2.32-1.34-3.34-2.33-1.05-1.02-2.21-2.23-3.46-3.6-1.19-1.37-2.42-2.84-3.66-4.38-1.24-1.54-2.65-3.38-4.19-5.46-.97-1.4-2.15-2.84-3.51-4.29-.99-1.06-1.91-1.86-2.75-2.39,2.35-.39,4.49-1.21,6.39-2.44,2.18-1.41,3.9-3.25,5.13-5.46,1.23-2.21,1.85-4.64,1.85-7.22,0-2.33-.44-4.45-1.3-6.29-.86-1.85-2.13-3.44-3.76-4.73-1.62-1.29-3.61-2.28-5.9-2.95-2.28-.67-4.89-1.01-7.74-1.01h-23.04v1.58h1.6c1.37,0,2.48.41,3.39,1.27.71.67,1.16,1.49,1.34,2.45v44.24c-.18.94-.64,1.78-1.35,2.49-.91.91-2.01,1.35-3.38,1.35h-1.6v1.58h19.25l-.16-1.58h-1.48c-1.37,0-2.48-.44-3.38-1.35-.9-.9-1.39-1.98-1.44-3.2v-45.31c.52,0,1.39,0,2.66-.04,2.1-.06,4.59-.03,7.4.09,1.77.06,3.37.36,4.78.88,1.4.52,2.62,1.26,3.65,2.2,1.01.93,1.81,2.05,2.36,3.32.55,1.28.86,2.76.92,4.41.06.95.03,1.87-.09,2.74-.12.88-.3,1.65-.53,2.29-.82,2.46-1.95,4.23-3.36,5.26-1.43,1.05-2.97,1.68-4.59,1.88-1.67.21-3.37.35-5.04.4-1.49.06-3.22.06-5.13,0h-.35s0,1.57,0,1.57h.33c1.66,0,3.27.6,4.77,1.78,1.54,1.21,2.92,2.61,4.1,4.14.18.24.69.95,1.53,2.12.84,1.18,1.78,2.49,2.8,3.93l2.85,4.03c.87,1.23,1.43,2.01,1.69,2.33.97,1.15,2.13,2.36,3.47,3.6,1.35,1.26,3.14,2.33,5.31,3.19,2.17.86,4.96,1.29,8.31,1.29h39.77l5.23-13.61h-1.61Z"></path><path class="cls-1" d="M165.63,81.6s-.04.07-.06.1c4.38,8.43,35.39,23.03,45.94,21.59-3.07-7.64-36.46-24.01-45.87-21.7Z"></path><path class="cls-1" d="M222.83,106.92c.57-8.24-22.54-37.71-31.95-39.53.14,9.42,21.81,36.22,31.95,39.53Z"></path><path class="cls-1" d="M229.67,108.99c4.05-7.2-4.19-43.73-11.91-49.42-3.91,8.57,4.16,42.07,11.91,49.42Z"></path><path class="cls-1" d="M255.81,103.3c3.08-7.67,36.71-24.13,45.98-21.67-4.23,8.42-35.4,23.11-45.98,21.67Z"></path><path class="cls-1" d="M244.48,106.92c-.57-8.24,22.54-37.71,31.95-39.53-.14,9.42-21.81,36.22-31.95,39.53Z"></path><path class="cls-1" d="M237.65,108.99c-4.05-7.2,4.19-43.73,11.91-49.42,3.91,8.57-4.16,42.07-11.91,49.42Z"></path><path class="cls-1" d="M240.79,35.22c5.59,5.96,5.45,17.39-.39,22.71-4.49,4.08-9.22,4.19-13.64-.07-6.04-5.81-5.68-17.96.61-23.41,4.67-4.04,9.2-3.9,13.43.76Z"></path><path class="cls-1" d="M307.96,93.1c-16.72,15.67-44.27,25.99-75.44,26.19-31.17-.2-58.72-10.52-75.44-26.19-1.31,1.37,2.72,9.26,12.07,15.07,18.57,11.54,37.22,16.59,62.43,16.83h0c.32.01.63,0,.94,0,.31,0,.62,0,.94,0h0c25.2-.25,43.86-5.3,62.43-16.84,9.35-5.81,13.38-13.7,12.07-15.07Z"></path><path class="cls-1" d="M179.38,41.5l20.23,7.35c1.17.47.55,2.18-.65,1.79,0,0-20.12-7.68-20.12-7.68-.94-.39-.43-1.78.55-1.46h0Z"></path><path class="cls-1" d="M183.85,55.55c-6.16-.63-12.37-1.23-18.4-1.8-1.02-.06-1.16,1.4-.17,1.55,2.45.3,4.9.6,7.35.88,3.55.41,7.28.85,11.01,1.27l.2-1.9Z"></path><path class="cls-1" d="M197.29,56.95c-2.78-.32-8.01-.83-10.85-1.12l-.21,1.92c2.88.32,8.12.83,10.86,1.1.52.05.98-.32,1.04-.84.06-.52-.32-1-.84-1.06Z"></path><path class="cls-1" d="M194.12,33.94l-9.2-6.08c-.72-.44-1.39.57-.72,1.06,0,0,4.46,3.12,9.04,6.33l.89-1.31Z"></path><path class="cls-1" d="M204.07,40.51l-8.18-5.4-.92,1.36c4.21,2.95,8.05,5.64,8.05,5.64,1.08.66,2.08-.87,1.05-1.59Z"></path><path class="cls-1" d="M211.58,32.74l-4.81-4.78-1.29,1.29c2.78,2.84,4.75,4.85,4.75,4.85.37.37.98.37,1.35,0,.37-.37.37-.98,0-1.35Z"></path><path class="cls-1" d="M192.71,13.97l-4.4-4.38c-.72-.67-1.71.34-1.05,1.04,0,0,1.76,1.8,4.31,4.4l1.14-1.07Z"></path><path class="cls-1" d="M194.17,15.42l-1.16,1.08c3.42,3.5,7.77,7.93,11.23,11.47l1.27-1.27-11.34-11.29Z"></path><path class="cls-1" d="M209.89,13.68l-4.31-5.75c-.6-.75-1.71.08-1.18.87,0,0,1.84,2.56,4.17,5.8l1.31-.92Z"></path><path class="cls-1" d="M219.58,26.62l-8.49-11.33-1.34.94c3.83,5.31,8.3,11.53,8.3,11.53.8.99,2.25-.11,1.53-1.14Z"></path><path class="cls-1" d="M224.36,15.24c-3.57-6.7-7.91-14.83-7.91-14.83-.5-.87-1.77-.19-1.35.7,0,0,4.29,8.36,7.69,14.96l1.57-.83Z"></path><path class="cls-1" d="M228.52,23.05s-1.93-3.62-3.13-5.88l-1.6.85c1.74,3.39,3.05,5.93,3.05,5.93.25.47.83.64,1.29.39.47-.25.64-.83.39-1.29Z"></path><path class="cls-1" d="M288.45,41.5l-20.23,7.35c-1.17.47-.55,2.18.65,1.79,0,0,20.12-7.68,20.12-7.68.94-.39.43-1.78-.55-1.46h0Z"></path><path class="cls-1" d="M283.98,55.55c6.16-.63,12.37-1.23,18.4-1.8,1.02-.06,1.16,1.4.17,1.55-2.45.3-4.9.6-7.35.88-3.55.41-7.28.85-11.01,1.27l-.2-1.9Z"></path><path class="cls-1" d="M270.53,56.95c2.78-.32,8.01-.83,10.85-1.12l.21,1.92c-2.88.32-8.12.83-10.86,1.1-.52.05-.98-.32-1.04-.84-.06-.52.32-1,.84-1.06Z"></path><path class="cls-1" d="M273.71,33.94l9.2-6.08c.72-.44,1.39.57.72,1.06,0,0-4.46,3.12-9.04,6.33l-.89-1.31Z"></path><path class="cls-1" d="M263.76,40.51l8.18-5.4.92,1.36c-4.21,2.95-8.05,5.64-8.05,5.64-1.08.66-2.08-.87-1.05-1.59Z"></path><path class="cls-1" d="M256.25,32.74l4.81-4.78,1.29,1.29c-2.78,2.84-4.75,4.85-4.75,4.85-.37.37-.98.37-1.35,0-.37-.37-.37-.98,0-1.35Z"></path><path class="cls-1" d="M275.11,13.97l4.4-4.38c.72-.67,1.71.34,1.05,1.04,0,0-1.76,1.8-4.31,4.4l-1.14-1.07Z"></path><path class="cls-1" d="M273.66,15.42l1.16,1.08c-3.42,3.5-7.77,7.93-11.23,11.47l-1.27-1.27,11.34-11.29Z"></path><path class="cls-1" d="M257.94,13.68l4.31-5.75c.6-.75,1.71.08,1.18.87,0,0-1.84,2.56-4.17,5.8l-1.31-.92Z"></path><path class="cls-1" d="M248.25,26.62l8.49-11.33,1.34.94c-3.83,5.31-8.3,11.53-8.3,11.53-.8.99-2.25-.11-1.53-1.14Z"></path><path class="cls-1" d="M243.47,15.24c3.57-6.7,7.91-14.83,7.91-14.83.5-.87,1.77-.19,1.35.7,0,0-4.29,8.36-7.69,14.96l-1.57-.83Z"></path><path class="cls-1" d="M239.3,23.05s1.93-3.62,3.13-5.88l1.6.85c-1.74,3.39-3.05,5.93-3.05,5.93-.25.47-.83.64-1.29.39-.47-.25-.64-.83-.39-1.29Z"></path></g></g></svg>