<?xml version="1.0" encoding="UTF-8"?>
<svg id="katman_1" xmlns="http://www.w3.org/2000/svg" version="1.1" viewBox="0 0 368.9 368.9">
  <!-- Generator: Adobe Illustrator 30.1.0, SVG Export Plug-In . SVG Version: 2.1.1 Build 136)  -->
  <defs>
    <style>
      .st0 {
        fill: #fff;
      }

      .st1 {
        fill: none;
      }

      .st2 {
        fill: #2c341b;
      }
    </style>
  </defs>
  <circle class="st0" cx="184.5" cy="184.5" r="184.5"/>
  <g>
    <path class="st2" d="M299.4,253.7c.8.3,1.8.6,3,.6,1.2,0,2.5-.2,3.7-.6,1.3-.4,2.4-1.1,3.3-1.9.9-.8,1.5-1.6,1.9-2.4.4-.8.6-1.4.6-1.9,0-.5,0-.7,0-.7,0,0,0,.3-.2.7-.2.4-.5,1-1,1.7-.5.6-1.2,1.3-2,1.9-.9.6-1.9,1.1-3.1,1.5-1.2.4-2.3.7-3.4.7-1.1,0-2,0-2.8-.2-.8-.2-1.4-.5-1.8-.7-.4-.2-.6-.4-.6-.4,0,0,.1.2.5.5.3.3.9.7,1.7,1.1Z"/>
    <path class="st2" d="M300.4,251.8c.5.2,1.2.4,2,.5.8,0,1.7,0,2.5-.3.9-.3,1.7-.7,2.3-1.2.6-.5,1.1-1,1.4-1.4.3-.5.6-.9.7-1.1.1-.3.2-.4.2-.4,0,0-.5.5-1.3,1.2-.9.7-2.1,1.5-3.6,1.9-1.5.5-3,.5-4,.3-.5,0-.9-.2-1.2-.3-.3,0-.4-.2-.4-.2,0,0,.1.1.4.3.2.2.6.4,1.1.7Z"/>
    <path class="st2" d="M301.9,249.8c.4.3,1.2.5,2,.4.8,0,1.5-.4,1.9-.8.4-.3.6-.6.6-.6,0,0-.3.1-.8.2-.5.1-1.1.2-1.8.3-.7,0-1.3,0-1.8,0-.2,0-.4,0-.6,0-.1,0-.2,0-.2,0,0,0,0,0,.2.1.1,0,.3.2.5.3Z"/>
    <path class="st2" d="M288.9,257c1.3-.8,2.8-1.7,3.7-2,1.9-.7,1.8.2,3.6,1.4,1.8,1.2,6.4,3.1,11.9.6.6-.3,1.2-.6,1.7-.9,4.1-2.6,5.4-6.3,4.5-9.2-1-3.3-4.8-5.4-8.4-4.6-1.7.4-3.6,1.2-5.2,2.3-1.9,1.2-3.5,2.6-4.7,4.2-2,2.7-2.7,3.5-4.8,4.8-.2.1-.5.3-.7.5-.4.2-.7.4-.9.6-.5,1-.9,1.9-1.4,2.9.2-.2.5-.3.8-.5ZM296,250.1c.2-.3.4-.6.7-.9,1-1.4,2.6-2.9,4.4-4,1.6-1,3.4-1.8,5-2.2,0,0,0,0,0,0,1.7-.2,4.8,0,6.7,2.9,2.6,4.2-2.3,8.4-4.8,9.7-2.6,1.3-7.1,2-10.2.4-2.8-1.5-3.6-2.7-1.7-5.8Z"/>
    <path class="st2" d="M157,256.1c0,0-.2-.2-.2-.4,0-.2-.1-.3-.2-.3s0,0,0-.1c.2-.6.6-.9,1.2-1.1.7-.5,1.1-.9,1.1-1.4,0,0,.1-.2.1-.3s0-.3.3-.5c.2-.2.4-.2.7-.1.6.2.9.1,1-.1,0-.5,0-.7.3-.8.2,0,.5-.2.8-.4.2,0,.4.1.6.4.4.6.7.7,1.1.6.3-.2.4-.6.4-1.4h.1c0-.2.1-.4.4-.7.3-.3.5-.6.7-.8.2-.2.2-.4,0-.7-.2-.2-.4-.3-.7-.5-.3-.1-.5-.3-.6-.5v-.3c.3,0,.5-.2.7-.3.2-.1.4-.3.7-.5.6-.2,1.1-.5,1.4-1,.3-.5.7-.8,1.2-1.1.2,0,.3-.4.3-.8,0-.7.2-1.4.8-1.9.3-.2.5-.4.6-.7.1-.3.3-.5.6-.7.2-.2.5-.2.8,0,.3.5.6.4.8-.3.5-.2.7-.1.7.1l.3.7h0c0-.5.1-1.1.1-1.8s0-.2-.1-.2c0,0-.2-.2-.3-.3h0c0-.1-.1-.3-.1-.3.2-.4.4-.7.6-.9.2-.2.6-.5,1-.8.3-.5.6-.6.8-.3.5.3.9.5,1.2.6.3,0,.7.2,1.2.3.2,0,.4-.2.6-.6v-.6c.6,0,.9-.6.8-1.5v-.3h.1c.4.2.6.1.8-.1.2-.4.3-.7.3-.9,0-.2-.2-.5-.6-.8-.6-.6-.6-1,0-1.4.5,0,.8-.1,1-.4.3-.8.7-1.3,1.2-1.4l.6-.7h1.1c0,0,0-.1.1-.1h.3c0-.1.4-.1.4-.1.2-.2.2-.2,0-.1-.1,0,0,0,.3-.1h1.1c-.4-.2-.6-.5-.7-1,0,0-.1-.2-.1-.3,0-.3,0-.5.1-.6l3-2.9h.1c0,0,.1,0,.1,0s0,0,.1,0c.4-.8.7-1.5,1.1-1.9.4-.4.9-.8,1.7-1.2h0c0,0,.3-.1.6-.4.3-.3.6-.6.8-1,.2-.2.4-.3.6-.4.2,0,.4-.2.6-.3.2-.2.4-.4.6-.6.2-.2.5-.4.8-.5.4-.2.6-.4.8-.8.1-.3.4-.5.9-.5s.3-.1.4-.4c0-.3.2-.5.4-.7.2-.4.4-.7.7-.9.3-.2.6-.4,1-.6.3-.2.7-.2,1.2,0v.3c0,0,0,.2.1.3-.2.7-.5,1.2-.8,1.2l-.8.3c-.3,0-.5,0-.6.3.2,0,.4.1.7.1.2.2.3.3.3.4.5-.2.7-.3.7-.4.4-.2.7-.4,1.1-.8.4-.3.7-.6,1.1-.9,0,0,.1,0,0-.1,0,0,0-.2,0-.3.2-.6.1-.9-.1-1,0,0-.2,0-.3,0,0,0-.2,0-.4,0-.5-.3-.7-.5-.7-.7,0-.3,0-.5.4-.6.5,0,.7,0,.7-.3.5-.5.8-.5,1.1-.1h.1c.2-.4.4-.6.7-.6.3,0,.5-.2.7-.3s.4-.4.6-.8c.2-.3.4-.6.7-.8.6-.7,1.1-1.2,1.5-1.4.8-.6,1.6-1.3,2.4-2.1.7-.7,1.7-1.5,2.8-2.2.6-.2,1.2-.4,1.7-.8.5-.3,1.1-.6,1.9-.8,1-.3,1.8-.8,2.4-1.5.6-.6,1.3-1.1,1.9-1.4.6-.3,1.2-.5,1.8-.7.6-.2,1.1-.3,1.6-.3.5,0,1.1,0,1.7,0,1.3,0,2.4.8,3.3,2.1.3.6.7,1.1,1.2,1.5.5.5.9.9,1.3,1.4.4,0,.3.4-.1.8-.8.7-1.8,1.2-2.9,1.5-.5.2-.8.4-1,.6-.2.2-.5.4-.8.6-.5.5-1,.8-1.5,1-.6.2-1.1.5-1.5.8-.4.2-.7.4-1.1.8-.4.3-.8.6-1.2.8-1.2.7-2.3,1.5-3.2,2.2-.9.7-2,1.3-3.3,1.8-.2.2-.4.3-.6.5-.2.1-.4.3-.6.3-.8,1-1.7,1.9-2.7,2.7-1,.8-1.9,1.5-2.7,2.3,0,0-.3.1-.6.4-.2.2-.4.4-.6.6-.2.2-.4.4-.7.5-.2,0-.3,0-.5.1-.1,0-.4.2-.9.4l-2.1,1.8c0,.3-.2.5-.3.6-.1,0-.3.2-.5.4,0,0-.6.1-1.4.1-.4,0-.6,0-.6.4s0,.6-.3.6-.2,0-.3-.1c0,0-.2-.1-.4-.1-.4,0-.6.2-.6.6.2.2.4.3.6.3.3.3.4.4.3.4-.5.5-.8.9-1,1.2-.2.4-.5.8-.8,1.2-.2.2-.5.4-.9.7-.4.3-.8.5-1.2.6-.4,0-.9.2-1.7.7l-.6.8c-.2.5-.5.9-1,1.2-.5.4-.9.8-1,1.2-.2.4-.4.6-.8.8-.3.1-.6.3-.9.5,0,.2-.2.4-.4.6-.2.2-.3.4-.3.7l-.4.6c-.6.5-1.1.9-1.3,1.2-.2.4-.5.6-.9.7-.2,0-.4,0-.6.3-.5.6-.9,1.2-1.5,1.6-.5.4-1,.9-1.5,1.6-.4.4-.8.8-1.2,1.4s-.9,1.1-1.5,1.5c-.2,0-.3.3-.3.5,0,.2-.2.4-.3.6-.5.2-.9.2-1.4,0h-.7c0,0-.1.1-.1.4h.1c.3.4.3.6.1.8-.7.4-1.4.8-1.9,1.4-.2.4-.4.6-.6.8-.2.2-.4.4-.6.7-.9.6-1.4,1.2-1.4,2.1s0,.4-.1.6c0,.2-.2.4-.3.6-.3.4-.6.6-1,.7-.4,0-.8.4-1,.8,0,.5-.1.8-.3,1-.2.2-.4.4-.6.6-.5.4-1,.8-1.6,1.3-.6.5-1,1-1.3,1.6-.2.5-.5.8-.9,1.1-.4.3-.8.6-1,1.1-.2,0-.3.2-.4.3s-.2.1-.3.1c-.2,1.1-.6,2-1.4,2.7-.7.7-1.5,1.5-2.2,2.3-.5.6-1.1.9-1.8,1.1,0,0,0,.2-.2.3-.1,0-.2.3-.2.6,0,.6-.3,1.1-.8,1.6-.4.5-.9,1-1.3,1.5l-1.2,1.5c-.7,1.6-2,3.3-3.9,5.3-.5.7-1,1.4-1.7,2-.6.6-1.2,1.3-1.8,2,0,.5-.2.7-.6.7-.6.7-1,1.4-1.3,2-.3.6-.6,1.2-.9,1.9-.9,1-1.8,2-2.6,2.8-.8.9-1.7,1.6-2.6,2.3-.4.6-.8,1.1-1.2,1.5-.4.5-.9,1-1.5,1.5,0,.7-.8,1.2-2.1,1.5-.3,0-.5,0-.6-.1-3.5-.6-6.4-1.9-8.6-4.1-.2-.2-.4-.4-.7-.6-.3-.2-.4-.5-.4-1,0-.7,0-1.5,0-2.2.1-.7.3-1.5.5-2.2.2-.9.3-1.7.4-2.4,0-.7.2-1.3.4-1.7.6-1.2,1-2.5,1.4-3.8.4-1.3.8-2.7,1.2-4.1l.7-1c.5-1.6,1-3.1,1.5-4.5.6-1.4,1.2-2.8,1.9-4.1.2-.2.3-.5.3-.9,0-.4.2-.8.3-1,.9-1.6,1.5-3.1,1.8-4.6.3-.5.5-.9.8-1.2.2-.3.4-.7.6-1,0,0,0-.2,0-.3,0-.1.1-.3.1-.3,0-.2,0-.3,0-.5,0-.1,0-.3,0-.5,0-.4.2-.7.4-1,.2-.3.4-.6.6-.9l.6-1.5c.2-1,.5-1.9,1-2.6l.3-.4c0-.4.3-.7.5-1,.2-.3.5-.7.8-1.4.2-.3.3-.6.5-1,.1-.4.4-.8.9-1.2l.3-1.1c.2-.9.5-1.7.9-2.2.4-.6.7-1.2.9-1.9.2-.3.3-.5.4-.8,0-.2.3-.3.6-.3,0,0,.1-.3.1-.6s0-.3-.1-.5c0-.1,0-.3,0-.5l1.9-4.6c0-.2,0-.3.1-.3,0,0,.1-.2.1-.3.4-.4.6-.6.6-.7,0-.3,0-.9.6-1.8.7-1.6,1.4-3.1,2-4.6.6-1.5,1.3-3,2.1-4.4.3-.9.6-1.9.9-2.9.3-1,.7-2,1.2-2.9l2.4-9.5c.4-1.3.6-2.3.8-3.1.1-.8.1-1.7,0-2.8v-.3c-.1,0-.1-.1-.1-.1h-1.9c-1.1,0-2.1.2-3,.7-1.3.4-2.5.8-3.7,1.3-1.2.5-2.3,1.1-3.3,1.7-.3.2-.5.3-.8.4-.2,0-.5.3-.9.6-1.1.5-2.3,1-3.7,1.7-1.3.7-2.6,1.4-3.7,2.1,0,.2-.2.5-.6.8-1.9,1.4-3.8,2.7-5.5,3.9-1.7,1.2-3.3,2.6-4.9,4.1-1.2,1.3-2.4,2.5-3.7,3.7-1.2,1.2-2.4,2.4-3.5,3.7-.4.6-.7,1.1-1.1,1.5-.4.5-.7,1-1.1,1.7-.6.4-1,.9-1.4,1.5-.2.2-.4.4-.6.8-.2.3-.4.6-.6.8-.3.4-.5.7-.7.9-.2.2-.4.4-.7.6-1,1.1-1.8,2.3-2.2,3.7-.5,1.3-1.1,2.7-1.8,3.9-.6.6-.9,1.2-1.2,2-.2.8-.5,1.5-.8,2.3,0,.2-.1.4,0,.8,0,.3,0,.6,0,.8.4.4.7.5,1,.4,1.4,0,2.8-.2,4.2-.6,1.4-.4,2.9-1.1,4.5-2.1.2-.2.4-.3.6-.3.6-.2,1.1-.2,1.5-.1l.4.8c.3.3.4.6.3,1,0,.7,0,1.5-.3,2.2-.2.7-.4,1.5-.6,2.2,0,0,0,.3-.3.7,0,0-.2.1-.3.1s-.2,0-.4.3c-.5.6-1,1.1-1.7,1.4-.6.3-1.3.6-2.1.8-1.4.4-2.7.4-3.8.1-1.2-.3-2.4-.8-3.8-1.5-.8-.3-1.7-.7-2.6-1.2-.9-.5-1.7-1.1-2.4-1.9-.2-.2-.3-.3-.5-.5l-.5-.5c-2.4-2.5-3.4-5.1-2.9-7.9.6-2.3,1.4-4.5,2.6-6.5.2-.4.4-.6.6-.8.2-.1.4-.4.6-.9.5-.8.9-1.6,1.3-2.4.4-.7.9-1.5,1.3-2.4l1.4-1.9c.5-.6.9-1,1.4-1.4.5-.4.8-.9,1-1.7,0-.3.3-.6.6-.8.3-.3.6-.5,1-.7.6-.7,1.3-1.5,1.9-2.4.6-.8,1.3-1.5,2.1-2.1,0-.2.3-.6.8-1.4.2-.2.4-.3.8-.3.3,0,.6-.3.8-.6,0-.2.2-.3.3-.3,0,0,.1-.2.1-.3,1.4-.8,2.6-1.9,3.6-3.3,0,0,0-.2.1-.3,0,0,.1-.2.1-.4.2,0,.4-.1.6,0,.2,0,.4,0,.6-.2.2,0,.3-.2.3-.3,0-.1.2-.3.3-.3.7-.6,1.4-1.1,2-1.7s1.3-1,2-1.2c.5-.7,1.2-1.3,2.1-1.7l1.5-1.2c.9-1.3,2.3-2.3,4-2.9.5-.5,1-.8,1.7-1.1.4-.2.7-.4,1-.6.3-.2.7-.3,1-.4,1.6-.6,3.1-1.5,4.7-2.5.2,0,.4-.1.6-.1s.4,0,.6-.1c.8-.5,1.6-.8,2.3-1,.7-.2,1.4-.5,2.1-.8,2.6-.7,5.1-.8,7.6-.3.2,0,.4.1.6.3.2.2.4.4.6.6.5.2.9.3,1.3.5.4.1.8.4,1.2.9.6.3,1.1.6,1.6.8.5.3.9.6,1.3.8.7.5,1.4.9,1.9,1.4.5.5.9.9,1,1.4.8.6,1.4,1.4,1.8,2.2.4.4.6.6.6.8.2.9.3,1.8.5,2.5.1.7.1,1.5,0,2.4,0,.7,0,1.5,0,2.4,0,.8-.1,1.6-.1,2.4,0,.5-.1.9-.1,1.2s0,.7-.3,1.1c-.3.4-.5.8-.8,1.4-.2.6-.4,1.1-.6,1.7,0,.6-.1,1.2-.3,1.8-.2.6-.4,1.2-.6,1.8v1.1c-.2,1.2-.5,2.4-1,3.7-.5,1.3-1,2.6-1.6,3.9,0,.2-.2.4-.3.6,0,.2-.2.5-.3.8-.8,1.8-1.7,3.8-2.6,6-.9,2.2-1.8,4.3-2.7,6.3-.4.6-.6,1.4-.6,2.2l-1.8,4-.4.8c-.5.8-.9,1.8-1.5,2.9-.5,1.1-1,2.3-1.5,3.6-.6,1.3-1.3,2.6-1.9,3.8-.6,1.2-1.1,2.6-1.6,3.9l-1.5,3.9-2.4,5.5c-.2.6-.4,1.2-.7,1.6-.3.4-.5,1-.7,1.7-.4.2-.6.6-.6,1.2h.6c.3-.7.6-1.2,1-1.2.5-.7,1-1.4,1.5-1.9.6-.6,1.1-1.3,1.5-2.4.2-.2.5-.3.8-.3v-.6c0-.3.1-.6.4-.8.4-.5.7-.9,1-1.2.3-.4.5-.8.7-1.4.2-.2.4-.3.6-.4.2,0,.6,0,1,.1h.4c.2,0,.3,0,.3,0s.1,0,.2,0c0-.2,0-.3.1-.3,0,0,.1-.1.1-.2h-.3c-.4,0-.6-.2-.6-.3,0-.3.2-.5.6-.7.3,0,.5-.1.7-.4.2-.7.5-1.4.8-1.9.4-.6.8-1.1,1.2-1.7.3-.4.6-.5,1.1-.4,0,0,.2,0,.4-.3v-1c0-.4.2-.6.6-.7.2,0,.6-.1,1.2-.1Z"/>
    <path class="st2" d="M218.3,262.2c0,0,0,.2-.1.2,0,0-.1.1-.1.2,0,.3,0,.4-.3.4h-.6c0-.4-.1-.6-.4-.6-.2.2-.3.4-.3.6h.1c0,.1.2.1.2,0,0,0,.2,0,.3,0h.1c.3.5.6.6.8.4,0,0,.2,0,.2,0,0,0,.2,0,.3,0h.3c.2.2.3.3.3.3s0,.2-.3.3c-.2.3-.3.6-.5,1-.1.4-.4.7-.8,1l-.4.6-1.8,1.8c-.2,0-.3.2-.3.2s0,.1-.1.2c-.3.2-.5.3-.6.5,0,.1-.2.3-.4.5-.3.2-.6.5-1.1.8-.5.4-.9.8-1.5,1.2-.5.4-1,.8-1.4,1.2s-.7.7-.9.8c-.6.5-1.1.9-1.6,1.3-.5.4-1,.8-1.5,1.2-.2.2-.4.3-.6.3l-7.7,5c-1.8.7-3.6,1-5.5.7-1-.2-1.9-.6-2.8-1.2-.8-.8-1.8-1.6-2.8-2.2-1-.6-2-1.4-2.9-2.4-.4-.4-.7-.7-1-1-.3-.3-.5-.7-.6-1.2-.3-.6-.4-1-.4-1.2,0-1,0-2,.1-3,.2-1,.5-2,.8-3,.3-.6.5-1.1.7-1.7.2-.6.4-1.1.6-1.6.3-.5.5-.8.6-.9,0-.1.2-.2.2-.3s.1-.2.3-.3c.1-.2.3-.5.6-1,.6-.8.9-1.3,1.1-1.5.2-.1.5-.7,1-1.6.9-1.3,1.6-2.3,2-3,.4-.7,1.2-1.8,2.3-3.2.5-.8.9-1.6,1.5-2.4.5-.8.9-1.6,1.2-2.6,0,0,0-.2,0-.2s0-.2,0-.3c.3-.3.6-.3.8-.1l1.1.6c1.2.8,2.4,1.9,3.7,3.2.6.4,1.1.8,1.4,1.4.3.6.4,1.1.3,1.5-.3.7-.6,1.4-1,2.1-.4.6-.8,1.3-1.2,2.1l-4.1,5.9c-.3.4-.5.6-.6.8,0,.1-.2.3-.3.3,0,0-.2.2-.3.3s-.3.4-.5.8c-.3.5-.5.8-.6,1-.1.2-.3.3-.3.5,0,.1-.2.3-.3.5,0,.2-.2.6-.4,1.1-.2.5-.4.9-.6,1.2-.2.4-.4.7-.6,1-.4.7-.7,1.5-1,2.2-.3.7-.5,1.5-.7,2.2v.3c-.2,1,.3,1.4,1.4,1.1.6,0,1-.2,1.5-.3.4-.1.9-.3,1.5-.5l1.7-.7c.3-.2.6-.3.8-.5.3-.1.6-.3.8-.5.2,0,.3-.1.3,0,0,0,.2,0,.3,0,.4,0,.6-.1.6-.4s0-.3.1-.4c0,0,.4-.3.9-.6.5-.3,1-.7,1.6-1,.6-.4,1.1-.7,1.6-1,.5-.3.8-.5.9-.6.6-.6,1.1-.8,1.5-.8l.8-.4c.2,0,.3,0,.3-.3,0-.3.4-.6.9-.9.5-.3,1-.6,1.6-.9.6-.3,1.1-.6,1.5-.9.5-.3.8-.6,1-.9h0c.4-.5.9-.9,1.5-1.2.6-.2,1.3-.7,2-1.5,0-.4.2-.7.6-1,.4-.4.6-.4.8,0h.1v-.3c.2,0,.4,0,.6,0,.2.3.4.5.7.6.3.1.5.3.7.5.2,0,.1.2-.1.7v-.3h-.1c0,.2,0,.3.1.3h.1ZM200.6,240.3c0-.9.3-2,1-3.3.4-1.2,1-2.4,1.9-3.6,1.4-1.6,2.6-3.4,3.7-5.5h0c.5-.4.8-.5,1.1-.4,1.8,1.1,3.3,2.5,4.4,4.1.2.2.3.4.4.7,0,.3.2.6.4,1,0,.9-.2,1.5-.6,1.8l-2.1,2.6c-.7.5-1.2,1.1-1.5,1.8-.6.6-1.2,1.3-1.8,2-.6.7-1.2,1.3-1.8,1.9-.3.3-.8.4-1.5.3-.6-.3-1.1-.6-1.5-.8-.5-.3-1.1-.7-1.8-1.4-.3-.4-.4-.7-.4-1.1Z"/>
    <path class="st2" d="M253.6,252.6c0,1-.2,1.8-.7,2.2s-.6.8-1,1.5c-.9,1-1.7,2.2-2.2,3.5,0,.3,0,.5-.1.6,0,.1-.2.3-.3.5-.6.7-1.1,1.5-1.5,2.4-.3.9-.7,1.7-1,2.6-.2.6-.3,1.2-.4,1.8,0,.6-.2,1.2-.4,1.8,0,.2,0,.3,0,.5.1.1.3.2.5.2.4.2.8.2,1.2,0,1.1,0,2.2-.4,3.3-.8,1.2-.6,2.4-1.1,3.5-1.7,1.1-.6,2.2-1.2,3.3-1.8.9-.5,1.8-1,2.6-1.7.8-.6,1.7-1.3,2.6-1.9.6-.6,1.3-1.1,1.9-1.5.6-.5,1.3-.9,1.9-1.4.6-.6,1.2-.6,2.1-.3.4.2.7.3,1.1.3.3,0,.5.3.6.7.4,1.2.1,2.3-.7,3.3-.5.5-.8.9-1.1,1.2-.3.4-.6.7-1.1,1.1-.3.3-.5.6-.6.9,0,.3-.4.6-.8.8-.3.3-.5.6-.8.8-.2.3-.5.5-.9.7-.5.5-.9.8-1.3,1-.4.2-.8.5-1,1-.2.2-.4.3-.6.5-.2.1-.4.2-.6.2-.2,0-.3.1-.4.1s-.2,0-.4.3c-.7.9-1.7,1.4-2.9,1.5l-.7.6c-1,.8-2.1,1.4-3.2,1.7-1.2.3-2.4.5-3.7.7-1.2.5-2.1.6-2.8.4-3.3-1.7-5.9-4.1-7.7-7.2-.4-.6-.6-1.1-.7-1.7,0-.6-.2-1.1-.4-1.6,0-.3-.1-.4-.4-.3l-1.2.8c-.4.3-.7.6-1,.8-.3.3-.7.6-1,1-.4.5-.8.9-1.2,1.2-.5.3-.9.7-1.4,1-.9.5-1.7,1-2.2,1.5-.8.8-1.7,1.5-2.6,2.1-.9.6-1.8,1.3-2.8,2-.4.2-.7.4-1,.6-.3.2-.7.5-1,.8-.3.4-.6.7-1,.9-.4.2-.9.4-1.3.6-.5.3-.9.4-1.5.5-.5,0-1,0-1.5,0-1.4-.5-2.4-1.1-3.2-1.8-.6-.5-1.3-.9-1.9-1.5-.6-.5-1.2-1-1.9-1.6-1.3-1.3-2-2.9-2.2-5,0-1.3.2-2.4.7-3.5.2-.4.3-.7.5-1,.1-.3.3-.6.5-.8,2.3-4,5.3-7.6,8.8-10.9l3.7-3.6c1.1-1,2.2-2,3.3-2.8,1.1-.9,2.3-1.7,3.6-2.4.4-.4.9-.6,1.5-.8,1.6-.6,3-.7,4.4-.1,1.9.6,3.8,1.7,5.7,3.3,1.3.9,2.3,1.8,3,2.8.6.4,1,.3,1.2-.1l.7-1.1.8-1.5c.5-.7,1.2-.9,2.2-.6.8.5,1.6,1,2.3,1.7.7.6,1.4,1.3,2,2.1.4.6.6,1.3.6,2.1ZM239.2,251.4c-.8,0-1.6.1-2.2.4-.8.5-1.6.9-2.4,1.4-.8.5-1.5,1-2.3,1.7-.4.5-.7.8-1.1,1.1-.4.3-.7.6-1.1.8l-1.9,1.9c-.6.5-1.1,1-1.6,1.5-.5.6-1,1.1-1.6,1.7-.2.2-.4.4-.8.7-.3.3-.6.6-.8,1l-1.7,2.4c-.4.5-.7.8-1.1,1-.4.2-.7.6-1,1-.5.5-.8,1-1.1,1.5s-.6,1.1-1,1.5c-.3.5-.3.7-.1.7h.7c.4-.2.7-.4,1.1-.6.4-.2.7-.5,1.1-.8,2.1-1.3,4.1-2.7,6.1-4.2,1.9-1.5,3.9-3,5.8-4.5,1.4-1.3,2.7-2.5,4.1-3.7,1.3-1.2,2.7-2.4,4.1-3.6.4-.2.6-.5.8-.8,0,0,.1-.3.1-.6-.5-.9-1.2-1.4-2.2-1.5Z"/>
    <path class="st2" d="M50.6,112.1l-2.4-.5-1.3,2.9,2,1.4c.1.1.3.2.2.5l-1.2,2.9c-.1.2-.3.2-.4.1l-8.8-6.4c-1.4-1-1.2-2.4-.5-4,.7-1.6,1.5-2.7,3.3-2.4l10.7,1.9c.2,0,.3.1.2.4l-1.2,2.9c0,.2-.3.2-.4.2ZM41.1,110.1c-.2,0-.2,0-.3,0,0,.1,0,.2.1.3l3.7,2.5.8-2-4.4-.9Z"/>
    <path class="st2" d="M49,94.6l7.6,7.5c1.4,1.3,1.9,2.6.6,5.1-.3.6-1,1.7-1.4,2-.2.1-.3.3-.5.2l-1.5-.8c-.2,0-.3-.2-.1-.5.4-.6,1-1.5,1.3-2.1.2-.4.3-.8-.1-1.2l-.4-.4v.2c-.5.7-.8,1.1-2.6.8l-7.8-1.5c-.3,0-.3-.2-.2-.5l1.4-2.6c.1-.2.3-.2.5-.2l5.9,1.5c.2,0,.3,0,.4,0h0c0-.1-4.9-4.3-4.9-4.3-.2-.1-.2-.2-.1-.5l1.4-2.6c0-.1.2-.3.5,0Z"/>
    <path class="st2" d="M54.7,84.9c.1-.2.3-.2.5,0l5.4,6.1c1.2,1.4.7,2.6,0,3.6-.6,1-1.5,2-3.3,1.4l-7.8-2.3c-.2,0-.3-.2-.2-.4l1.6-2.5c.1-.2.3-.2.5-.1l6,2.3c.2,0,.3,0,.4,0,0-.1,0-.2-.1-.4l-4.6-4.5c-.2-.1-.2-.3,0-.5l1.6-2.5Z"/>
    <path class="st2" d="M68.6,83.1l-1.5,2c-.1.2-.3.2-.5,0l-.3-.2c0,.8-.3,1.8-.8,2.6-.9,1.1-2.5,2-4.3.6h-.2c-1.7-1.4-1.3-3.1.5-5.5l.5-.6-.4-.3c-.7-.5-1-.4-1.5.4-.6.8-1.5,2.2-1.8,2.6-.2.3-.3.2-.5.1l-1.3-1c-.2-.2-.2-.3-.1-.5.2-.6.9-2,1.6-2.9,1.6-2.1,3.4-3.1,5.7-1.4l4.9,3.7c.2.1.2.3,0,.5ZM63.4,83l-.5.7c-.5.7-.5,1.2,0,1.6h.1c.5.5.9.2,1.2-.2.3-.3.5-.8.5-1.1l-1.3-1Z"/>
    <path class="st2" d="M71.8,79.1l-1.7,2.1c-.1.2-.4.2-.5,0l-9.7-8.1c-.1-.1-.1-.4,0-.5l1.7-2.1c.1-.2.3-.2.5,0l9.7,8.1c.1.1.2.4,0,.5Z"/>
    <path class="st2" d="M75.4,75.2l-1.8,2c-.1.1-.4.2-.5,0l-6.9-6.2c-.1-.1-.1-.4,0-.5l1.8-2c.1-.1.4-.2.5,0l6.9,6.2c.1.1.2.4,0,.5Z"/>
    <path class="st2" d="M83.7,66.7l-2.4,2.3c-.1.1-.4.2-.7.1l-4.4-1.2,2.8,2.8c.1.1.2.4,0,.5l-1.9,1.9c-.1.1-.4.1-.5,0l-8.9-9c-.1-.1-.1-.4,0-.5l1.9-1.9c.1-.1.4-.1.5,0l5.1,5.1-1-4.5c0-.3,0-.5.2-.6l2.2-2.2c.1-.1.2-.1.3,0,0,0,0,0,0,.1l.9,5.4,5.7,1.2c0,0,0,0,.1,0,0,0,.1.2,0,.3Z"/>
    <path class="st2" d="M95,57.3l-6.6,5.3c-.2.2-.5.2-.7,0l-1.1-1.4c-.2-.2-.2-.4-.3-.9l-.6-7.7c0-.1,0-.2,0-.2s-.1,0-.2,0l-3.1,2.5c-.2.1-.4.1-.5,0l-1.5-1.8c-.1-.1,0-.4,0-.5l6.4-5.1c.2-.1.4-.3.5,0l1.4,1.7c.1.1.3.5.3,1.3l.5,7c0,0,0,.2,0,.2,0,0,.1,0,.3,0l3.3-2.6c.2-.1.4-.1.5,0l1.5,1.8c.1.1,0,.4,0,.5Z"/>
    <path class="st2" d="M101.2,48l-4.6,3.2h0c.5.8,1.2,1,2.3.3.8-.5,2.2-1.6,2.7-2,.2-.2.3-.2.5,0l.9,1.3c.2.2.2.4,0,.6-.7,1-1.7,1.8-2.9,2.7-2,1.4-4.6,1.6-6.4-1.1l-.6-.9c-1.7-2.5-1.1-4.9,1.3-6.6,2.6-1.8,4.9-1,6.5,1.3l.6.9c.1.2,0,.4,0,.5ZM97.7,48.1c-.6-.9-1.3-1.1-2-.6-.7.5-.7,1.3-.2,2.1h0s2.2-1.5,2.2-1.5h0Z"/>
    <path class="st2" d="M108.7,37.1l2.5,10.4c.5,1.9.3,3.2-2.2,4.6-.6.4-1.8.9-2.3,1-.2,0-.4,0-.5,0l-.8-1.4c0-.2-.2-.4.2-.5.6-.3,1.6-.8,2.2-1.1.4-.3.7-.6.5-1.1l-.2-.6h-.2c-.7.5-1.2.7-2.5-.5l-5.9-5.4c-.2-.2-.1-.4.1-.5l2.5-1.5c.2-.1.4,0,.5.1l4.2,4.4c.2.2.2.2.3.2h.1c0,0-1.9-6.2-1.9-6.2,0-.2,0-.3.2-.5l2.6-1.5c.1,0,.4-.1.5.2Z"/>
    <path class="st2" d="M116.3,35.6l-1.2.6,2.1,4.2c.2.5.3.6.7.4l.7-.4c.2,0,.4,0,.5.1l.7,1.5c0,.2,0,.3-.2.5-.5.4-1,.7-1.4.9-1.7.9-3.1.9-4.3-1.4l-2.1-4.1-1.2.3c-.2,0-.4,0-.5-.2l-.7-1.3c0-.2,0-.4.2-.5l1.1-.5-.6-1.3c0-.2,0-.4.2-.5l2.2-1.6c.3-.2.4,0,.5.1l.8,1.7,1.2-.6c.2,0,.4,0,.5.1l.8,1.6c0,.2,0,.4-.2.5Z"/>
    <path class="st2" d="M119.8,30.3l-2.6,1.2c-.2,0-.4,0-.5-.1l-.7-1.5c0-.2,0-.4.2-.5l2.6-1.2c.2,0,.4,0,.5.2l.7,1.5c0,.2,0,.4-.2.5ZM124.2,40.4l-2.5,1.1c-.2,0-.4,0-.5-.2l-3.8-8.5c0-.2,0-.4.2-.5l2.5-1.1c.2,0,.4,0,.5.2l3.8,8.5c0,.2,0,.4-.2.5Z"/>
    <path class="st2" d="M134.6,36.3l-2.5,1c-.2,0-.4,0-.5-.2l-2.1-5.5c-.3-.9-.7-1-1.5-.7-.4.1-.8.5-1.1.8l2.4,6.3c0,.2,0,.4-.2.5l-2.5,1c-.2,0-.4,0-.5-.2l-3.3-8.7c0-.2,0-.4.2-.5l2.3-.9c.2,0,.4,0,.5.2v.4c.8-1,1.7-1.5,2.6-1.9,2.6-1,3.7.6,4.4,2.6l2.1,5.5c0,.2,0,.4-.2.5Z"/>
    <path class="st2" d="M143.2,23.5v10.7c0,1.9-.5,3.2-3.2,4-.7.2-1.9.4-2.4.4-.2,0-.4,0-.5-.2l-.5-1.6c0-.2,0-.4.3-.5.7-.1,1.7-.4,2.4-.6.5-.1.8-.4.7-.9v-.6s-.2,0-.2,0c-.8.2-1.3.3-2.3-1.2l-4.5-6.6c-.1-.2,0-.4.3-.5l2.8-.8c.3,0,.4,0,.4.2l3.1,5.3c.1.2.2.3.3.2h.1s-.4-6.4-.4-6.4c0-.2,0-.3.3-.4l2.9-.9c.2,0,.4,0,.4.3Z"/>
    <path class="st2" d="M154.9,30.8l-2.4.5c-.2,0-.4,0-.4-.3v-.4c-.6.6-1.4,1.2-2.4,1.4-1.4.3-3.2,0-3.7-2.3v-.2c-.5-2,.9-3.1,3.9-3.8l.8-.2v-.5c-.3-.8-.6-.9-1.5-.7-1,.2-2.5.7-3,.8-.3,0-.4,0-.5-.3l-.4-1.6c0-.3,0-.4.3-.5.5-.3,2-.9,3.1-1.1,2.5-.6,4.6-.1,5.2,2.7l1.3,6c0,.2,0,.4-.3.4ZM151.1,27.4l-.9.2c-.9.2-1.2.5-1,1.3v.2c.2.6.6.7,1.1.5.4,0,.9-.3,1.1-.5l-.4-1.6Z"/>
    <path class="st2" d="M163,16.1c-.4,1.7-1.5,2.7-3.3,3-1.8.3-3.2-.4-4-1.9,0,0,0,0,0-.1,0,0,0-.1.1-.1l2.1-.3c.2,0,.3,0,.3.2.3.6.9.7,1.3.6.4,0,.9-.3,1-1,0-.1,0-.2.3-.3l2.1-.3c.1,0,.2,0,.2,0,0,0,0,0,0,.1ZM165,21.1l-.5.2c.2.3.4.8.5,1.1v.2c.4,2.3-1.2,3.5-4.1,4-.7.1-1.4.1-1.8,0-.1.1-.2.3-.2.4,0,.2.1.3.5.3h2.1c2.3.2,4.5.3,4.8,2.2h0c.3,2.1-1.3,3.3-4.5,3.8-3,.5-4.8-.4-5.1-2.2h0c0-.6.1-1.5.7-2.1-.5-.2-.9-.6-1.1-1.4-.1-.8.2-1.2.6-1.7-.9-.6-1.1-1.4-1.2-2v-.2c-.3-2.1,1-3.5,4.1-4l4.7-.7c.2,0,.4.1.5.3l.2,1.2c0,.2,0,.3-.3.4ZM161.7,22.9c0-.6-.4-1-1.4-.8-1,.1-1.2.6-1.1,1.2v.2c.1.5.4,1,1.5.8,1-.2,1.2-.6,1.1-1.2v-.2ZM162.7,30c0-.3-.2-.5-1.6-.6h-1.1c-.1.2-.2.6-.1,1h0c0,.6.5.8,1.6.7,1.2-.2,1.4-.6,1.3-1h0Z"/>
    <path class="st2" d="M170.7,28.6l-2.7.3c-.2,0-.4-.2-.4-.3l-.9-9.3c0-.2.2-.4.4-.4l2.7-.3c.2,0,.4.1.4.3l.9,9.3c0,.2-.2.4-.4.4Z"/>
    <path class="st2" d="M186.6,17.9c.3,0,.4.1.3.4l-2.1,7.9c-.5,1.8-1.7,2-2.9,2-1.2,0-2.4-.1-3-1.9l-2.4-7.8c0-.2,0-.4.3-.4h3c.3,0,.4.1.4.3l1.4,6.3c0,.2,0,.3.2.3.1,0,.2-.1.2-.3l1.3-6.3c0-.2.1-.4.4-.4h3Z"/>
    <path class="st2" d="M196.7,24.4l-5.6-.3h0c0,.9.3,1.5,1.6,1.6,1,0,2.7,0,3.4,0,.3,0,.4,0,.4.3v1.6c0,.3-.2.4-.5.5-1.2.3-2.4.4-3.9.3-2.4-.1-4.6-1.5-4.4-4.8v-1.1c.2-3,2.1-4.6,5.1-4.4,3.1.2,4.5,2.2,4.4,4.9v1c0,.2-.2.4-.5.4ZM193.9,22.4c0-1-.3-1.7-1.2-1.7-.9,0-1.4.5-1.4,1.6h0c0,0,2.7.2,2.7.2h0Z"/>
    <path class="st2" d="M211.6,30.5l-8.4-1.3c-.3,0-.5-.2-.5-.5l.3-1.8c0-.3.2-.5.5-.8l5.2-5.6c0,0,0-.1.1-.2,0,0,0-.1-.2-.2l-3.9-.6c-.2,0-.3-.2-.3-.4l.4-2.3c0-.2.2-.3.4-.3l8.1,1.3c.2,0,.5.1.4.3l-.3,2.2c0,.2-.2.5-.8,1.2l-4.8,5.1c0,0,0,.1-.1.2,0,0,0,.1.2.2l4.1.6c.2,0,.3.2.3.4l-.4,2.3c0,.2-.2.3-.4.3Z"/>
    <path class="st2" d="M222.6,28.8l-5.5-1.2h0c-.2.9,0,1.6,1.3,1.9.9.2,2.7.5,3.4.6.3,0,.4.1.3.4l-.3,1.5c0,.3-.2.4-.5.4-1.2,0-2.5,0-3.9-.3-2.4-.5-4.3-2.2-3.6-5.5l.3-1.1c.7-3,2.8-4.2,5.7-3.5,3.1.7,4.1,2.9,3.5,5.6l-.2,1c0,.2-.2.3-.5.3ZM220.2,26.3c.2-1,0-1.7-.9-1.9-.8-.2-1.4.3-1.7,1.3h0c0,0,2.6.6,2.6.6h0Z"/>
    <path class="st2" d="M235.7,26.8l-5.9,8.9c-1.1,1.6-2.2,2.4-4.9,1.6-.7-.2-1.8-.7-2.2-1-.2-.1-.3-.3-.3-.4l.5-1.6c0-.2.2-.4.5-.2.6.2,1.7.7,2.3.9.5.1.9,0,1.1-.3l.3-.5h-.2c-.8-.3-1.2-.5-1.2-2.3v-8c0-.3.1-.3.4-.3l2.8.9c.3,0,.3.2.2.4l-.4,6.1c0,.2,0,.3.1.3h.1s3.2-5.5,3.2-5.5c0-.2.2-.3.5-.2l2.9.9c.2,0,.4.2.2.5Z"/>
    <path class="st2" d="M242,31.4l-1.3-.5-1.6,4.4c-.2.5-.2.6.2.8l.8.3c.2,0,.3.3.2.4l-.6,1.5c0,.2-.3.2-.5.2-.6,0-1.1-.3-1.6-.4-1.8-.7-2.8-1.7-1.9-4.1l1.6-4.3-1-.7c-.2-.1-.3-.3-.2-.5l.5-1.4c0-.2.3-.3.5-.2l1.1.4.5-1.3c0-.2.3-.2.5-.2l2.7.5c.3,0,.3.3.3.4l-.7,1.8,1.3.5c.2,0,.3.3.2.5l-.6,1.7c0,.2-.3.3-.5.2Z"/>
    <path class="st2" d="M243.8,40.4l-2.5-1.1c-.2,0-.3-.3-.2-.5l3.6-8.6c0-.2.3-.3.5-.2l2.5,1.1c.2,0,.3.3.2.5l-3.6,8.6c0,.2-.3.3-.5.2ZM248.2,30.3l-2.6-1.1c-.2,0-.3-.3-.2-.5l.7-1.6c0-.2.3-.2.5-.2l2.6,1.1c.2,0,.3.3.2.5l-.7,1.6c0,.2-.3.2-.5.2Z"/>
    <path class="st2" d="M253.9,45.3l-2.4-1.2c-.2,0-.3-.3-.2-.5l2.6-5.3c.4-.8.3-1.2-.5-1.6-.4-.2-.9-.3-1.4-.3l-3,6c0,.2-.3.3-.5.2l-2.4-1.2c-.2,0-.3-.3-.2-.5l4.1-8.4c0-.2.3-.2.5-.2l2.2,1.1c.2,0,.3.3.2.5l-.2.4c1.2-.2,2.2,0,3.1.5,2.5,1.3,2,3.1,1.1,5l-2.6,5.3c0,.2-.3.3-.5.2Z"/>
    <path class="st2" d="M261.4,49.4c-.6-.2-1.4-.5-2.3-1-2.4-1.4-2.9-3.6-1.5-6.1l.6-1.1c1.4-2.4,3.6-3.2,6-1.8.9.5,1.6,1.1,2,1.5.2.2.2.3.1.5l-1,1.7c-.1.2-.3.3-.5,0-.5-.4-1-.7-1.7-1.1-.7-.4-1.3-.2-1.9.9l-.6,1.1c-.6,1.1-.5,1.7.2,2.1.8.4,1.3.7,1.8.9.3.1.3.3.2.5l-1,1.7c-.1.2-.3.2-.5.1Z"/>
    <path class="st2" d="M265.6,52.2l-2.3-1.5c-.2-.1-.2-.4-.1-.5l5-7.8c.1-.2.4-.2.5,0l2.3,1.5c.2.1.2.4.1.5l-5,7.8c-.1.2-.4.2-.5.1ZM271.6,43l-2.4-1.5c-.2-.1-.3-.4-.2-.5l.9-1.4c.1-.2.4-.2.5,0l2.4,1.5c.2.1.2.3.1.5l-.9,1.4c-.1.2-.4.2-.5,0Z"/>
    <path class="st2" d="M270,55.2l-2.2-1.6c-.2-.1-.2-.4-.1-.5l7.2-10.4c.1-.2.4-.2.5,0l2.2,1.6c.2.1.2.3,0,.5l-7.2,10.4c-.1.2-.3.2-.5.1Z"/>
    <path class="st2" d="M274.3,58.4l-2.1-1.6c-.2-.1-.2-.4,0-.5l5.6-7.4c.1-.2.4-.2.5,0l2.1,1.6c.2.1.2.4,0,.5l-5.6,7.4c-.1.2-.4.2-.5,0ZM281,49.7l-2.3-1.7c-.2-.1-.2-.4-.1-.5l1-1.4c.1-.2.4-.1.5,0l2.3,1.7c.2.1.2.4.1.5l-1,1.4c-.1.2-.4.2-.5,0Z"/>
    <path class="st2" d="M283.4,65.9l-2.5-2.2c-.2-.1-.2-.3-.2-.7l.8-4.5-2.5,3c-.1.1-.4.2-.5,0l-2.1-1.7c-.2-.1-.2-.4,0-.5l8.2-9.6c.1-.1.4-.1.5,0l2.1,1.7c.2.1.2.4,0,.5l-4.7,5.5,4.4-1.4c.3-.1.5,0,.6.1l2.4,2c.1.1.1.2,0,.3,0,0,0,0-.1,0l-5.3,1.4-.7,5.8c0,0,0,.1,0,.1,0,0-.2.1-.3,0Z"/>
    <path class="st2" d="M294.2,76.5c-.9-.6-2-1.5-3.2-2.7-1.5-1.6-3-4.6.4-7.8l1.3-1.2c3.4-3.3,6.3-1.6,8,.2,1.3,1.4,2,2.5,2.4,3.2.1.2.2.3,0,.5l-1.6,1.5c-.2.2-.3.1-.4,0-.4-.5-1.4-1.7-2.3-2.6-1.2-1.2-2.1-1.5-3.6,0l-1.3,1.3c-1.7,1.6-1.2,2.6-.7,3.1.2.2.5.5.7.7l2.6-2.4c.1-.1.3-.1.5,0l2,2.1c.1.1.1.4,0,.5l-4.2,4c-.2.2-.3.2-.5,0Z"/>
    <path class="st2" d="M297.5,80.8l-1.7-2.1c-.1-.2-.1-.4,0-.5l7.1-6c.1-.1.4,0,.5,0l1.7,2.1c.1.2.1.4,0,.5l-7.1,6c-.1.1-.4,0-.5,0Z"/>
    <path class="st2" d="M304.2,89c-.7-.6-1.8-1.7-2.8-3-1.8-2.4-1.6-4.7.8-6.5l1.1-.8c2.2-1.6,4.5-1.5,6.4,1.1.2.2.5.7.6,1.1l2.3-1.7c.2-.1.4,0,.5,0l1.6,2.2c.1.2.1.4,0,.5l-9.8,7.3c-.2.2-.4.2-.8-.2ZM308.2,82.5c-.2-.3-.4-.7-.7-1-.6-.8-1.4-.6-2.2,0l-1.1.8c-.8.6-1.3,1.3-.6,2.1.3.4.6.7.8.9l3.8-2.8Z"/>
    <path class="st2" d="M309.6,97.9l-1.3-2.1c-.1-.2,0-.4,0-.5l.3-.2c-.8-.3-1.6-.9-2.1-1.7-.8-1.2-1-3,1-4.3h.2c1.7-1.2,3.3-.2,4.9,2.3l.4.7.4-.3c.7-.5.7-.8.2-1.5-.5-.9-1.5-2.2-1.8-2.6-.2-.2,0-.4,0-.5l1.4-.9c.2-.1.4,0,.5,0,.5.4,1.5,1.6,2.1,2.6,1.4,2.2,1.7,4.3-.7,5.8l-5.2,3.3c-.2.1-.4,0-.5-.1ZM311.6,93.2l-.5-.7c-.5-.8-.9-.9-1.5-.5h-.1c-.5.4-.4.8-.1,1.3.2.4.6.7.9.9l1.4-.9Z"/>
    <path class="st2" d="M316.3,109.9l1.9-1.5-1.4-2.9-2.4.6c-.2,0-.3,0-.5-.2l-1.4-2.8c-.1-.2,0-.4.2-.4l10.6-2.5c1.7-.4,2.6.7,3.4,2.2.8,1.5,1,2.9-.3,4l-8.4,6.8c-.2.1-.3.2-.4,0l-1.4-2.8c-.1-.2,0-.4.1-.5ZM324.1,103.9c.1-.1.2-.1.1-.3s-.1-.1-.3,0l-4.3,1.1.9,1.9,3.6-2.7Z"/>
    <path class="st2" d="M319.1,117.1l-1-2.4c0-.2,0-.4.2-.5l2.2-.9c.2,0,.4,0,.5.2l1,2.4c0,.2,0,.4-.2.5l-2.2.9c-.2,0-.4,0-.5-.2Z"/>
    <path class="st2" d="M320.8,124.3l-2.7-1.5c-.2,0-.2-.1-.3-.4l-.8-2.2c0-.1,0-.2,0-.2,0,0,.1,0,.2,0l2.4.9c.2,0,.3.1.4.4l.9,2.7c0,.1,0,.2,0,.2s0,0-.2,0ZM321.1,123c-.5-1.4-.7-2.6-.8-3.6,0-.2,0-.4.2-.5l2-.7c.2,0,.4,0,.5.2.2.8.6,2.6.9,3.5.3.8.7,1,1.2.8.3-.1.4-.3.6-1.1l.5-2.9c.3-1.9,1.3-2.7,2.6-3.2,1.8-.6,3.6,0,4.8,3.3.5,1.3.9,3.2.9,4,0,.2,0,.4-.2.4l-2,.7c-.2,0-.3,0-.4-.2-.2-.7-.7-2.7-1.1-3.9-.2-.6-.5-.8-.8-.7-.3.1-.4.3-.5,1.2l-.4,2.7c-.3,1.9-1.2,2.9-2.5,3.4-1.8.6-4.2,0-5.4-3.5Z"/>
    <path class="st1" d="M302.1,65.7c-31.4-31.4-73.2-48.7-117.6-48.7s-86.2,17.3-117.6,48.7c-31.4,31.4-48.7,73.2-48.7,117.6s17.3,86.2,48.7,117.6c31.4,31.4,73.2,48.7,117.6,48.7s86.2-17.3,117.6-48.7c31.4-31.4,48.7-73.2,48.7-117.6s-17.3-86.2-48.7-117.6ZM308.9,137.9c-2.2-.2-4.3-.4-6.5-.6.8-4.5,1.5-9.1,1.9-13.7-3.4-6.1-7.2-11.8-11.1-17,0,10.2-.9,20.4-2.9,30.3-4.5,0-9.1.3-13.8.7-.1,0-.2,0-.3,0,3.8-14.6,5.5-29.8,5-45-4.3-4.5-8.6-8.4-12.7-12,2.2,19.9.4,39.8-5.1,58.7-5.6,1-11.1,2.3-16.4,3.9,7.9-23.7,10.2-48.9,6.6-74-5.9-4-10.7-6.7-13.5-8.2,6.2,29.6,3.5,59.8-7.7,87.3-25.2,10.4-45.9,27.1-59.4,47.4-22.5-16.4-51.5-26.3-83.3-26.3s-25.7,1.7-37.7,4.8c0,1.9-.1,3.7-.1,5.6,0,35.2,13.7,68.4,38.6,93.3,13.5,13.5,29.5,23.8,46.9,30.3l1.3,11.5c-20.7-6.9-39.7-18.5-55.6-34.4-26.9-26.9-41.7-62.6-41.7-100.6s14.8-73.7,41.7-100.6c26.9-26.9,62.6-41.7,100.6-41.7s0,0,.1,0,0,0,.1,0c46.9,0,88.4,22.8,114.2,57.8,10,13.5,17.4,28.5,22,44.4-1.8-.5-5.3-1.3-11.5-2.1,0,0,0,0,0,0Z"/>
    <path class="st2" d="M155.7,128.3c-.1-1.1,0-2.2.1-3.3,0-.5.2-1.1.3-1.6-.4.7-.7,1.5-.9,2.5,0,.7-.1,1.5-.1,2.2,0,1.1.2,2.3.4,3.4.3,1.2.9,2.1,1.7,3.1.6.8,1.2,1.7,1.3,2.7,0,1-.4,2-.3,3,.2,1.1.8,2.1,1.5,3,.1,0,.2.2.3.3.1.1.3.2.5.4,0,0,0,0,0-.1-.1-.2-.3-.5-.5-.9-.2-.4-.5-.9-.7-1.5,0-.2-.1-.3-.2-.5,0-.2,0-.4-.1-.5,0-.2,0-.4,0-.6,0,0,0,0,0-.2h0c0-.2,0-.3,0-.4,0-.4.2-.8.2-1.2,0-.2,0-.4,0-.6,0,0,0-.2,0-.3,0-.1,0-.2,0-.3-.1-.4-.3-.8-.5-1.2-.2-.4-.5-.8-.8-1.2-.1-.2-.3-.4-.4-.6-.1-.2-.3-.4-.4-.7-.3-.5-.5-1-.6-1.5-.3-1-.5-2.1-.6-3.2Z"/>
    <path class="st2" d="M298.4,95.6c-25.8-35.1-67.4-57.8-114.2-57.8s0,0-.1,0,0,0-.1,0c-38,0-73.7,14.8-100.6,41.7-26.9,26.9-41.7,62.6-41.7,100.6s14.8,73.7,41.7,100.6c15.9,15.9,34.9,27.5,55.6,34.4l-1.3-11.5c-17.4-6.5-33.4-16.7-46.9-30.3-24.9-24.9-38.6-58-38.6-93.3s0-3.7.1-5.6c11.9-3.1,24.6-4.8,37.7-4.8,31.8,0,60.9,9.9,83.3,26.3,13.5-20.3,34.2-37,59.4-47.4,11.1-27.6,13.9-57.7,7.7-87.3,2.8,1.5,7.6,4.2,13.5,8.2,3.6,25.1,1.3,50.3-6.6,74,5.3-1.6,10.8-2.9,16.4-3.9,5.5-18.9,7.3-38.8,5.1-58.7,4.2,3.5,8.5,7.5,12.7,12,.4,15.2-1.3,30.4-5,45,0,0,.2,0,.3,0,4.6-.4,9.2-.7,13.8-.7,2-9.9,2.9-20.1,2.9-30.3,3.9,5.2,7.7,10.9,11.1,17-.5,4.6-1.1,9.2-1.9,13.7,2.2.2,4.4.4,6.5.6,0,0,0,0,0,0,6.2.7,9.7,1.5,11.5,2.1-4.6-15.9-12.1-30.9-22-44.4ZM207.4,88.3c.3,1.7.2,2.1-.8,3.3-.7-1.2-.6-1.9.8-3.3ZM209.3,90.9c-.3,1.9-1.2,3.1-2.9,3.5.3-2.3.9-3,2.9-3.5ZM204.8,95.1c-.9-1.2-.8-2.3.5-4.1,1,1.5.4,2.9-.5,4.1ZM203.5,87.3c1.3,1.1,1.3,2.4.8,3.9-1.7-.9-1.6-2.2-.8-3.9ZM203.6,95.2c-.4,1.7-.6,2-2.1,2.7-.2-1.4.2-1.9,2.1-2.7ZM200.9,96.4c-.4-1.7-.4-2.1.6-3.4.8,1.2.7,1.8-.6,3.4ZM203.2,93.8c-1-1-1.1-2.1-.9-3.4,1.2.9,1.3,2,.9,3.4ZM199.6,90.8c.6-1.3,1.6-1.7,2.9-2-.4,1.5-1.4,1.9-2.9,2ZM195.3,93.9c1.5-1.5,3.3-2.3,5.2-1.9-1.3,1.5-3.2,2.6-5.2,1.9ZM196.8,100c-1.5-1.8-1.2-3.3-.2-4.9,1.7,2.6,1.7,3.1.2,4.9ZM190.5,98.6c.4-2,1.7-3.1,3.4-3.9,0,2.3-1.4,3.3-3.4,3.9ZM193.5,101.8c-1.1-.9-1.2-1.5-.5-3.4.9,1.4,1,1.8.5,3.4ZM167.5,97.6c-.3.6-1.5,1.8-1.6,1.9-.3-.8,0-1.9.3-2.6.4-1,1.4-1.5,1.7-1.8,0,0,.2,1.3-.4,2.5ZM168.4,114.5c-2.2-.3-3.1-1.8-3.4-3.9,2,.6,2.9,2.1,3.4,3.9ZM167.8,108.2c1.6,1.4,1.8,3,1.6,4.9-1.9-1.2-2.2-2.9-1.6-4.9ZM168.5,98.1c-.4-1.2,0-2.4,0-2.8,0,0,1.2.9,1.7,2.4.2.8.2,2.7.1,2.8-.9-.5-1.5-1.6-1.8-2.5ZM184.9,96.5c-.2-2.1.8-3.4,2.3-4.6.5,2.2-.5,3.5-2.3,4.6ZM190.2,96.1c-1.9,1.2-2.4,1.3-4.5.6,1.2-1.4,2-1.6,4.5-.6ZM186.2,90.4c-1.2-1.3-1.3-2.8-.9-4.4,1.6,1.2,1.6,2.7.9,4.4ZM184.7,82.8c1.6.6,2.3,1.8,2.7,3.4-1.8-.4-2.5-1.6-2.7-3.4ZM184.3,94.9c-1.6-1.8-1.7-3.9-.4-5.5,1.8,1.7,1.3,3.6.4,5.5ZM177.3,96.9c0,1.3-.7,2.1-1.7,2.8-.2-1.4.5-2.2,1.7-2.8ZM174.2,91.9c2.2.4,3,1.9,3.3,4-2-.7-2.8-2.1-3.3-4ZM177.9,106.6c-1.4-.2-1.8-.7-2.2-2.6,1.6.7,1.8,1,2.2,2.6ZM180.1,109.1c-2.2.2-4.2.3-5.5-1.8,2.2-.5,3.1-.2,5.5,1.8ZM177.5,99.9c.8.1,1.6.9,2.1,1.5.6.9.7,2,.8,2.4,0,0-1.2-.4-2-1.5-.4-.6-1-2.2-.9-2.4ZM176.1,91.6c2.4-.4,3.1,0,3.9,2.1-1.8.5-2.7,0-3.9-2.1ZM179.1,91c-.5-1.3-.3-1.9,1.3-3.2.1,1.7,0,2.1-1.3,3.2ZM184,96.9c-2-.5-2.9-1.9-3.6-3.7,2.3.3,3.2,1.7,3.6,3.7ZM181.4,96.7c-1.4.5-2,.3-3.3-1.3,1.8,0,2.2,0,3.3,1.3ZM184.2,97.6c-.9,1.1-1.6,1.1-3.4.3,1.5-.9,1.9-.9,3.4-.3ZM184.4,88.1c-1.5-1.4-1.8-3-1.5-4.9,1.9,1.2,2.1,2.9,1.5,4.9ZM182,90.5c-1.1-1.7-.9-3.4-.2-5.2,1.5,1.7,1.3,3.3.2,5.2ZM178.3,86.3c.7-1.5,2-2.1,3.5-2.3-.5,1.8-1.8,2.3-3.5,2.3ZM175.7,83.4c1.8-1.3,3.6-1.1,5.6-.4-1.8,1.7-3.5,1.5-5.6.4ZM178.5,85.7c-.8.4-1.6.7-2.4,1.1.2,0,.4,0,.6,0,.8,0,2.7.4,2.8.6-.6.7-1.8,1-2.7,1-1.1,0-2.2-.5-2.6-.6,0,0,0,0,0,0,0,0,0,0,0,0,0,0,0,0,0,0,0,0,0,0,.1,0,1.1-2.4,1.9-2.8,4.3-1.9ZM177.6,89.7c-1.2,1.4-2.1,1.5-4.5.5,1.9-1.2,2.5-1.2,4.5-.5ZM174.7,98c-1.6-1.6-2.2-3.9-2-6.3,2,1.4,2.5,4,2,6.3ZM173.6,98.3c-2.2-.7-3.9-1.7-4.7-3.9,2.7.2,3.8,1.1,4.7,3.9ZM172.3,110.7c0,1.7-.9,2.7-2.2,3.6-.2-1.8.7-2.8,2.2-3.6ZM172.1,105.5c1.2-.8,2.2-.5,3.3.4-1.2.5-2.2.2-3.3-.4ZM175.1,112.8c-1.6-1.1-1.7-1.3-2-4.1,2,1.4,2.2,1.8,2,4.1ZM175.1,109.6c1.7.1,3.4.3,5.4.4-2.5,1.8-3.5,1.8-5.4-.4ZM178.7,103.6c2.3,1.1,2.3,3,2.1,5.1-2.1-1.2-2.8-3.1-2.1-5.1ZM178.1,98.8c2.1-.2,2.6,0,4,1.2-1.6.6-2.3.3-4-1.2ZM181.4,100.8c1.8,1.5,1.6,3.2.5,5.2-1.3-1.6-1.2-3.3-.5-5.2ZM184.8,104.5c-.3,2-1.4,3.8-3.5,4.3.5-2,1.7-3.6,3.5-4.3ZM184.6,103.3c-.6-.5-.9-1.5-.9-2.3,0-1,.5-1.9.5-2.2,0,0,.8.9.8,2.2,0,.7-.3,2.2-.4,2.3ZM184.8,97.4c2.3.2,3.2,1.6,3.6,3.7-2-.5-3-1.9-3.6-3.7ZM188.3,103.9c-.5-.5-1-1.2-1.5-2.2,2,.4,3.7,1,4.1,3,0,0,0,0,0,0-.6.5-1.7.7-2.4.7-1.1,0-2-.7-2.4-.8,0,0,1-.6,2.2-.6ZM189.3,98.6c1.9.9,3.3,2,2.7,4.3-2.2-.6-2.8-1.5-2.7-4.3ZM188.2,92.9c1.7.4,3.4.7,5.3,1.1-2.7,1.4-3.7,1.3-5.3-1.1ZM186.8,89.5c2.3,0,3.5,1.2,4.1,3.3-2.1-.2-3.1-1.5-4.1-3.3ZM186.8,87.4c1.7-.8,3.3-.6,4.6.8-2.1.9-3,.8-4.6-.8ZM189.4,80.7s0,0,0,0c0,0,0,0,0,0,0,0,0,0,0,.1,1.9,1.8,2.1,2.7.6,4.7-.1-.8-.2-1.7-.4-2.6,0,.2,0,.4-.1.6-.2.8-1.2,2.4-1.4,2.5-.5-.8-.4-2-.2-2.9.3-1.1,1.1-1.9,1.4-2.3,0,0,0,0,0,0ZM190.9,79.9c2.4.5,3.7,2.1,3.6,4.2-2.5-.3-3.2-2.1-3.6-4.2ZM191.4,84.3c1.6,1.3,2.8,2.6,2,4.7-1.9-1.1-2.3-2.1-2-4.7ZM193.1,84.7c2.2.2,2.7.5,3.8,2.4-1.8.4-2.6,0-3.8-2.4ZM197.5,89.5c-.2-2.2,0-2.7,1.5-4.3.8,1.7.5,2.5-1.5,4.3ZM199.9,88.5c-.1,1.6-1.1,2.5-2.4,3.2-.2-1.8.8-2.6,2.4-3.2ZM195.2,83.5c1.3,0,2.1.7,2.8,1.7-1.4.2-2.2-.5-2.8-1.7ZM195.7,88.2c1.4,2.1.5,3.8-.8,5.5-1.1-2.1-.9-4.1.8-5.5ZM199.8,94.1c1.1,2,.7,3.7-.7,5.2-.9-1.9-.3-3.5.7-5.2ZM200.2,89.3c-.2-1.4.5-2.2,1.7-2.8,0,1.3-.7,2.1-1.7,2.8ZM198.1,81.8c1.7-.3,2.1-.2,3.3.9-1.2.7-1.9.5-3.3-.9ZM196.5,80.9c.8.6,1.2,1.6,1.6,2.7-2.2-.4-3.3-1.8-4.2-3.6,0,0,0,0,0,0,0,0,0,0,0,0,2-1.4,3.7-1,5.6.3-1,.5-2,.7-2.9.6ZM193.3,78.7c1.6-1.5,3.1-2.8,5.4-1.9-1.4,1.8-2.3,2.1-5.4,1.9ZM192.2,71.9c-.9-1.1-.8-2.1,0-3.3.7,1.1.5,2.2,0,3.3ZM191.7,78.1c-1.7-1.6-1.4-3.3-.3-5.2,1.3,1.7,1,3.4.3,5.2ZM189.6,66.2c1.2-.6,2.3-.4,3.4.1-1.2.9-2.2.7-3.4-.1ZM183.5,75.1c.8-1.9,2.3-2.6,4.1-3-.6,2.2-2,2.9-4.1,3ZM187.6,74.5c-.2,2.3-.7,4.3-2.9,5-.2-2.5.4-3.5,2.9-5ZM181.8,74c.3,2.2-.7,3.7-2.2,5.1-.7-2.3.3-3.8,2.2-5.1ZM179.9,71.1c.7,1.1.6,2.1.2,3.3-1-1.1-.8-2.1-.2-3.3ZM186.3,68.8c-2.1.8-3.8.1-5.5-1.1,2.2-1.2,3.8-.5,5.5,1.1ZM185.6,67.1c1.7-1,3.1-.5,4.5.7-1.7.7-3.1.2-4.5-.7ZM186.6,71.4c-1.8.6-2.6.3-4.1-1.8,2.3,0,2.7.2,4.1,1.8ZM182.9,73.7c-1.8-1.3-2.3-3-2.3-5.1,2.2,1.1,2.6,2.8,2.3,5.1ZM184.3,76c0,2-1.2,3-3,3.5.3-1.8,1.5-2.8,3-3.5ZM187.2,69.2c1.3-.2,2.2.4,3,1.3-1.4.4-2.3-.2-3-1.3ZM189.9,75c-1.1-1-1.1-2.1-.5-3.3.9,1,.8,2.1.5,3.3ZM188.3,74.5c1.4.9,1.8,2.2,1.9,3.8-1.7-.7-2.1-2.1-1.9-3.8ZM189.2,64.4c1.4-1.3,2.9-1.5,4.7-1.4-1.3,1.7-2.8,1.8-4.7,1.4ZM195.1,73.3c.6,2.4-.5,3.8-2.5,5-.2-2.2.9-3.7,2.5-5ZM197.9,73.5c-.2,1.3-1,2-2,2.6,0-1.4.8-2.1,2-2.6ZM193,73.3c-.1-1.8.8-2.7,2.4-3.3-.1,1.6-1.1,2.5-2.4,3.3ZM191.3,62.3c.8-1.4,2-2.2,3.6-1.9-.6,1.5-1.9,2.5-3.6,1.9ZM194.4,57.6c-.2,1.3-1,2.1-2.1,2.6,0-1.5.8-2.2,2.1-2.6ZM191.3,57.9c.4,1.8-.4,2.8-1.9,3.6-.1-1.6.7-2.7,1.9-3.6ZM188.8,56.6c.9,1,.8,2.1.5,3.3-1.1-1-1.1-2.1-.5-3.3ZM186.4,55.5c1.4,1.5,1.2,3.1.2,4.7-1-1.6-.8-3.1-.2-4.7ZM186.4,62.5c0-.7.5-1.5,1.4-2.5.9,1.7.1,3-1,4.2,0,0,0,0,0,0,0,0,0,0,0,.1-2-.6-2.8-2.1-3.5-4,1.6.4,2.5,1.1,3,2.3ZM185.3,65.2c-2.5.2-3.5-1.4-4.4-3.3,2.4,0,4,1.2,4.4,3.3ZM184.9,59.2c-1.4-.5-1.7-1.5-1.7-2.8,1.2.6,1.5,1.6,1.7,2.8ZM183,59.1c-.8,1.2-1.9,1.4-3.2,1,.9-1,2-1.1,3.2-1ZM178.4,65.3c-.1-2,0-3.8,1.9-4.7.5,2.1,0,3.1-1.9,4.7ZM181.5,56.3c-.2,1.9-1.4,2.9-3.1,3.6-.2-2.2,1-3.1,3.1-3.6ZM178.5,54.2c.7,1.5.6,3.1-1,3.9-.5-1.5-.2-3,1-3.9ZM176.6,57.4c-1.8-1.4-2-1.8-2.1-4,1.8.6,2.2,1.4,2.1,4ZM177,58.6c-2.3.7-3.8-.3-5.1-2.2,2.2-.3,3.7.7,5.1,2.2ZM164.8,83.6c1.3-1.7,3.3-2,5.5-.9-1.7,1.3-3.3,2.3-5.5.9ZM166.5,90.6c-1.4-1.6-1.4-3.2-.9-5.1,1.7,1.5,1.7,3.1.9,5.1ZM152.9,81c2.5-.7,3.4-.5,4.9,1.3-2.1.6-3.7.2-4.9-1.3ZM155.9,86.5c-2.3-.6-2.8-1.3-3.6-4.9,2.3.9,3.3,2.7,3.6,4.9ZM152.8,80.1c.3-1.6,1.4-2.3,3.8-2.5-.6,1.9-2.1,2.4-3.8,2.5ZM159,85.2c-1.4.3-2,0-2.9-1.8,1.7.2,2.1.4,2.9,1.8ZM158.1,75.7c1.3,1.5,2,3.6,1,5.4-1.2-1.7-1.7-3.6-1-5.4ZM161.7,93.6c-1.4.5-2,.3-3.3-1.3,1.8,0,2.2,0,3.3,1.3ZM160,90.8c2.2-.6,2.8-.5,4.6.8-1.6,1.1-2.5.9-4.6-.8ZM163,69.4c-1.4,1.2-2.3,1.2-4.5-.2,2.1-.9,2.6-.8,4.5.2ZM155.9,64.5c2.4,0,4,1.2,4.4,3.3-2.5.2-3.5-1.4-4.4-3.3ZM172.7,70.1c-1.6,1.3-3.1,2.2-4.9,1.1,1.5-1.6,2.5-1.8,4.9-1.1ZM170.3,67.6c2.1-1.4,3.8-.5,5.5.7-2.1,1.2-4.1.9-5.5-.7ZM166.2,69.7c.9-1.5,2.1-1.9,3.7-2-.7,1.7-2,2.2-3.7,2ZM170.5,72.2c-1.1,2-2.1,2.4-5.2,2.4,2-2,2.6-2.3,5.2-2.4ZM161,70.8c2-.8,3-.6,4.9,1.2-2,.4-3.8.5-4.9-1.2ZM161.1,67.7c2-.7,2.5-.7,4.2.4-1.4,1.1-2.2,1-4.2-.4ZM160.3,65.8c1.6-.5,2-.4,3.4.5-1.2.8-1.8.7-3.4-.5ZM162.7,74.2c-1.9-.5-3.7-1.8-3.9-3.9,1.9.7,3.4,2.1,3.9,3.9ZM164.2,74.2c-.3,1.4-.8,1.8-2.8,2,.8-1.5,1.2-1.7,2.8-2ZM167.1,76.5c-1.2,1.4-2.1,1.5-4.5.3,2-1.1,2.5-1.1,4.5-.3ZM170.5,81.1c-1.5.5-2.9.5-4.2-.5,1.6-.8,2.9-.8,4.2.5ZM166,79.5c-1.4.5-2,.3-3.3-1.3,1.8,0,2.2,0,3.3,1.3ZM163,80.9c-2-1-2.4-1.4-2.8-3.5,1.8.2,2.4.9,2.8,3.5ZM160.4,80c1.3,1.2,1.4,2.5,1,4.1-1.6-1-1.7-2.4-1-4.1ZM161.8,86.6c2.5.4,3.1,2.2,3.5,4.3-2.3-.6-3.6-2.1-3.5-4.3ZM170.5,83.3c.7,2.4-.8,3.7-2.5,4.9-.4-2.4.5-4.2,2.5-4.9ZM167,79.4c.9-1.6,1.2-2,3.1-2.6-.9,0-1.8-.3-2.7-.9,1.5-1,2.8-.6,4.1.5,0,0,0,0,0,0,0,0,0,0,0,0,0,0,0,0,0,0,0,0,0,0,0,0-1.3,2.5-1.8,2.8-4.5,2.9ZM169.8,74.8c1.2-2.1,3-2.9,5.1-2.2-1,2.3-3,2.4-5.1,2.2ZM172.5,71.8c.9-1.9,2.4-2.6,4.3-2.9-.6,2.2-2.2,2.9-4.3,2.9ZM171.6,63.8c2.3.4,4.6,1.7,5.2,4.1-2.4-.6-4.3-2-5.2-4.1ZM169.7,61.4c2-.5,3.5.2,4.9,1.5-2.1.9-3.5.1-4.9-1.5ZM171.2,60.3c2.1-.9,3.9-1.6,5.8,0-1.9,1.2-2.9,1.2-5.8,0ZM171.9,59c-1.8-.6-2.3-1.9-2.2-3.7,1.5.8,2,2.1,2.2,3.7ZM168.9,57.8c.7,1,.6,1.9.2,3-.9-.9-.8-1.9-.2-3ZM170.8,66.1c-2.1-1.3-3.6-3.1-3.8-5.4,2.1,1,3.9,2.9,3.8,5.4ZM170.3,66.3c-2,1.3-4.1,1.1-5.5-.4,2-1.5,3.7-.7,5.5.4ZM166.8,63.8c-1.9,0-2.8-1.2-3.3-2.9,1.7.3,2.6,1.4,3.3,2.9ZM157.6,63.8c2.1-.9,3.9-1.6,5.8,0-1.9,1.2-2.9,1.2-5.8,0ZM162.8,59.2c-1.4,1-2.8,2-4.4,3.2.7-3,1.5-3.6,4.4-3.2ZM159.4,56.3c.4,1.3,0,2.2-.8,3.2-.6-1.3-.2-2.3.8-3.2ZM156.6,57.7c1.3,1.6,1.2,3.3.7,5.1-1.7-1.5-1.6-3.2-.7-5.1ZM155,59.2c-1.4-.5-1.8-1.5-1.8-2.9,1.2.7,1.6,1.7,1.8,2.9ZM156,62.5c-2.1,0-3.3-1.2-4.3-2.9,2.3-.3,3.5.9,4.3,2.9ZM152.6,66.7c-.3,2-1.7,2.8-3.6,3.1.6-1.8,1.9-2.6,3.6-3.1ZM149.9,65.9c1-1.8,2.6-2.3,4.5-2.5-.8,2.1-2.4,2.6-4.5,2.5ZM153,70.3c-.9,1.1-1.5,1.3-3.4.6,1.4-1,1.8-1,3.4-.6ZM146.5,68.7c.4-1.7,1.5-2.5,3-3.2-.1,1.9-1.2,2.7-3,3.2ZM144.4,63.8c1.9-1,3-.9,5,.6-1.9.7-3.7,1-5-.6ZM148.7,68.5c-.3,1.3-.9,2.2-1.7,2.7.6.1,1.4.4,2.3,1-1.6,1.3-3.1.7-4.5-.2,0,0,0,0,0,0,.6-2,2.1-2.8,4-3.5ZM148.9,75.2c-1.8.3-2.9-.6-3.6-2.1,1.7,0,2.7.9,3.6,2.1ZM148.7,75.8c1.1,1.5,1,3,.5,4.6-1.5-1.4-1.3-2.9-.5-4.6ZM149.6,73.7c1.4,1,1.6,1.4,1.7,3-1.4-.4-1.7-1-1.7-3ZM149.7,72.5c2-1.2,3.6-.6,5.1,1-2,.8-3.5.2-5.1-1ZM153.3,66.6c2.3,1.1,2.3,3,2.1,5.1-2.1-1.2-2.9-3.1-2.1-5.1ZM154,62.5c-1.8,1.4-3.4,1.1-5.2,0,1.8-1.1,3.4-.8,5.2,0ZM151.1,61.2c-1.5-.2-2.1-1.2-2.3-2.6,1.3.4,1.9,1.4,2.3,2.6ZM148.8,61c-1.9,1.4-3.6,2.4-5.7,1.2,0,0,0,0,0,0,0-.9.7-2,1.3-2.6.9-.9,2.2-1.2,2.5-1.4,0,0-.2,1.3-1.2,2.4.8-.1,1.7,0,3,.4ZM142.1,59c.9-1.6,1.7-2,3.9-2-1.1,1.4-2.2,2.4-3.9,2ZM144.4,54.7c.2,1.2,0,1.7-1.6,2.5.2-1.5.4-1.8,1.6-2.5ZM141.3,58.9c-2,.4-3.6-.4-4.3-2.1,2.1-.6,3.2.6,4.3,2.1ZM141.2,61.9c-2.2.4-3.7-.5-5.2-2,2.3-.8,3.9.1,5.2,2ZM142.5,69c-1.7-1.5-1.9-3.2-1.7-5.2,2,1.3,2.3,3.1,1.7,5.2ZM140.2,66.5c-1.7,1.4-3.5,1.4-5.5.8,1.6-1.8,3.4-1.8,5.5-.8ZM134,67c-.7-2.3.3-3.8,2.2-5.1.3,2.2-.7,3.7-2.2,5.1ZM136.5,65.4c.4-1.8,1.7-2.5,3.4-2.6-.6,1.6-1.9,2.2-3.4,2.6ZM134.3,62.7c-.3-1.7-.2-2.1.8-3.3.7,1.2.6,1.9-.8,3.3ZM134.7,55.4c.5,2.4-.5,3.8-2.5,4.9-.2-2.2.9-3.6,2.5-4.9ZM130.6,53.2c1.4,1.7,1.4,3.5.8,5.5-1.8-1.6-1.8-3.4-.8-5.5ZM125.1,58.2c1.3,1.1,1.5,2.5,1.4,4.1-1.6-1-1.8-2.4-1.4-4.1ZM129,66.4c-2.1,0-3.3-1.2-4.3-2.9,2.3-.3,3.5.9,4.3,2.9ZM141.4,77.1c-2.2.9-4.2.4-5.4-1.3,2.2-1.2,3.8,0,5.4,1.3ZM139.1,71.1c1.9,1.4,3.4,3.5,2.9,6-1.8-1.6-3-3.7-2.9-6ZM141.3,77.9c-1,1.6-2.3,1.8-4,1.4,1.1-1.3,2.4-1.5,4-1.4ZM135.2,70c2.2.4,3,1.9,3.3,4-1.9-.7-2.8-2.2-3.3-4ZM136.4,74.2c-.5,1.8-1.8,2.3-3.5,2.3.7-1.5,2-2.1,3.5-2.3ZM132.5,74.9c.6-1.6,1.3-3.2,2-5.1.9,2.9.6,3.9-2,5.1ZM128.8,72.4c1-2,1.9-2.6,4.9-3-1.3,1.8-2.5,3.4-4.9,3ZM131.4,76.4c-1.1-1.1-1.1-2.3-.9-3.7,1.3,1,1.4,2.2.9,3.7ZM146.9,98c-.8-1.1-.6-2.1.2-3.2.6,1.1.4,2.1-.2,3.2ZM148.5,98.2c.4,1.3,0,2.3-.8,3.4-.7-1.4-.2-2.4.8-3.4ZM146.4,101.3c-1.9-1.2-2.1-2.8-1.6-4.9,1.5,1.4,1.8,3,1.6,4.9ZM141.6,91.9c-1.3,1.4-2.6,1.3-4.2.5,1.3-1,2.7-1,4.2-.5ZM138.1,91.2c.2-1.5.4-1.8,1.6-2.5.2,1.2,0,1.7-1.6,2.5ZM140.6,96.4c-1.8-.2-2.6-1.3-3-3,1.6.4,2.4,1.5,3,3ZM144.9,100.7c-2.4.2-3.7-1.1-4.6-3.2,2.2.2,3.5,1.4,4.6,3.2ZM143.5,85.3c1.5.9,1.9,2.1,2,3.7-1.7-.7-2.2-2-2-3.7ZM143.9,97.6c-1.9-.8-2.3-2.2-2.1-4.1,1.6,1,2,2.4,2.1,4.1ZM141.1,88.2c-.9-2.3.4-3.8,2-5.2.7,2.3,0,4.2-2,5.2ZM139.1,84.5c.7-1.5,2-2.1,3.5-2.3-.5,1.8-1.8,2.3-3.5,2.3ZM140.1,85.2c0,1.5-.8,2.4-2,3.2-.2-1.6.6-2.5,2-3.2ZM136.6,86.6c.2-1.5.4-1.8,1.6-2.5.2,1.2,0,1.7-1.6,2.5ZM137.1,92.1c-1.5-1.2-1.9-2.8-1.1-4.4,1.7,1.1,1.5,2.7,1.1,4.4ZM133.6,86.4c.3-1.7,1.4-2.5,3-3,0,1.9-1.2,2.7-3,3ZM134.8,88.7c-.4.9-1.2,1.4-1.4,1.7,0,0-.2-1.1.2-2.2.2-.6,1.2-1.7,1.4-1.7.3.7,0,1.7-.2,2.3ZM132.9,84.8c-.3-2.1.6-3.5,2-4.8.7,2.2-.2,3.6-2,4.8ZM129.7,82.9c.6-2.2,2.1-3.2,4-3.9-.3,2.4-1.8,3.4-4,3.9ZM130.1,88.3c.6.4,1.8,1.6,1.8,1.8-.8.2-1.8-.2-2.5-.6-.9-.5-1.4-1.6-1.7-1.8,0,0,1.2-.1,2.4.6ZM129.2,83.8c1.3,1,1.4,2.2.9,3.7-1.1-1.1-1.1-2.3-.9-3.7ZM131.1,87.2c-.2-.8,0-2.7,0-2.8.8.6,1.4,1.7,1.6,2.6.3,1.2-.2,2.4-.1,2.8,0,0-1.1-1-1.5-2.5ZM128.6,81.5c-.5-1.6-.2-3,1-4,.7,1.5.6,3.1-1,4ZM128.4,84.6c-1,2.3-3,2.4-5.1,2.2,1.2-2.1,3-2.9,5.1-2.2ZM130.4,69c-2.3.8-4.2.1-5.3-1.7,2.3-1,3.8.2,5.3,1.7ZM129.7,63.3c1.3,1.5,2,3.6,1,5.4-1.2-1.7-1.7-3.6-1-5.4ZM126.5,69.8c-.1,2.4-1.6,3.5-3.8,4,.5-2.2,1.9-3.2,3.8-4ZM126.6,76.1c-1.8.5-3.2,0-3.9-1.5,1.8-.7,2.9.3,3.9,1.5ZM121.7,87.6c-.7-2.3.3-3.8,2.2-5.1.3,2.2-.7,3.7-2.2,5.1ZM127.4,89c-2,.9-3.8.4-5.5-.6,2.1-1.3,3.8-.8,5.5.6ZM125.7,79.2c1.3,1.9.8,3.5-.5,5.1-.9-1.9-.4-3.5.5-5.1ZM124.1,77.9c1.3-1.1,2.7-1.1,4.2-.7-1.2,1.4-2.6,1.4-4.2.7ZM129.8,76.1c-2-.2-3.1-1.5-3-3.4,2.1,0,2.6,1.6,3,3.4ZM127.2,60.9c2.2-.4,3.2-.1,5.4,2.1-2.2,0-4.2.1-5.4-2.1ZM123.5,71c-1-1.2-.9-2.4.4-4.5,1.1,1.6.5,3.1-.4,4.5ZM124.4,61.7c.3,2-.1,4.1-2,5.1-.1-2.1.5-3.9,2-5.1ZM122.2,60.6c1,1.6.8,2.4-.9,4.4-.5-2.2-.4-2.7.9-4.4ZM120.6,65.7c1.5,1.8,2.3,4.3,1.2,6.5-1.4-2-1.9-4.3-1.2-6.5ZM119,60.6c1.2.7,1.4,1.3,1,3.3-1.1-1.3-1.3-1.7-1-3.3ZM116.7,63c2.5.5,3,2.3,3.4,4.4-2.3-.7-3.6-2.3-3.4-4.4ZM117.3,71.1c-1.8.6-2.9-.1-3.9-1.5,1.7-.3,2.8.4,3.9,1.5ZM120.2,80c-.1,2.4-1.6,3.5-3.8,4,.5-2.2,1.9-3.2,3.8-4ZM116,81.7c-.9-1.9-.4-3.5.5-5.2,1.3,1.9.8,3.5-.5,5.2ZM117.9,79.9c.7-1.5,2-2.1,3.5-2.3-.5,1.8-1.8,2.3-3.5,2.3ZM116,75.3c2.2-1.2,3.8,0,5.4,1.3-2.2.9-4.2.4-5.4-1.3ZM115.7,72.9c2-1.2,3.6-.6,5.1,1-2,.8-3.5.2-5.1-1ZM114,79.9c-.9-1.4-.6-2.6,1-4.4.9,1.8.2,3.2-1,4.4ZM111.6,73.2c1.3,1.5,2,3.6,1,5.4-1.2-1.7-1.7-3.6-1-5.4ZM111.2,89.3c-.2-2.2.8-3.7,2.3-5.1.6,2.4-.4,3.8-2.3,5.1ZM113.2,92.5c-.8-1.5-.5-2.8.2-4.2,1.1,1.5.8,2.8-.2,4.2ZM111.9,93.6c-.8-1-.7-2-.4-3,1,.9.9,1.9.4,3ZM110.8,90.1c0,1.5-1,2.2-2.3,2.6,0,0,0,0,0,0-.8-1.7-.4-3.2.5-4.7.7,1,.8,2,.5,2.9.4-.3.8-.6,1.3-.8ZM110.5,92.6c-.1,2.4-1.6,3.5-3.8,4,.5-2.2,1.9-3.2,3.8-4ZM110.8,96.2c-.5,1.8-1.7,2.4-3.5,2.4.7-1.5,1.9-2.1,3.5-2.4ZM107.8,87c1.1-1.8,2.6-2.3,4.5-2.4-.9,2.1-2.4,2.6-4.5,2.4ZM107.9,83c2-1,3.7-.6,5.6.3-2,1.5-3.7,1.1-5.6-.3ZM108.7,82.1c.7-1.5,2-2.1,3.5-2.3-.5,1.8-1.8,2.3-3.5,2.3ZM112.3,79c-2.3.8-4.2.1-5.3-1.7,2.3-1,3.8.2,5.3,1.7ZM106.8,89.5c1.3,1.9.8,3.5-.5,5.1-.9-1.9-.4-3.5.5-5.1ZM105.4,90c0,1.9-1.1,2.7-2.8,3.2.3-1.7,1.3-2.5,2.8-3.2ZM101.3,90.1c.2-.5.7-1.1,1.2-1.7.9,1.8.2,3.2-1,4.4,0,0,0,0,0,0,0,0,0,0,0,0-1.7-1.1-2.1-2.8-2.2-4.8,1,.6,1.7,1.3,2,2.1ZM99.3,91.1s0,.1,0,.4c0,.2.1.6.4.9.2.2.4.3.6.4.2.1.5.2.8.3.6.2,1.3.3,2.1.6.2,0,.4.2.5.3,0,0,.2.1.3.2,0,0,.2.2.2.2.2.1.3.3.4.5.1.2.2.4.4.6.2.4.5.8.7,1.2.2.4.4.9.6,1.3.2.4.4.9.7,1.2h.1c0,.1.1.2.1.2,0,0,.1.1.3.2h0s0,0,0,0h0s0,0,0,0h.2c0,0,.2.1.2.1,0,0,.1,0,.2,0,1,.2,2,0,2.9-.4.8-.3,1.6-.6,2.4-.9-.2-.2-.4-.5-.7-.8-.1-.2-.3-.4-.4-.7-.1-.2-.3-.5-.4-.8-.1-.3-.2-.6-.2-1,0-.3,0-.7.1-1,0-.1.1-.3.2-.5.1-.1.2-.3.3-.4.2-.2.5-.4.7-.6.2-.2.4-.4.6-.6.2-.2.3-.4.4-.6,0,0,0-.1,0-.1,0,0,0-.1,0-.2,0,0,0,0,0-.1,0,0,0,0,0-.1,0-.2,0-.3,0-.5-.1-.2-.2-.4-.2-.4,0,0,0,.1.2.4,0,.1.1.3.1.5,0,0,0,0,0,.2,0,0,0,.1,0,.2,0,0,0,.1,0,.2,0,0,0,.1,0,.2,0,.1-.1.2-.2.3,0,.1-.1.2-.2.3-.2.2-.4.4-.6.6-.2.2-.4.4-.6.6,0,.1-.2.2-.3.4,0,.1-.1.2-.2.4,0,.3,0,.5,0,.8,0,.3.1.5.2.8.1.2.2.5.4.7.1.2.3.4.4.6.3.3.6.6.8.8,0,0,.2.2.2.2,0,0,0,0,0,0h0c.1,0,.3,0,.4,0,.1,0,.3,0,.4,0h.4c.6,0,1.2.3,1.6.6.4.3.8.7,1.1,1.1.3.3.6.7.9.9,0,0,.1,0,.2.1h.1c0,0,0,.1,0,.1h0s0,0,0,0h0c.2,0,.4.2.5.2.4.1.7.1,1.1.1.7,0,1.3-.2,1.9-.5.1,0,.3-.1.4-.2,1.4-.9,3-1.6,4.6-2,1.7-.5,3.4-.4,5.1-.2.7,0,1.3.3,1.9.5-.3-1.5-.5-3.2-1-4.5,0,0,0-.2-.1-.3-1.5-2.7-7-1.3-9.4-1.7-1.1-.2-2.2-.6-3.1-1.3-.5-.3-.9-.7-1.2-1.2-.2-.2-.4-.4-.5-.6-.2-.3-.3-.6-.4-.9-.1-.3-.2-.6-.2-1,0,0,0-.7,0-.8-.3,0-.7-.1-1.2-.2-.3,0-.6-.2-1-.3-.3-.1-.7-.3-1-.5-.9-.6-1.8-1.3-2-2.3-.3-1.2,0-3-.9-4,.8.8,1.1,1.7,1.1,2.9,0,1.2,1.3,2.1,2.3,2.6.3.1.6.3.9.3.3,0,.6.1.9.2.4,0,.7,0,1,0,0-.3.1-.6.2-.9.2-.6.5-1.1.9-1.7.2-.2.4-.5.7-.7.2-.2.5-.4.7-.6.8-.7,1.8-1.7.8-2.7-.4-.4-.8-.5-.9-1,0-.4,0-.9,0-1.3,0-.3,0-.6,0-.8,0-.5-.1-1.1-.2-1.5-.1-.5-.4-.8-.6-1.1-.2-.3-.5-.6-.6-.8-.2-.2-.2-.4-.3-.6,0,0,0,0,0,0-2.3-.6-3-2.2-3.2-4.5,2.1.9,2.9,2.5,3.3,4.5,0,0,0,0-.1,0,0,0,0,0,0,0,0,.1.1.3.3.6.2.2.4.5.7.8.3.3.6.7.7,1.1.1.5.3,1,.3,1.5,0,.3,0,.5,0,.9,0,.7-.2,1.3.4,1.7.7.5,1.3.8,1.2,1.8,0,.2,0,.4-.1.6-.3.7-.8,1.2-1.2,1.6-.2.2-.4.5-.6.7-.2.2-.4.4-.6.7-.3.4-.5.9-.7,1.4-.1.5-.2,1-.2,1.4,0,.2,0,.4,0,.5.5,2.5,2.9,4.5,5.9,4.5,4.7,0,10.6-1.7,11.1,4.7.5,5.4,4.2,5.1,8.8,5.9,3.3.6,7.1,2.1,8,5.6,0,.3.1.5.2.8.1.7.1,1.4,0,2.1,0,.8-.3,1.7-.6,2.5-.4,1.2-1.1,2.3-1.7,3.4-.3.6-.6,1.3-1,1.9-.3.6-.6,1.1-.8,1.7-.8,1.8-.6,3.9-.3,5.9.2,1.5.6,3,.8,4.7,0,.9,0,1.7-.1,2.5-.1.8-.4,1.6-.6,2.3-.6,1.5-1.2,2.8-1.7,4.2-.2.7-.4,1.4-.5,2.1-.1.7-.2,1.4-.5,2.1-.2.3-.3.6-.5.9,0,.1-.2.3-.3.4,0,.1-.2.3-.3.4-.4.5-.7,1-1.1,1.5-.7.9-1.4,1.8-1.9,2.6-.6.8-1,1.5-1.3,2.1-.3.6-.5,1.1-.5,1.5,0,.2,0,.3,0,.4,0,0,0,.1,0,.1,0,0,0,0,0-.1,0,0,0-.2,0-.4,0-.4.2-.9.5-1.5.3-.6.7-1.4,1.2-2.2.5-.8,1.1-1.7,1.8-2.7.3-.5.7-1,1-1.5,0-.1.2-.3.3-.4,0-.1.2-.3.2-.4.2-.3.3-.6.4-.9.2-.6.3-1.3.4-2,0-.7.2-1.5.4-2.2.4-1.4,1-2.9,1.5-4.3.2-.7.4-1.4.5-2.2,0-.7,0-1.5,0-2.2-.2-1.5-.6-3-1-4.6-.2-.8-.3-1.6-.4-2.4-.2-2.4.5-4.6,1.5-6.8.4-.9,1-1.8,1.3-2.8.2-.7.4-1.4.5-2.1,0-.7,0-1.4,0-2.1,0-1.1-.4-2.3-1-3.2-1.7-2.4-4.9-2.7-7.3-1.1-.9.6-1.3,1.6-1.3,2.6,0,.6.1,1.1.2,1.7,0,.3,0,.6,0,.9,0,.3,0,.6,0,.9,0,.3,0,.6-.1.8,0,.3-.2.6-.3.8-.2.3-.4.5-.7.6-.3.1-.5.2-.8.3-.5.2-1,.2-1.4.4-1.4.4-1.9,1.2-2.2,2.6-.1.7-.2,1.3-.2,1.8,0,.7,0,1.2,0,1.4.6,1.7.2,2.6-1.8,3.9-.3-1.8-.3-3.4,1.7-4.2,0,0,0,.1,0,.2,0-.3,0-.7,0-1.4,0-.5,0-1.2,0-1.9,0-.6.1-1.4.6-1.9.4-.5,1-.8,1.7-1,.5-.1.9-.3,1.4-.4.5-.2.9-.4,1.2-.8.2-.4.3-.9.3-1.5.1-1.1-.2-2.1-.3-3.4,0-.6,0-1.3.2-1.9.2-.6.9-1.1,1.4-1.5.6-.5,1.4-.8,2.1-1-1.6-.1-3.2,0-4.7-.4-.8-.1-1.6-.5-2.4-.9-.7-.4-1.3-.6-2-1-.3-.2-.7-.2-1-.4-.3-.2-.6-.2-.9-.3-1-.3-2.1-.5-3.2-.5-1.6,0-2.8.1-4.3.7-1.9.8-3.6,2.2-5.1,3.6-.5.4-.9.9-1.3,1.4-.9,1.1-2,3-.5,4.1.8.6,1.8-.3,2.7-.5-1.4-.9-1.7-2.1-1-4.4,1.6,1.2,1.5,2.7,1.1,4.4.3,0,.6,0,.9.1.3.2.5.5.5.8,2.2-1.1,2.7-1,4.8.4-1.8.9-2.2.9-4.8-.1,0,.5,0,1.1,0,1.6.2.8.7,2.1,1.2,2.7-.5-.6-1-1.2-1.2-2-.3-.7-.2-1.6-.6-2.3-.7-1.2-2.7.9-3.8.6-.6-.2-.9-.6-1.3-1.1-.2-.3-.5-.9-.9-.7-.7.2-1,1.2-1.7,1.6-.6.3-1.3.3-1.9.5-.5.2-1,.5-1.4.9-.5.4-.9.9-1.4,1.1-.7.2-1.4,0-2.1-.2-.6-.2-1,.1-1.6.5.4-.3.7-1,1.2-1,.7,0,1.5.3,2.3.1.7-.2,1.1-.9,1.7-1.2.5-.4,1.1-.7,1.8-.8.7-.2,1.1-.7,1.6-1.1.6-.5,1-1.3,1.5-1.9.5-.5.9-1.1,1.3-1.7.9-1.1,1.7-2.3,2.7-3.3.2-.3.5-.5.7-.7,0,0-.1,0-.2,0-.4,0-.9,0-1.3-.2-.2,0-.4-.2-.7-.3h0s0,0,0,0h0s0,0,0,0h0s-.1-.1-.1-.1c-.1,0-.2-.2-.3-.2-.8-.6-1.3-1.5-2-2-.3-.3-.7-.5-1.1-.5h-.4c-.1,0-.2,0-.4,0-.2,0-.5,0-.7.1-1,.2-1.9.6-2.9.9-.5.2-1,.3-1.6.4-.5,0-1.1,0-1.6,0,0,0-.1,0-.2,0h-.2c0,0-.2-.1-.2-.1h0s0,0,0,0c0,0,0,0,0,0h0c-.1,0-.2-.2-.4-.3v-.2c-.1,0-.3-.2-.3-.2-.3-.4-.5-.9-.7-1.4-.2-.5-.4-.9-.5-1.3-.2-.4-.4-.8-.6-1.2-.4-.8-1-1.4-1.6-1.8-.7-.4-1.4-.5-2-.7-.3,0-.6-.2-.8-.3-.2-.1-.5-.3-.6-.5-.3-.4-.4-.7-.4-1,0-.2,0-.4,0-.4ZM127.1,98.7c0,0-1.2-.9-1.8-2.4-.3-.8-.3-2.7-.3-2.8.9.5,1.6,1.5,1.9,2.4.4,1.2,0,2.4.1,2.8ZM122.2,98.8c0,0,0-.1-.1-.2-.3-.6-.2-1.4-.2-1.6,0,0,.7.4,1.1,1.3.2.4.3,1.5.3,1.6,0,0,0,0-.1,0-2.6.7-3.9.2-5.6-2.1,1.8,0,3.4.1,4.7,1.1ZM115.4,97.6c.7-1.5,1.9-2.1,3.5-2.4-.5,1.8-1.7,2.4-3.5,2.4ZM120.1,94.9c1,.7,1.3,1.7,1.3,2.9-1.3-.6-1.5-1.6-1.3-2.9ZM122.6,96.6s1.2-.1,2.4.6c.6.4,1.8,1.6,1.8,1.8-.8.2-1.8-.2-2.5-.6-.9-.5-1.4-1.6-1.7-1.8ZM125.1,96.6c-1.9-.2-2.7-1.3-3-3,1.7.4,2.5,1.5,3,3ZM118.1,93.1c1.4-1,2.7-.8,4.2-.3-1.3,1.3-2.7,1.1-4.2.3ZM115.3,91.4c1.4-.6,2.6-.3,3.9.3-1.5,1.1-2.8.8-4.1-.1,0,0,0,0-.1,0-.3-2,.5-3.5,1.9-4.8.7,2,0,3.4-1.5,4.5ZM119.3,88.8c-.4,1.3-1.3,1.8-2.6,1.8.5-1.2,1.4-1.6,2.6-1.8ZM118.4,94.5c-1.8.4-2.9-.5-3.7-2,1.7,0,2.8.7,3.7,2ZM116.8,95.3c-1.3.8-2.4.5-3.5-.4,1.3-.6,2.4-.2,3.5.4ZM127.9,96.5c.2-.6,1.2-1.7,1.4-1.7.3.7,0,1.7-.2,2.3-.4.9-1.2,1.4-1.4,1.7,0,0-.2-1.1.2-2.2ZM129.7,93.8c2.1.6,3.1,2.1,3.8,4.1-2.4-.3-3.4-1.8-3.8-4.1ZM150.5,98c1.9,1.1,2.5,2.8,2.6,4.8-2.3-.9-2.8-2.6-2.6-4.8ZM139.5,115.2s0,0,0,0c.7-.4,1.8-.3,2.5-.2,1,.3,1.8,1.1,2.2,1.3,0,0-1.1.4-2.3.1.4.6.7,1.3,1,2.5-1.9-.8-3.4-1.7-3.4-3.7ZM139.9,122c-1.7-1.3-2.9-2.6-1.8-4.7,2,1,2.4,2,1.8,4.7ZM144.7,106.5c2.5-.2,3.8,1,4.7,3-2.3-.1-3.6-1.3-4.7-3ZM148.7,113.6c-1.6-1.1-1.7-1.3-2-4.1,2,1.4,2.2,1.8,2,4.1ZM144.9,111.7c-1.1-1.5-1-2.9-.4-4.5,1.5,1.4,1.4,2.8.4,4.5ZM146.7,116.5c-1.9-.7-3.5-1.4-3.7-3.5,2.1.4,2.9,1.1,3.7,3.5ZM131,110.2c-1.4.7-2.4.2-3.4-.9,0,0,0,0,0,0,0,0,0,0,0,0,0,0,0,0,0,0,0,0,0,0,0,0,1.4-2,1.8-2.2,4.1-2-.9,1.3-1.3,1.6-2.9,1.8.8,0,1.5.5,2.2,1ZM126.8,116.7c-.7-.2-2.1-1.1-2.2-1.2.7-.4,1.8-.4,2.6-.2,1.1.3,1.8,1.1,2.2,1.3,0,0-1.2.5-2.5.1ZM127.5,120.4c-1-.3-1.9-1.2-2.4-1.9-.7-1-.6-2.3-.7-2.7,0,0,1.4.6,2.3,1.9.4.7.9,2.5.9,2.7ZM123.8,113.4c2.3-1.5,3.7-1.4,6,.4-2.2.7-4.1.9-6-.4ZM128.3,106.4c-.8,2.2-1.5,2.7-5.1,3.2,1.1-2.2,2.9-3,5.1-3.2ZM124.9,103.2c.5,2.1,0,3.7-1.6,4.7-.5-2.5-.2-3.4,1.6-4.7ZM140.9,111.7c-2.1-.2-3.1-1.5-4.1-3.3,2.3,0,3.5,1.2,4.1,3.3ZM138.6,104.5c1.6,1.3,2.8,2.6,2,4.7-1.9-1.1-2.3-2.1-2-4.7ZM139.7,112.6c-2,.7-3.5,0-5.2-1.1,2.1-.9,3.7-.4,5.2,1.1ZM134.5,107.3s.7.4,1.1,1.3c.2.4.3,1.5.3,1.6-.5-.2-.9-.8-1.2-1.3-.3-.6-.2-1.4-.2-1.6ZM135.8,107.4c-1.5-1.4-1.8-3-1.5-4.9,1.9,1.2,2.1,2.9,1.5,4.9ZM134.3,112.8c1.1.3,1.9,1.1,2.3,1.4,0,0,0,0,0,0,0,0,0,0,0,0,0,0,0,0,0,0,0,0,0,0-.1,0-1.8,1.9-2.7,2.1-4.7.6.8-.1,1.7-.2,2.6-.3-.2,0-.4,0-.6-.1-.8-.2-2.4-1.2-2.5-1.4.8-.5,2-.4,2.9-.2ZM132.6,109.9c-.9-1.9-.4-3.5.5-5.1,1.3,1.9.8,3.5-.5,5.1ZM129.6,105.8c.7-1.5,2-2.1,3.5-2.3-.5,1.8-1.8,2.3-3.5,2.3ZM127,102.5c1.8-1.3,3.6-1.1,5.6-.4-1.8,1.7-3.5,1.5-5.6.4ZM133.6,117c1,.3,1.8,1.1,2.2,1.3,0,0-1.2.5-2.5.1-.7-.2-2.1-1.1-2.2-1.2.7-.4,1.8-.4,2.6-.2ZM135.2,119.3c-.8,1.9-1.6,2.3-4.1,2,1-1.6,2.1-2.7,4.1-2ZM124.1,118.3c-.1.6-.8,1.9-.9,2-.4-.6-.4-1.6-.3-2.3.2-.9.9-1.6,1-1.9,0,0,.5,1.1.2,2.2ZM120,116.9c0-2.1.6-3.7,2.6-4.9.3,2.4-.6,3.9-2.6,4.9ZM114,112.3c1.7-.5,2.1-.4,3.4.6-1.2.8-1.8.7-3.4-.6ZM116.3,116.8c-2.2-.7-3.1-2.2-3.1-4.3,1.9.8,2.6,2.4,3.1,4.3ZM105.2,97c-2.3.8-4.2.1-5.3-1.7,2.3-1,3.8.2,5.3,1.7ZM96.6,93.5c1.7-.9,3-.3,4.2.9-1.7.6-3,0-4.2-.9ZM105.4,97.7c-.5,1.8-1.8,2.3-3.5,2.3.7-1.5,2-2.1,3.5-2.3ZM106.9,100.7c-1.8,1.7-3.5,1.5-5.6.4,1.8-1.3,3.6-1.1,5.6-.4ZM107.7,101.6c-.5,1.8-1.8,2.3-3.5,2.3.7-1.5,2-2.1,3.5-2.3ZM112.8,108c.5,1.8-.2,3-1.7,4-.2-1.7.5-2.9,1.7-4ZM109.7,103.7c1.9,1.2,2.1,2.9,1.5,4.9-1.5-1.4-1.8-3-1.5-4.9ZM109.8,103.1c1.4-.4,2.4.1,3.4,1-1.4.6-2.4.1-3.4-1ZM109.6,102.5c1-1.6,2.4-1.9,4.1-1.5-1.1,1.3-2.5,1.6-4.1,1.5ZM109.6,112.3c-1.2-1.2-1.4-2.6-1.1-4.2,1.5,1.1,1.6,2.5,1.1,4.2ZM106.7,106.5c-.1-2.1.9-3.4,2.4-4.6.5,2.2-.5,3.5-2.4,4.6ZM105.9,107.7c1.3,1.5,2,3.6,1,5.4-1.2-1.7-1.7-3.6-1-5.4ZM114.1,104.8c-.5-2.5-.2-3.4,1.6-4.7.5,2.1,0,3.7-1.6,4.7ZM116.9,101.3c1.3,1.9,1.3,2.8-.4,6-1.2-2.2-.8-4.2.4-6ZM114.6,105.6c1.4,2.3,1.5,2.7.2,4.3-1.3-1.6-1.1-2.9-.2-4.3ZM98.9,92.5c-1.7-.2-2.7-1.3-3.4-2.7,1.9,0,2.8,1,3.4,2.7ZM94.7,98.9c.8-.8,1.7-1.2,2.6-1.4-.9-.4-1.6-1.1-2.3-2.1,2.2-.3,3.7.7,5.1,2.2,0,0,0,0,0,0,0,0,0,0,0,0-1.4,2-3.2,2.1-5.4,1.4ZM98.1,101.3c.8-2.1,1.6-2.7,4.6-3.5-1.1,1.9-2.1,3.6-4.6,3.5ZM99.3,104.4c1.1-2.1,2.8-2.3,4.9-1.7-1.3,1.7-2.9,1.9-4.9,1.7ZM105.2,110.8c-2.1,0-3.3-1.2-4.3-2.9,2.3-.3,3.5.9,4.3,2.9ZM106.6,113.5c-2.3.8-4.2.1-5.3-1.7,2.3-1,3.8.2,5.3,1.7ZM101.4,117.2c1-2,1.9-2.5,4.9-3-1.3,1.8-2.5,3.4-4.9,3ZM104.7,119.9c.6-1.6,1.3-3.2,2-5.1.9,2.9.6,3.9-2,5.1ZM107.5,114.6c2.2.4,3,1.9,3.3,4-1.9-.7-2.8-2.2-3.3-4ZM112.7,113.1c.7,1.2.6,1.9-.8,3.3-.3-1.7-.2-2.1.8-3.3ZM151.7,155.3c0,.1-.2.2-.3.3,0,0,0,.1-.1.2v.2c-.2.1-.2.3-.3.4,0,.1,0,.3,0,.4,0-.1,0-.3,0-.4,0-.1,0-.3,0-.5v-.2c.1,0,.1-.1.2-.2,0-.1.2-.3.3-.4.2-.2.4-.5.7-.6.2-.2.5-.4.7-.5.2-.2.5-.3.7-.5.2-.2.4-.4.6-.6v-.2c.1,0,.1,0,.1,0h0s0,0,0,0v-.3c.2,0,.2-.1.2-.2,0-.2.1-.5.1-.7,0-.5-.2-1-.5-1.5-.1-.3-.3-.5-.4-.8-.1-.3-.3-.5-.4-.8,0,0,0,0,0-.1v.3c-.2.2-.2.3-.3.5h0c0,.1,0,.2,0,.2h0c0,.2,0,.3,0,.3,0,.1,0,.3,0,.5,0,.2,0,.4,0,.5v.6c0,.2.1.4.1.6,0,.2,0,.4,0,.6,0,0,0,.2,0,.3,0,0,0,.2-.1.3,0,0-.1.2-.2.2l-.2.2v-.2c.2,0,.2-.2.3-.2,0,0,0-.2,0-.3,0,0,0-.2,0-.3,0-.4,0-.7-.1-1.1,0-.4-.2-.7-.3-1.1,0-.2,0-.4,0-.6,0-.1,0-.2,0-.3h0c0-.1,0-.1,0-.1,0,.1-.1.3-.2.4,0,0,0,.1,0,.2-.2.6-.3,1.3-.4,1.9,0,.5-.1,1-.3,1.6-.5,1.4-1.8,2-3.1,2.4-.8.2-1.5.3-2.3.3-.7,0-1.5,0-2,.5.6-.6,1.5-.6,2.3-.9.8-.3,1.6-.8,2.2-1.4.4-.4.8-1,1.1-1.5.7-1.2.4-2.6.9-3.9.5-1.4,1.6-2.3,2.2-3.6.8-1.6,1.1-3.4,1.2-5.1,0-.3,0-.6,0-.9,0,.4-.1.9-.2,1.3-.4,2.5-1.7,4.4-3,6.5-.7,1.1-1.2,2.3-1.4,3.6-.2,1.5-.6,2.5-1.6,3.7-1.8,2.1-4.7,1.6-7,2.5-.8.4-1.7.7-2.5,1.3-.8.5-1.4,1-2.3,1.1-.9.2-1.9,0-2.8.3-.4,0-.8.3-1.1.3,0,0,.4-.4.5-.4.2-.2.5-.2.8-.3.5-.2,1.1-.3,1.7-.5,1.2-.5,2.2-1.4,3.3-2.1.7-.4,1.3-.8,2-1,0,0,0,0,0,0-.3,0-.7,0-1-.1-.7,0-1.5-.2-2.4-.3-.4,0-.8,0-1.3,0-.4,0-.9,0-1.3,0-.9,0-1.9,0-2.8.2-.2,0-.5.1-.7.2-.2,0-.5.1-.7.2-.5.2-.9.3-1.4.5-.9.3-1.9.6-2.9.9h-.2s0,0,0,0c0,0,0,0,0,0h0s-.4,0-.4,0c-.2,0-.5,0-.7,0-.5,0-1-.1-1.4-.2-.9-.2-1.8-.5-2.6-.7-.8-.2-1.6-.3-2.4-.3-.7,0-1.4,0-2,0-.6,0-1.1.2-1.5.4-.2,0-.4.1-.5.2-.2,0-.3.1-.4.2-.2.1-.3.2-.3.2,0,0,.1,0,.3-.2.1,0,.2-.1.4-.2.2,0,.3-.2.5-.2.4-.2.9-.3,1.5-.4.6-.1,1.3-.2,2-.1.7,0,1.5.1,2.4.3.8.1,1.7.4,2.6.6.5.1.9.2,1.4.2.2,0,.5,0,.7,0h.4c0,0,0,0,0,0,0,0,0,0,0,0h0s.2,0,.2,0c.9-.2,1.9-.6,2.8-.9.5-.2.9-.4,1.4-.5.2,0,.5-.2.7-.2.2,0,.5-.2.7-.2,1-.2,2-.2,2.9-.3.5,0,.9,0,1.4,0,.5,0,.9,0,1.3,0,.9,0,1.7.1,2.4.2.7,0,1.4.1,2,0,.4,0,.8,0,1.1-.2,0,0,0,0,0-.1.4-.7.5-1.5.9-2.3.5-1.2,1.2-2.1,2-3.1,1-1.3,2.1-2.5,2.8-3.9.8-1.6.7-3.3,1.1-5,.2-.9.5-1.7.9-2.5.4-1,1.2-1.9,1.4-3,0-.5-.2-1.1-.3-1.6,0-.6-.1-1.2.1-1.8.2.4,0,1,.1,1.4.3,1.1,1.2,1.8,1.8,2.7,0,0,0,0,0,0,0,0,0-.1,0-.2.1.2.2.5.3.7.2.5.3,1,.3,1.5.2,1,.2,2,.3,3,.2,1.9,0,3.6-.4,5.4,0,0,0,.2,0,.2,0,.3,0,.6,0,.9,0,.3,0,.5,0,.8,0,0,0,.1,0,.2h0c0,.1,0,.2,0,.2h0s0,0,0,0h0c0,.1,0,.3.1.4.1.3.2.5.4.8.1.3.3.5.4.8.2.6.5,1.2.5,1.9,0,.3,0,.7-.2,1,0,0,0,.2-.1.2v.2c-.1,0-.2,0-.2,0h0s0,0,0,0h0s0,0,0,0h0c0,0-.2.2-.2.2-.2.2-.5.5-.7.6-.3.2-.5.3-.8.5-.3.1-.5.3-.8.4-.3.1-.5.3-.7.5ZM158.8,150.5c0,.1,0,.2,0,.4,0,.1,0,.3,0,.5,0,.2,0,.4,0,.6,0,.2,0,.5,0,.7,0,.2,0,.5-.2.8,0,.3-.2.5-.4.8-.2.2-.4.4-.7.6h0s0,0,0,0h0s0,0,0,0h0s0,0,0,0h-.2c-.1,0-.3.1-.4.1-.1,0-.3,0-.4,0-.1,0-.2,0-.4,0-.2,0-.4,0-.6,0-.2,0-.4,0-.5,0-.2,0-.3,0-.4,0-.2,0-.3,0-.3,0-.7.2-1.2.5-1.2.9,0-1.3,1.3-1.7,2.1-2.4.5-.4.8-1,1-1.6.3-.9.2-2.1-.5-2.8-.4-.4-.8-.7-.9-1.3-.2-.9,0-1.9,0-2.8.1-.9.3-1.9.3-2.8s0-2,0-2.9c-.1-1-.2-2.3-.6-3.3.4,1,.8,2.1,1,3.2.2,1,.3,1.9.4,2.9,0,1.1.3,2.3.8,3.3.5.9,1.2,1.6,1.5,2.5.2.5.3,1,.2,1.7-.3,1.7-1,4-2.6,4.9-.1,0-.4.1-.7.2.1,0,.2,0,.4,0,.2,0,.4,0,.6,0,.1,0,.2,0,.3,0,.1,0,.2,0,.3,0,.1,0,.2,0,.3,0,.1,0,.2,0,.3-.1.2,0,.3-.2.5-.4.1-.2.2-.4.3-.6,0-.2.1-.4.2-.7,0-.5.2-.9.3-1.3,0-.2,0-.4.1-.5,0-.2,0-.3.1-.4,0-.2.2-.3.2-.3,0,0,0,.1,0,.4ZM187,155c-1.3,0-2.5,1.1-3.7.2.1,0,.9-.2,1.1-.2.5,0,.9-.3,1.3-.4.6-.2,1.2-.3,1.8-.3s.7,0,1,.1c.8.2,1.5.5,2.3.5-1.3.3-2.5,0-3.8,0ZM210.1,154.4c-.2,0-.3,0-.6.1-.2,0-.5.1-.8.1-.3,0-.6,0-1,.1-.3,0-.7,0-1.1,0-.2,0-.4,0-.6,0-.2,0-.4,0-.7,0-.2,0-.5,0-.7,0-.2,0-.5,0-.7,0-.2,0-.5,0-.8,0-.3,0-.5,0-.8,0-.5,0-1.1-.1-1.6-.2-1.1-.2-2.3-.4-3.5-.6-1.2-.2-2.5-.5-3.8-.7-.6-.1-1.3-.2-1.9-.3-.3,0-.7,0-1,0-.3,0-.7,0-1,0h-1c-.3,0-.7,0-1,0-.7,0-1.3,0-1.9.1-.3,0-.6,0-1,0-.3,0-.6,0-.9.1-.6.1-1.2.2-1.9.3-.6.1-1.2.2-1.8.4-.6.1-1.2.2-1.7.4-.5.1-1,.2-1.5.3.4,0,.7.1,1,.2,1.2.5,1.7,1.2,3.1,1.1-.8,0-1.2.4-2.1.3-1.2-.2-2.3-.8-3.5-.8-.4,0-.8,0-1.3,0,.1,0,.2.1.2.1,0,0,0,0-.2-.1-1,0-2,0-2.9.1-1.4.2-3.1,1.1-4.4,0-.6-.5-1.1-1.1-1.2-1.9-.2-.9,0-1.9,0-2.8,0-.7-.2-1.4-.6-2.1-.3-.6-.7-1.1-1.1-1.6-.4-.5-1-.9-1.3-1.5-.4-.6-.7-1.3-.9-2,.2.6.7,1.1,1,1.6.4.4.8.7,1.2.9,0,0,0,0,.1.1.5.4,1.1.9,1.5,1.4.4.6.9,1.1,1.2,1.7.4.7.9,1.5,1.4,2.2.4.5.8.9,1.3,1.2,0,0,0-.1,0-.2,0,0,0,0,0,0,.6.6,1.4,1.1,2.3,1.5,0,0-.1,0-.2-.1-.5-.4-1.1-.8-1.7-1.4-.1-.2-.2-.3-.4-.5-.1-.2-.2-.4-.3-.6-.2-.4-.4-.8-.5-1.3-.1-.4-.2-.9-.4-1.3,0-.1,0-.2-.1-.3,0-.1,0-.2-.1-.3v-.2c0,0-.1-.1-.1-.1l-.2-.3c-.5-.8-1.2-1.5-2-2.1-.4-.3-.8-.7-1.2-1.1-.4-.4-.7-.9-.9-1.5v-.4c-.2-.1-.2-.3-.2-.4,0-.2,0-.3,0-.4v-.4s0-.1,0-.1h0c0-.1,0-.3,0-.3,0-.1,0-.3,0-.4,0-.3,0-.5,0-.8,0-.5,0-1,0-1.5,0-.1,0-.2,0-.3v-.4s-.1-.3-.1-.3c0-.1,0-.2,0-.3,0-.2-.1-.3-.2-.5,0,0,0,0,0,0,0,1.3-.3,2.5-.5,3.7,0,0,0,0,0,0,0,.3,0,.6,0,.9,0,0,0,.2,0,.3,0,0,0,.2,0,.2,0,.2,0,.3,0,.4,0,.4.1.9.3,1.3,0,.3.3.6.5.8.2.3.4.6.7.8.2.2.4.4.6.6.6.5,1.2,1,1.8,1.6.1.1.3.3.4.4.1.1.2.3.3.4.1.1.2.3.3.4,0,.1.2.3.2.4,0,.1.1.3.1.4,0,.2.1.5.2.7,0,.4,0,.6,0,.6,0,0,0-.2,0-.6,0-.2-.1-.4-.2-.6,0-.1-.1-.2-.2-.4,0-.1-.2-.3-.2-.4,0-.1-.2-.3-.3-.4-.1-.1-.2-.3-.3-.4-.1-.1-.2-.3-.4-.4-.1-.1-.3-.3-.4-.4-.4-.3-.8-.6-1.1-.9-.4-.3-.8-.5-1.2-.8-.5-.4-.9-.9-1.2-1.5-.3-.6-.4-1.2-.5-1.8,0-.7,0-1.5-.1-2.2,0-.3-.1-.7-.2-1-.4-.9-.6-1.9-1-2.9-.2-.6-.5-1.2-.7-1.8-.2-.5-.4-.9-.7-1.3-.6-.9-.9-2.1-1-3.2,0-1.3.2-2.5.7-3.7.5-1.2,1.3-2.1,1.8-3.3.5-1.2.8-2.6.4-3.9,0-.1,0-.2,0-.3,0,.1,0,.2-.1.3v.2c0,0-.1.1-.1.2v.4c-.3.5-.5,1-.8,1.5-.4,1-.8,2-1.2,3-.1.2-.2.5-.3.7l-.3.8c0,.3-.1.5-.2.8,0,.3-.1.5-.2.8-.2,1-.3,2-.2,3,0,.2,0,.5,0,.7,0,.2,0,.5.1.7v.2s.1.2.1.2c0,.1,0,.2.1.3.1.2.2.4.3.6.2.4.5.8.6,1.2.2.4.4.8.5,1.2.3.7.6,1.5.7,2.1.2.6.2,1.2.2,1.7,0,.2,0,.4,0,.6,0,.2,0,.3,0,.5,0,.2-.1.4-.1.4,0,0,0-.1,0-.4,0-.1,0-.3,0-.5,0-.2,0-.4,0-.6,0-.5,0-1-.3-1.7-.2-.6-.5-1.3-.8-2-.2-.4-.4-.7-.6-1.1-.2-.4-.4-.8-.7-1.2-.1-.2-.3-.4-.4-.6,0-.1-.1-.2-.2-.3v-.2c0,0-.1-.2-.1-.2,0-.3-.1-.5-.2-.7,0-.2,0-.5-.1-.8-.1-1-.1-2.1,0-3.2,0-.3,0-.5.2-.8,0-.3.1-.5.2-.8l.2-.8c0-.3.2-.5.3-.8.4-1,.7-2,1.1-3,.2-.5.4-1,.5-1.5v-.4c.2,0,.2-.1.2-.2v-.2c.1-.2.2-.5.2-.7.2-.9.1-1.8,0-2.7,0-.2,0-.4-.1-.6-.1,1.7-.5,3.4-1.1,5,0,.3-.2.5-.3.8-.3.9-.7,1.8-1,2.7-.3.9-.6,1.9-.8,2.9-.2,1-.3,2-.2,3,0,1.1.1,2.1.4,3.1,0,.2.1.5.2.7v.3c.2.1.2.2.3.3.1.2.2.4.4.6.1.2.3.4.4.6.5.8,1.1,1.7,1.3,2.6,0,.1,0,.2,0,.3,0,.1,0,.2,0,.4,0,.2,0,.5,0,.7,0,.4-.2.8-.3,1.2,0,0,0,.2,0,.3h0c0,.2,0,.2,0,.3,0,.2,0,.4,0,.6,0,.2,0,.3,0,.5,0,.2,0,.3.1.5.2.6.4,1.1.7,1.5.2.4.4.7.5,1,0,0,0,0,0,.1,0,0,0,0,0,0h.1c0,.1.1.2.1.2,0,0,.2.1.3.2.4.3.7.7,1.1,1.1.2.2.3.4.5.6.2.2.3.4.4.7.1.2.2.5.3.7,0,.2.2.5.3.7,0,.3.1.5.2.8,0,.2,0,.5,0,.7,0,.5,0,.9,0,1.4,0,.2,0,.4,0,.6h0c0,.2,0,.2,0,.3,0,0,0,.2,0,.3.1.3.3.6.4.9.2.3.3.5.4.7.1.2.2.4.2.5,0,.1,0,.2,0,.2,0,0,0,0-.1-.2,0-.1-.2-.2-.3-.4-.1-.2-.3-.4-.5-.6-.2-.2-.4-.5-.6-.9,0,0,0-.2,0-.3,0,0,0,0,0-.2v-.2c0-.2-.1-.4-.1-.6,0-.2,0-.4,0-.7,0-.2,0-.4,0-.7,0-.2,0-.5,0-.7,0-.2-.1-.4-.2-.7,0-.2-.2-.4-.2-.7-.1-.2-.2-.4-.3-.6-.1-.2-.2-.4-.4-.6-.1-.2-.3-.4-.4-.6-.3-.4-.6-.7-.9-1,0,0,0,0,0,0,.7,1.2,1.4,2.5,1.8,3.8.5,1.6,0,3.2,1,4.7,1.5,2.4,4,3.7,6.7,2.5.4-.2.9-.3,1.3-.2.5,0,.8.3,1.3.2-.7.2-1.5,0-2.2.3-.7.3-1.4.4-2.1.6-.7.2-1.4.3-2.1.4,0,0,0,0-.1,0,0,0-.2,0-.3,0-.2,0-.5.1-.8.2-.3,0-.6,0-1,0-.4,0-.8,0-1.2-.1-.4,0-.9-.2-1.3-.5-.4-.2-.8-.5-1.1-.9l-.2-.3c0,0-.1-.2-.2-.3-.1-.2-.3-.4-.4-.6,0-.2-.2-.4-.3-.7,0-.2-.1-.5-.2-.7,0-.2,0-.4,0-.7,0-.2,0-.5,0-.7,0-.9,0-1.7,0-2.4,0-.2,0-.3,0-.5,0-.2,0-.3-.1-.4,0-.3-.2-.5-.3-.7,0-.2-.2-.3-.3-.4,0,0,0-.1,0-.1,0,0,0,0,.1.1,0,0,.2.2.3.4,0,.2.2.4.3.7,0,.1.1.3.1.4,0,.2,0,.3.1.5.1.7.1,1.5.2,2.4,0,.2,0,.4,0,.6,0,.2,0,.4.1.6,0,.2.2.4.2.6,0,.2.2.4.3.6.1.2.2.4.4.5,0,0,.1.2.2.3l.2.3c.3.3.6.5,1,.7.4.2.7.3,1.1.3.1,0,.2,0,.4,0-.2,0-.4-.2-.5-.3-1.7-.8-2.3-2.9-2.4-4.6,0-1.1-.1-2.1-.5-3.2-.3-.8-.9-1.4-1.5-1.9-.9-.8-1.5-1.2-1.9-2.4-.3-1.1-.4-2.2-.4-3.4,0-1.8.4-3.5-.7-5.1-.5-.7-1.1-1.4-1.6-2-.4-.5-1-1-1.2-1.6-.5-1.5-1.2-2.9-1.4-4.4-.3-1.6-.7-3.5-.5-5.1.1-1.2.6-2.3,1-3.4.5-1.3,1.3-2.4,1.9-3.6.3-.6.6-1.1.8-1.7.2-.6.3-1.2.4-1.8.5.4.5,1.2.6,1.8.4,2.1,0,4.3-.7,6.3-.3.9-.6,1.8-.9,2.6-.3.9-.6,1.7-.8,2.5,0,.2,0,.4-.1.6,0,.2,0,.4-.1.6,0,.4-.1.8-.2,1.1,0,.7-.1,1.4,0,2,0,.6.2,1.1.4,1.5.2.4.4.7.5.8.2.2.2.3.2.3,0,0,0,0-.2-.3-.1-.2-.3-.5-.5-.8-.2-.4-.3-.9-.3-1.5,0-.6,0-1.2.1-1.9,0-.4.1-.7.2-1.1,0-.2,0-.4.1-.6,0-.2.1-.4.2-.6.2-.8.5-1.6.8-2.4.3-.8.7-1.7,1-2.6.4-.9.7-1.8,1-2.7.2-.5.3-.9.4-1.4,0-.2.1-.5.2-.7v-.4c0,0,.1-.4.1-.4,0-.2,0-.5.1-.7,0-.2,0-.5,0-.7v-.4s0-.4,0-.4c0-.2,0-.5,0-.7,0-.2,0-.4,0-.7,0-.1,0-.2,0-.3v-.2c0,0,0-.1,0-.2,0-.5-.2-.9-.3-1.3-.2-.8-.5-1.6-.8-2.2-.3-.7-.5-1.3-.7-1.8-.3-.9-.5-1.9-.7-2.9,0-.2,0-.5-.1-.7,0-.4-.2-.8-.3-1.3-.1-.7-.2-1.4-.3-2.1,0-.9-.2-1.8-.4-2.7-.3-1.3-.9-2.6-1.5-3.9-.3-.7-.7-1.3-1.1-1.8-.2-.2-.5-.4-.8-.6h-.2c0-.1-.2-.2-.2-.2-.2,0-.3-.2-.5-.2-.4-.2-.8-.3-1.3-.6-.5-.2-.9-.6-1.3-1h0c0,0,0-.2,0-.2h0c0-.2-.1-.3-.2-.4-.2-.2-.3-.4-.4-.7-.2-.4-.4-.9-.6-1.3-.3-.9-.6-1.9-.7-2.8,0-.2,0-.5-.1-.7h0s-.1,0-.2,0c-1.3-.5-2.7,0-3.7.9-.4.4-1,.9-1.7,1.2-.2,0-.4.2-.6.2-1.6.3-1.8-.9-2-2.2-.1-1-.4-1.8-1.2-2.5-.5-.4-1.1-.7-1.7-.9-.6-.2-1.2-.4-1.8-.5-.6,0-1.2-.1-1.7-.2-.5,0-1-.1-1.4-.3-.4-.1-.8-.4-1-.6-.2-.2-.3-.5-.3-.7,0-.2,0-.3,0-.3,0,0,0,0,0,.2,0,.2.1.4.3.6.2.2.6.4,1,.5.4.1.9.2,1.4.2.5,0,1.1,0,1.7,0,.6,0,1.3.2,1.9.4.7.2,1.3.5,2,.9.7.5,1.4,1.4,1.6,2.2.2,1,.5,2.6,1.8,1.3.2-.2.4-.4.6-.6.8-.9,1.9-1.6,3.1-1.8.6,0,1.1,0,1.4,0,0,0,0,0,.1,0,0,0,0,0,0,0-.2-.9-.3-1.8-.5-2.7,0-.4-.2-.9-.3-1.3,0-.4-.2-.8-.3-1.3-.3-.8-.6-1.6-1-2.3-.4-.7-1-1.3-1.7-1.7-.3-.2-.7-.4-1.1-.5-.4-.1-.7-.1-1.1-.1-.8,0-1.6,0-2.4,0-.8,0-1.7-.1-2.4-.6-.3-.2-.6-.6-.8-1-.2-.4-.2-.7-.3-1.1,0-.4,0-.8.2-1.1.2-.3.3-.6.5-.9.2-.3.4-.5.5-.7.1-.2.2-.5.1-.8,0-.3-.1-.5-.3-.7-.1-.2-.3-.4-.4-.6-.3-.3-.7-.6-1-.9-.4-.3-.7-.6-.9-.8-2.2-.3-3.1-1.7-3.6-3.8,2.2.5,3.2,2,4,3.9,0,0-.2,0-.3,0,.2.2.5.5.9.7.3.2.7.5,1.1.8.2.2.4.4.5.6.1.2.3.5.3.8,0,.3,0,.6,0,.9-.1.3-.3.6-.5.8-.2.3-.3.5-.5.8-.1.3-.2.6-.1.9,0,.6.3,1.3.9,1.6.6.3,1.3.4,2.1.4.8,0,1.6,0,2.4-.1.4,0,.9,0,1.4,0,.5,0,.9.3,1.3.5.8.5,1.5,1.1,2.1,1.9.2.3.4.5.5.8,0-.3.1-.6.2-.9.3-.8,1-1.1,1.4-1.6.1-.1.2-.2.2-.3h0c0,0,0-.1,0-.1h0s0-.3,0-.3c0,0,0-.2,0-.2v-.2c0-.2,0-.3,0-.5v-.5s0-.3,0-.3c0,0,0-.1,0-.2,0-.3-.3-.5-.5-.7-.5-.4-1.1-.8-1.6-1.3-.4-.5-.8-1.1-1-1.7-.2-.6-.4-1.1-.4-1.7,0-1.1,0-2,.2-2.6,0,0,0,0,0-.1-1.2-1.5-1-3,0-4.6,1,1.6.8,3.2,0,4.8,0,0,0,0-.1-.1,0,0,0,0,0,.1,0,.6-.2,1.5,0,2.5,0,.5.2,1.1.5,1.6.2.5.6,1.1,1,1.5.4.5,1,.8,1.6,1.2.3.2.5.5.7.9,0,0,0,.2,0,.3v.3s.1.5.1.5c0,.2,0,.3,0,.5,0,.2,0,.4,0,.6v.3s0,0,0,0c0,0,0,0,0,0h0s0,.1,0,.1v.2c-.1.2-.2.4-.4.5-.2.3-.5.6-.7.8v.2c-.2,0-.2.1-.3.2,0,0-.1.2-.2.3-.2.5-.1,1.1,0,1.6,0,.2,0,.3,0,.5,0,.1,0,.3,0,.4,0,.3,0,.5,0,.8,0,0,0,.2,0,.2,0,0,0,0,0,0,.1.4.2.9.4,1.3.1.5.3,1.1.4,1.6,0,0,0,0,0,0,0,.3.2.7.2,1,.1.5.2.9.3,1.4v.7c.2.2.2.4.3.6.2.9.4,1.7.8,2.4.2.4.4.7.6,1.1.1.2.2.3.3.5,0,0,.1.2.2.2h.1c0,.1,0,.1,0,.1h0s0,0,0,0h0c.4.4,1.1.7,1.9,1,.2,0,.3.1.5.2,0,0,0,0,0,0,.2-.2.3-.5.3-1,0-.5-.1-1.2-.3-1.9-.3-1.2-.9-2.8-.5-4,.3-1,1.2-2.1,1.9-2.8.3-.4.7-.8,1.1-1.1.4-.4.8-.7,1.2-1,.2-.2.4-.3.6-.5.2-.1.4-.3.6-.5.7-.6,1.2-1.5,1.6-2.4.1-.5.2-.9.2-1.4,0-.5,0-.9-.3-1.3-.2-.4-.5-.7-.8-1.1-.3-.4-.6-.7-.9-1.1-.1-.2-.2-.4-.3-.6-.1-.2-.2-.4-.3-.6,0-.2,0-.4,0-.7,0-.2,0-.4.2-.6.2-.4.5-.6.8-.8.3-.2.6-.3.9-.5.6-.3,1.1-.5,1.4-.8.4-.3.6-.6.7-.8,0-.1,0-.2,0-.3,0,0,0,0,0,0,0,0,0,0,0,0,0,0,0,.2,0,.3,0,.2-.3.5-.6.8-.3.3-.8.6-1.4.9-.3.1-.6.3-.9.5-.3.2-.6.4-.7.7,0,.2-.1.3-.1.5,0,.2,0,.4.1.5,0,.2.2.4.3.5,0,.2.2.4.4.5.3.3.6.7.9,1,.3.3.7.7.9,1.2.3.5.4,1,.4,1.6v.2s0,0,0,.1h0c0,.1,0,.5,0,.5,0,.1,0,.3,0,.4v.4c-.2.3-.3.5-.4.8-.1.2-.2.5-.4.7l-.2.4s0,0,0,0c.1,0,.2,0,.3,0,.3,0,.6,0,1,0,.3,0,.7.1,1,.3.1,0,.3.2.4.3.1.1.2.2.3.4.2.3.3.5.5.8.1.3.3.5.5.7.2.2.3.4.5.5,0,0,0,0,.1,0,0,0,0,0,.1,0,0,0,0,0,.1,0,0,0,0,0,.1,0,.2,0,.3,0,.5,0,.3,0,.4-.1.4-.1,0,0-.1,0-.4.2-.1,0-.3,0-.5,0,0,0-.1,0-.2,0,0,0-.1,0-.2,0,0,0-.1,0-.2,0,0,0-.1,0-.2,0-.1,0-.2-.1-.3-.2,0,0-.2-.2-.3-.3-.2-.2-.4-.4-.5-.7-.2-.2-.3-.5-.5-.7,0-.1-.2-.2-.3-.3-.1,0-.2-.1-.3-.2-.2-.1-.5-.2-.8-.1-.3,0-.5,0-.8.1-.3,0-.5.2-.7.3-.2.1-.4.2-.6.3-.2.1-.4.3-.6.4-.2.1-.3.3-.5.4-.4.3-.7.7-1.1,1-.3.4-.7.7-.9,1.1-.4.6-1,1.3-1.4,2-.4.8,0,1.8.2,2.6.1.4.2.8.3,1.2.2.8.4,1.5.4,2.3,0,.7-.1,1.4-.4,1.9.2.1.4.3.5.5.7.7,1.2,1.5,1.6,2.2.8,1.4,1.5,2.9,1.9,4.2.1.3.2.6.4,1,1-.5,2.2-.7,3.3-.9,2.1-.4,3.6-.7,5.5-1.9,1.6-1,3.1-2.3,4.3-3.8.4-.6.9-1.5,1.4-2.4.5-1,.6-2.3.7-3.4,0-1,.2-2,.2-3.1,0-.1,0-.3,0-.5,0-.3,0-.7,0-1.1,0-1.9,1-3.1,2.5-4.1.3-.2.7-.4,1-.6.7-.3,1.4-.6,1.6-.9.2-.2.2-.5.3-.8v-.2s0-.3,0-.3c0-.2,0-.4,0-.5,0-.7,0-1.5.2-2.2,0-.2,0-.4,0-.6,0,0,0,0,0,0,0,0,0-.2,0-.4,0-.2,0-.4,0-.6,0-.1,0-.2,0-.4,0-.1,0-.3-.1-.4,0-.3-.2-.6-.3-.9,0,0,0-.1-.1-.2,0,0-.1-.2-.2-.2,0-.1-.2-.3-.4-.4-.3-.3-.6-.5-.9-.9-.3-.4-.5-.9-.4-1.4h0c0,0,0-.2,0-.2,0,0,0-.1,0-.2,0-.1.1-.2.2-.3.2-.2.4-.3.5-.4.4-.2.8-.4,1.1-.6.3-.2.5-.5.6-.8,0,0,0-.2,0-.3,0,0,0-.2,0-.2,0-.2,0-.3,0-.5,0-.2,0-.3-.1-.4,0-.1,0-.3-.1-.4-.1-.2-.2-.4-.3-.6,0-.2-.2-.3-.2-.4,0,0,0-.1,0-.1,0,0,0,0,0,.1,0,0,.1.2.2.3.1.2.2.3.3.6,0,.1.1.2.2.4,0,.1.1.3.1.4,0,.2,0,.3,0,.5,0,0,0,.2,0,.3,0,0,0,.2,0,.3h0c0,.2,0,.2,0,.3,0,.1,0,.2-.1.3-.1.2-.3.3-.4.5-.3.3-.7.4-1,.7-.3.2-.6.5-.6.8,0,.4.1.7.4,1,.2.3.6.5.9.8.2.1.3.3.5.4,0,0,.1.2.2.2,0,.1.1.2.2.3.2.3.4.7.5,1,0,.1,0,.2.1.3.4-.6.9-1.2,1.5-1.6.3-.2.7-.4,1.1-.4.4,0,.8,0,1.2,0,.4.1.7.2,1,.4.3.1.6.2.9.3.6.1,1.2.2,1.7.2.6,0,1.1-.3,1.4-.6.4-.3.6-.8.8-1.2,0-.2.1-.5.3-.7,0-.1.1-.2.2-.3,0,0,.2-.2.3-.2,0,0,0,0,.2,0h.2c.1,0,.3,0,.4,0,.1,0,.2,0,.3,0,0,0,.2,0,.3,0,.3-.1.6-.3.9-.5.5-.4.8-.8,1.1-1,.1-.1.2-.2.3-.2,0,0,.1,0,.1,0,0,0,0,0-.1,0,0,0-.2.1-.3.3-.3.2-.6.6-1,1.1-.2.2-.5.5-.9.6,0,0-.2,0-.3,0-.1,0-.2,0-.3,0-.1,0-.2,0-.3,0h-.2c0,0,0,0-.1.1,0,0-.1.1-.2.2,0,0-.1.2-.2.3,0,.2-.1.4-.2.7-.1.5-.4,1-.8,1.4-.4.4-1,.7-1.7.8-.6.1-1.3,0-1.9,0-.3,0-.6-.1-1-.2-.3-.1-.6-.2-.9-.3-.3,0-.6,0-.8,0-.3,0-.5.2-.8.4-.5.4-.9.9-1.2,1.5,0,.1-.1.3-.2.4v.3c0,0-.1.2-.1.2,0,.1,0,.2,0,.3,0,0,0,0,0,0h0s0,0,0,.1c0,.2,0,.3,0,.5,0,.7,0,1.4,0,2.2,0,.2,0,.4,0,.6v.3c0,.1,0,.2,0,.3,0,.4-.2.9-.5,1.3-.3.4-.7.7-1,.9-.4.2-.7.4-1,.5-.9.5-1.9.9-2.3,1.9-.5,1.2,0,2.5-.1,3.7,0,.3,0,.7,0,1h0c.8-1.4,2.5-2.4,4.2-2.6,2.2-.2,3.3,1.2,5.2,1.4,1.8.2,3.7-.8,5.3-1.5,2-.9,3.3-1.4,5,0-1.1-.9-3-.2-4.1.3-1.5.6-2.9,2-4.4,2.3-1.1.2-2.2.1-3.2-.2-.9-.3-1.8-.9-2.8-.8-1.9.1-3.3.6-4.2,2.2-.8,1.3-1,2.9-1.4,4.3,0-.2,0-.3.1-.5,0,0,0,0,0,.1,0,0,0,0,0,0-.4,1.9-1.6,3.7-3,5.2,0,0,0,0,0,0-.1.1-.3.3-.4.4-.3.3-.5.4-.6.6-.2.2-.3.3-.5.4-.3.2-.4.4-.4.4h0c-.7.5-1.5,1-2.3,1.4-2.2,1.2-5.1,1.7-6.8,3.7-1.7,1.9-1.4,4.1-.7,6.3,0,.3.1.5.2.8,0-.2.1-.4.2-.6,0-.2.2-.4.3-.7.1-.2.2-.4.4-.7.1-.2.3-.4.5-.6.2-.2.4-.4.7-.5.3-.1.6-.2.9-.2.6,0,1.1.3,1.4.5.1,0,.2,0,.3.1h.1s.1,0,.1,0c.2,0,.3,0,.4-.1.1-.1.2-.3.2-.5,0-.2,0-.4.1-.6,0,0,0-.2,0-.3,0,0,0-.2,0-.3,0-.2,0-.4.1-.6,0,0,0-.2.2-.2,0,0,.1-.1.2-.2,0,0,0,0,.1,0,0,0,0,0,.1,0,0,0,.2,0,.3,0,.3,0,.5.2.7.2.2,0,.3-.2.3-.3,0,0,0-.2,0-.2,0,0,0,0,0,.2,0,0-.1.3-.3.4-.2,0-.5,0-.7-.1,0,0-.1,0-.2,0,0,0,0,0-.1,0,0,0,0,0,0,0,0,0-.1,0-.2.2,0,0,0,.1-.1.2,0,.3,0,.7,0,1.1,0,.2,0,.4,0,.7,0,.2,0,.5-.3.7,0,.1-.2.2-.4.3-.1,0-.3,0-.4,0-.3,0-.5-.1-.8-.2h-.3c-.1-.2-.2-.2-.3-.2-.2,0-.4-.1-.6,0-.4,0-.6.2-.9.5-.1.2-.2.3-.3.5,0,.2-.2.4-.2.5,0,.2-.1.4-.2.6,0,.2,0,.4,0,.6,0,.4,0,.7,0,1.1,0,.3,0,.7,0,.9,0,0,0,.1,0,.2,0,.3.1.5.2.8.2.6.4,1.3.7,2.1.1.4.3.8.4,1.3.1.4.2.9.3,1.4.2,1,.2,2,0,3.1,0,.1,0,.3,0,.4,0,0,0,.2.1.3.2.4.3.9.4,1.5,0,.2,0,.3,0,.5,0,.2,0,.4,0,.6,0,.7-.2,1.5-.5,2.2-.3.9-.8,1.6-1.2,2.4,0,0,.5-.4.6-.5.2-.3.4-.6.6-.8.5-.7.8-1.6,1.2-2.3.9-1.8,2.3-3.7,4.1-4.8,1.7-1.1,3.8-1.3,5.8-1.6,1.4-.2,2.8-.3,4.2-.5,2.2-.4,3.5-1.4,4.5-3.4.4-.8.9-1.3,1.6-1.8.7-.5,1.1-1.5,1.7-2.1.6-.5,1.2-.9,2-1,.6,0,1.1.2,1.7.3.9-.1,2,.2,2.8-.4.5-.3.7-1,.9-1.4.3-.5.6-1.1,1.2-1.4.3-.2.7-.2,1.1-.3.3-.1.5-.3.7-.6.4-.5.7-1.2.6-1.9-.2-1.3-1.7-2.3-1-3.7.3-.6.9-1.3.7-2-.1-.3-.5-.5-.7-.7-.2-.2-.2-.5-.2-.7-2-1-3.8-1.9-3.8-4.3,2.2.7,2.8,1.4,3.8,4.3,0-.1,0-.2,0-.3-.2.6.8,1.1,1.1,1.4.7.7.3,1.1,0,1.7-.1.2-.2.4-.3.6-.2.6,0,1.2.3,1.8.4.7.8,1.5.9,2.3.6-.5,1.6-.2,2.3-.5.5-.2.8-.7,1.3-.9.5-.2.8-.2,1.3-.2,1.2-.2,1.6-.9,2-1.9.2-.5.5-.9.9-1.2.4-.3.9-.6,1.3-.9.2-.1.3-.3.4-.5,0,0,.2-.2.2-.3,0,.3-.2.6-.4.9-.2.3-.5.4-.8.6-.4.3-.8.6-1,1.1-.2.4-.3.8-.5,1.2,0,.2-.2.4-.3.6-.2.3-.4.6-.7.7-.4.2-.9.2-1.4.2-.5,0-1,.4-1.4.7-.4.3-.7.7-1.2.9-.4.1-.8.2-1.2.3-.2,0-.5.2-.7.3,0,0-.1.1-.2.2,0,0-.1.1-.2.2-.3.6-.9,1.1-1.5,1.5-.5.4-.9.6-1.2,1.2-.3.5-.5,1-.7,1.6-.1.4-.3.9-.6,1.1,0,0,.2,0,.2-.1,0,0,.4.6.4.7.1.5.2.7.2,1.2,0,.4,0,1.2.4,1.5.4.3,1,.2,1.4,0,.2,0,.5-.2.7-.2.6-.2,1.2-.3,1.9,0,.4.2,1.7.9,2.1.4,0,.3-.4.5-.7.6-.5,0-.8-.2-1.2-.4-.4-.2-.7-.2-1.1-.1-.6,0-1.2.4-1.8.6-.9.3-1.9.1-2.1-1-.1-.6-.1-1.3-.4-1.9,0-.2-.2-.3-.3-.4,0,0-.5-.4-.6-.3,0,0,0,0,0,0-.4.1-.8.2-1.2.1-.3,0-.7,0-1,0-.5,0-.9-.1-1.4-.3-.5-.2-.9-.3-1.4,0,0,0,.1-.1.2-.2-.6.5-.8,1.4-1.3,2-.3.3-.7.5-1,.8-.4.3-.6.7-.9,1.1-.4.6-.8,1.1-1.1,1.8-.7,1.4-1.5,2.8-3.2,3.1,0,0,0,0-.1,0-2.1.3-4.4.7-6.4,1.4-1.7.6-3.7,1.2-4.8,2.7-1,1.2-1.4,2.4-1.9,3.9-.4,1.4-1.2,2.5-1.3,4,0,1.3-.5,2.5-1,3.8,0,0,0,.2,0,.3,0,0,0,0,0,0h0s0,0,0,0h0s0,0,0,0h0c0,0,0,.2,0,.2.1.2.2.4.3.5.1.2.3.4.4.6.3.4.6.9.7,1.5,0,.1,0,.3,0,.4v.2s0,.1,0,.1h0c0,0,0,0,0,0h0s0,0,0,0v.4c0,.1,0,.3,0,.4,0,.6,0,1.1-.2,1.6,0,.3,0,.5-.1.8,0,.1,0,.3,0,.4v.2s0,0,0,0c0,0,0,0,0,0h0s0,0,0,0h0c0,.3,0,.6,0,.8,0,.1,0,.2,0,.3v.3c.2.4.5.9.8,1.3.3.4.7.7,1.1,1.1.8.7,1.5,1.5,2,2.4.5.9.6,1.9.9,2.8,0,.4.2.8.4,1.2,0,.2.2.4.3.5.1.2.2.3.3.5.5.6,1,1.1,1.5,1.5.2.1.4.3.6.4,0,0,.2,0,.3,0,.2,0,.4,0,.6.1.2,0,.4,0,.6,0,.1,0,.2,0,.3,0,.1,0,.2,0,.3,0,.2,0,.5,0,.7,0,1,0,2-.2,3.1-.5.6-.1,1.1-.2,1.7-.3.6-.1,1.2-.2,1.8-.3.6-.1,1.2-.2,1.9-.3.3,0,.6,0,1-.1.3,0,.7,0,1,0,.6,0,1.3-.1,2-.1.3,0,.7,0,1,0h1c.3,0,.7.1,1,.1.3,0,.7,0,1,.1.7,0,1.3.2,1.9.3,1.3.2,2.5.5,3.8.7,1.2.2,2.4.5,3.5.7.6,0,1.1.2,1.6.3.3,0,.5,0,.8.1.3,0,.5,0,.8,0,.2,0,.5,0,.7,0,.2,0,.5,0,.7,0,.2,0,.4,0,.7,0,.2,0,.4,0,.6,0,.4,0,.8,0,1.1,0,.3,0,.7,0,1,0,.3,0,.5,0,.8-.1.2,0,.4,0,.6-.1.3,0,.5,0,.5,0,0,0-.2,0-.5,0ZM178.9,75.5c-.3,2.4-1.8,3.4-4,3.9.6-2.2,2.1-3.2,4-3.9ZM165.2,97c-.8,1.5-2,2-3.6,2.3.6-1.8,1.8-2.3,3.6-2.3ZM163.6,116.9c-.7-1.4-.2-2.4.8-3.4.4,1.3,0,2.3-.8,3.4ZM199.9,111.5c2-1.4,3.2-1.4,5.6,0-2.1,1-3.9,1.6-5.6,0ZM202.1,115.4c-1.8-.5-3.3-1.2-3.1-3.3,2,.2,2.7.8,3.1,3.3ZM197.9,106.1c.5,2.2-.3,3.3-1.5,4.5-.7-2.4,0-3.7,1.5-4.5ZM195.8,106.6c-.2-.8.1-1.8.5-2.5.5-.9,1.6-1.5,1.8-1.7,0,0,.1,1.2-.6,2.4-.4.6-1.6,1.8-1.8,1.8ZM201.6,107.7c-.7,2-1.6,3.5-3.9,3.2.4-2.3,1.2-2.9,3.9-3.2ZM201.8,105c-.3,1.9-1.6,2.6-3.3,2.8.6-1.6,1.8-2.4,3.3-2.8ZM199.1,103.2c.2-.9.9-1.6,1-1.9,0,0,.5,1,.2,2.2-.1.6-.8,1.9-.9,2-.4-.6-.4-1.6-.3-2.3ZM203,102c-.7-.2-2.1-1.1-2.2-1.2.7-.4,1.8-.4,2.6-.2,1.1.3,1.8,1.1,2.2,1.3,0,0-1.2.5-2.5.1ZM205.4,107.2c-.6,1.9-2,2.5-3.8,2.5.8-1.6,2.2-2.2,3.8-2.5ZM202.8,102.9c.4.7.9,2.5.9,2.7-1-.3-1.9-1.2-2.4-1.9-.7-1-.6-2.3-.7-2.7,0,0,1.4.6,2.3,1.9ZM203.8,98.6c2.7,0,3.9.9,4.8,3.7-2.2-.6-4-1.5-4.8-3.7ZM204.4,97.6c2.4-1.2,3-1.2,5.1.3-1.9.9-2.2.9-5.1-.3ZM194.2,110.9c-1-1.9-.9-3,.6-5,.6,1.9,1,3.7-.6,5ZM198.4,114.7c0,.7-.6,2.3-.7,2.4-.6-.6-.8-1.7-.7-2.4,0-1.1.7-2,.8-2.4,0,0,.7,1,.7,2.4ZM193.6,117.2c0-2.1.6-3.7,2.6-4.9.3,2.4-.6,3.9-2.6,4.9ZM188.9,114.9c-.1-2.1.5-3.9,2-5.1.3,2-.1,4.1-2,5.1ZM182.8,114.5c2.5.6,3.5,2.4,4.5,4.6-2.8-.5-4-2-4.5-4.6ZM181.7,120.1c-.7-2-.7-2.5.4-4.2,1.1,1.4,1,2.2-.4,4.2ZM183.2,113.8c1.9-.8,2.4-.8,4.2.1-1.3,1.2-2.1,1.1-4.2-.1ZM187.3,112.9c-1-1.3-.9-2.6-.4-4,1.4,1.2,1.2,2.5.4,4ZM205.8,95.9c1.7-1.5,3.5-1.7,5.4-1.1-1.4,1.6-2.1,1.8-5.4,1.1Z"/>
    <path class="st2" d="M314.9,54C280.1,19.2,233.7,0,184.5,0S88.9,19.2,54,54C19.2,88.9,0,135.2,0,184.5s19.2,95.6,54,130.4c34.8,34.8,81.2,54,130.4,54s95.6-19.2,130.4-54c34.8-34.8,54-81.2,54-130.4s-19.2-95.6-54-130.4ZM308.5,308.5c-33.1,33.1-77.2,51.4-124,51.4s-90.9-18.2-124-51.4c-33.1-33.1-51.4-77.2-51.4-124S27.3,93.6,60.5,60.5C93.6,27.3,137.6,9.1,184.5,9.1s90.9,18.2,124,51.4c33.1,33.1,51.4,77.2,51.4,124s-18.2,90.9-51.4,124Z"/>
    <path class="st1" d="M209,325.5c2.5,2.8,5.6,2.1,7.3.8,1.7-1.2,2.1-4-.1-7.2-.7-.9-1.4-1.5-2.2-2-.7-.3-1.4-.5-2.2-.6-2.4.1-3.1.9-3.9,1.2-.7.3-1.4-.3-1.7-.5.4.4.9,1.1,1,1.5.1.8-.8,3.9,1.7,6.7ZM212.3,320.4s.8,2.2,2.5,1.4c0,0-1,.9-1.9.3-.9-.5-.7-1.8-.7-1.8ZM210.6,320.3c0-.2,0-.3,0-.3,0,0,0,.4.3,1,.3.6.8,1.3,1.6,1.8.4.3.8.4,1.1.5.4,0,.8,0,1.1-.1.3,0,.6-.2.7-.3s.3-.1.3-.1c0,0,0,0-.2.2-.1.1-.3.4-.6.6-.3.2-.7.4-1.3.4-.5,0-1.2-.1-1.6-.5-.5-.3-.8-.8-1.1-1.2-.2-.4-.3-.9-.4-1.2,0-.4,0-.6,0-.8ZM208.9,319.8c0-.3.1-.5.1-.5,0,0,0,.2,0,.5,0,.3.1.8.3,1.3.2.5.4,1.2.9,1.7.4.6,1.1,1.1,1.9,1.5.8.4,1.6.5,2.3.4.7-.1,1.3-.4,1.8-.8.5-.3.8-.7,1-.9.2-.2.3-.4.3-.4,0,0,0,.2-.2.5-.2.3-.4.7-.9,1.2-.4.4-1.1.9-2,1.1-.2,0-.5,0-.7.1-.2,0-.5,0-.7,0-.2,0-.5-.1-.7-.2-.2,0-.5-.2-.7-.3-.9-.4-1.6-1.1-2.1-1.8-.4-.7-.6-1.5-.7-2.1,0-.6,0-1.1,0-1.4Z"/>
    <path class="st2" d="M206.2,318.7c.7.6-.4,3.1,1.2,6.2,1.2,2.5,4.1,5.3,7.7,4.8,1-.1,2-.5,3.1-1.2,5-3.3.8-10.2-2.4-11.7-1.7-.8-3.3-.9-4.6-.8-1.6.2-2.8.9-3.3,1,0,0,0,0,0,0-.4,0-1.1-.4-1.7-.8-1.1.2-2.2.4-3.2.6,1.3.6,2.9,1.4,3.4,1.8ZM208.6,318c.8-.3,1.7-1.2,4.3-1.3.8,0,1.6.3,2.4.6.8.5,1.7,1.2,2.4,2.2,2.5,3.5,2.1,6.6.2,7.9-1.9,1.3-5.3,2.1-8.1-.9-2.8-3-1.7-6.5-1.9-7.4,0-.5-.7-1.2-1.1-1.7.3.3,1.1.9,1.9.6Z"/>
    <path class="st1" d="M308.7,194.7h0c0,.1-.8,1-.8,1l-1.2,1.9-2,3-.5,5.5-.6,2.7-.6.9s0,.2,0,.3h0c1-1,2.1-2.4,2.2-3.3.2-1.1.3-7.5,3.8-12.3,0,0-.1,0-.2.1h0s0,0,0,0Z"/>
    <path class="st2" d="M257.3,301.2c.5.6,1.3,1.3,2.4,1.8,1,.5,2.2.8,3.5,1,1.3.1,2.6,0,3.7-.3,1.1-.3,2-.8,2.7-1.3.7-.5,1.1-1,1.3-1.4.2-.4.3-.6.3-.6,0,0-.1.2-.5.5-.3.3-.8.7-1.5,1.1-.7.4-1.6.7-2.6.9-1,.2-2.1.2-3.3.1-1.2,0-2.3-.3-3.3-.7-1-.4-1.8-.8-2.4-1.3-.6-.5-1-1-1.3-1.3-.3-.3-.4-.6-.4-.6,0,0,0,.2.2.6.2.4.5,1,1.1,1.6Z"/>
    <path class="st2" d="M258.9,299.9c.4.4.9.9,1.5,1.2.7.4,1.5.7,2.3.8.9.1,1.7,0,2.5-.1.7-.2,1.4-.4,1.8-.7.5-.3.8-.5,1.1-.7.2-.2.4-.3.4-.3,0,0-.6.3-1.6.5-1,.2-2.4.4-3.9.2-1.5-.2-2.8-.8-3.6-1.4-.4-.3-.7-.6-1-.8-.2-.2-.3-.3-.3-.3,0,0,0,.2.2.4.1.3.4.6.7,1.1Z"/>
    <path class="st2" d="M261,298.8c.3.4.8.9,1.6,1.2.8.3,1.5.2,2,.1.5-.1.8-.3.8-.3,0,0-.3,0-.8-.1-.5,0-1.1-.2-1.7-.5-.6-.2-1.2-.5-1.6-.7-.2-.1-.4-.2-.5-.3-.1,0-.2-.1-.2-.1,0,0,0,0,0,.2,0,.1.1.3.3.5Z"/>
    <path class="st2" d="M246.7,299.8c1.5-.2,3.2-.4,4.1-.3,1.9.1,1.5.9,2.6,2.7,1.1,1.8,4.4,5.3,10.2,5.3.7,0,1.3,0,1.9-.1,4.7-.6,7.3-3.4,7.7-6.3.4-3.3-2.1-6.7-5.6-7.4-1.7-.3-3.6-.4-5.5-.1-2.1.3-4.2.9-5.8,1.8-2.8,1.6-3.8,2-6.1,2.3,0,0-.2,0-.3,0-1.2.7-2.3,1.4-3.5,2.1.1,0,.2,0,.3,0ZM255.7,296.6c.3-.2.6-.4,1-.6,1.5-.9,3.4-1.5,5.5-1.8,1.8-.2,3.7-.2,5.3.1,0,0,0,0,0,0,1.6.5,4.2,1.9,4.7,5.2.6,4.7-5.4,6.4-8.1,6.5-2.8,0-7.1-1.1-9.2-3.8-1.8-2.4-2.1-3.8.8-5.8Z"/>
    <path class="st1" d="M309.2,210.5c2.7.6,5.9-.9,7.6-2.3,1.7-1.5,4.5-5.6,1.7-8.2-2-1.8-4.3-1.3-5.6-.8,0,0,0,0,0,0-1.1.6-2.3,1.5-3.3,2.6-1.1,1.2-2,2.6-2.5,3.9-.1.3-.2.6-.3.8-.8,2.7,0,3.5,2.4,4ZM310.7,204.9c.1,0,.3,0,.4,0,.4,0,.8-.2,1.3-.4.5-.2.9-.4,1.3-.6.3-.2.5-.3.5-.3,0,0,0,.2-.3.6-.2.3-.7.7-1.3,1-.6.2-1.2.2-1.6,0-.2,0-.3-.1-.4-.2,0,0-.2,0-.2,0,0,0,0,0,.2,0ZM309.4,206.5c.2,0,.6,0,1,0,.8,0,1.9-.4,2.9-1,1-.6,1.8-1.5,2.3-2.1.5-.7.8-1.2.8-1.2,0,0,0,.1,0,.4,0,.2-.1.6-.3,1-.2.4-.4.9-.8,1.4-.4.5-.9,1-1.5,1.3-.6.4-1.2.6-1.8.7-.6.1-1.1,0-1.6,0-.4,0-.8-.2-1-.3-.2,0-.3-.2-.3-.2,0,0,.1,0,.4,0ZM308.6,208c.3,0,.9.2,1.5.1.6,0,1.4-.1,2.1-.4.8-.3,1.6-.7,2.4-1.2.8-.5,1.5-1.1,2-1.8.5-.6.9-1.3,1.1-1.9.2-.6.3-1.1.4-1.4,0-.4,0-.6,0-.6,0,0,0,.2.1.5,0,.4,0,.9,0,1.6-.1.7-.4,1.4-1,2.2-.5.7-1.2,1.5-2.1,2.1-.9.6-1.8,1-2.7,1.2-.9.2-1.7.2-2.4.1-.7,0-1.2-.3-1.5-.4-.3-.2-.5-.3-.5-.3,0,0,.2,0,.5.1Z"/>
    <path class="st2" d="M311.1,207.9c.8.1,1.7.1,2.7-.1,1-.2,2.1-.7,3.1-1.4,1-.7,1.8-1.5,2.4-2.4.6-.9,1-1.8,1.1-2.5.2-.8.2-1.4.1-1.8,0-.4-.1-.6-.1-.6,0,0,0,.2,0,.6,0,.4-.2,1-.4,1.7-.3.7-.7,1.4-1.3,2.1-.6.7-1.4,1.4-2.3,2-.9.6-1.8,1.1-2.7,1.4-.9.3-1.7.4-2.5.5-.7,0-1.3,0-1.7-.2-.4,0-.6-.2-.6-.2,0,0,.2.1.6.3.4.2.9.4,1.7.5Z"/>
    <path class="st2" d="M311.5,206c.5,0,1.1.1,1.8,0,.7-.1,1.4-.4,2.1-.8.7-.4,1.3-1,1.7-1.5.4-.6.7-1.1.9-1.6.2-.5.3-.9.4-1.1,0-.3,0-.4,0-.4,0,0-.3.6-.9,1.3-.6.8-1.5,1.7-2.7,2.5-1.2.7-2.4,1.1-3.4,1.2-.5,0-.9,0-1.1,0-.3,0-.4,0-.4,0,0,0,.1,0,.4.2.3.1.6.2,1.1.3Z"/>
    <path class="st2" d="M311.1,205.1c.4.1,1,.1,1.6,0,.6-.2,1-.6,1.3-1,.3-.3.3-.6.3-.6,0,0-.2.1-.5.3-.3.2-.8.4-1.3.6-.5.2-1,.3-1.3.4-.2,0-.3,0-.4,0-.1,0-.2,0-.2,0,0,0,0,0,.2,0,.1,0,.2.1.4.2Z"/>
    <path class="st2" d="M303,211.8c0,.4,0,.7,0,1.1.9-1,1.9-2,2.6-2.4,1.5-1,1.6-.3,3.5.4,1.9.6,6.3,1.2,10.4-2.3.5-.4.9-.8,1.3-1.2,3-3.2,3.2-6.7,1.8-9-1.6-2.6-5.4-3.5-8.3-2-1.4.7-2.8,1.9-4,3.2-1.3,1.4-2.4,3.1-3,4.7-1,2.8-1.5,3.7-3,5.3-.2.2-.3.4-.5.6-.2.2-.4.4-.5.5,0,.3,0,.6,0,.9,0,0,0,.2,0,.3ZM307.3,205.5c.1-.3.2-.6.4-1,.5-1.5,1.6-3.1,2.9-4.5,1.2-1.3,2.5-2.3,3.8-3,0,0,0,0,0,0,1.4-.5,4.1-1.1,6.4,1,3.2,3,0,7.7-1.9,9.4-1.9,1.7-5.6,3.4-8.7,2.7-2.7-.6-3.7-1.5-2.8-4.6Z"/>
    <path class="st1" d="M313.6,180.4c-.4,1-.9,2-1.3,2.9,3.6-1.1,6.3-4,7.3-5.3.2-.7.4-1.4.5-2-2.8,3.1-5.4,4.1-6.6,4.4Z"/>
    <path class="st1" d="M292.7,160.7c1.5,4.3,2.9,9.4,4.2,15.4,2.1-3.3,2.5-7.3,2.6-9.1,0-.2,0-.4,0-.6-.6,3.7-3,4.6-3,4.6,3-5,.9-11.9.9-11.9-.3,4.5-3,5.9-3,5.9,2.2-6.3.6-10.8.6-10.8.2,4.4-1.9,6.2-2.3,6.5Z"/>
    <path class="st1" d="M316.3,172.7c-.6,1.9-1.2,3.8-1.9,5.5,3.8-2.7,5.5-4.9,6.3-6.5,0-.5,0-1,0-1.5-2.2,2.7-3.8,2.6-4.4,2.4Z"/>
    <path class="st1" d="M318.2,163.7c-.3,2.9-1,5.8-1.8,8.6,2.1-1.7,3.4-3.7,4.1-4.9-.2-1.5-.4-2.9-.7-4.2-.2-1.2-.4-2.3-.5-3.3-.9,1-2,2.2-3.4,3.4,0,0-.2.2-.3.2-.6,1.2-1.3,3.3-.6,5.7,0,0-1.6-1.9-1.7-3.8-.3.2-.5.5-.8.7-.3,1.3-.6,4.2.7,7.6,0,0-2.3-2.8-2.6-5.6-.3.4-.6.7-.9,1.1-.3,2-.7,6.2.5,9.7,0,0-2.7-2.4-2.8-6.5-.2.4-.5.8-.7,1.3-.2,2.2-.4,7.1,1.3,11.7,0,0-2.9-3.1-3.2-7.3-.1.5-.3.9-.4,1.4,0,2.3.4,6.1,1.9,9.4,0,0-1.9-1.1-2.7-4.7-.2,2.6,0,5.4.5,8.5v.2s0,.2,0,.2c0,.1-.8,2.9-2.3,5.1,0,.2,0,.3,0,.5,12-20.7,16.2-35.2,16.2-35.2Z"/>
    <path class="st1" d="M296,178.8c-.2-.7-.4-1.5-.6-2.3-1.8-2.3-5.4-6.7-9.7-10,0,0,4.6,1.3,8.8,6.6-.2-.7-.4-1.4-.5-2.1-1.9-2.5-6-7.7-9-9.3,0,0,3.8,1.4,8.1,5.8-.1-.5-.3-1-.4-1.5-1.5-2.3-4.6-6.6-7.7-8.5,0,0,2.4.4,6.7,4.8-.1-.4-.2-.7-.3-1.1-2.6-4.7-6.6-8.2-6.6-8.2,2.2.4,4,2,5,2.9-.2-.5-.3-1.1-.5-1.6-1.1-1.9-2.7-4.5-4.1-5.1,0,0,1.5,0,2.9,1.9-.9-2.5-1.8-4.8-2.6-6.8,0,0,3.6,5.5,7.2,16.3,1.7-5,.5-8.6-.4-10.2-.2-.2-.4-.4-.6-.7.1,2.9-1,3.8-1,3.8.1-2.3-.5-4.4-1.1-6-1.7-1.7-3.5-3.1-5.3-4.4.2,2.4.3,6.2-.3,9.9-.7,3.8-.4,12.2,3.2,19.1,1,.8,2.4,1.7,4.4,2.7,2.9,1.4,4.1,3.2,4.5,4Z"/>
    <path class="st1" d="M299.7,173.5c-1.3,2-2.6,2.5-2.9,2.6.3,1.5.6,3.1.9,4.7.9-1.6,1.5-3.2,1.8-4.5,0-.9.2-1.8.2-2.9Z"/>
    <path class="st1" d="M297.4,184.8h0c0-.4-.2-.7-.2-1.1-.8-1.9-2.5-4.9-6.3-7.6-.9-.7-1.8-1.3-2.5-1.9.1.2.2.3.3.5,1,1.2,2.5,2.8,3.7,3.8,1.2,1,3.2,2.8,5.2,6.6,0,0,0-.1,0-.2h0Z"/>
    <path class="st1" d="M299.4,237.2c0,0-.1.2-.2.2.2-.2.3-.3.5-.5-.1,0-.2.2-.3.2Z"/>
    <path class="st1" d="M317.9,225.8c-.5.6,4.2.6,7.2-.5,0,0-1.3,1.5-6.6,2.1-5.3.6-5,1.2-4.7,1.5.3.3,4.4.6,7.8-.5,0,0-2,1.6-6.4,1.9-4.4.3-3,2.7,2.8.5,3.8-1.4,7.2-4.5,9.8-7.4-1.1.4-2.7.8-5,1.1-4.2.5-4.3.7-4.8,1.3Z"/>
    <path class="st1" d="M306.5,196.1c.5-.3,1.3-.7,2.3-1.4-1,.6-1.8,1.1-2.3,1.4Z"/>
    <path class="st1" d="M302.9,209.8l.6-.9.6-2.7.5-5.5,2-3,1.2-1.9.8-.9h0c0-.1,0-.2,0-.2,0,0,0,0,0,0-1,.6-1.8,1.1-2.3,1.4-2.1,1.2-2.8,2-3.6,3.7-.2.4-.4.8-.6,1.2.3,2.8.6,5.9.7,9.2,0,0,0,0,0,0,0-.2,0-.3,0-.3Z"/>
    <path class="st1" d="M314.7,189.5s0,0,0,0c-.3.3-.5.6-.8.9.4-.4.7-.7.8-.8Z"/>
    <path class="st2" d="M303,211.8c0,0,0,.1,0,.2,0,0,0-.1,0-.2h0Z"/>
    <path class="st1" d="M322,222.2c1.2.3,4.2.7,7.1-.7.6-1,1.1-2,1.6-3-.9.7-3.1,1.9-7.3,2.6-.5.4-.9.7-1.4,1Z"/>
    <path class="st1" d="M305.6,195.3c0,0,.2-.1.3-.2h.2c3.5-2.1,6.4-4.6,8.7-7.5-2.9,2.6-5.9,3.9-7.1,4.3-.9,1.6-1.7,2.7-2.1,3.4Z"/>
    <path class="st1" d="M310.9,186.2c-.3.5-.5,1-.8,1.5,4.7-1.1,7.2-4.2,8.4-6.4.1-.3.3-.7.4-1-2.8,3.2-6.4,5.1-8,5.9Z"/>
    <path class="st1" d="M331.5,210.4c-.3,2-1.3,3.9-2.6,5.6.7,0,1.7,0,2.9-.5,0,0-1,1.3-3.8,1.6-.8.9-1.7,1.7-2.6,2.5,1.2-.1,3.3-.4,5.5-1.4,1.8-4.1,2.4-8,2.7-10.4-1.1.5-2.5,1.1-4.2,1.9-1.3,1.2-3.6,3.7-4.2,6.6,0,0-.5-2.8,1.7-5.6-.6.2-1.1.5-1.7.7-1.3,1.2-3.3,3.8-5.1,8.7,0,0-1-3.1,1.4-7.1-.2,0-.4.2-.6.3-1.4,1.5-3.7,4.6-5.3,9.6,0,0-.9-4.3,1.7-7.8,0,0-.1,0-.2,0-1,.8-4.6,4.2-6,9.9,0,0-1-2.3,1.3-6.9,0,0-.2.1-.2.2-1.2,1.6-4.8,6.5-5.6,10.9,0,0-.3-3,.9-5.9,0,0-1.5,1.7-2.8,3.7-.8,1.5-1.3,2.9-1.7,4-.2.6-.4,1.1-.6,1.5-.3.7-.7,1.5-1.2,2.2,4.7-4.7,10.4-8.8,17.5-12.6,9.1-4.9,13-12,13-12Z"/>
    <path class="st1" d="M285.3,279c-.6.2-1.2.4-1.7.6,4.4,2.3,8.6,1.6,11.1.8.3-.1.7-.3,1-.5-4.5.5-8.6-.4-10.4-1Z"/>
    <path class="st1" d="M268.7,282.5c24.5-7.2,39-15,39-15-2.4,1.9-5.1,3.6-7.8,5.1,2.9.1,5.3-.4,6.8-.9,1-1.2,1.9-2.4,2.7-3.5.7-1,1.4-1.9,2.1-2.7-1.4.1-3.1.3-5,.3-.1,0-.3,0-.4,0-1.3.5-3.4,1.6-4.7,3.8,0,0,.2-2.4,1.6-3.8-.4,0-.7,0-1.1,0-1.2.8-3.6,2.6-5.2,6,0,0,.3-3.5,2.2-5.8-.4,0-.8,0-1.1.1-.1,0-.3,0-.4,0-1.8,1.3-5.2,4.1-6.9,7.4,0,0-.2-3.5,2.7-6.5-.5.1-1,.3-1.5.5-1.9,1.5-5.6,4.8-7.8,9.3,0,0,.2-4.1,3.1-7.4-.5.2-.9.5-1.4.8-1.7,1.7-4.3,4.6-5.6,8,0,0-.6-2,1.5-5.2-2.2,1.8-4.3,4-6.1,6.5l-.2.2h-.3c-.1.2-2.4,1.3-5.3,1.9-.3.3-.7.7-1,1Z"/>
    <path class="st1" d="M278.2,281.2c.5.7,1.7,1.6,4.4,1.8,1.1,0,2.3,0,3.6-.3.3,0,.6,0,.9-.1-4.2,0-7.3-1-8.5-1.5-.1,0-.2,0-.3,0Z"/>
    <path class="st1" d="M263.9,324.8l-7.7-1.5s1.7.3,3.9,3.6c0,0-3.3-3.3-7.1-4.3,0,0,2.4,2.1,3.5,4.8,0,0-1.9-3.2-7.1-5.3,0,0,1.8,2,3.6,5.7,0,0-2.4-4.6-8.3-7.1,0,0,2.9,3.1,4,6.9,0,0-2.8-4.8-8.5-7.4-4.3-1.9,4.2,6.7,4.2,6.7,0,0-6.1-3.6-9.3-7.3-3.2-3.7-.6,1.7,1.4,3.3,0,0-3-1.2-4.6-3.5-1.6-2.4-2.2-.7-.4,1.6,1.8,2.3,8.5,6.2,15.2,7.5.4,0,.8.1,1.2.2,1,0,2,.1,3.1.1.2,0,.4,0,.7,0,.3,0,.5,0,.8,0,.4,0,.8,0,1.2,0,.1,0,.3,0,.4,0,.3,0,.7,0,1-.1,2.6-.3,4.8-.9,6.7-1.4.8-.2,1.5-.4,2.2-.5,1.2-.3,2.3-.5,3.2-.8.7-.2,1.3-.3,1.8-.4-.7-.5-1.4-1-1.9-1.5h0c-.1-.2-.3-.3-.4-.5-1.5-.6-4-1.3-7-1,0,0,1.7-1.1,5.2-.9-.3-.3-.7-.6-1-.9-1.7-.4-5.1-1-9.2,0,0,0,1.9-1.7,6.5-2.2-.2-.1-.4-.3-.5-.4-1.8-.4-5.6-.9-10.7.1,0,0,1.1-1.6,6.4-2.2,0,0,1.5-1.1-4.5-.6-6,.5-8.5,1.8-8.5,1.8,0,0,.9-1.7,7.1-2.8,6.1-1-3.8-1.4-11.3.8,0,0-.2-.9,4.6-1.9,4.8-1-1.3-1.2-5.3-.3-4,.9-5.8,1.7-5.8,1.7,0,0,.8-1.4,4.2-2.3,3.4-1-3.5-.7-8.4,1.9,0,0,.2-.8.7-1.6-1.3.3-2.6.6-3.9,1.1h0s0,0,0,0c0,0-.3,0-.7.1-.3,0-.5,0-.8,0,.2,0,.4.2.5.2,3.7.7,25.9,5.1,39.8,10.4Z"/>
    <path class="st1" d="M268.6,282.7s0,0,0,0c0,0,0,0,0,0,0,0,0,0-.1,0,0,0,0,0,0,0Z"/>
    <path class="st1" d="M299.5,272.8c-1.9,1-3.7,1.9-5.6,2.8,4.8.5,7.8,0,9.5-.6.4-.3.8-.7,1.1-1-3.7.5-4.8-.6-5.1-1.2Z"/>
    <path class="st1" d="M163.5,312.7h-.4c0-.1-.2-.5-.2-.5,0-.2-1.7-2.6-5.5-3.8-9-1.3-11.7,1.8-11.7,1.8,9.7-3.8,17.8,3.4,17.8,3.4-6.7,1.6-11.4.8-14.5-.5,2.6,1.2,6.5,2.1,11.8,1.7h.3s0,0,0,0c1.2-.1,3.6,0,8.5.3,0,0-3.4-1.2-5.3-2.2-.6-.2-.9-.3-1-.3Z"/>
    <path class="st1" d="M242.7,299.6c0,0,0,.1,0,.1l-.4.2c-9.4,5.5-19.1,9.9-28.2,12.6-4.2,1.5-12.2,3.7-23.4,4.9,2-.1,4-.4,6.1-.6,6-.8,12.1-2.1,18.3-3.8,19.4-6.1,33.4-14.9,41.7-21.2,3.3-2.8,7.4-6.5,10.7-10.6-5.6,5.3-11.2,9.6-16.1,12.9-2.8,1.9-5.7,3.8-8.7,5.5Z"/>
    <path class="st1" d="M291.6,276.6c-1.1.5-2.1.9-3.1,1.3,3.6,1.6,7.7,1.2,9.5,1,.7-.4,1.3-.8,1.9-1.1-4.5.4-7.2-.6-8.2-1.1Z"/>
    <path class="st2" d="M289,257c0,0-.1,0-.2.1,3-5,5.6-9.9,7.7-14.6,1.4-1.9,3.3-4.3,5.3-5.9,3.6-3,14.7-.3,23.5-8.5,9.7-9,9.5-22.5,9.5-22.5-2,1.9-11.4,4.4-20.7,10.1-10.2,6.3-11.6,13.5-12.9,16.5-.5,1.1-1.2,2.2-1.9,3.3,2.4-7.2,3.5-14.3,3.7-20.9,0-.2,0-.9,0-1.7,0,0-.1.1-.2.2-.3.4-.7.7-.9,1,0,0,.7-2.3.9-2.9,0,0,.1-.1.2-.2,0-.3,0-.6,0-.9,0,0,0,0,0,0,0-3.3-.3-6.4-.7-9.2.2-.4.4-.8.6-1.2.8-1.7,1.6-2.5,3.6-3.7.5-.3,1.3-.7,2.3-1.4,0,0,0,0,0,0,.1-.1,3.6-2.9,5.2-4.4.3-.3.5-.6.8-.9,0,0,.1-.1.2-.2,2.2-2.6,4.3-5.9,5.6-10.3,3.5-11.4-.9-17.1,0-22.5,0,0-2,2.8-5.4,5.9-3.4,3-15.6,12-12.2,30.6,0,0-.5,1.8-1.5,3.6-1.3-7.2-2.9-11.7-3-11.7,0,0,0-.1,0-.2,1.1-3.4,2.4-6.6,2.1-14.1,0-1,0-2.1,0-3.2-.1-2.2-.6-4.3-1.2-6.3,0,0,0,0,0,0-.2-.5-.3-1-.5-1.6,0-.3-.2-.5-.3-.8-.2-.5-.4-1-.6-1.4,0,0,0-.1,0-.2-2.6-5.6-6.6-10.1-10-12.3,0,0,0,0,0,0-1.8-1.6-3.7-2.9-5.3-4,0,0,1.1,6.2,0,12.1-.7,3.8-.4,10.5,1.9,16.7,0,0,0,0,0,0,0,0,0,0,0,0,1.3,3.5,3.3,6.9,6.2,9.4,5.3,4.7,11.1,19.2,8.9,39,0,0,0,0,0,0,0,1.6-.4,3.4-.4,3.4-1.2,8.1-3.8,17-8.3,26.3,0,0,0-.1,0-.2-1.1,3-2.9,5.9-2.9,5.9-3.3,6-7.3,11.6-11.7,16.7,0,0,0,0,0-.1-1.3,1.7-2.9,3.4-2.9,3.4-8.6,9.3-18.5,17.2-28.5,23.5,0,0,0,0,0-.1-2.7,1.8-6,3.6-6,3.6-3.5,2-7,3.7-10.4,5.3h0s0,0,0,0c-2.9,1.3-5.8,2.5-8.6,3.6h0c-5.8,2.4-11.6,3.8-17,4.7-1.3.2-2.5.4-3.7.6-4.6.6-8.9.8-12.8.8,0,0,0,0,0-.1-1.5,0-3,0-4.4-.2,0,0,0,0,0,.1-5-.3-9.1-1-12.1-1.7-.7-.2-1.1-.3-1.1-.3-3.1-.8-4.9-1.5-4.9-1.5,0,0-3.8-6.2-13.9-4.9-2.2.3-4.7.9-7.5,2,0,0,3.5,8.1,18.5,7.1,0,0,10.3,3.6,27.9,2.6.7,0,5.3-.5,7.9-.8,1.9-.3,4-.6,6-.9-.4-.2-.8-.4-1.1-.5,0,0-.2,0-.2,0,.4,0,2.7-.2,4-.4,0,0,0,0,0,0,0,0,0,0-.1,0,.1,0,.3.2.4.3,2.1-.4,4.3-.9,6.5-1.5h0s0,0,0,0c.5-.1,1-.3,1.4-.4.3,0,.7-.1,1.1-.2,2-.3,4.8-.3,8,.9,5.8,2.2,6.4,9.1,16.7,12.9,6,2.2,11.2,2.3,15.5,1.7,3.8-.5,6.9-1.5,9.2-2,3.3-.7,5.4-1.4,6.8-1.5.7,0,1.2,0,1.7,0,0,0-3.2-1.4-4.8-3-1.6-1.7-7.9-8.4-16.2-10.8-5.8-1.7-12-2.2-18.4-1.4-2.8.4-5.7,1-8.5,1.9,0,0-.2,0-.6.1-.8.1-2.2.1-2.2-1.1.6-.2,1.1-.4,1.7-.6,6.5-2.3,12.7-5.2,18.5-8.5-.4,0-.8.1-1.1.2,0,0,2-1.3,2.5-1.7.2,0,.6,0,.9,0,.2,0,.3,0,.4,0,.4-.3.9-.5,1.3-.8,1.2-.8,5.1-3.4,6-4,1.9-1.3,3.7-2.7,5.5-4.1-.2,0-.5,0-.7,0,0,0,2-1.3,2.5-1.7,0,0,0,0,.1,0,2.4-2,4.7-4,6.8-6.1.7-.2,1.6-.5,2.4-.8.8-.3,1.4-.5,2.1-.6,1-.1,2,0,3.4.3,1.5.3,5.9,1.3,11.8.6,3.5-.5,7.4-1.5,11.6-3.8,11.1-6,12.2-13,16.9-16.3,0,0-.8.2-2.1.3-1.5.2-3.7.4-6.3.4-1.8,0-5-.2-9,.3-6.8.9-15.8,3.9-23,13.9,0,0-1.4.7-3.3,1.2,5.7-6,10.8-12.4,15-18.8.4-.3.8-.6,1.1-.9h0s1.7-3.4,1.7-3.4ZM317.9,230.9c-5.8,2.2-7.2-.2-2.8-.5,4.4-.3,6.4-1.9,6.4-1.9-3.5,1.1-7.6.8-7.8.5-.3-.3-.6-1,4.7-1.5,5.3-.6,6.6-2.1,6.6-2.1-3,1.1-7.7,1-7.2.5.5-.6.6-.8,4.8-1.3,2.2-.3,3.9-.7,5-1.1-2.6,3-6,6-9.8,7.4ZM329.1,221.5c-3,1.4-5.9,1-7.1.7.5-.3.9-.7,1.4-1,4.2-.7,6.3-1.9,7.3-2.6-.4,1-1,2-1.6,3ZM302.2,232.7c.2-.4.4-1,.6-1.5.4-1.1.9-2.5,1.7-4,1.3-2,2.8-3.7,2.8-3.7-1.3,2.8-.9,5.9-.9,5.9.9-4.3,4.4-9.3,5.6-10.9,0,0,.2-.1.2-.2-2.3,4.6-1.3,6.9-1.3,6.9,1.4-5.7,5-9,6-9.9,0,0,.1,0,.2,0-2.6,3.5-1.7,7.8-1.7,7.8,1.5-5,3.9-8.1,5.3-9.6.2,0,.4-.2.6-.3-2.4,4-1.4,7.1-1.4,7.1,1.8-4.9,3.8-7.5,5.1-8.7.6-.3,1.2-.5,1.7-.7-2.2,2.8-1.7,5.6-1.7,5.6.7-3,2.9-5.4,4.2-6.6,1.7-.7,3.1-1.3,4.2-1.9-.2,2.3-.9,6.2-2.7,10.4-2.2,1-4.3,1.3-5.5,1.4.9-.8,1.8-1.6,2.6-2.5,2.8-.4,3.8-1.6,3.8-1.6-1.2.5-2.3.6-2.9.5,1.3-1.7,2.3-3.6,2.6-5.6,0,0-3.8,7.1-13,12-7,3.8-12.8,7.9-17.5,12.6.5-.7.9-1.5,1.2-2.2ZM306.1,195h-.2c-.1.2-.2.2-.3.3.4-.7,1.2-1.8,2.1-3.4,1.2-.4,4.1-1.7,7.1-4.3-2.3,2.9-5.2,5.3-8.7,7.3ZM318.5,181.3c-1.2,2.2-3.7,5.2-8.4,6.4.3-.5.5-1,.8-1.5,1.6-.8,5.2-2.7,8-5.9-.1.3-.3.7-.4,1ZM319.6,178c-1.1,1.3-3.7,4.2-7.3,5.3.4-.9.9-1.9,1.3-2.9,1.1-.3,3.7-1.3,6.6-4.4-.1.7-.3,1.3-.5,2ZM320.7,171.7c-.8,1.5-2.5,3.8-6.3,6.5.7-1.8,1.3-3.6,1.9-5.5.6.2,2.2.3,4.4-2.4,0,.5,0,1,0,1.5ZM304.2,193.2v-.2c0,0,0-.2,0-.2-.6-3.1-.7-6-.5-8.5.8,3.6,2.7,4.7,2.7,4.7-1.5-3.3-1.9-7.1-1.9-9.4.1-.5.3-.9.4-1.4.3,4.2,3.2,7.3,3.2,7.3-1.7-4.6-1.5-9.5-1.3-11.7.2-.4.5-.9.7-1.3.1,4,2.8,6.5,2.8,6.5-1.3-3.5-.9-7.6-.5-9.7.3-.4.6-.8.9-1.1.3,2.8,2.6,5.6,2.6,5.6-1.3-3.4-1-6.3-.7-7.6.3-.3.5-.5.8-.7,0,1.9,1.7,3.8,1.7,3.8-.7-2.4,0-4.5.6-5.7,0,0,.2-.2.3-.2,1.3-1.2,2.5-2.4,3.4-3.4.1,1.1.3,2.1.5,3.3.2,1.3.5,2.7.7,4.2-.7,1.3-2,3.2-4.1,4.9.8-2.8,1.4-5.7,1.8-8.6,0,0-4.2,14.5-16.2,35.2,0-.2,0-.3,0-.5,1.5-2.3,2.3-5,2.3-5.1ZM294.3,165s2.7-1.5,3-5.9c0,0,2.1,6.9-.9,11.9,0,0,2.4-.9,3-4.6,0,.2,0,.4,0,.6,0,1.8-.4,5.9-2.6,9.1-1.2-5.9-2.7-11.1-4.2-15.4.4-.3,2.5-2.1,2.3-6.5,0,0,1.5,4.5-.6,10.8ZM283.9,153c.7-3.7.5-7.5.3-9.9,1.8,1.3,3.6,2.8,5.3,4.4.6,1.6,1.2,3.7,1.1,6,0,0,1.1-.9,1-3.8.2.2.4.4.6.7.8,1.6,2.1,5.3.4,10.2-3.7-10.7-7.2-16.3-7.2-16.3.9,1.9,1.7,4.2,2.6,6.8-1.5-1.8-2.9-1.9-2.9-1.9,1.3.7,3,3.2,4.1,5.1.2.5.3,1.1.5,1.6-1-1-2.8-2.5-5-2.9,0,0,4,3.5,6.6,8.2.1.4.2.7.3,1.1-4.3-4.4-6.7-4.8-6.7-4.8,3.1,1.9,6.2,6.2,7.7,8.5.1.5.3,1,.4,1.5-4.2-4.4-8.1-5.8-8.1-5.8,3,1.6,7.1,6.7,9,9.3.2.7.4,1.4.5,2.1-4.2-5.2-8.8-6.6-8.8-6.6,4.3,3.3,7.9,7.7,9.7,10,.2.8.4,1.5.6,2.3-.4-.7-1.6-2.6-4.5-4-2-1-3.4-1.9-4.4-2.7-3.6-6.9-3.8-15.4-3.2-19.1ZM292.3,178.5c-1.2-.9-2.7-2.6-3.7-3.8-.1-.2-.2-.3-.3-.5.7.6,1.6,1.2,2.5,1.9,3.8,2.7,5.5,5.7,6.3,7.6,0,.4.2.7.2,1h0s0,.2,0,.2c0,0,0,.1,0,.2-2-3.8-3.9-5.6-5.2-6.6ZM296.8,176.1c.3,0,1.6-.6,2.9-2.6,0,1.1,0,2-.2,2.9-.3,1.3-.8,2.8-1.8,4.5-.3-1.6-.6-3.2-.9-4.7ZM299.4,237.2c.1,0,.2-.2.3-.2-.2.2-.3.3-.5.5,0,0,.1-.2.2-.2ZM161.2,314.9h0s-.3,0-.3,0c-5.4.3-9.2-.5-11.8-1.7,3.1,1.3,7.8,2,14.5.5,0,0-8.1-7.2-17.8-3.4,0,0,2.7-3.2,11.7-1.8,3.8,1.2,5.4,3.7,5.5,3.8l.2.3h.4c0,.2.4.3,1,.5,1.9,1,5.3,2.2,5.3,2.2-4.9-.4-7.3-.4-8.5-.3ZM224.4,314.1c.4,0,.7-.1.7-.1h0s0,0,0,0c1.3-.4,2.6-.8,3.9-1.1-.5.7-.7,1.6-.7,1.6,4.9-2.6,11.8-2.9,8.4-1.9-3.4,1-4.2,2.3-4.2,2.3,0,0,1.8-.8,5.8-1.7,4-.9,10.1-.7,5.3.3-4.8,1-4.6,1.9-4.6,1.9,7.4-2.2,17.4-1.9,11.3-.8-6.1,1-7.1,2.8-7.1,2.8,0,0,2.5-1.3,8.5-1.8,6-.5,4.5.6,4.5.6-5.3.6-6.4,2.2-6.4,2.2,5.1-1.1,8.9-.5,10.7-.1.2.1.3.3.5.4-4.6.4-6.5,2.2-6.5,2.2,4.1-1,7.6-.4,9.2,0,.3.3.7.6,1,.9-3.5-.3-5.2.9-5.2.9,3-.3,5.5.4,7,1,.1.1.3.3.4.4h0c.5.6,1.2,1.1,1.9,1.6-.5.1-1.1.3-1.8.4-.9.2-2,.5-3.2.8-.7.2-1.4.3-2.2.5-1.8.5-4.1,1.1-6.7,1.4-.3,0-.7,0-1,.1-.1,0-.3,0-.4,0-.4,0-.8,0-1.2,0-.3,0-.5,0-.8,0-.2,0-.4,0-.7,0-1,0-2,0-3.1-.1-.4,0-.8-.1-1.2-.2-6.8-1.3-13.4-5.2-15.2-7.5-1.8-2.3-1.3-4,.4-1.6,1.6,2.4,4.6,3.5,4.6,3.5-1.9-1.6-4.6-7-1.4-3.3,3.2,3.7,9.3,7.3,9.3,7.3,0,0-8.5-8.7-4.2-6.7,5.6,2.5,8.5,7.4,8.5,7.4-1.1-3.8-4-6.9-4-6.9,5.9,2.5,8.3,7.1,8.3,7.1-1.8-3.7-3.6-5.7-3.6-5.7,5.1,2.1,7.1,5.3,7.1,5.3-1.1-2.7-3.5-4.8-3.5-4.8,3.8,1,7.1,4.3,7.1,4.3-2.2-3.2-3.9-3.6-3.9-3.6l7.7,1.5c-13.9-5.3-36.1-9.7-39.8-10.4-.2,0-.3-.2-.5-.2.2,0,.5,0,.8,0ZM256.7,291.7c-8.3,6.3-22.3,15.1-41.7,21.2-6.2,1.7-12.3,3-18.3,3.8-2.1.3-4.2.5-6.1.6,11.2-1.2,19.2-3.4,23.4-4.9,9.1-2.8,18.9-7.1,28.2-12.6l.4-.2s0,0,0-.1c2.9-1.7,5.8-3.6,8.7-5.5,4.9-3.4,10.5-7.7,16.1-12.9-3.4,4-7.4,7.7-10.7,10.6ZM268.6,282.6s0,0,0,0c0,0,0,0,0,0,0,0,0,0,.1,0,0,0,0,0,0,0ZM286.2,282.8c-1.3.2-2.5.2-3.6.3-2.7-.2-3.8-1.2-4.4-1.8.1,0,.2,0,.3,0,1.2.5,4.4,1.5,8.5,1.5-.3,0-.6.1-.9.1ZM294.6,280.4c-2.5.8-6.7,1.4-11.1-.8.6-.2,1.1-.4,1.7-.6,1.8.5,5.9,1.5,10.4,1-.3.2-.7.3-1,.5ZM298,278.8c-1.8.3-5.9.6-9.5-1,1-.4,2.1-.8,3.1-1.3,1.1.5,3.7,1.5,8.2,1.1-.6.4-1.2.8-1.9,1.1ZM303.5,275c-1.7.6-4.7,1.1-9.5.6,1.8-.8,3.7-1.8,5.6-2.8.3.5,1.4,1.7,5.1,1.2-.4.3-.7.7-1.1,1ZM275,279.8h.3c0-.1.2-.3.2-.3,1.8-2.5,3.9-4.7,6.1-6.5-2.1,3.2-1.5,5.2-1.5,5.2,1.3-3.4,3.9-6.3,5.6-8,.4-.3.9-.5,1.4-.8-2.9,3.2-3.1,7.4-3.1,7.4,2.2-4.5,5.9-7.8,7.8-9.3.5-.2,1-.3,1.5-.5-2.9,3-2.7,6.5-2.7,6.5,1.7-3.3,5.1-6.1,6.9-7.4.1,0,.3,0,.4,0,.4,0,.8,0,1.1-.1-1.9,2.2-2.2,5.8-2.2,5.8,1.6-3.3,4-5.2,5.2-6,.4,0,.8,0,1.1,0-1.4,1.4-1.6,3.8-1.6,3.8,1.3-2.2,3.4-3.3,4.7-3.8.1,0,.3,0,.4,0,1.9,0,3.7-.1,5-.3-.7.8-1.4,1.8-2.1,2.7-.8,1.1-1.6,2.3-2.7,3.5-1.5.5-3.9,1.1-6.8.9,2.7-1.5,5.3-3.2,7.8-5.1,0,0-14.4,7.9-39,15,.3-.3.7-.7,1-1,2.8-.5,5.2-1.7,5.3-1.8Z"/>
    <path class="st2" d="M205.5,315.9s0,0,0,0c-1.3.2-3.7.4-4,.4,0,0,.2,0,.2,0,.3.1.7.3,1.1.5,1-.2,1.9-.4,2.9-.6-.1-.1-.3-.2-.4-.3,0,0,0,0,.1,0Z"/>
    <path class="st2" d="M303,210.1s0,0,0,0h0s0,0,0,0Z"/>
    <polygon class="st2" points="308.8 194.7 308.8 194.7 308.7 194.7 308.8 194.7"/>
    <path class="st2" d="M243.7,301.3c-.5.4-2.5,1.7-2.5,1.7.3,0,.7-.1,1.1-.2,1-.5,1.9-1.1,2.8-1.7-.1,0-.3,0-.4,0-.4,0-.7,0-.9,0Z"/>
    <path class="st2" d="M257.2,292.3c.2,0,.4,0,.7,0,.7-.5,1.3-1.1,2-1.6,0,0,0,0-.1,0-.5.4-2.5,1.7-2.5,1.7Z"/>
    <path class="st2" d="M301.9,214.1c.3-.3.6-.7.9-1,0,0,.1-.1.2-.2,0-.3,0-.6,0-1,0,0,0-.1,0-.2h0c0-.3,0-.5,0-.8,0,0-.2.2-.2.2-.2.6-.9,2.9-.9,2.9Z"/>
    <path class="st2" d="M314.8,189.5c0,0,.1-.2.2-.2-.1,0-.2.2-.2.2Z"/>
    <path class="st2" d="M186,320.3c.5,1.5.4,5.3,2.2,10,1.1,2.7,2.7,5.7,5.5,8.7,7.7,8.5,19.9,9.9,19.9,9.9-1.7-1.5-2.7-3-3.4-4.8-.9-2.2-1.3-4.7-2.5-7.6-.9-2.2-2.1-4.6-4.2-7.2-7.1-9.1-12.2-6.9-14.9-10.1-.9-1-1.8-1.9-2.6-2.6l-3.1-.7h0c1.3,1.2,2.3,2.5,2.8,3.8,0,.2.1.4.2.6ZM189.7,325.1l.5,1c0,0,0,.1.1.2-.3,1.1-.6,3.4-.2,5.8-1.3-3.8-.8-6-.4-7ZM194.4,338.4c0,0,0-.1-.1-.2-1.1-1.9-2.6-5.1-1.8-8.7.4.5.7,1,1.1,1.5,0,1.5.1,5.1,1.4,7.9-.2-.2-.4-.4-.5-.6ZM198.1,341.7c-1.2-1.5-3-4.3-1.8-7.2.4.5.8,1,1.3,1.4-.1,1.3-.2,3.9,1.2,6.3-.2-.1-.4-.3-.6-.5ZM201.2,343.7c-.9-1-2-2.9-1.8-5.9.8.8,1.6,1.5,2.3,2.2-.2.8-.3,2.4.5,4.2-.3-.2-.7-.3-1-.5ZM185.7,317.5c.8.7,1.6,1.5,2.3,2.4.2.2.4.4.5.6,0,0,0,0,0,0,0,0,2.4,2,4.1,2.8,1.7.8,2.9,1.4,4.2,1.8,1.3.4,2.7,1.6,1.5,1.3-3.1-.9-5-.3-5-.3,4.9,1,8.5,3.3,10.3,4.8.2.2.3.5.5.7-3.8-2-7.4-1.5-7.4-1.5,4.6,1,7.7,3,9,4,.2.4.5.9.7,1.3-3.8-1.7-7-1.3-7-1.3,4.3,1,7.1,3.2,8.2,4.1.2.5.3,1,.5,1.4-2.4-1.3-4.9-1.3-4.9-1.3,2.8,1.1,4.7,2.7,5.6,3.6.1.3.2.7.3,1-1.4-1-2.7-.8-2.7-.8,1.4.7,2.5,1.7,3.3,2.5.4,1.1.9,2,1.5,2.9-1.7-.4-4-1.1-6.5-2.1-.5-.7-1.2-2.1-1.6-4.3,3.1,2.6,5.2,3.7,5.2,3.7-2.6-1.9-15.1-15.8-17-19.4-1.3-2.5-3.6-5.4-4.9-7-.2-.3-.3-.6-.5-.9Z"/>
    <path class="st2" d="M299,199.3c-.7-1-1.6-3.7-4.1-6.6-1.4-1.7-3.4-3.4-6.2-4.9-7.7-4.2-16.8-2.1-16.8-2.1,1.6.6,2.7,1.5,3.6,2.6,1.2,1.4,2.2,3.1,3.7,4.9,1.2,1.3,2.7,2.7,4.8,4.1,7.4,4.7,10.5,1.9,13.3,3.5.9.5,1.7.9,2.5,1.2l2.4-.3h0c-1.3-.5-2.3-1.2-3-2.1-.1-.1-.2-.2-.3-.3ZM295.2,196.8l-.6-.6c0,0-.1,0-.2-.1-.1-.9-.4-2.6-1.3-4.2,1.9,2.4,2.1,4.1,2.1,4.9ZM288.4,188.4c0,0,0,0,.2,0,1.3,1.1,3.1,3,3.5,5.8-.4-.3-.8-.5-1.2-.8-.4-1.1-1.4-3.6-3-5.3.2,0,.3.2.5.3ZM285,187c1.3.8,3.2,2.3,3.1,4.7-.4-.2-.9-.5-1.3-.7-.2-1-.9-2.9-2.4-4.2.2,0,.4.1.6.2ZM282.2,186.3c.9.5,2.2,1.6,2.8,3.8-.8-.4-1.5-.7-2.2-1,0-.6-.4-1.8-1.4-2.9.3,0,.6,0,.8.1ZM300,201.2c-.7-.3-1.5-.6-2.3-1.1-.2-.1-.4-.2-.5-.3,0,0,0,0,0,0,0,0-2.2-.9-3.6-1-1.4-.2-2.4-.2-3.4-.2-1,0-2.3-.5-1.4-.5,2.5-.1,3.7-1,3.7-1-3.8.5-6.9-.3-8.6-.8-.2-.1-.4-.3-.5-.4,3.2.5,5.7-.8,5.7-.8-3.5.5-6.3-.2-7.5-.6-.3-.3-.6-.5-.8-.8,3.2.3,5.4-.8,5.4-.8-3.3.4-5.9-.5-6.9-.9-.2-.3-.5-.6-.7-.9,2,.4,3.8-.3,3.8-.3-2.3,0-4.1-.8-4.9-1.2-.2-.2-.3-.4-.5-.7,1.3.3,2.1-.1,2.1-.1-1.2-.2-2.3-.6-3-.9-.6-.7-1.2-1.2-1.8-1.7,1.3-.1,3.2-.3,5.2-.1.5.4,1.4,1.2,2.2,2.7-2.9-1.1-4.7-1.4-4.7-1.4,2.4.7,14.9,7.6,17.1,9.7,1.5,1.5,4,3,5.3,3.8.2.2.4.3.6.5Z"/>
  </g>
</svg>