<?xml version="1.0" encoding="utf-8"?>
<!-- Generator: Adobe Illustrator 16.0.4, SVG Export Plug-In . SVG Version: 6.00 Build 0)  -->
<!DOCTYPE svg PUBLIC "-//W3C//DTD SVG 1.1//EN" "http://www.w3.org/Graphics/SVG/1.1/DTD/svg11.dtd">
<svg version="1.1" id="katman_1" xmlns="http://www.w3.org/2000/svg" xmlns:xlink="http://www.w3.org/1999/xlink" x="0px" y="0px"
	 width="80px" height="57.833px" viewBox="0 -17.333 80 57.833" enable-background="new 0 -17.333 80 57.833" xml:space="preserve">
<g>
	<path fill-rule="evenodd" clip-rule="evenodd" fill="#292C3D" d="M4.53,35.847L3.407,38.66l1.108,0.512v0.396H1.262v-0.396
		l1.094-0.512l3.922-8.923h0.739l3.481,8.923l1.094,0.512v0.396H7.399v-0.396l1.108-0.512L7.5,35.847H4.53L4.53,35.847z
		 M4.785,35.165h2.487l-0.583-1.62c-0.057-0.161-0.152-0.445-0.284-0.853l-0.256-0.866L4.785,35.165L4.785,35.165z"/>
	<polygon fill="#292C3D" points="16.507,31.982 16.507,38.66 17.672,39.172 17.672,39.568 14.348,39.568 14.348,39.172 
		15.569,38.66 15.569,30.788 14.348,30.277 14.348,29.88 17.189,29.88 22.148,36.429 22.148,30.788 20.997,30.277 20.997,29.88 
		24.322,29.88 24.322,30.277 23.085,30.788 23.085,39.711 22.361,39.711 16.507,31.982 	"/>
	<path fill="#292C3D" d="M35.46,36.429V39.2l-0.213,0.057c-1.137,0.303-2.188,0.454-3.153,0.454c-1.554,0-2.766-0.431-3.638-1.292
		c-0.871-0.862-1.307-2.057-1.307-3.581c0-1.553,0.493-2.789,1.478-3.709c0.985-0.928,2.301-1.392,3.949-1.392
		c0.919,0,1.852,0.118,2.799,0.355l0.228,0.057v2.416H34.92l-0.725-2.004c-0.237-0.038-0.517-0.057-0.838-0.057
		c-1.354,0-2.405,0.379-3.154,1.137c-0.739,0.748-1.108,1.813-1.108,3.196c0,1.26,0.336,2.254,1.008,2.984
		c0.682,0.719,1.611,1.079,2.784,1.079c0.256,0,0.512-0.019,0.768-0.057v-2.416l-1.236-0.512v-0.396h4.262v0.396L35.46,36.429
		L35.46,36.429z"/>
	<polygon fill="#292C3D" points="42.735,35.022 42.735,38.916 45.818,38.916 46.657,37.253 47.253,37.253 47.069,39.568 
		39.637,39.568 39.637,39.157 40.859,38.66 40.859,30.788 39.637,30.291 39.637,29.88 47.012,29.88 47.012,32.194 46.443,32.194 
		45.719,30.533 42.735,30.533 42.735,34.298 45.18,34.298 45.719,32.99 46.287,32.99 46.287,36.245 45.719,36.245 45.18,35.022 
		42.735,35.022 	"/>
	<polygon fill="#292C3D" points="52.169,38.66 52.169,30.788 50.946,30.277 50.946,29.88 55.279,29.88 55.279,30.277 54.044,30.788 
		54.044,38.845 56.332,38.845 57.24,37.041 57.837,37.041 57.624,39.568 50.946,39.568 50.946,39.157 52.169,38.66 	"/>
	<path fill-rule="evenodd" clip-rule="evenodd" fill="#292C3D" d="M64.785,29.737c1.354,0,2.448,0.44,3.282,1.321
		c0.843,0.881,1.265,2.036,1.265,3.467c0,1.554-0.469,2.818-1.406,3.794c-0.929,0.975-2.137,1.463-3.624,1.463
		c-1.354,0-2.458-0.435-3.311-1.307c-0.843-0.881-1.264-2.027-1.264-3.438c0-1.572,0.468-2.846,1.406-3.822
		C62.071,30.229,63.288,29.737,64.785,29.737L64.785,29.737z M64.559,30.462c-0.872,0-1.573,0.384-2.104,1.15
		c-0.521,0.768-0.782,1.785-0.782,3.056c0,1.298,0.262,2.344,0.782,3.14c0.53,0.786,1.227,1.18,2.089,1.18
		c0.871,0,1.562-0.385,2.074-1.151s0.767-1.81,0.767-3.126c0-1.26-0.265-2.282-0.795-3.068
		C66.069,30.854,65.391,30.462,64.559,30.462L64.559,30.462z"/>
	<path fill="#292C3D" d="M72.826,39.157v-2.401h0.654l0.754,2.004c0.217,0.057,0.506,0.085,0.865,0.085
		c1.421,0,2.131-0.483,2.131-1.45c0-0.312-0.074-0.567-0.227-0.766c-0.143-0.2-0.44-0.45-0.896-0.754l-1.634-1.08
		c-1.051-0.691-1.577-1.51-1.577-2.458c0-0.786,0.299-1.416,0.896-1.89c0.597-0.473,1.388-0.71,2.372-0.71
		c0.711,0,1.597,0.156,2.657,0.469v2.359h-0.625l-0.725-1.947c-0.228-0.066-0.507-0.1-0.838-0.1c-1.383,0-2.075,0.445-2.075,1.335
		c0,0.304,0.071,0.545,0.214,0.725c0.143,0.171,0.464,0.422,0.966,0.753l1.62,1.053c0.644,0.417,1.061,0.771,1.25,1.065
		c0.284,0.436,0.427,0.942,0.427,1.521c0,0.786-0.299,1.43-0.896,1.932c-0.597,0.492-1.373,0.738-2.33,0.738
		c-0.36,0-0.904-0.071-1.634-0.213l-0.242-0.042C73.688,39.337,73.319,39.262,72.826,39.157L72.826,39.157z"/>
	<path fill-rule="evenodd" clip-rule="evenodd" fill="#292C3D" d="M35.347,13.434l-2.842,7.121l2.806,1.295v1.008h-8.237V21.85
		l2.77-1.295l9.927-22.588h1.871l8.812,22.588l2.771,1.295v1.008H42.613V21.85l2.807-1.295l-2.555-7.121H35.347L35.347,13.434z
		 M35.994,11.706h6.296l-1.476-4.101c-0.144-0.408-0.384-1.127-0.72-2.158l-0.647-2.195L35.994,11.706L35.994,11.706z"/>
	<path fill="#292C3D" d="M33.537,8.29c-1.083-1.382-1.968-2.956-2.601-4.694s-0.965-3.513-1.024-5.267
		c1.082,1.381,1.968,2.955,2.601,4.693C33.145,4.76,33.478,6.535,33.537,8.29L33.537,8.29z"/>
	<path fill="#292C3D" d="M28.577,2.46c-0.688-1.615-1.137-3.364-1.298-5.207C27.118-4.589,27.256-6.39,27.653-8.1
		c0.688,1.615,1.137,3.364,1.298,5.207S28.974,0.751,28.577,2.46L28.577,2.46z"/>
	<path fill="#292C3D" d="M25.726-5.126c-0.397-1.709-0.535-3.51-0.374-5.354c0.161-1.843,0.61-3.592,1.298-5.207
		c0.397,1.709,0.536,3.51,0.374,5.354C26.862-8.489,26.414-6.74,25.726-5.126L25.726-5.126z"/>
	<path fill="#292C3D" d="M30.611,5.94c-1.68-0.511-3.308-1.292-4.824-2.353c-1.516-1.062-2.806-2.325-3.861-3.728
		c1.68,0.511,3.308,1.291,4.824,2.353C28.266,3.274,29.556,4.538,30.611,5.94L30.611,5.94z"/>
	<path fill="#292C3D" d="M26.436-1.691c-1.565-0.795-3.033-1.847-4.341-3.155c-1.309-1.308-2.36-2.776-3.155-4.341
		c1.565,0.795,3.033,1.847,4.342,3.155C24.59-4.725,25.641-3.256,26.436-1.691L26.436-1.691z"/>
	<path fill="#292C3D" d="M24.135-7.087c-1.083-1.382-1.969-2.955-2.602-4.694s-0.965-3.514-1.024-5.268
		c1.083,1.382,1.968,2.955,2.601,4.694C23.744-10.616,24.076-8.841,24.135-7.087L24.135-7.087z"/>
	<path fill="#292C3D" d="M32.495,9.214c-1.754-0.059-3.529-0.391-5.268-1.024c-1.739-0.633-3.312-1.519-4.694-2.602
		c1.754,0.059,3.529,0.391,5.269,1.024C29.54,7.246,31.113,8.132,32.495,9.214L32.495,9.214z"/>
	<path fill="#292C3D" d="M32.241,10.99c-1.668,0.545-3.451,0.84-5.301,0.84c-1.851,0-3.632-0.295-5.301-0.84
		c1.669-0.545,3.451-0.839,5.301-0.839C28.791,10.151,30.573,10.445,32.241,10.99L32.241,10.99z"/>
	<path fill="#292C3D" d="M31.92,12.729c-1.382,1.082-2.956,1.968-4.695,2.601c-1.739,0.633-3.514,0.965-5.268,1.024
		c1.381-1.083,2.955-1.969,4.694-2.602C28.39,13.119,30.166,12.787,31.92,12.729L31.92,12.729z"/>
	<path fill="#292C3D" d="M24.784,4.454c-1.755,0.002-3.541-0.268-5.3-0.84c-1.76-0.571-3.363-1.402-4.782-2.436
		c1.755-0.002,3.541,0.268,5.301,0.84C21.762,2.59,23.366,3.42,24.784,4.454L24.784,4.454z"/>
	<path fill="#292C3D" d="M24.682,8.637c-1.728,0.307-3.534,0.351-5.366,0.093c-1.833-0.258-3.556-0.797-5.133-1.569
		c1.729-0.307,3.534-0.351,5.366-0.093C21.382,7.326,23.106,7.865,24.682,8.637L24.682,8.637z"/>
	<path fill="#292C3D" d="M23.517-1.173c-1.717-0.362-3.408-0.998-5.01-1.923s-2.999-2.071-4.171-3.377
		c1.718,0.363,3.408,0.999,5.01,1.924S22.344-2.479,23.517-1.173L23.517-1.173z"/>
	<path fill="#292C3D" d="M17.937-0.479c0.248-0.531,1.134-0.642,1.979-0.247c0.846,0.395,1.331,1.145,1.083,1.676
		c-0.247,0.531-1.134,0.642-1.979,0.247C18.174,0.802,17.688,0.051,17.937-0.479L17.937-0.479z"/>
	<path fill="#292C3D" d="M23.779-1.151c0.336-0.479,1.228-0.434,1.993,0.101c0.764,0.536,1.111,1.359,0.775,1.839
		c-0.336,0.48-1.229,0.435-1.993-0.101C23.79,0.152,23.443-0.672,23.779-1.151L23.779-1.151z"/>
	<path fill="#292C3D" d="M20.196,13.756c-0.051-0.584,0.661-1.123,1.59-1.203c0.93-0.082,1.725,0.326,1.776,0.91
		c0.051,0.582-0.661,1.121-1.59,1.202C21.042,14.745,20.247,14.339,20.196,13.756L20.196,13.756z"/>
	<path fill="#292C3D" d="M46.762,8.29c1.081-1.382,1.967-2.956,2.601-4.694c0.633-1.739,0.965-3.513,1.023-5.267
		c-1.082,1.381-1.968,2.955-2.601,4.693S46.82,6.535,46.762,8.29L46.762,8.29z"/>
	<path fill="#292C3D" d="M51.721,2.46c0.688-1.615,1.137-3.364,1.298-5.207c0.16-1.843,0.022-3.644-0.374-5.354
		c-0.688,1.615-1.137,3.364-1.299,5.207C51.185-1.05,51.323,0.751,51.721,2.46L51.721,2.46z"/>
	<path fill="#292C3D" d="M54.572-5.126c0.396-1.709,0.534-3.51,0.374-5.354c-0.161-1.843-0.61-3.592-1.298-5.207
		c-0.397,1.709-0.536,3.51-0.375,5.354C53.436-8.489,53.884-6.74,54.572-5.126L54.572-5.126z"/>
	<path fill="#292C3D" d="M49.688,5.94c1.679-0.511,3.308-1.292,4.822-2.353c1.516-1.062,2.807-2.325,3.86-3.728
		c-1.679,0.511-3.308,1.291-4.823,2.353C52.031,3.274,50.741,4.538,49.688,5.94L49.688,5.94z"/>
	<path fill="#292C3D" d="M53.86-1.691c1.565-0.795,3.033-1.847,4.342-3.155c1.309-1.308,2.36-2.776,3.155-4.341
		c-1.565,0.795-3.033,1.847-4.342,3.155C55.708-4.725,54.655-3.256,53.86-1.691L53.86-1.691z"/>
	<path fill="#292C3D" d="M56.162-7.087c1.083-1.382,1.969-2.955,2.602-4.694c0.634-1.739,0.966-3.514,1.024-5.268
		c-1.082,1.382-1.969,2.955-2.601,4.694C56.554-10.616,56.222-8.841,56.162-7.087L56.162-7.087z"/>
	<path fill="#292C3D" d="M47.803,9.214c1.753-0.059,3.529-0.391,5.268-1.024c1.739-0.633,3.312-1.519,4.694-2.602
		c-1.755,0.059-3.53,0.391-5.269,1.024S49.184,8.132,47.803,9.214L47.803,9.214z"/>
	<path fill="#292C3D" d="M48.056,10.99c1.669,0.545,3.451,0.84,5.302,0.84c1.85,0,3.632-0.295,5.301-0.84
		c-1.669-0.545-3.451-0.839-5.301-0.839C51.507,10.151,49.725,10.445,48.056,10.99L48.056,10.99z"/>
	<path fill="#292C3D" d="M48.378,12.729c1.382,1.082,2.955,1.968,4.694,2.601s3.514,0.965,5.268,1.024
		c-1.381-1.083-2.955-1.969-4.693-2.602C51.907,13.119,50.133,12.787,48.378,12.729L48.378,12.729z"/>
	<path fill="#292C3D" d="M55.513,4.454c1.756,0.002,3.542-0.268,5.301-0.84c1.76-0.571,3.364-1.402,4.782-2.436
		c-1.755-0.002-3.541,0.268-5.301,0.84C58.536,2.59,56.932,3.42,55.513,4.454L55.513,4.454z"/>
	<path fill="#292C3D" d="M55.614,8.637c1.729,0.307,3.534,0.351,5.367,0.093c1.832-0.258,3.556-0.797,5.132-1.569
		c-1.728-0.307-3.533-0.351-5.366-0.093C58.915,7.326,57.192,7.865,55.614,8.637L55.614,8.637z"/>
	<path fill="#292C3D" d="M56.781-1.173c1.718-0.362,3.408-0.998,5.01-1.923c1.603-0.925,2.999-2.071,4.172-3.377
		c-1.718,0.363-3.408,0.999-5.011,1.924S57.953-2.479,56.781-1.173L56.781-1.173z"/>
	<path fill="#292C3D" d="M61.905-0.479c-0.248-0.531-1.135-0.642-1.981-0.247c-0.846,0.395-1.33,1.145-1.082,1.676
		c0.247,0.531,1.134,0.642,1.979,0.247C61.668,0.802,62.152,0.051,61.905-0.479L61.905-0.479z"/>
	<path fill="#292C3D" d="M56.076-1.151c-0.336-0.479-1.229-0.434-1.994,0.101c-0.765,0.536-1.112,1.359-0.775,1.839
		c0.337,0.48,1.229,0.435,1.994-0.101C56.064,0.152,56.412-0.672,56.076-1.151L56.076-1.151z"/>
	<path fill="#292C3D" d="M59.634,13.756c0.051-0.584-0.661-1.123-1.592-1.203c-0.93-0.082-1.725,0.326-1.776,0.91
		c-0.051,0.582,0.661,1.121,1.592,1.202C58.787,14.745,59.582,14.339,59.634,13.756L59.634,13.756z"/>
</g>
</svg>
