<?xml version="1.0" encoding="UTF-8"?>
<svg id="katman_1" xmlns="http://www.w3.org/2000/svg" xmlns:xlink="http://www.w3.org/1999/xlink" version="1.1" viewBox="0 0 100 20">
  <!-- Generator: Adobe Illustrator 29.1.0, SVG Export Plug-In . SVG Version: 2.1.0 Build 142)  -->
  <defs>
    <style>
      .st0 {
        opacity: .2;
      }

      .st0, .st1, .st2, .st3, .st4, .st5 {
        isolation: isolate;
      }

      .st6, .st5 {
        fill: #fff;
      }

      .st2 {
        opacity: 0;
      }

      .st3 {
        fill: url(#linear-gradient);
      }

      .st3, .st4, .st5 {
        opacity: .1;
      }

      .st4 {
        fill: url(#linear-gradient1);
      }

      .st7 {
        fill: #999;
      }
    </style>
    <linearGradient id="linear-gradient" x1="392.1" y1="-738.3" x2="449.9" y2="-680.5" gradientTransform="translate(-371 -699.5) scale(1 -1)" gradientUnits="userSpaceOnUse">
      <stop offset="0" stop-color="#fff"/>
      <stop offset="1" stop-color="#000"/>
    </linearGradient>
    <linearGradient id="linear-gradient1" x1="380.4" y1="-685.9" x2="461.6" y2="-732.8" gradientTransform="translate(-371 -699.5) scale(1 -1)" gradientUnits="userSpaceOnUse">
      <stop offset="0" stop-color="#fff"/>
      <stop offset="1" stop-color="#000"/>
    </linearGradient>
  </defs>
  <path class="st3" d="M100,16.1c0,2.1-1.7,3.7-3.7,3.7H3.7c-2.1,0-3.7-1.7-3.7-3.7V3.7C0,1.7,1.7,0,3.7,0h92.5C98.3,0,100,1.7,100,3.7v12.4Z"/>
  <path class="st5" d="M100,16.1c0,2.1-1.7,3.7-3.7,3.7H3.7c-2.1,0-3.7-1.7-3.7-3.7V3.7C0,1.7,1.7,0,3.7,0h92.5C98.3,0,100,1.7,100,3.7v12.4Z"/>
  <path class="st4" d="M100,16.1c0,2.1-1.7,3.7-3.7,3.7H3.7c-2.1,0-3.7-1.7-3.7-3.7V3.7C0,1.7,1.7,0,3.7,0h92.5C98.3,0,100,1.7,100,3.7v12.4Z"/>
  <g class="st2">
    <path class="st7" d="M96.3.8c1.6,0,3,1.3,3,3v12.4c0,1.6-1.3,3-3,3H3.7c-1.6,0-3-1.3-3-3V3.7c0-1.6,1.4-2.9,3-2.9h92.5M96.3,0H3.7C1.7,0,0,1.7,0,3.7v12.4c0,2.1,1.7,3.7,3.7,3.7h92.5c2.1,0,3.7-1.7,3.7-3.7V3.7C100,1.7,98.3,0,96.3,0h0Z"/>
  </g>
  <g class="st0">
    <path class="st7" d="M96.3,1c1.5,0,2.7,1.2,2.7,2.7v12.4c0,1.5-1.2,2.7-2.7,2.7H3.7c-1.5,0-2.7-1.2-2.7-2.7V3.7c0-1.5,1.2-2.7,2.7-2.7h92.5M96.3,0H3.7C1.7,0,0,1.7,0,3.7v12.4c0,2.1,1.7,3.7,3.7,3.7h92.5c2.1,0,3.7-1.7,3.7-3.7V3.7C100,1.7,98.3,0,96.3,0h0Z"/>
  </g>
  <g class="st1">
    <g class="st1">
      <path class="st6" d="M9.3,7.1l1.5,2.7,1.5-2.7h.9l-2,3.5v2h-.9v-2l-2-3.5h.9Z"/>
      <path class="st6" d="M15,7.1h.8l2.2,5.5h-.9l-.6-1.5h-2.1l-.6,1.5h-.9l2.2-5.5ZM16.2,10.5l-.9-2.3-.9,2.3h1.8Z"/>
      <path class="st6" d="M22.2,11.9c-.5.5-1,.7-1.6.7s-.7,0-1-.2-.6-.4-.8-.6c-.2-.3-.4-.6-.5-.9s-.2-.7-.2-1.1,0-.7.2-1.1.3-.6.5-.9c.2-.3.5-.5.8-.6s.7-.2,1-.2,1,.1,1.3.3c.4.2.6.5.8.9l-.7.5c-.1-.3-.4-.5-.6-.7-.3-.1-.5-.2-.9-.2s-.5,0-.7.2-.4.3-.5.4c-.1.2-.3.4-.3.6s-.1.5-.1.8,0,.5.1.8.2.5.4.6c.2.2.3.3.6.4.2.1.4.2.7.2s.5,0,.8-.2c.3-.1.5-.3.7-.6v-.6h-1.1v-.6h1.9v2.8h-.7v-.7ZM20.6,6.1c.1,0,.2,0,.3-.2,0-.1.1-.2.1-.4h.5c0,.1,0,.3,0,.4,0,.1-.1.2-.2.3,0,0-.2.2-.3.2-.1,0-.2,0-.4,0s-.3,0-.4,0c-.1,0-.2-.1-.3-.2,0,0-.1-.2-.2-.3,0-.1,0-.2,0-.4h.5c0,.1,0,.3.1.4,0,.1.2.2.3.2Z"/>
      <path class="st6" d="M23.9,12.6v-5.5h.9v4.7h2.9v.8h-3.8Z"/>
      <path class="st6" d="M30,7.1h.8l2.2,5.5h-.9l-.6-1.5h-2.1l-.6,1.5h-.9l2.2-5.5ZM31.2,10.5l-.9-2.3-.9,2.3h1.8Z"/>
      <path class="st6" d="M33.6,12.6v-5.5h2.4c.2,0,.5,0,.7.2.2.1.4.2.5.4.1.2.3.4.4.6,0,.2.1.4.1.7s0,.4,0,.5c0,.2-.1.3-.2.5,0,.1-.2.3-.3.4-.1.1-.3.2-.4.2l1.3,2.1h-1l-1.2-1.9h-1.3v1.9h-.9ZM34.4,9.9h1.5c.1,0,.2,0,.3,0s.2-.1.3-.2c0,0,.1-.2.2-.3s0-.3,0-.4,0-.3,0-.4-.1-.2-.2-.3-.2-.2-.3-.2c-.1,0-.2,0-.3,0h-1.5v2Z"/>
      <path class="st6" d="M38.7,12.6v-5.5h.9v5.5h-.9Z"/>
      <path class="st6" d="M42.7,12.6v-5.5h.9v2.8l2.6-2.8h1l-2.2,2.4,2.3,3h-1l-1.8-2.5-.8.9v1.6h-.9Z"/>
      <path class="st6" d="M49.3,7.1h.8l2.2,5.5h-.9l-.6-1.5h-2.1l-.6,1.5h-.9l2.2-5.5ZM50.6,10.5l-.9-2.3-.9,2.3h1.8Z"/>
      <path class="st6" d="M52.9,12.6v-5.5h2.4c.2,0,.5,0,.7.2.2.1.4.2.5.4.1.2.3.4.4.6s.1.4.1.7,0,.4,0,.5c0,.2-.1.3-.2.5,0,.1-.2.3-.3.4-.1.1-.3.2-.4.2l1.3,2.1h-1l-1.2-1.9h-1.3v1.9h-.9ZM53.8,9.9h1.5c.1,0,.2,0,.3,0,0,0,.2-.1.3-.2,0,0,.1-.2.2-.3s0-.3,0-.4,0-.3,0-.4-.1-.2-.2-.3c0,0-.2-.2-.3-.2-.1,0-.2,0-.3,0h-1.5v2Z"/>
      <path class="st6" d="M59.3,13.6c0,0,.2,0,.3.1.1,0,.3,0,.4,0s.2,0,.3,0c0,0,.1-.1.1-.2s0-.2-.1-.2-.2,0-.3,0-.2,0-.3,0c-.1,0-.2,0-.3,0l.3-.6c-.4,0-.8,0-1.1-.2-.4-.1-.7-.3-1-.5l.4-.7c0,0,.2.1.3.2.1,0,.3.2.4.2s.3.1.5.2.4,0,.6,0c.3,0,.6,0,.8-.2.2-.1.3-.3.3-.5s0-.3-.1-.3c0,0-.2-.2-.3-.2-.1,0-.3-.1-.5-.2s-.4-.1-.6-.2c-.3,0-.5-.1-.7-.2-.2,0-.4-.2-.5-.3-.1-.1-.2-.2-.3-.4s-.1-.3-.1-.6,0-.5.2-.7.2-.4.4-.5.4-.2.6-.3c.2,0,.5-.1.8-.1s.7,0,1,.2c.3.1.6.3.8.4l-.4.7c0,0-.1-.1-.2-.2,0,0-.2-.1-.3-.2s-.3-.1-.4-.1-.3,0-.5,0c-.4,0-.6,0-.8.2s-.3.3-.3.6,0,.2,0,.3c0,0,.1.2.2.2.1,0,.3.1.4.2.2,0,.4.1.6.2.3,0,.5.1.8.2.2,0,.4.2.6.3.2.1.3.3.4.4s.1.4.1.6,0,.5-.1.7c0,.2-.2.3-.4.5-.2.1-.3.2-.6.3-.2,0-.4.1-.7.1l-.2.3s0,0,.1,0c0,0,0,0,.1,0,.2,0,.3,0,.5.1.1,0,.2.2.2.4s0,.3-.2.5-.4.2-.7.2-.3,0-.4,0c-.1,0-.2,0-.3-.1l.2-.3Z"/>
      <path class="st6" d="M62.7,12.6v-5.5h.9v5.5h-.9Z"/>
      <path class="st6" d="M64.8,12.6v-5.5h.9v4.7h2.9v.8h-3.8Z"/>
      <path class="st6" d="M70.9,7.1h.8l2.2,5.5h-.9l-.6-1.5h-2.1l-.6,1.5h-.9l2.2-5.5ZM72.2,10.5l-.9-2.3-.9,2.3h1.8Z"/>
      <path class="st6" d="M75.7,13.6c0,0,.2,0,.3.1.1,0,.3,0,.4,0s.2,0,.3,0c0,0,.1-.1.1-.2s0-.2-.1-.2c0,0-.2,0-.3,0s-.2,0-.3,0c-.1,0-.2,0-.3,0l.3-.6c-.4,0-.8,0-1.1-.2-.4-.1-.7-.3-1-.5l.4-.7c0,0,.2.1.3.2s.3.2.4.2c.2,0,.3.1.5.2.2,0,.4,0,.6,0,.3,0,.6,0,.8-.2.2-.1.3-.3.3-.5s0-.3-.1-.3c0,0-.2-.2-.3-.2-.1,0-.3-.1-.5-.2-.2,0-.4-.1-.6-.2-.3,0-.5-.1-.7-.2-.2,0-.4-.2-.5-.3-.1-.1-.2-.2-.3-.4s-.1-.3-.1-.6,0-.5.2-.7.2-.4.4-.5c.2-.1.4-.2.6-.3.2,0,.5-.1.8-.1s.7,0,1,.2.6.3.8.4l-.4.7c0,0-.1-.1-.2-.2,0,0-.2-.1-.3-.2s-.3-.1-.4-.1c-.2,0-.3,0-.5,0-.4,0-.6,0-.8.2s-.3.3-.3.6,0,.2,0,.3c0,0,.1.2.3.2.1,0,.3.1.4.2.2,0,.4.1.6.2.3,0,.5.1.8.2.2,0,.4.2.6.3s.3.3.4.4c0,.2.1.4.1.6s0,.5-.1.7c0,.2-.2.3-.4.5-.2.1-.3.2-.6.3-.2,0-.4.1-.7.1l-.2.3s0,0,.1,0,0,0,.1,0c.2,0,.3,0,.5.1.1,0,.2.2.2.4s0,.3-.2.5-.4.2-.7.2-.3,0-.4,0c-.1,0-.2,0-.4-.1l.2-.3Z"/>
      <path class="st6" d="M83.1,7.9h-1.8v4.7h-.9v-4.7h-1.8v-.8h4.5v.8Z"/>
      <path class="st6" d="M83.8,12.6v-5.5h.9v5.5h-.9Z"/>
      <path class="st6" d="M85.9,12.6v-5.5h2.4c.2,0,.5,0,.7.2.2.1.4.2.5.4.1.2.3.4.4.6s.1.4.1.7,0,.4,0,.5c0,.2-.1.3-.2.5,0,.1-.2.3-.3.4-.1.1-.3.2-.4.2l1.3,2.1h-1l-1.2-1.9h-1.3v1.9h-.9ZM86.8,9.9h1.5c.1,0,.2,0,.3,0,0,0,.2-.1.3-.2,0,0,.1-.2.2-.3s0-.3,0-.4,0-.3,0-.4-.1-.2-.2-.3c0,0-.2-.2-.3-.2-.1,0-.2,0-.3,0h-1.5v2Z"/>
    </g>
  </g>
</svg>