<?xml version="1.0" encoding="utf-8"?>
<!-- Generator: Adobe Illustrator 16.0.0, SVG Export Plug-In . SVG Version: 6.00 Build 0)  -->
<!DOCTYPE svg PUBLIC "-//W3C//DTD SVG 1.1//EN" "http://www.w3.org/Graphics/SVG/1.1/DTD/svg11.dtd">
<svg version="1.1" id="Layer_1" xmlns="http://www.w3.org/2000/svg" xmlns:xlink="http://www.w3.org/1999/xlink" x="0px" y="0px"
	 width="197.379px" height="41.936px" viewBox="0 0 197.379 41.936" enable-background="new 0 0 197.379 41.936"
	 xml:space="preserve">
<g>
	<path fill="#FFFFFF" d="M24.274,37.801c0.39,0,0.603,0.373,0.639,1.117c-0.923,0.639-2.093,0.958-3.511,0.958
		c-0.784,0-1.463-0.116-2.038-0.347c-0.576-0.23-1.06-0.539-1.455-0.931c-0.396-0.39-0.7-0.833-0.916-1.33
		c-0.216-0.495-0.359-1.011-0.431-1.542c-0.887,1.596-1.941,2.686-3.165,3.271c-1.223,0.584-2.633,0.878-4.228,0.878
		c-0.71,0-1.463-0.063-2.261-0.187c-0.797-0.125-1.551-0.382-2.26-0.771c-0.709-0.39-1.294-0.939-1.755-1.649
		c-0.461-0.708-0.691-1.647-0.691-2.818c0-1.312,0.31-2.42,0.931-3.324c0.62-0.903,1.417-1.649,2.393-2.233
		c0.975-0.586,2.039-1.055,3.191-1.41c1.152-0.354,2.261-0.655,3.324-0.904c0.603-0.105,1.162-0.221,1.676-0.346
		c0.514-0.124,0.966-0.256,1.356-0.398c0.496-0.141,0.806-0.337,0.931-0.586c0.124-0.247,0.186-0.726,0.186-1.436
		c0-1.666-0.319-3.04-0.957-4.122c-0.638-1.081-1.774-1.622-3.404-1.622c-0.603,0-1.117,0.071-1.542,0.213
		c-0.425,0.142-0.78,0.364-1.063,0.665c-0.284,0.301-0.532,0.7-0.745,1.196c-0.213,0.497-0.425,1.082-0.638,1.756
		c-0.106,0.391-0.346,0.674-0.718,0.85c-0.372,0.178-1.002,0.391-1.888,0.64C5.021,23.459,4.754,23.53,4.435,23.6
		c-0.319,0.071-0.584,0.107-0.797,0.107c-0.355,0-0.532-0.373-0.532-1.117c0-0.779,0.301-1.561,0.904-2.341
		c0.603-0.78,1.374-1.471,2.314-2.074c0.939-0.603,1.958-1.09,3.058-1.462c1.099-0.373,2.145-0.559,3.138-0.559
		c1.241,0,2.36,0.106,3.358,0.319c0.997,0.212,1.854,0.603,2.572,1.17c0.718,0.567,1.266,1.33,1.643,2.287
		c0.376,0.957,0.565,2.199,0.565,3.722v9.148c0,1.242,0.044,2.137,0.132,2.687c0.089,0.55,0.222,0.984,0.399,1.304
		c0.248,0.496,0.522,0.824,0.824,0.984c0.301,0.158,0.612,0.238,0.931,0.238c0.39,0,0.665-0.035,0.824-0.106
		C23.929,37.837,24.096,37.801,24.274,37.801 M16.189,27.43l-1.712,0.266c-0.927,0.178-1.828,0.391-2.703,0.639
		c-0.874,0.248-1.649,0.594-2.327,1.037c-0.678,0.443-1.222,1.002-1.632,1.674c-0.411,0.676-0.615,1.509-0.615,2.502
		c0,1.348,0.348,2.375,1.044,3.084c0.695,0.71,1.56,1.063,2.595,1.063c0.677,0,1.346-0.151,2.006-0.451
		c0.66-0.302,1.23-0.728,1.712-1.277c0.482-0.549,0.874-1.196,1.178-1.941c0.302-0.745,0.454-1.56,0.454-2.446V27.43z"/>
	<path fill="#FFFFFF" d="M50.548,36.206c0,0.531,0.319,0.93,0.958,1.197c0.638,0.266,1.347,0.471,2.127,0.611
		c0.32,0.072,0.479,0.284,0.479,0.639c0,0.213-0.036,0.496-0.106,0.852c-0.923-0.072-1.827-0.134-2.712-0.188
		c-0.887-0.053-1.845-0.079-2.873-0.079c-0.957,0-1.906,0.026-2.845,0.079c-0.94,0.054-1.871,0.115-2.792,0.188
		c-0.071-0.355-0.106-0.639-0.106-0.852c0-0.354,0.16-0.566,0.479-0.639c0.745-0.141,1.418-0.346,2.021-0.611
		c0.603-0.268,0.904-0.666,0.904-1.197V25.781c0-0.886-0.053-1.702-0.159-2.446c-0.106-0.744-0.309-1.392-0.609-1.941
		c-0.3-0.549-0.706-0.975-1.218-1.276c-0.512-0.301-1.173-0.452-1.984-0.452c-0.882,0-1.747,0.151-2.594,0.452
		c-0.846,0.302-1.596,0.745-2.25,1.329c-0.653,0.586-1.173,1.303-1.562,2.154c-0.388,0.852-0.582,1.827-0.582,2.926v9.68
		c0,0.531,0.31,0.93,0.931,1.197c0.62,0.266,1.285,0.471,1.995,0.611c0.319,0.072,0.479,0.284,0.479,0.639
		c0,0.213-0.036,0.496-0.106,0.852c-0.922-0.072-1.828-0.134-2.717-0.188c-0.889-0.053-1.837-0.079-2.84-0.079
		c-1.042,0-2.024,0.026-2.949,0.079c-0.924,0.054-1.83,0.115-2.716,0.188c-0.072-0.355-0.106-0.639-0.106-0.852
		c0-0.354,0.16-0.566,0.479-0.639c0.78-0.141,1.489-0.346,2.128-0.611c0.638-0.268,0.957-0.682,0.957-1.25V21.686
		c0-1.064-0.186-1.826-0.558-2.287c-0.373-0.461-1.18-0.745-2.42-0.852c-0.461-0.07-0.692-0.319-0.692-0.744
		c0-0.178,0.035-0.408,0.107-0.692c0.46,0,1.108-0.027,1.941-0.08c0.833-0.053,1.517-0.114,2.053-0.187
		c0.824-0.141,1.559-0.292,2.205-0.452c0.645-0.16,1.111-0.239,1.398-0.239c0.502,0,0.753,0.265,0.753,0.797
		c0,0.497-0.054,1.09-0.16,1.782c-0.106,0.691-0.159,1.605-0.159,2.739c1.519-1.703,2.977-3.014,4.373-3.936
		c1.396-0.921,2.924-1.382,4.585-1.382c2.156,0,3.772,0.629,4.849,1.887c1.078,1.259,1.618,3.005,1.618,5.24V36.206z"/>
	<path fill="#FFFFFF" d="M79.481,37.801c0.39,0,0.603,0.373,0.638,1.117c-0.922,0.639-2.092,0.958-3.51,0.958
		c-0.784,0-1.463-0.116-2.038-0.347c-0.576-0.23-1.06-0.539-1.455-0.931c-0.396-0.39-0.7-0.833-0.915-1.33
		c-0.216-0.495-0.361-1.011-0.432-1.542c-0.887,1.596-1.941,2.686-3.165,3.271c-1.223,0.584-2.633,0.878-4.228,0.878
		c-0.71,0-1.463-0.063-2.261-0.187c-0.798-0.125-1.551-0.382-2.26-0.771c-0.71-0.39-1.294-0.939-1.755-1.649
		c-0.461-0.708-0.692-1.647-0.692-2.818c0-1.312,0.31-2.42,0.931-3.324c0.62-0.903,1.417-1.649,2.393-2.233
		c0.975-0.586,2.039-1.055,3.191-1.41c1.152-0.354,2.261-0.655,3.324-0.904c0.603-0.105,1.161-0.221,1.676-0.346
		c0.513-0.124,0.965-0.256,1.356-0.398c0.496-0.141,0.806-0.337,0.931-0.586c0.124-0.247,0.186-0.726,0.186-1.436
		c0-1.666-0.319-3.04-0.958-4.122c-0.638-1.081-1.773-1.622-3.404-1.622c-0.604,0-1.117,0.071-1.542,0.213
		c-0.426,0.142-0.78,0.364-1.063,0.665c-0.285,0.301-0.532,0.7-0.745,1.196c-0.213,0.497-0.426,1.082-0.639,1.756
		c-0.106,0.391-0.345,0.674-0.718,0.85c-0.372,0.178-1.002,0.391-1.888,0.64c-0.213,0.071-0.479,0.142-0.798,0.212
		c-0.319,0.071-0.585,0.107-0.797,0.107c-0.355,0-0.532-0.373-0.532-1.117c0-0.779,0.301-1.561,0.904-2.341
		c0.603-0.78,1.374-1.471,2.314-2.074c0.939-0.603,1.959-1.09,3.058-1.462c1.099-0.373,2.145-0.559,3.138-0.559
		c1.241,0,2.36,0.106,3.357,0.319c0.997,0.212,1.855,0.603,2.573,1.17c0.718,0.567,1.265,1.33,1.643,2.287
		c0.376,0.957,0.565,2.199,0.565,3.722v9.148c0,1.242,0.044,2.137,0.133,2.687c0.088,0.55,0.221,0.984,0.399,1.304
		c0.248,0.496,0.523,0.824,0.825,0.984c0.301,0.158,0.611,0.238,0.93,0.238c0.39,0,0.665-0.035,0.825-0.106
		C79.136,37.837,79.304,37.801,79.481,37.801 M71.397,27.43l-1.712,0.266c-0.927,0.178-1.828,0.391-2.703,0.639
		c-0.874,0.248-1.649,0.594-2.327,1.037s-1.222,1.002-1.632,1.674c-0.411,0.676-0.615,1.509-0.615,2.502
		c0,1.348,0.348,2.375,1.043,3.084c0.695,0.71,1.561,1.063,2.595,1.063c0.677,0,1.346-0.151,2.006-0.451
		c0.66-0.302,1.23-0.728,1.712-1.277c0.482-0.549,0.874-1.196,1.177-1.941c0.303-0.745,0.455-1.56,0.455-2.446V27.43z"/>
	<path fill="#FFFFFF" d="M85.704,19.026h-3.191v-0.958c0-0.39,0.167-0.629,0.505-0.718c0.336-0.088,0.7-0.16,1.09-0.213
		c0.39-0.053,0.752-0.177,1.09-0.373c0.336-0.194,0.505-0.611,0.505-1.25v-2.447c0-1.95,0.274-3.617,0.824-5s1.25-2.526,2.101-3.431
		s1.799-1.569,2.845-1.995c1.046-0.425,2.065-0.638,3.058-0.638c1.17,0,2.225,0.116,3.165,0.346
		c0.939,0.231,1.747,0.541,2.419,0.931c0.674,0.39,1.197,0.824,1.568,1.303c0.373,0.479,0.56,0.967,0.56,1.463
		c0,0.213-0.151,0.417-0.452,0.611c-0.301,0.195-0.639,0.364-1.01,0.505c-0.373,0.142-0.736,0.249-1.09,0.319
		c-0.355,0.071-0.604,0.106-0.746,0.106c-0.497,0-0.869-0.213-1.116-0.638c-0.391-0.78-0.861-1.471-1.41-2.075
		c-0.55-0.603-1.375-0.904-2.473-0.904c-1.277,0-2.226,0.524-2.846,1.569c-0.621,1.046-0.931,2.544-0.931,4.494v6.755h6.276
		c0,0.709-0.053,1.259-0.16,1.649c-0.106,0.391-0.408,0.585-0.904,0.585h-5.213v16.275c0,0.923,0.408,1.553,1.224,1.889
		c0.815,0.338,2.145,0.594,3.989,0.771c0.389,0.071,0.585,0.302,0.585,0.691c0,0.105-0.019,0.266-0.053,0.479
		c-0.036,0.213-0.053,0.337-0.053,0.373c-0.106,0-0.417-0.02-0.931-0.054c-0.514-0.036-1.126-0.071-1.835-0.106
		c-0.71-0.036-1.472-0.063-2.287-0.08c-0.816-0.018-1.579-0.026-2.287-0.026c-0.604,0-1.216,0.009-1.835,0.026
		c-0.621,0.018-1.215,0.044-1.781,0.08c-0.568,0.035-1.056,0.07-1.463,0.106c-0.408,0.034-0.665,0.054-0.771,0.054
		c0-0.036-0.018-0.16-0.053-0.373c-0.036-0.213-0.053-0.373-0.053-0.479c0-0.354,0.16-0.566,0.479-0.639
		c0.779-0.141,1.418-0.346,1.915-0.611c0.496-0.266,0.745-0.682,0.745-1.25V19.026z"/>
	<path fill="#FFFFFF" d="M98.894,28.014c0-1.629,0.311-3.172,0.931-4.627c0.619-1.453,1.463-2.712,2.527-3.775
		c1.063-1.064,2.313-1.906,3.749-2.527c1.437-0.62,2.987-0.93,4.653-0.93c1.737,0,3.334,0.292,4.787,0.877
		c1.454,0.585,2.703,1.392,3.75,2.42c1.045,1.029,1.861,2.279,2.447,3.75c0.584,1.473,0.877,3.076,0.877,4.813
		c0,1.668-0.311,3.219-0.931,4.654s-1.462,2.686-2.526,3.75c-1.064,1.063-2.314,1.906-3.749,2.526
		c-1.437,0.62-2.988,0.932-4.655,0.932c-1.736,0-3.332-0.294-4.787-0.878c-1.453-0.586-2.703-1.392-3.749-2.42
		c-1.046-1.029-1.862-2.27-2.446-3.724C99.187,31.402,98.894,29.789,98.894,28.014 M103.894,26.26c0,1.313,0.142,2.658,0.426,4.042
		c0.283,1.382,0.718,2.633,1.303,3.749c0.585,1.117,1.339,2.039,2.261,2.767s2.039,1.09,3.35,1.09c2.022,0,3.591-0.709,4.707-2.128
		c1.119-1.417,1.676-3.244,1.676-5.478c0-1.312-0.133-2.687-0.398-4.122s-0.691-2.748-1.277-3.936
		c-0.584-1.188-1.348-2.172-2.285-2.952c-0.941-0.78-2.102-1.17-3.484-1.17c-1.881,0-3.396,0.647-4.548,1.942
		C104.469,21.358,103.894,23.422,103.894,26.26"/>
	<path fill="#FFFFFF" d="M141.604,16.208c1.028,0,1.79,0.249,2.287,0.745c0.496,0.497,0.744,1.046,0.744,1.648
		c0,0.213-0.036,0.408-0.105,0.585c-0.072,0.178-0.24,0.364-0.506,0.558c-0.266,0.195-0.639,0.426-1.117,0.691
		c-0.479,0.266-1.144,0.594-1.994,0.984c-0.319-0.39-0.701-0.726-1.144-1.01c-0.444-0.283-0.931-0.425-1.463-0.425
		c-0.603,0-1.153,0.168-1.649,0.505c-0.496,0.338-0.922,0.799-1.275,1.383c-0.355,0.585-0.631,1.26-0.824,2.021
		c-0.195,0.764-0.293,1.552-0.293,2.367v9.148c0,0.779,0.407,1.355,1.223,1.727c0.816,0.373,1.986,0.666,3.512,0.879
		c0.354,0.072,0.531,0.284,0.531,0.639c0,0.213-0.035,0.496-0.107,0.852c-0.39-0.036-0.877-0.063-1.461-0.081
		c-0.586-0.019-1.198-0.044-1.836-0.079c-0.639-0.036-1.297-0.063-1.975-0.08s-1.305-0.026-1.879-0.026
		c-0.969,0-1.97,0.026-3.002,0.079c-1.031,0.054-2.01,0.115-2.932,0.188c-0.07-0.355-0.105-0.639-0.105-0.852
		c0-0.354,0.16-0.566,0.479-0.639c0.814-0.141,1.533-0.354,2.154-0.639c0.619-0.283,0.931-0.691,0.931-1.223v-13.51
		c0-0.744-0.044-1.364-0.134-1.861c-0.088-0.496-0.238-0.895-0.451-1.197c-0.213-0.301-0.523-0.523-0.932-0.665
		c-0.407-0.142-0.93-0.248-1.568-0.319c-0.461-0.07-0.691-0.301-0.691-0.691c0-0.213,0.035-0.46,0.106-0.745
		c0.46,0,1.107-0.027,1.941-0.08c0.833-0.053,1.517-0.115,2.052-0.186c0.789-0.142,1.48-0.292,2.072-0.452s1.03-0.239,1.318-0.239
		c0.502,0,0.754,0.266,0.754,0.798v3.563c1.135-1.241,2.277-2.278,3.43-3.111S140.148,16.208,141.604,16.208"/>
	<path fill="#FFFFFF" d="M158.996,36.1c0.177-0.178,0.326-0.285,0.451-0.32c0.124-0.035,0.222-0.053,0.293-0.053
		c0.318,0,0.602,0.23,0.852,0.691c-0.923,1.029-1.915,1.861-2.979,2.5c-1.063,0.639-2.198,0.958-3.403,0.958
		c-0.711,0-1.383-0.081-2.021-0.239c-0.639-0.16-1.188-0.47-1.648-0.932c-0.462-0.46-0.824-1.09-1.092-1.888
		c-0.265-0.798-0.398-1.835-0.398-3.112V19.026h-3.19v-0.585c0-0.248,0.044-0.479,0.132-0.691c0.09-0.213,0.275-0.319,0.56-0.319
		c0.958,0,1.737-0.248,2.34-0.744s1.099-1.135,1.489-1.915c0.426-0.852,0.799-1.649,1.117-2.394c0.32-0.745,0.674-1.117,1.063-1.117
		h0.958v5.531h6.223c0,0.745-0.08,1.303-0.239,1.675c-0.159,0.373-0.452,0.559-0.878,0.559h-5.105v13.191
		c0,1.135,0.053,2.047,0.159,2.738s0.266,1.224,0.479,1.596c0.213,0.373,0.461,0.611,0.745,0.718c0.283,0.106,0.603,0.16,0.957,0.16
		c0.604,0,1.161-0.134,1.676-0.399C158.047,36.764,158.534,36.454,158.996,36.1"/>
	<path fill="#FFFFFF" d="M168.541,39.238c-0.609,0-1.227,0.009-1.854,0.026c-0.625,0.018-1.203,0.044-1.735,0.08
		c-0.532,0.035-0.993,0.07-1.384,0.106c-0.39,0.034-0.638,0.054-0.744,0.054c0-0.036-0.018-0.16-0.053-0.373
		s-0.053-0.373-0.053-0.479c0-0.354,0.158-0.566,0.479-0.639c0.921-0.177,1.666-0.39,2.233-0.639
		c0.567-0.247,0.851-0.654,0.851-1.223V21.686c0-1.064-0.186-1.826-0.559-2.287c-0.372-0.461-1.179-0.745-2.42-0.851
		c-0.461-0.071-0.691-0.32-0.691-0.745c0-0.177,0.035-0.407,0.107-0.692c0.46,0,1.107-0.026,1.941-0.08
		c0.832-0.053,1.517-0.114,2.053-0.186c0.824-0.142,1.559-0.293,2.205-0.453c0.645-0.159,1.109-0.239,1.397-0.239
		c0.501,0,0.753,0.266,0.753,0.798c0,0.497-0.053,1.09-0.158,1.782c-0.107,0.691-0.16,1.605-0.16,2.739v14.68
		c0,0.568,0.273,0.976,0.824,1.223c0.549,0.249,1.32,0.462,2.313,0.639c0.283,0.072,0.426,0.284,0.426,0.639
		c0,0.105-0.009,0.266-0.027,0.479s-0.044,0.337-0.079,0.373c-0.107,0-0.347-0.02-0.719-0.054c-0.373-0.036-0.824-0.071-1.356-0.106
		c-0.532-0.036-1.11-0.063-1.737-0.08C169.77,39.247,169.152,39.238,168.541,39.238 M165.431,7.272c0-0.851,0.292-1.586,0.878-2.207
		c0.585-0.621,1.32-0.931,2.207-0.931c0.852,0,1.561,0.311,2.127,0.931c0.567,0.621,0.852,1.356,0.852,2.207
		c0,0.922-0.284,1.667-0.852,2.234c-0.566,0.567-1.275,0.851-2.127,0.851c-0.887,0-1.622-0.284-2.207-0.851
		C165.723,8.939,165.431,8.194,165.431,7.272"/>
	<path fill="#FFFFFF" d="M191.758,22.696c-0.283,0-0.487-0.061-0.611-0.186c-0.125-0.124-0.204-0.257-0.24-0.398
		c-0.247-1.454-0.824-2.491-1.727-3.112c-0.904-0.62-2.031-0.931-3.379-0.931c-1.028,0-1.94,0.293-2.738,0.878
		c-0.799,0.584-1.197,1.392-1.197,2.42c0,0.923,0.363,1.693,1.091,2.313c0.726,0.621,2.048,1.232,3.962,1.835
		c1.027,0.319,1.977,0.675,2.846,1.063c0.868,0.391,1.613,0.86,2.234,1.41c0.619,0.551,1.107,1.223,1.462,2.021
		c0.354,0.797,0.532,1.746,0.532,2.845c0,0.923-0.168,1.809-0.506,2.659c-0.337,0.851-0.85,1.596-1.542,2.234
		c-0.691,0.638-1.562,1.152-2.606,1.541c-1.047,0.391-2.297,0.587-3.749,0.587c-1.136,0-2.403-0.134-3.804-0.399
		s-2.668-0.719-3.803-1.356c-0.071-0.922-0.133-1.888-0.186-2.899c-0.054-1.01-0.08-2.029-0.08-3.057h0.531
		c0.355,0,0.656,0.061,0.904,0.186s0.391,0.328,0.426,0.611c0.141,1.489,0.719,2.686,1.729,3.59c1.011,0.904,2.42,1.356,4.229,1.356
		c1.453,0,2.57-0.327,3.351-0.983s1.171-1.551,1.171-2.687c0-1.17-0.426-2.065-1.277-2.687c-0.851-0.619-2.109-1.178-3.775-1.675
		c-2.094-0.638-3.732-1.471-4.92-2.499c-1.189-1.029-1.783-2.535-1.783-4.521c0-0.922,0.178-1.79,0.533-2.606
		c0.354-0.815,0.851-1.524,1.489-2.127c0.638-0.603,1.417-1.081,2.339-1.436c0.922-0.354,1.95-0.532,3.086-0.532
		c1.418,0,2.757,0.186,4.016,0.559c1.258,0.372,2.242,0.771,2.952,1.196c0.034,0.285,0.07,0.63,0.106,1.038
		c0.034,0.408,0.061,0.833,0.079,1.276c0.019,0.444,0.036,0.887,0.054,1.331s0.026,0.843,0.026,1.195L191.758,22.696z"/>
</g>
</svg>
