<?xml version="1.0" encoding="utf-8"?>
<!-- Generator: Adobe Illustrator 23.1.0, SVG Export Plug-In . SVG Version: 6.00 Build 0)  -->
<svg version="1.1" id="Layer_1" xmlns="http://www.w3.org/2000/svg" xmlns:xlink="http://www.w3.org/1999/xlink" x="0px" y="0px"
	 viewBox="0 0 200 94" style="enable-background:new 0 0 200 94;" xml:space="preserve">
<style type="text/css">
	.st0{fill:#CEE87C;}
	.st1{fill:#92C355;}
	.st2{fill:#92C254;}
	.st3{fill:#9AC762;}
	.st4{fill:#97C55C;}
	.st5{fill:#A9CF78;}
	.st6{fill:#A6CE74;}
	.st7{fill:#A7CE76;}
	.st8{fill:#9EC968;}
	.st9{fill:#BBD995;}
	.st10{fill:#C7E0A8;}
	.st11{fill:#D0E5B6;}
	.st12{fill:#E5F1D7;}
	.st13{fill:#9CC864;}
	.st14{fill:#AED381;}
	.st15{fill:#DBEBC7;}
	.st16{fill:#E4F0D5;}
	.st17{fill:#E9F3DD;}
	.st18{fill:#C6DFA6;}
	.st19{fill:#CAE1AB;}
	.st20{fill:#D8E9C2;}
	.st21{fill:#DAEAC5;}
	.st22{fill:#A0CA6B;}
	.st23{fill:#AED27F;}
	.st24{fill:#AED280;}
	.st25{fill:#A7CF77;}
	.st26{fill:#A8CF77;}
	.st27{fill:#BFDC9C;}
	.st28{fill:#B1D485;}
	.st29{fill:#9FCA6A;}
	.st30{fill:#EBF4E1;}
	.st31{fill:none;}
	.st32{fill:#62A043;}
	.st33{fill:#8EBA77;}
	.st34{fill:#C5DCB9;}
	.st35{fill:#62A042;}
	.st36{fill:#001524;}
</style>
<path class="st0" d="M148.4,24.3c3.7,2,3.7,2,1.1,4.7c-0.5,0.5-0.7,1-0.7,1.6c-0.1,1.6-1.1,3-3.6,4.1c-1.6,0.7-3,1.6-4.5,2.4
	c0.1,0.2-1.5,0.8,0.2,0.7c1.1-0.1,2.3,0.3,3.4-0.2c3.7-0.3,7.3-0.7,11-0.5c0.9,0,1.3,0.1,1.4,0.7c0.1,1,0.7,1.8,3.1,1.8
	c0.6,0,1.3,0.2,1,0.6c-0.7,0.9,0.5,0.9,1.4,1.1c1.2,0.3,1.1,0.7-0.1,1.1c-0.7,0.2-1.6,0.4-2.2,0.7c-0.8,0.4-2.5,0.5-2,1.2
	c0.5,0.7,2.1,0.9,3.5,0.8c1.2-0.1,2.3-0.4,3.5-0.6c1-0.2,1.2,0.1,1.6,0.4c1.8,1.1,4.2,0.6,6.6,0.5c0.7,1.4,3,1.3,5.1,1.4
	c0.9,0,1.3,0.2,1.2,0.6c-0.1,0.9-0.8,1.8-1.8,2.5c-0.3,0.4-0.6,0.9-0.9,1.3c-0.2,0.3-1.8,0.7,0.1,1c1.1,0.2,0.9,1.3-0.2,1.3
	c-3.1,0.2-1.2,1.2-1.6,1.9c-1.9,0.8-4.2,1.1-6.4,1.4c-7.7,1-15.1,2.6-22.7,3.7c-2.2,0.3-4.4,0.8-6.7,0.9c-9.9,0.7-19.1,3-28.4,5
	c-7.8,1.7-15.5,3.7-23.2,5.5c-8.3,1.9-16.5,4.1-24.7,6.2c-2,0.1-4.3,1.1-5.9-0.2c-0.1-1-0.9-1.6-3.1-1.7c-1.6-0.1-3.6,0-4.3-1
	c-1.8-1.6-2-1.6-5.4-1.2c-3,0.4-5.7,0.3-7.6-1c-1.6-0.3-3.6,0.2-4.9-0.6c-0.3-0.1-0.5-0.2-0.6-0.4c-0.1-0.3,0.1-0.7-0.3-0.9
	c-0.3-0.2-0.6-0.5-1-0.7c-0.9-0.4-2.7,0-3-1c-0.4-0.2-0.7-0.5-0.5-0.6c2-1.4,2-3.1,4.1-4.5c2.3-1.6,4-3.3,6.7-4.7
	c1.2-1.3,3.6-2.1,5.2-3.2c0.2-0.1,0.4-0.2,0.4-0.2c-0.2-0.2,0.2,0-0.3,0c-0.2,0.1-0.4,0.2-0.6,0.3c-0.5,0.2-0.9,0.4-1.3,0.7
	c-2.1,0.9-3.2,0.4-3.8-0.6c0.2-1.8,1.3-3.4,3.8-4.8c1-0.6,2-1.3,2.3-2c0.7-1.3,2.1-2.3,3.4-3.4c2.3-2,5.7-3.1,9-4.3
	c0.7-0.3,1.5-0.4,2.3-0.6c1.3-0.5,3.6,0.3,4.2-1.1c6.7-2.6,13.1-5.4,20.6-7.2c5.1-1.3,9.5-3.3,14.8-4.4c5.3-1.2,10.4-2.7,16-3.2
	c2.1-0.3,4.2-0.6,6.4-0.5c0.6,1.1-1.8,0.6-2.1,1.1c0.9-0.4,2.2-0.4,3.2-0.8c1.4-0.3,2.7-0.7,4-1c-1.5,0-3.1,1.2-4.5,0
	c0-0.2,0.1-0.3,0.1-0.5c0-0.1,0-0.2,0-0.3c2.8-1,5.9-1.4,9-1.7c5.3-0.4,10.7-1,16-0.3c0.3,0.1,0.5,0.2,0.8,0.3l0,0
	C147,22.6,146.6,23.8,148.4,24.3z"/>
<g>
	<path class="st1" d="M109.4,19.8c-2.5,0.1-4.8,0.7-7.1,1.4c-2.4,0.8-4.2,2.3-5.7,4.3c-0.5,0.8-0.9,1.5-0.4,2.3
		c0.4,0.8,1.3,0.7,2,0.7c1.9-0.1,3.8-0.2,5.6-0.6c4-0.9,7.9-2.4,11.5-4.4c2-1.1,3.6-1.1,5.4,0.2c0.4,0.3,0.9,0.4,1.3,0.6
		c0.8,0.2,1.6,0.4,1.1-0.9c-0.2-0.7-0.9-1.2-0.9-2c-0.1-4.8-3-8.4-5.8-11.9c-1.5-1.9-3.3-3.7-5.4-5.1c-0.2-0.2-0.4-0.4-0.7-0.5
		c-0.7-0.4-1.4-0.7-2.1-0.2c-0.6,0.5-0.5,1.2-0.3,1.9c0.6,1.9,1.2,3.9,2.1,5.7c1.1,2,2.2,4,3.7,5.9c0.6,0.3,0.6,1,1,1.4
		c0.2,0.3,0.4,0.5,0.5,0.8c0,0.1,0,0.2-0.1,0.3c-0.1,0.1-0.1,0.2-0.2,0.2c-0.2,0.1-0.4,0.1-0.6,0.1c-0.2,0-0.4-0.1-0.6-0.1
		c-0.4-0.1-0.9-0.2-1.3-0.3C111.4,19.3,110.4,19.7,109.4,19.8z"/>
	<path class="st1" d="M95,13.8c-1.2,0-2.5-0.2-3.7,0.2c-0.3,0-0.5,0-0.8-0.1c-0.2,0-0.3,0-0.4,0.1c-0.3,0.1-0.6,0-0.8,0
		c-0.2,0.1-0.3,0.2-0.5,0.3c-0.5,0.7-0.2,1.2,0.4,1.6c0.2,0.1,0.4,0.1,0.6,0.2c0.1,0,0.3,0,0.4-0.1c-0.1,0.1-0.2,0.2-0.4,0.2
		c-1.5,0-2.2,1.7-3.6,1.7c-1.7,1.4-3.7,2.5-5,4.4c-0.6,1-1.2,1.9-1.3,3.1c-0.2,1.8,0.4,2.5,2.3,2.3c2.4-0.3,4.4-1.4,6.4-2.6
		c3.6-2.1,6.8-4.7,9.3-7.9c1-1.2,1.9-1.2,3.1-1.2c1.2-0.7,0.9-1.4,0-2.1c-0.6-2.4-2-4.3-3.7-6c-2.7-2.6-5.5-5-8.9-6.6
		c-0.3-0.2-0.7-0.4-1-0.5c-0.7-0.3-1.5-0.5-2.1,0.1c-0.7,0.7-0.5,1.6,0,2.4c0.7,1.2,1.4,2.6,2.4,3.6c2.2,2.4,4.5,4.7,7.5,6.1
		C95.7,13.4,95.7,13.7,95,13.8z"/>
	<path class="st2" d="M76.3,14.8c0.3,0.1,0.7,0.3,1,0.4c0.8,1,0,1-0.7,1.2c-1.8,1.2-4,1.5-5.9,2.3c-2.8,1.1-4.9,2.9-6.5,5.3
		c0,0.7,0.4,1,1,1.1c1.7-0.2,2.4-1.9,3.7-2.6c0.1,0,0.2-0.1,0.2-0.1c0,0-0.1,0-0.1,0.1c-0.7,0.8-1.8,1.4-0.6,2.7
		c0.6,0,1.1-0.2,1.6-0.5c2.1-1.7,5.2-1.5,7.1-3.8c0.4-0.3,1-0.5,1.1-0.8c0.7-2.3,2.8-2.7,4.7-3.4c0.7,0.2,1.1-0.7,1.8-0.4h0
		c0.4,0,0.8-0.3,1.3-0.2l0,0c0.4,0.2,0.8-0.2,1.3,0l0,0c1.2-0.3,1.4-0.8,0.4-1.6l0,0c-0.7-0.1-1.4,0-2-0.2l0,0
		c-1.3,0.8-2.3,0.4-3.2-0.8c-1.6-1-3.4-1.7-5.2-2.1c-2.2,1-4.4,0.6-6.4-0.7c-0.3,0-0.5,0.1-0.7,0.3c-0.4,0.9-0.4,1.8,0.3,2.6
		c0.9,0,1.6,0.5,2.5,0.7l0,0c0.6-0.2,1.1,0,1.6,0.3l0,0C74.9,14.5,75.6,14.3,76.3,14.8z"/>
	<path class="st3" d="M65.4,24.7c-0.6,0-0.9-0.3-1.2-0.7c-1.1,1-1.9,2-2.1,3.5c-0.2,2,0.8,2.9,2.7,2.3c2-0.7,4.1-1.5,5.7-2.9
		c1.9-1.7,3.8-3.5,6-5c0.3-0.2,0.4-0.6,0.6-0.9c-1.4,0.8-2.8,1.7-4.6,1.7c-1.1,0-2.1,0.6-2.8,1.5c-0.5,1.4-1.7,2.1-2.9,2.9
		c-0.3,0.2-0.2-0.6-0.1-0.2c0,0.1,0.1,0.1,0.2,0c0.6-0.5,1.9-0.4,1.4-1.8c0-1.3,1.3-1.8,1.5-2.9C67.6,22,67.3,24.7,65.4,24.7z"/>
	<path class="st4" d="M70.3,13.5c-0.1-0.8-0.2-1.7-0.3-2.5c-0.2-0.1-0.5-0.1-0.7-0.2c0,0,0,0.2,0,0.2s0.1-0.1,0.2-0.1
		c0.2,0,0.4,0.1,0.5,0.1c1.1,0.2,1.8,1.2,2.8,1.7c1.1,0.5,1.9-1,3,0.2c0.4,0.4,0.4-1.3,1.2-1.5c-3.5-1.5-7.1-2.6-10.8-2.7
		c-1.1,0-2.3-0.2-3.2,0.6c-0.1,0.4,0,0.8,0.3,1.1c0.3,0.3,0.6,0.5,1,0.7c1,0.6,2,1.6,3,1.4c1.6-0.3,0.3,1.1,0.9,1.2l0,0
		c0.6-0.1,1.1,0.1,1.6,0.3l0,0c0.1,0,0.2,0,0.4,0C70.2,13.7,70.3,13.6,70.3,13.5z"/>
	<path class="st5" d="M127,27.9c0.4,0.3,0.8,0.5,1.2,0.7c1.5,0.9,3,1.8,4.1,3.1c-0.1-0.1-0.2-0.6-0.2-0.8c-0.2-0.4-0.4-0.8-0.7-1.1
		c-0.5-0.7-1-1.3-1.6-1.9c-1-0.9-2.1-1.6-3.3-2.3c-1.9-1.1-3.4-2.4-4.3-4.3c-0.3,0.7,0.2,1.3,0.5,1.8c0.5,0.9-0.2,0.9-0.7,1
		c0.3-0.1,1.9,1.4,2.2,1.6C125.1,26.6,126,27.2,127,27.9z"/>
	<path class="st6" d="M63.6,10.1c-0.2-0.3-0.4-0.6-0.7-0.9c-1.7,1.1-1.8,2.1-0.1,2.9c1.7,0.9,3.5,1.2,5.4,1.4
		c-0.1-0.6,0.8-1.6-0.6-1.7c-1.3-0.1-2.1-1-3.2-1.5c0,0-0.2,0.1-0.2,0.1c-0.2,0-0.3,0-0.5-0.1L63.6,10.1z"/>
	<path class="st7" d="M116,19.8c0.4-0.9-0.1-1.3-0.8-1.6c-0.4,0.3-0.9,0.3-1.4,0.3c-2-0.8-4-1.6-6.1-2.4c-0.9,0.6-0.5,1,0.1,1.5
		c0.7,0.5,1.6,0.4,2.2,1.1c0.6,0.8,1.3,1,2.2,1c0.7-0.1,1.3,0.6,2,0.7l0,0c0.4,0.1,0.9,0.6,1.3-0.1l0,0
		C115.5,19.9,115.7,19.8,116,19.8z"/>
	<path class="st7" d="M107.9,17.5c-0.2-0.5-0.4-1-0.1-1.5c-2.2-0.6-4.5-1.2-6.6-2.1c0.3,0.7,0.5,1.4,0,2.1
		C103.4,16.6,105.6,17.1,107.9,17.5z"/>
	<path class="st8" d="M87.9,16.3c0.6-0.2,1.1-0.4,1.7-0.5c-0.6-0.3-0.9-0.7-0.9-1.4c-0.4,0-0.9,0-1.3,0.1c0.4,0.7,0.2,1.2-0.4,1.6
		C87.3,16.1,87.6,16.2,87.9,16.3z"/>
	<path class="st8" d="M82.2,13.4c1.3,2,1.3,2,3.2,0.8C84.2,14.5,83.2,13.9,82.2,13.4z"/>
	<path class="st9" d="M113.8,18.5c0.6,0.7,1.2,1,1.4-0.3c-0.4-0.4-0.7-1-1.4-1.1C113.9,17.6,114.2,18,113.8,18.5z"/>
	<path class="st10" d="M95,13.8c0.2,0.1,0.3,0.2,0.5,0.3c0.4,0.1,1,0.3,1.2-0.3c0.2-0.6-0.5-0.7-0.9-0.8c-0.2-0.1-0.4,0-0.6,0
		C95.1,13.2,95.1,13.5,95,13.8z"/>
	<path class="st11" d="M76.7,16.4c0.4,0,0.7,0,1-0.1c0.3-0.1,0.8-0.5,0.8-0.6c-0.2-0.5-0.7-0.5-1.1-0.5C77.4,15.8,77,16,76.7,16.4z"
		/>
	<path class="st4" d="M72.7,14.2c-0.7-0.5-1.4-1.2-2.4-0.7l0,0c0,0.2,0,0.3,0.1,0.4s0.2,0.1,0.2,0.1C71.3,14.1,71.9,14.5,72.7,14.2z
		"/>
	<path class="st8" d="M85.4,14.3c0.7,0.6,1.3,0.6,2,0.2C86.8,14,86.1,13.9,85.4,14.3z"/>
	<path class="st4" d="M76.3,14.8c-0.6-0.7-1.4-0.8-2.1-0.3C74.9,14.9,75.6,14.9,76.3,14.8z"/>
	<path class="st8" d="M84.6,16.3c-0.7-0.5-1.2,0-1.8,0.4C83.5,16.8,84,16.6,84.6,16.3z"/>
	<path class="st4" d="M74.2,14.5c-0.4-0.7-1-0.8-1.6-0.3C73.1,14.5,73.6,14.6,74.2,14.5z"/>
	<path class="st6" d="M69.8,13.8c-0.4-0.7-1-0.8-1.6-0.3C68.7,13.9,69.2,13.9,69.8,13.8z"/>
	<path class="st8" d="M85.8,16.1c-0.5-0.3-0.9-0.1-1.3,0.2C85,16.5,85.4,16.3,85.8,16.1z"/>
	<path class="st8" d="M87.1,16c-0.4-0.3-0.8-0.2-1.3,0C86.3,16.3,86.7,16.3,87.1,16z"/>
	<path class="st8" d="M89.2,14.1c0.3,0.2,0.6,0.2,0.8,0C89.8,13.9,89.5,13.9,89.2,14.1z"/>
	<path class="st8" d="M90.5,14c0.3,0,0.5,0,0.8,0.1C91,13.9,90.7,13.8,90.5,14z"/>
	<path class="st6" d="M70.6,14c-0.1-0.2-0.2-0.3-0.3-0.5c-0.2,0.1-0.3,0.2-0.5,0.3C70,14,70.3,14.1,70.6,14z"/>
	<path class="st12" d="M113.8,12.3c-1.2-1.9-2.4-3.9-3.6-5.8c0.5,2.3,1.9,4.1,3.2,6C113.7,12.6,113.8,12.5,113.8,12.3z"/>
	<path class="st13" d="M116.9,13.9c-0.5-0.9-1.1-1.6-2.2-1.4c-0.4,0.6-0.3,1.1,0.1,1.7c0.4,0.5,0.6,1.3,1.4,1.1
		C116.8,15,116.8,14.4,116.9,13.9z"/>
	<path class="st14" d="M116.9,13.9c-1,1.3-1,1.3-2.1-0.1c-0.3-0.1-0.4,0-0.5,0.3c0.1,0.2,0.3,0.5,0.4,0.7c0.4,0.5,0.6,1.6,1.5,1.2
		C117,15.6,117.4,14.8,116.9,13.9z"/>
	<path class="st15" d="M103.6,23.4c-1.1,0.5-2.1,0.9-3.2,1.4c-0.1,0.2-0.1,0.4,0.1,0.4c0.1,0.1,0.2,0.1,0.3,0.1
		c1-0.1,1.8-0.4,2.6-0.9C104,24.2,104,23.8,103.6,23.4z"/>
	<path class="st16" d="M100.8,25.2c-0.1-0.2-0.2-0.3-0.3-0.5c-0.8,0.3-1.5,0.7-2.1,1.5C99.8,27,100.3,26.2,100.8,25.2z"/>
	<path class="st17" d="M114.3,14c0.1-0.1,0.3-0.2,0.5-0.3c0-0.4-0.1-0.8-0.1-1.3c-0.3-0.1-0.6-0.1-0.8-0.2c-0.1,0.1-0.3,0.2-0.4,0.2
		C113.1,13.5,113.7,13.7,114.3,14z"/>
	<path class="st9" d="M112.4,19.3c0.1,0.2,0.2,0.4,0.4,0.6c0.4,0.6,0.9,0.6,1.5,0.3C113.8,19.5,113.2,19.3,112.4,19.3z"/>
	<path class="st18" d="M103.6,23.4c-0.1,0.3-0.1,0.6-0.2,0.9c0.8,0.2,1.4-0.1,1.8-0.8C104.7,23.2,104.2,23.3,103.6,23.4z"/>
	<path class="st9" d="M115.5,20.1c-0.4,0-0.9,0.1-1.3,0.1C114.7,20.8,115.2,21.4,115.5,20.1z"/>
	<path class="st9" d="M116,19.8c-0.4-0.2-0.5-0.1-0.5,0.3C115.7,20.1,115.8,20,116,19.8z"/>
	<polygon class="st19" points="118.4,18 118.5,18 118.4,17.9 	"/>
	<path class="st20" d="M94.1,8.2C93,6.7,93,6.7,90.6,5.4c0.4,1.7,1.7,2.4,3,3.2C94,8.7,94.1,8.6,94.1,8.2z"/>
	<path class="st21" d="M94.1,8.2c-0.2,0.1-0.3,0.2-0.5,0.4c0.9,1.2,2,2.2,3.7,2.9C96.6,9.7,95.3,9,94.1,8.2z"/>
	<path class="st8" d="M89.6,15.7c0.3,0.2,0.6,0.5,0.9,0.7c0.3,0,0.5-0.1,0.8-0.1c0.3,0,0.5-0.1,0.6-0.4c0-0.3-0.2-0.5-0.5-0.5
		C90.8,15.4,90.2,15.4,89.6,15.7z"/>
	<path class="st22" d="M90.6,20.2c0.2,0,0.4,0.2,0.6,0.2c0.3-0.1,0.3-0.4,0.1-0.6c-0.2-0.2-0.5-0.3-0.6-0.3
		C90.4,19.6,90.3,19.9,90.6,20.2z"/>
	<path class="st23" d="M85.8,20.1c0.1,0.1,0.3,0.3,0.4,0.2c0.1,0,0.2-0.2,0.3-0.3c-0.1-0.1-0.3-0.2-0.4-0.2
		C85.9,19.7,85.8,19.9,85.8,20.1z"/>
	<path class="st24" d="M85.6,23.2c-0.1,0.2-0.1,0.4,0.1,0.4c0.2,0,0.3,0,0.5,0c0-0.2-0.1-0.4-0.2-0.4C85.9,23.1,85.7,23.2,85.6,23.2
		z"/>
	<path class="st25" d="M98.4,14.7c-0.1,0-0.2,0-0.2,0C98,14.9,98.1,15,98.3,15c0.1,0,0.1-0.1,0.2-0.1C98.5,14.8,98.4,14.7,98.4,14.7
		z"/>
	<path class="st20" d="M65.4,24.7c1,0.5,1.6-0.3,2.2-0.9c0.6-0.7,1.3-1.4,2.1-1.8c0-0.2,0.6-0.8,0-0.6C67.8,22,66.7,23.5,65.4,24.7z
		"/>
	<path class="st26" d="M68.2,25c0,1.2-1.5,1.2-1.9,2.1c2.7-1,2.8-1,3.3-3C69.1,24.4,68.7,24.7,68.2,25z"/>
	<path class="st27" d="M129.1,29.1C129.1,29.1,129.1,29,129.1,29.1c-0.2-0.5-0.6-0.5-1-0.5C128.5,28.8,128.8,29,129.1,29.1z"/>
	<path class="st28" d="M63.6,28c0.2,0.1,0.4,0.1,0.4-0.1c0-0.2,0-0.3,0-0.5c-0.2,0-0.4,0-0.4,0.1C63.5,27.6,63.5,27.8,63.6,28z"/>
	<path class="st29" d="M69.2,10.7c-0.5-0.6-1-1.1-2-0.6C67.9,10.8,68.6,10.8,69.2,10.7L69.2,10.7z"/>
	<path class="st6" d="M64.4,10.3c-0.3-0.1-0.5-0.1-0.8-0.2l0,0.1c0.1,0.6,0.4,0.6,0.7,0.3L64.4,10.3z"/>
	<path class="st29" d="M69.2,10.7c0.3,0.1,0.5,0.1,0.8,0.2C69.8,10.9,69.5,10.8,69.2,10.7L69.2,10.7z"/>
	<path class="st30" d="M64.3,10.5c-0.2-0.1-0.5-0.2-0.7-0.3c-0.3,0.3-0.3,0.6,0.1,0.8C64.1,11.1,64.3,10.9,64.3,10.5z"/>
</g>
<g>
	<path class="st31" d="M8.9,87c-0.2,0.1-0.5,0.1-0.7,0.2C8.5,87.2,8.7,87.2,8.9,87z"/>
	<path class="st31" d="M5.9,87.9L5.9,87.9L5.9,87.9c0.1,0,0.1,0,0.2,0c0,0,0,0,0-0.1C6.1,87.9,6,87.9,5.9,87.9z"/>
	<path class="st32" d="M67.7,87C50.8,87,33.9,87,17,87c-1.5,1-3.8-0.2-5.2,1c0.6,0.1,1.2,0.2,1.8,0.3c0.5,0,1,0,1.4,0.2
		c0.9,0,1.7-0.1,2.6-0.1c16.7,0,33.3,0.1,50,0.1c1,0,2.9,0.6,3-0.6C70.7,86.6,68.8,87,67.7,87z"/>
	<path class="st33" d="M8.2,87.2c-0.7,0.2-1.4,0.4-2.1,0.6c0,0,0,0,0,0.1c1.9,0,3.8,0,5.6,0.1c0,0-0.1,0-0.1-0.1
		c1.4-1.6,3.7-0.2,5.4-0.9c-2.7,0-5.4,0-8.1,0l0,0C8.7,87.2,8.5,87.2,8.2,87.2z"/>
	<path class="st33" d="M11.6,87.9c0,0,0.1,0.1,0.1,0.1c0,0,0,0,0,0c1.4-1.1,3.7,0,5.2-1C15.4,87.8,13,86.4,11.6,87.9z"/>
	<path class="st34" d="M4.4,88.2c-0.3-0.1-0.5-0.1-0.8-0.2C3.9,88.1,4.2,88.2,4.4,88.2z"/>
	<path class="st34" d="M5.9,87.9c0.1,0,0.1,0,0.2-0.1c0-1,1.2-0.6,2.1-0.6c0.2-0.1,0.5-0.1,0.7-0.2l0,0c-1.7,0-3.4,0-5.2,0
		c-0.9,0.9-2.8,0-3.7,1v0c1.2,0,2.4,0,3.7,0.1C4.4,88,5.2,88,5.9,87.9C5.9,87.9,5.9,87.9,5.9,87.9z"/>
	<path class="st34" d="M6.1,87.9c0.7-0.2,1.4-0.4,2.1-0.6C7.3,87.3,6.1,86.9,6.1,87.9z"/>
</g>
<g>
	<path class="st31" d="M194.3,87.5c0,0.1,0,0.1,0,0.2c0.1,0,0.1-0.1,0.2-0.2l0,0C194.4,87.5,194.3,87.5,194.3,87.5z"/>
	<path class="st35" d="M189,87.5c-0.6-0.1-1.1-0.2-1.7-0.3c-0.5,0-0.9,0-1.3-0.2c-1.1,0-2.3,0.1-3.5,0.1c-15.4,0-30.8-0.1-46.2-0.1
		c-0.9,0-2.4-0.5-2.5,0.7c-0.1,1.2,1.5,0.8,2.4,0.8c16,0,31.9,0,47.9-0.1C185.5,87.5,187.6,88.6,189,87.5z"/>
	<path class="st33" d="M194.3,87.7c0,0,0-0.1,0-0.2c-1.8,0-3.5,0-5.3-0.1c0,0,0.1,0,0.1,0.1c-1.3,1.6-3.5,0.2-5,0.9
		c2.5,0,5.1,0,7.6,0c0,0,0,0,0,0C192.3,87.8,193.6,88.2,194.3,87.7z"/>
	<path class="st33" d="M189.1,87.5c0,0-0.1-0.1-0.1-0.1c0,0,0,0,0,0c-1.3,1.1-3.5,0-4.9,1C185.6,87.7,187.8,89.1,189.1,87.5z"/>
	<path class="st34" d="M200,87.5L200,87.5c-1.1,0-2.3,0-3.4-0.1l0,0c-0.7,0.5-1.4,0.5-2.2,0.1c0,0.1-0.1,0.1-0.2,0.2
		c-0.1,1.2-2,0.1-2.6,0.7c0,0,0,0,0,0c1.6,0,3.2,0,4.8,0C197.4,87.6,199.2,88.5,200,87.5z"/>
	<path class="st34" d="M194.3,87.7c-0.7,0.5-1.9,0.1-2.6,0.7C192.3,87.8,194.2,88.9,194.3,87.7z"/>
	<path class="st34" d="M196.6,87.4c-0.7,0-1.5,0.1-2.2,0.1C195.2,87.9,195.9,87.9,196.6,87.4z"/>
</g>
<g>
	<path class="st36" d="M188.7,74.1c-0.1-0.9-0.4-1.2-1.1-4c-0.2-0.8-0.6-3.2-0.7-5.2c-0.1,2-0.5,4.4-0.7,5.2c-0.7,2.8-1,3.1-1.1,4
		c0,0.1,0,0.3,0,0.4c0,1.1,0.6,1.7,1.4,1.9c0.1,0,0.3,0.1,0.4,0.1c0.1,0,0.3,0,0.4-0.1c0.8-0.2,1.4-0.9,1.4-1.9
		C188.8,74.3,188.7,74.2,188.7,74.1z"/>
	<g>
		<path class="st36" d="M40.7,53c-2.2,5-5.4,9.1-9.5,12.2c-4.1,3.1-8.8,4.6-14,4.6c-8.3,0-12.4-3.7-12.4-11c0-3.3,0.7-6.6,2.1-9.8
			s3.2-6,5.5-8.4c2.3-2.4,5-4.3,8.1-5.8c3.1-1.5,6.3-2.2,9.5-2.2c4.2,0,7.4,1,9.6,3.1c2.1,2.1,3.2,4.7,3.2,7.8
			C42.8,46.7,42.1,49.9,40.7,53z M38.6,43.1c0-5.5-2.4-8.2-7.3-8.2c-3.5,0-6.9,1.2-10.2,3.7c-3.2,2.4-5.8,5.5-7.6,9.2
			c-1.9,3.7-2.8,7.4-2.8,11c0,2.6,0.6,4.8,1.8,6.4c1.2,1.6,3,2.5,5.6,2.5c2.6,0,5.1-0.8,7.7-2.3c2.6-1.5,4.8-3.5,6.6-5.9
			c1.8-2.4,3.3-5.1,4.5-8C38,48.6,38.6,45.8,38.6,43.1z"/>
		<path class="st36" d="M161,53c-2.2,5-5.4,9.1-9.5,12.2c-4.1,3.1-8.8,4.6-14,4.6c-8.3,0-12.4-3.7-12.4-11c0-3.3,0.7-6.6,2.1-9.8
			c1.4-3.2,3.2-6,5.5-8.4c2.3-2.4,5-4.3,8.1-5.8c3.1-1.5,6.3-2.2,9.5-2.2c4.2,0,7.4,1,9.6,3.1c2.1,2.1,3.2,4.7,3.2,7.8
			C163.1,46.7,162.4,49.9,161,53z M158.9,43.1c0-5.5-2.4-8.2-7.3-8.2c-3.5,0-6.9,1.2-10.2,3.7c-3.2,2.4-5.8,5.5-7.6,9.2
			c-1.9,3.7-2.8,7.4-2.8,11c0,2.6,0.6,4.8,1.8,6.4c1.2,1.6,3,2.5,5.6,2.5c2.6,0,5.1-0.8,7.7-2.3c2.6-1.5,4.8-3.5,6.6-5.9
			c1.8-2.4,3.3-5.1,4.5-8C158.3,48.6,158.9,45.8,158.9,43.1z"/>
		<path class="st36" d="M60.8,37.6c-1.2,2.4-3,5.2-5.5,8.3c-2.5,3.1-4.7,5.6-6.7,7.5l-0.8,2.3c-0.4,1.2-0.8,2.6-1.2,4.3
			c-0.4,1.7-0.5,2.9-0.5,3.6c0,1,0.4,1.5,1.1,1.5c0.7,0,1.6-0.4,2.6-1.3c1-0.8,1.8-1.6,2.2-2.2c0.5-0.6,1-1.4,1.6-2.4
			c0.6-1,1.2-1.9,1.6-2.6c0.5-0.7,0.7-1.1,0.8-1.1c0.2,0,0.3,0.3,0.3,0.9c0,0.6-0.2,1.2-0.5,1.8c-1.8,3.1-3.3,5.3-4.5,6.6
			c-2.3,2.5-4.7,3.8-7.1,3.8c-1.9,0-2.8-1.3-2.8-3.8c0-2.5,1.1-6.9,3.4-13.1c0.2-0.5,0.6-1.7,1.2-3.4c0.6-1.7,1.1-3,1.6-4
			c0.4-1,1-2.2,1.8-3.8c0.7-1.6,1.4-2.8,2.1-3.8c0.7-0.9,1.4-1.9,2.3-2.9c1.6-1.9,3.4-2.9,5.3-2.9c1.9,0,2.9,0.9,2.9,2.6
			C61.9,34.8,61.5,36.2,60.8,37.6z M59.7,32.1h-0.4c-2,0-5.3,6.1-9.8,18.4c4.6-5.4,7.7-9.8,9.4-13.2c0.9-2.1,1.4-3.5,1.4-4.1
			S60.2,32.1,59.7,32.1z"/>
		<path class="st36" d="M61.6,48.1l2.5,0.1h0.5c-0.5,0.4-1.2,1.5-2.1,3.3c-0.9,1.8-1.5,3.1-2,4c-0.4,0.9-0.9,2.1-1.5,3.7
			c-0.6,1.5-0.8,2.8-0.8,3.8c0,1,0.3,1.5,1,1.5c0.4,0,1-0.3,1.8-0.9c0.8-0.6,1.4-1.2,1.9-1.9c0.5-0.7,1.1-1.5,1.7-2.5
			c0.6-1,1.2-1.9,1.6-2.6c0.5-0.7,0.7-1.1,0.8-1.1c0.2,0,0.3,0.3,0.3,0.9c0,0.6-0.2,1.2-0.5,1.8c-1.2,2.1-2.4,3.8-3.4,5.2
			c-1,1.4-2.2,2.6-3.5,3.6c-1.3,1-2.5,1.6-3.6,1.6c-1.9,0-2.8-1.3-2.8-3.9c0-4,1.4-8.5,4.2-13.5C58.9,49.1,60.2,48.1,61.6,48.1z
			 M68.5,41.5h-0.2c-0.7,0-1.3,0.3-1.9,0.9c-0.6,0.6-1.1,1.2-1.3,1.8c-0.9-0.3-1.3-0.9-1.3-1.8c0-0.9,0.4-1.7,1.2-2.6
			c0.8-0.9,1.6-1.3,2.3-1.3c0.7,0,1.3,0.2,1.7,0.5c0.4,0.3,0.6,0.8,0.6,1.3C69.4,40.6,69.1,41.1,68.5,41.5z"/>
		<path class="st36" d="M87,58.2c-1.4,2.4-3.1,3.7-5.2,3.7c-1.7,0-3-0.9-3.7-2.8c-2.9,4.4-5,7-6.1,7.8c-1.6,1.1-3.2,1.7-4.8,1.7
			c-0.8,0-1.5-0.4-2-1.2c-0.5-0.8-0.8-1.9-0.8-3.2s0.4-3.4,1.3-6.1c1.6-5.3,3.5-8.4,5.7-9.3c1-0.4,2.4-0.7,4.2-0.7
			c0.1,0,0.2,0.1,0.2,0.2s-0.1,0.3-0.3,0.5c-1.3,1.1-2.7,3.4-4.1,6.9c-1.5,3.5-2.2,6-2.2,7.4c0,1.5,0.6,2.2,1.7,2.2
			c0.9,0,2-0.9,3.3-2.8c1.2-1.9,2.3-3.9,3.1-6.1c-0.2-0.8-0.3-1.7-0.3-2.9c0-1.2,0.3-2.4,0.9-3.6c0.6-1.2,1.4-1.8,2.4-1.8
			c1,0,1.6,0.8,1.6,2.3c0,1.8-0.6,3.6-1.7,5.5c-0.3,0.5-0.5,0.9-0.6,1.1c0,1,0.3,1.8,0.8,2.4c0.5,0.6,1.1,0.9,1.9,0.9
			c1.2,0,2.3-0.8,3.4-2.3c0.4-0.6,0.8-1.1,1.1-1.6c0.3-0.5,0.5-0.7,0.5-0.7c0.1,0,0.2,0.4,0.2,1.1C87.3,57.3,87.2,57.9,87,58.2z"/>
		<path class="st36" d="M101.2,63.8c-0.9,1.1-1.7,1.9-2.6,2.6c-2.1,1.5-4.2,2.3-6.3,2.3s-3.8-0.5-5.1-1.6c-1.3-1.1-2-2.8-2-5
			c0-3.4,1.3-6.6,3.8-9.5c2.5-2.9,5.4-4.4,8.8-4.4c1.5,0,2.7,0.4,3.6,1.2c0.9,0.8,1.4,1.7,1.4,2.8c0,1.9-0.9,3.4-2.7,4.5
			c-1.8,1.1-3.9,1.7-6.3,1.7c-1.4,0-2.4-0.2-3.1-0.6c-0.6,1.7-1,3.2-1,4.5c0,2.8,1.2,4.2,3.6,4.2c1.4,0,2.9-0.5,4.3-1.6
			c1-0.8,2-1.6,2.8-2.5C100.8,62.1,102,62.7,101.2,63.8z M100,51.2c0-1-0.5-1.5-1.4-1.5c-1.3,0-2.8,0.8-4.4,2.4S91.8,55,91.8,56
			c0,0.7,0.6,1,1.9,1c1.3,0,2.6-0.6,4-1.9C99.1,53.9,99.9,52.6,100,51.2z"/>
		<path class="st36" d="M105.7,69.2c-1.9,0-3.1-0.4-4.4-1.1c-1.3-0.7-1.9-1.8-1.9-3.2c0-0.8,0.2-1.5,0.7-2.2c0.5-0.7,1.1-1,1.9-1
			c0.8,0,1.3,0.3,1.6,0.9c-0.6,0.6-1,1.4-1,2.2c0,1.7,0.9,2.5,2.8,2.5c1.1,0,2.1-0.4,2.9-1.2c0.8-0.8,1.2-1.6,1.2-2.5
			c0-0.9-0.2-1.7-0.6-2.4c-0.4-0.7-0.9-1.3-1.5-1.9c-0.6-0.5-1.1-1.1-1.7-1.6c-1.4-1.3-2.1-2.8-2.1-4.5c0-1.7,0.6-3.1,1.9-4.3
			c1.3-1.2,3.1-1.7,5.3-1.7c1.4,0,2.6,0.3,3.6,0.8c1,0.5,1.5,1.3,1.5,2.3c0,1.1-0.3,2-1,2.7c-0.6,0.8-1.5,1.2-2.6,1.2
			c-1.1,0-1.6-0.5-1.6-1.5c0-0.2,0.4-0.6,1.2-1.1c0.8-0.5,1.2-1,1.2-1.5c0-0.5-0.2-0.9-0.6-1.1c-0.4-0.3-1-0.4-1.8-0.4
			c-0.8,0-1.5,0.3-2.2,0.8c-0.7,0.5-1.1,1.2-1.1,2.1c0,0.9,0.4,1.7,1.1,2.5c0.7,0.8,1.5,1.4,2.4,2c0.9,0.5,1.7,1.3,2.4,2.2
			c0.7,1,1.1,2,1.1,3c0,1.1-0.4,2.3-0.9,3.2C112.4,66.6,109.5,69.2,105.7,69.2z"/>
		<path class="st36" d="M170.5,48.4l2.5,0.1h0.5c-0.5,0.4-1.3,1.5-2.2,3.3c-0.9,1.8-1.6,3.2-2,4.1c-0.4,0.9-0.9,2.2-1.5,3.7
			c-0.6,1.6-0.8,2.8-0.8,3.8c0,1,0.3,1.5,1,1.5c0.4,0,1.1-0.3,1.9-0.9c0.8-0.6,1.4-1.2,2-1.9c0.5-0.7,1.1-1.5,1.7-2.5
			c0.6-1,1.2-1.9,1.6-2.6c0.5-0.7,0.7-1.1,0.8-1.1c0.2,0,0.3,0.3,0.3,0.9s-0.2,1.2-0.5,1.8c-1.3,2.1-2.4,3.9-3.4,5.3
			c-1,1.4-2.2,2.6-3.5,3.7c-1.3,1.1-2.5,1.6-3.6,1.6c-1.9,0-2.8-1.3-2.8-4c0-4.1,1.4-8.7,4.2-13.6C167.7,49.4,169,48.4,170.5,48.4z
			 M177.4,41.7h-0.2c-0.7,0-1.3,0.3-2,0.9s-1.1,1.2-1.3,1.8c-0.9-0.3-1.3-0.9-1.3-1.8c0-0.9,0.4-1.8,1.2-2.7
			c0.8-0.9,1.6-1.3,2.3-1.3c0.7,0,1.3,0.2,1.7,0.5c0.4,0.3,0.6,0.8,0.6,1.3C178.4,40.8,178,41.3,177.4,41.7z"/>
		<path class="st36" d="M193.2,37.7c-1.2,2.5-3.1,5.3-5.6,8.4c-2.5,3.1-4.8,5.7-6.8,7.6L180,56c-0.4,1.2-0.8,2.6-1.2,4.3
			c-0.4,1.7-0.5,2.9-0.5,3.6c0,1,0.4,1.5,1.1,1.5c0.7,0,1.6-0.4,2.7-1.3c1-0.8,1.8-1.6,2.3-2.2c0.5-0.6,1-1.4,1.7-2.5
			c0.6-1,1.2-1.9,1.6-2.6c0.5-0.7,0.7-1.1,0.8-1.1c0.2,0,0.3,0.3,0.3,0.9s-0.2,1.2-0.5,1.8c-1.9,3.2-3.4,5.4-4.5,6.7
			c-2.3,2.6-4.7,3.9-7.2,3.9c-1.9,0-2.9-1.3-2.9-3.9c0-2.5,1.1-7,3.4-13.3c0.2-0.5,0.6-1.7,1.2-3.4c0.6-1.7,1.1-3.1,1.6-4
			c0.4-1,1-2.2,1.8-3.8c0.7-1.6,1.5-2.9,2.2-3.8c0.7-0.9,1.5-1.9,2.3-2.9c1.7-2,3.5-3,5.4-3c1.9,0,2.9,0.9,2.9,2.6
			C194.3,34.9,194,36.3,193.2,37.7z M192.1,32.2h-0.4c-2.1,0-5.4,6.2-9.9,18.6c4.6-5.5,7.8-9.9,9.5-13.4c0.9-2.1,1.4-3.5,1.4-4.2
			C192.8,32.5,192.5,32.2,192.1,32.2z"/>
	</g>
</g>
<g>
	<path class="st36" d="M74.9,90.5l-1.8-4.1l-0.7,3.9h-0.7l1.2-5.9l2,4.7l2-4.7l1.2,5.9h-0.7l-0.7-3.9L74.9,90.5z"/>
	<path class="st36" d="M80.8,84.3l2.6,5.9h-0.7l-0.7-1.8h-2.2l-0.7,1.8h-0.7L80.8,84.3z M80.8,85.8l-0.9,2.1h1.8L80.8,85.8z"/>
	<path class="st36" d="M84,90.3v-5.9l4.2,4.6v-4.3h0.6v5.9L84.6,86v4.3H84z"/>
	<path class="st36" d="M90.2,84.6h0.7v3.6c0,0.6,0.1,1,0.4,1.3s0.6,0.4,1.2,0.4s0.9-0.1,1.2-0.4s0.4-0.7,0.4-1.3v-3.6h0.7v3.6
		c0,0.8-0.2,1.4-0.6,1.7s-0.9,0.6-1.7,0.6c-0.7,0-1.3-0.2-1.7-0.6s-0.6-1-0.6-1.7V84.6z"/>
	<path class="st36" d="M95.9,90.3v-5.7h3v0.6h-2.3v1.6H99v0.6h-2.3v2.8H95.9z"/>
	<path class="st36" d="M101.4,84.3l2.6,5.9h-0.7l-0.7-1.8h-2.2l-0.7,1.8h-0.7L101.4,84.3z M101.4,85.8l-0.9,2.1h1.8L101.4,85.8z"/>
	<path class="st36" d="M109.1,85.9c-0.3-0.3-0.6-0.5-0.9-0.7s-0.7-0.2-1-0.2c-0.3,0-0.6,0.1-0.9,0.2s-0.5,0.3-0.7,0.5
		c-0.2,0.2-0.4,0.5-0.5,0.8s-0.2,0.6-0.2,0.9c0,0.3,0,0.5,0.1,0.7s0.2,0.4,0.3,0.6c0.2,0.3,0.5,0.6,0.8,0.8s0.7,0.3,1.1,0.3
		c0.4,0,0.7-0.1,1-0.2s0.6-0.4,0.9-0.7v0.9c-0.3,0.2-0.6,0.4-0.9,0.5s-0.7,0.2-1,0.2c-0.3,0-0.6,0-0.9-0.1s-0.6-0.2-0.8-0.4
		c-0.4-0.3-0.7-0.6-1-1.1s-0.3-0.9-0.3-1.4c0-0.4,0.1-0.8,0.2-1.2s0.4-0.7,0.7-1c0.3-0.3,0.6-0.5,1-0.6s0.7-0.2,1.2-0.2
		c0.3,0,0.7,0,1,0.2s0.6,0.3,0.9,0.5V85.9z"/>
	<path class="st36" d="M111.2,90.3v-5.1h-1.6v-0.6h3.9v0.6h-1.6v5.1H111.2z"/>
	<path class="st36" d="M114.3,84.6h0.7v3.6c0,0.6,0.1,1,0.4,1.3s0.6,0.4,1.2,0.4s0.9-0.1,1.2-0.4s0.4-0.7,0.4-1.3v-3.6h0.7v3.6
		c0,0.8-0.2,1.4-0.6,1.7s-0.9,0.6-1.7,0.6c-0.7,0-1.3-0.2-1.7-0.6s-0.6-1-0.6-1.7V84.6z"/>
	<path class="st36" d="M120,90.3v-5.7h1.3c0.4,0,0.7,0,0.8,0.1s0.3,0.1,0.5,0.2c0.2,0.1,0.3,0.3,0.4,0.5s0.1,0.5,0.1,0.7
		c0,0.5-0.1,0.8-0.4,1.1s-0.6,0.4-1.2,0.4h-0.1l2.2,2.7h-0.9l-2.1-2.7h-0.1v2.7H120z M120.7,85.1V87h0.5c0.5,0,0.9-0.1,1.1-0.2
		s0.3-0.4,0.3-0.7c0-0.4-0.1-0.6-0.3-0.8s-0.5-0.2-1.1-0.2H120.7z"/>
	<path class="st36" d="M124.3,90.3v-5.7h3v0.6H125v1.6h2.3v0.6H125v2.2h2.3v0.6H124.3z"/>
	<path class="st36" d="M128.5,90.3v-5.7h1.3c0.4,0,0.7,0,0.8,0.1s0.3,0.1,0.5,0.2c0.2,0.1,0.3,0.3,0.4,0.5s0.1,0.5,0.1,0.7
		c0,0.5-0.1,0.8-0.4,1.1s-0.6,0.4-1.2,0.4H130l2.2,2.7h-0.9l-2.1-2.7h-0.1v2.7H128.5z M129.2,85.1V87h0.5c0.5,0,0.9-0.1,1.1-0.2
		s0.3-0.4,0.3-0.7c0-0.4-0.1-0.6-0.3-0.8s-0.5-0.2-1.1-0.2H129.2z"/>
</g>
</svg>
