<?xml version="1.0" encoding="utf-8"?>
<!-- Generator: Adobe Illustrator 23.0.1, SVG Export Plug-In . SVG Version: 6.00 Build 0)  -->
<svg version="1.1" id="Layer_1" xmlns="http://www.w3.org/2000/svg" xmlns:xlink="http://www.w3.org/1999/xlink" x="0px" y="0px"
	 viewBox="0 0 143.7 99.2" style="enable-background:new 0 0 143.7 99.2;" xml:space="preserve">
<style type="text/css">
	.st0{fill-rule:evenodd;clip-rule:evenodd;fill:#C9070A;}
	.st1{fill:#C9070A;}
	.st2{fill:#00339F;}
</style>
<path class="st0" d="M52.2,45.6c0-4.2,4-7.6,9-7.6c5,0,9,3.4,9,7.6c0,4.2-4,7.6-9,7.6C56.2,53.2,52.2,49.8,52.2,45.6"/>
<path class="st0" d="M66.8,54.7v33.1c-0.1,3,5.9,0.3,6.1,0.2v7.8c-2,0.7-10.3,4.1-16.3,3.3c-7.2-1.6-7.1-6.7-7.2-7.5l0-32.7
	L66.8,54.7z"/>
<path class="st1" d="M107,86.8c-1.4-7.4,3.9-14.4,11.6-16.1c7.9-1.8,5.2-6.4,5.2-6.4s-1.6-5.6-12.2,1.6L109.7,54c0,0,1.8-0.6,10.2-3
	c0,0,14-5.8,17.2,6.1l6.5,38.8l-13.4,3.3l-0.5-5.4c-1.7,1.3-4.7,3.1-6.9,3.5C115,98.9,108.4,94.2,107,86.8 M126,76.7
	c-0.2,0-6.6,2.3-5.9,5.6c0.6,3.3,3.8,4.8,7.4,4.2c0.2,0,0.5-0.1,0.7-0.2L126,76.7z"/>
<polygon class="st1" points="31.8,96 14.2,99.2 0,34.6 14.3,32.1 21.4,64.3 33.6,27.2 52.6,32.6 "/>
<path class="st1" d="M97,34.2v17.1l7.6,0.9v13.6L97,64.9v22.8c-0.1,3,6.6,0.3,6.8,0.2v7.8c-2.2,0.7-11.5,4.1-18.2,3.3
	c-8.1-1.6-8-6.7-8.1-7.5l0-28.9l-6.7-0.8V48.3l6.8,0.8l0-10.4L97,34.2z"/>
<path class="st2" d="M14.2,4c0.3,0,0.7,0,1.1,0c0.4,0,0.7,0.1,1.1,0.2c0.3,0.1,0.6,0.3,0.8,0.5c0.2,0.2,0.3,0.5,0.4,0.8
	c0,0.4-0.1,0.8-0.3,1.1c-0.2,0.3-0.5,0.5-0.7,0.7l0,0.1c0.5,0.1,0.8,0.2,1.1,0.6C17.8,8.3,18,8.7,18,9.2c0,0.8-0.3,1.4-0.9,2
	c-0.6,0.6-1.4,0.9-2.4,1c-0.6,0.1-1.2,0-1.7-0.2c-0.5-0.2-0.9-0.5-1.1-0.9c-0.3-0.4-0.4-0.8-0.5-1.3c-0.1-0.9,0-1.6,0.4-2.4
	c0.4-0.7,1-1.2,1.6-1.3c0.1,0,0.2,0,0.2,0c0,0,0,0.1,0,0.2c-0.2,0.3-0.3,0.8-0.4,1.4c-0.1,0.6-0.1,1.1,0,1.7
	c0.1,0.5,0.2,0.9,0.5,1.2c0.3,0.3,0.6,0.4,1,0.4c0.4-0.1,0.7-0.2,0.9-0.5c0.2-0.3,0.3-0.6,0.3-1c0-0.3-0.1-0.6-0.2-0.8
	c-0.1-0.2-0.2-0.3-0.3-0.4c-0.1,0-0.1-0.1-0.2-0.1c-0.3,0.2-0.5,0.2-0.7,0.2c-0.2,0-0.3-0.1-0.4-0.1c-0.1-0.1-0.1-0.2-0.1-0.3
	c0-0.2,0.1-0.3,0.2-0.4c0.2-0.1,0.4-0.2,0.7-0.2l0,0c0,0,0,0,0-0.1c0,0,0-0.1,0.1-0.1c0,0,0.1-0.1,0.1-0.1c0,0,0.1-0.1,0.1-0.2
	c0-0.1,0-0.1,0.1-0.2c0-0.1,0-0.1,0-0.2c0-0.1,0-0.2,0-0.2c0-0.4-0.2-0.7-0.7-0.9c-0.4-0.2-1-0.2-1.6-0.1c-0.8,0.1-1.5,0.4-2.1,0.8
	c-0.6,0.5-0.9,0.9-0.9,1.4c0,0.2,0,0.3,0,0.3c0,0.1,0,0.2,0.1,0.2c0,0.1,0.1,0.1,0.1,0.2c0,0.1-0.1,0.2-0.2,0.3
	C10,8.6,9.8,8.7,9.6,8.8C9.3,8.8,9,8.7,8.7,8.5C8.4,8.3,8.3,8,8.3,7.7c0-0.6,0.2-1.1,0.7-1.6c0.5-0.5,1.1-0.9,1.8-1.3
	c0.8-0.3,1.6-0.6,2.4-0.7C13.5,4,13.9,4,14.2,4"/>
<path class="st2" d="M20.2,4.5c-0.2-0.2-0.3-0.4-0.3-0.6c0-0.3,0.1-0.5,0.3-0.7c0.2-0.2,0.5-0.3,0.8-0.4c0.3,0,0.6,0,0.8,0.2
	C21.9,3.1,22,3.3,22,3.6s-0.1,0.5-0.3,0.7c-0.2,0.2-0.5,0.3-0.8,0.4C20.6,4.7,20.4,4.6,20.2,4.5 M20.4,11.1
	c-0.2-0.2-0.3-0.5-0.3-0.9c0-1.5,0-3,0-4.5c0,0,0,0,0-0.1c0.3-0.1,0.5-0.1,0.8-0.2c0.3,0,0.6-0.1,0.8,0c0,0,0,0,0,0.1
	c0,1.2,0,2.5,0,3.7c0,0.2,0,0.4,0.1,0.5C21.9,9.9,22,10,22,10c0.1,0,0.2,0.1,0.3,0.1c0.1,0,0.1,0.1,0.1,0.1c0,0.1-0.1,0.3-0.3,0.6
	c-0.2,0.2-0.5,0.4-0.9,0.4C20.9,11.3,20.6,11.2,20.4,11.1"/>
<path class="st2" d="M27.6,7.1c0-0.1,0-0.2,0.1-0.3c0-0.1,0-0.2,0-0.3c0-0.2,0-0.3-0.1-0.4c-0.1-0.1-0.2-0.1-0.3-0.1
	c-0.3,0-0.5,0.3-0.7,0.7c-0.2,0.4-0.3,0.9-0.3,1.5c0,0.7,0,1.5,0,2.2c0,0,0,0,0,0c0,0,0,0,0,0l0,0c-0.2,0.1-0.5,0.1-0.8,0.2
	c-0.3,0-0.5,0-0.8,0c0,0,0,0,0-0.1c0-1.2,0-2.5,0.1-3.7c0-0.3,0-0.5-0.1-0.6c-0.1-0.1-0.2-0.2-0.4-0.2C24,6,24,6,24,5.9
	c0-0.2,0.1-0.3,0.4-0.6c0.2-0.2,0.5-0.4,0.9-0.4c0.3,0,0.6,0,0.8,0.2c0.2,0.2,0.3,0.5,0.3,0.8c0,0,0,0.1,0,0.2c0,0.1,0,0.2,0,0.2
	l0,0c0.1-0.5,0.3-0.9,0.7-1.2c0.3-0.3,0.7-0.5,1-0.6c0.4,0,0.7,0.1,0.9,0.3c0.2,0.2,0.3,0.5,0.3,1c0,0.4-0.1,0.8-0.4,1.1
	c-0.3,0.3-0.6,0.5-0.9,0.5c-0.1,0-0.2,0-0.3,0c-0.1,0-0.1-0.1-0.1-0.1C27.5,7.2,27.6,7.2,27.6,7.1"/>
<path class="st2" d="M37.2,7.5c0.2,0,0.4,0,0.7,0.1c0.3,0,0.6,0.1,0.8,0.1c0.2,0,0.4,0,0.6,0c0.2-0.1,0.4-0.1,0.6-0.3
	c0.2-0.1,0.3-0.2,0.3-0.2c0.1,0,0.2,0.1,0.2,0.2c0.1,0.1,0.1,0.3,0.1,0.5c0,0.4-0.1,0.7-0.4,1S39.6,9.4,39,9.4c-0.4,0-0.9,0-1.5-0.2
	c-0.7-0.1-1.1-0.2-1.3-0.2c-0.2,0-0.4,0.1-0.5,0.2c-0.1,0.1-0.2,0.2-0.3,0.3c-0.1,0.1-0.1,0.1-0.2,0.1c-0.1,0-0.2,0-0.2-0.2
	c-0.1-0.1-0.1-0.3-0.2-0.5c-0.1-0.6,0.2-1,0.6-1.4c0-1.3,0.1-2.6,0.1-3.9c0-0.1,0-0.2,0-0.3c0-0.1,0-0.2-0.1-0.2
	c0-0.1-0.1-0.1-0.1-0.2c0,0-0.1-0.1-0.1-0.1c-0.1,0-0.1-0.1-0.1-0.1s-0.1,0-0.1-0.1c-0.1,0-0.1,0-0.1-0.1c-0.1,0-0.1-0.1-0.1-0.1
	c0-0.1,0.1-0.4,0.4-0.6c0.3-0.3,0.6-0.4,1-0.4c0.4,0,0.7,0,1,0.3c0.2,0.2,0.3,0.5,0.3,1C37.4,4.3,37.3,5.9,37.2,7.5"/>
<path class="st2" d="M44.3,4.6c-0.2,0.3-0.4,0.7-0.4,1.2c0.2,0,0.4,0,0.6,0c0.4,0,0.7-0.1,1-0.3C45.8,5.2,46,5,46,4.7
	c0-0.2,0-0.4-0.2-0.5C45.7,4.1,45.5,4,45.2,4C44.8,4,44.6,4.2,44.3,4.6 M47.5,7.1c0,0.1-0.1,0.3-0.2,0.4C47.2,7.8,47,8,46.8,8.2
	c-0.2,0.2-0.5,0.4-0.8,0.5C45.7,8.8,45.4,8.9,45,9c-0.9,0.1-1.5-0.2-2.1-0.7c-0.5-0.5-0.7-1.2-0.7-2.1c0-0.9,0.4-1.6,0.9-2.2
	c0.6-0.6,1.3-0.9,2.2-1c0.8-0.1,1.3,0.1,1.7,0.4c0.4,0.3,0.6,0.7,0.5,1.2c0,0.6-0.3,1.1-0.8,1.4c-0.5,0.3-1,0.5-1.6,0.5
	c-0.2,0-0.4,0-0.5,0c-0.2,0-0.3,0-0.5,0c-0.1,0-0.2,0-0.2,0c0,0.4,0.2,0.7,0.5,0.9c0.3,0.2,0.7,0.3,1.1,0.3c0.3,0,0.7-0.1,0.9-0.2
	c0.3-0.1,0.5-0.2,0.7-0.4C47.3,7.1,47.4,7,47.4,7C47.5,7,47.5,7.1,47.5,7.1"/>
<path class="st2" d="M54.4,6.8c0,0.2,0,0.3,0,0.4c0,0.3-0.2,0.6-0.4,0.9c-0.3,0.3-0.6,0.4-1.1,0.5c-0.3,0-0.7-0.1-1.2-0.2
	c-0.6-0.1-1-0.2-1.2-0.2c-0.1,0-0.3,0-0.4,0.1c-0.1,0.1-0.2,0.1-0.2,0.2c0,0.1-0.1,0.1-0.1,0.2c0,0-0.1,0.1-0.1,0.1
	c-0.1,0-0.1-0.1-0.2-0.2c0-0.1-0.1-0.2,0-0.4c0-0.4,0.2-0.8,0.6-1.2c0.5-0.5,1-0.9,1.5-1.4c0.6-0.5,1.1-0.8,1.5-1l0,0
	c-0.2,0-0.5,0-1-0.1c-0.5,0-0.8-0.1-1,0c-0.3,0-0.5,0.1-0.7,0.2c-0.2,0.1-0.3,0.2-0.3,0.2c-0.1,0-0.1-0.1-0.2-0.2
	c0-0.1-0.1-0.2,0-0.3c0-0.3,0.2-0.7,0.4-1c0.2-0.3,0.6-0.5,1.1-0.5c0.3,0,0.7,0,1.2,0.2c0.5,0.1,1,0.2,1.3,0.2c0.2,0,0.4,0,0.5-0.1
	c0.1-0.1,0.2-0.1,0.3-0.2c0.1-0.1,0.1-0.1,0.1-0.1c0.1,0,0.1,0.1,0.2,0.2c0.1,0.1,0.1,0.2,0.1,0.4c0,0.3-0.2,0.7-0.5,0.9
	c-0.4,0.5-1,1-1.5,1.5c-0.6,0.5-1.1,0.8-1.5,1l0,0c0.1,0,0.3,0,0.7,0.1c0.4,0.1,0.8,0.1,1.1,0.1c0.3,0,0.6-0.1,0.9-0.2
	c0.2-0.1,0.4-0.1,0.4-0.1C54.3,6.6,54.3,6.6,54.4,6.8"/>
<path class="st2" d="M61.1,6.6c0,0.2,0,0.3,0,0.4c0,0.3-0.2,0.6-0.4,0.9s-0.7,0.4-1.2,0.4c-0.3,0-0.7-0.1-1.2-0.2
	c-0.6-0.1-1-0.2-1.2-0.2c-0.1,0-0.3,0-0.4,0.1c-0.1,0-0.2,0.1-0.2,0.2c0,0.1-0.1,0.1-0.1,0.2c0,0-0.1,0.1-0.1,0.1
	c-0.1,0-0.1-0.1-0.2-0.2c0-0.1-0.1-0.2,0-0.4c0-0.4,0.2-0.8,0.6-1.2c0.5-0.5,1-0.9,1.6-1.4c0.6-0.5,1.1-0.8,1.5-1c0,0,0,0,0,0
	c-0.2,0-0.5,0-1-0.1c-0.5-0.1-0.8-0.1-1-0.1c-0.3,0-0.5,0.1-0.7,0.2c-0.2,0.1-0.3,0.2-0.3,0.2c-0.1,0-0.1-0.1-0.2-0.2
	c0-0.1-0.1-0.2,0-0.3c0-0.3,0.2-0.7,0.4-1c0.2-0.3,0.6-0.5,1.1-0.5c0.3,0,0.7,0,1.2,0.2c0.5,0.1,1,0.2,1.3,0.2c0.2,0,0.4,0,0.5-0.1
	c0.1-0.1,0.2-0.1,0.3-0.2c0.1-0.1,0.1-0.1,0.1-0.1c0.1,0,0.1,0.1,0.2,0.2c0.1,0.1,0.1,0.2,0.1,0.4c0,0.3-0.2,0.7-0.5,0.9
	c-0.5,0.5-1,1-1.6,1.5c-0.6,0.5-1.1,0.8-1.5,1v0c0.1,0,0.3,0,0.7,0.1c0.4,0.1,0.8,0.1,1.1,0.1c0.3,0,0.6-0.1,0.9-0.2
	c0.2-0.1,0.4-0.1,0.4-0.1C61,6.3,61.1,6.4,61.1,6.6"/>
<path class="st2" d="M65.1,3.7c-0.2,0.3-0.4,0.7-0.4,1.2c0.2,0,0.4,0,0.6,0c0.4,0,0.7-0.1,1-0.3c0.3-0.2,0.4-0.4,0.5-0.7
	c0-0.2,0-0.4-0.2-0.5c-0.1-0.1-0.3-0.2-0.6-0.2C65.6,3.2,65.4,3.4,65.1,3.7 M68.1,6.4c0,0.1-0.1,0.3-0.2,0.4
	c-0.1,0.2-0.3,0.4-0.5,0.5c-0.2,0.2-0.5,0.4-0.8,0.5c-0.3,0.1-0.7,0.2-1.1,0.2c-0.9,0-1.5-0.2-2-0.8c-0.5-0.5-0.7-1.2-0.6-2.1
	c0.1-0.9,0.4-1.6,1-2.1c0.6-0.5,1.3-0.8,2.2-0.8c0.8,0,1.3,0.2,1.7,0.5c0.4,0.4,0.5,0.7,0.5,1.2c-0.1,0.6-0.4,1.1-0.9,1.4
	c-0.5,0.3-1.1,0.4-1.7,0.5c-0.2,0-0.4,0-0.5,0c-0.2,0-0.3,0-0.5-0.1c-0.1,0-0.2,0-0.2,0c0,0.4,0.1,0.7,0.4,1C65.3,6.9,65.7,7,66.1,7
	c0.3,0,0.7-0.1,0.9-0.2c0.3-0.1,0.5-0.2,0.7-0.3c0.2-0.1,0.3-0.2,0.3-0.2C68.1,6.3,68.2,6.4,68.1,6.4"/>
<path class="st2" d="M73.3,6.9c0.1,0,0.2,0,0.2,0c0.1,0,0.1,0,0.1,0.1c0,0.2-0.2,0.5-0.6,0.7c-0.4,0.2-0.8,0.4-1.2,0.4
	c-0.5,0-0.9-0.2-1.2-0.5c-0.2-0.3-0.3-0.8-0.2-1.5c0.1-1,0.2-2,0.4-3c-0.2,0-0.4,0-0.6,0c0,0,0,0,0,0l0.1-0.7c0,0,0,0,0.1-0.1
	c0.2,0,0.4,0,0.6,0C70.9,1.9,71,1.5,71,1c0,0,0-0.1,0.1-0.1c0.3-0.1,0.6-0.1,0.8-0.1c0.3,0,0.6,0,0.8,0.1c0,0,0,0,0,0.1
	c-0.1,0.4-0.1,0.9-0.2,1.3c0.4,0,0.9,0,1.4,0c0,0,0,0,0,0v0c0,0.2-0.1,0.4-0.1,0.6c0,0,0,0,0,0.1c-0.4,0-0.9,0-1.3,0
	c-0.1,0.8-0.2,1.6-0.3,2.4c-0.1,0.5,0,0.9,0.1,1.1C72.4,6.9,72.6,7,73,7C73.1,7,73.2,7,73.3,6.9"/>
<path class="st2" d="M79.5,3.7c-0.3-0.3-0.4-0.7-0.4-1.2c0-0.8,0.4-1.4,1.2-1.8c0.8-0.4,1.8-0.6,3-0.5c0.3,0,0.8,0.1,1.6,0.1
	c0.8,0.1,1.3,0.1,1.6,0.1c0.4,0,0.7,0,1-0.1c0.3-0.1,0.4-0.1,0.5-0.2c0.1-0.1,0.2-0.1,0.2-0.1c0.1,0,0.2,0.1,0.3,0.3
	c0.1,0.2,0.1,0.3,0.1,0.5c0,0.4-0.2,0.8-0.5,1c-0.3,0.2-0.7,0.3-1.3,0.3c-0.2,0-0.4,0-0.6-0.1c-0.2,0-0.4-0.1-0.5-0.1
	c-0.1,0-0.3-0.1-0.6-0.1c-0.3-0.1-0.4-0.1-0.6-0.1c-0.1,0.6-0.2,1.2-0.3,1.7c0.6,0,1.1,0.1,1.5,0.1c0.3,0,0.6,0,0.9,0
	c0.3,0,0.4,0,0.4,0c0.1,0,0.1,0.1,0.1,0.3c0,0.3-0.2,0.6-0.5,0.8c-0.3,0.2-0.6,0.3-1.1,0.3c-0.4,0-0.9-0.1-1.5-0.2
	C84,5,84,5.1,84,5.3c0,0.5,0.1,0.9,0.3,1.2c0.3,0.3,0.7,0.4,1.2,0.4c0.2,0,0.5,0,0.8-0.1c0.3-0.1,0.5-0.1,0.8-0.2s0.5-0.2,0.6-0.2
	c0.1,0,0.1,0,0.1,0c0,0,0,0.1,0,0.2c-0.1,0.2-0.3,0.5-0.5,0.7c-0.3,0.3-0.6,0.5-1.1,0.7c-0.5,0.2-1,0.3-1.5,0.3
	c-0.9,0-1.6-0.3-2.1-0.8c-0.5-0.5-0.6-1.2-0.5-2.2c0.1-0.4,0.3-1.7,0.6-3.9c-0.5,0-0.9,0.1-1.2,0.3C81.2,2,81,2.3,81,2.7
	c0,0.2,0,0.4,0.1,0.5c0.1,0.2,0.1,0.3,0.2,0.4c0.1,0.1,0.1,0.1,0.1,0.2c0,0.1-0.1,0.2-0.3,0.3c-0.2,0.1-0.4,0.1-0.6,0.1
	C80.1,4.2,79.7,4,79.5,3.7"/>
<path class="st2" d="M90.6,3.6c-0.2,0-0.4,0-0.6,0l0,0c0,0,0,0,0,0c0-0.2,0.1-0.4,0.1-0.7l0.1,0c0.2,0,0.4,0,0.6,0
	c0.1-0.3,0.1-0.6,0.2-0.9c0.2-1.3,1-2,2.2-1.9c0.4,0,0.7,0.1,1,0.4c0.3,0.2,0.4,0.4,0.4,0.6c0,0.1-0.1,0.1-0.2,0.1
	c0,0-0.1,0-0.3-0.1s-0.3-0.1-0.5-0.1c-0.3,0-0.6,0.1-0.7,0.3c-0.1,0.2-0.3,0.5-0.3,0.9L92.4,3c0.4,0,0.8,0,1.2,0.1l0,0l0,0
	c0,0.2-0.1,0.4-0.1,0.6c0,0,0,0-0.1,0.1c-0.4,0-0.8,0-1.2-0.1c-0.3,1.6-0.5,3.1-0.8,4.7c0,0,0,0,0,0.1l0,0h0c-0.2,0-0.5,0.1-0.8,0
	c-0.3,0-0.5-0.1-0.8-0.1c0,0,0,0,0-0.1C90,6.7,90.3,5.2,90.6,3.6"/>
<path class="st2" d="M99.2,8.5C98.7,8.9,98,9,97.1,9c-0.4,0-0.7-0.1-1-0.2c-0.3-0.1-0.6-0.3-0.8-0.6C95,7.9,95,7.5,95,7.2
	c0-0.3,0.1-0.5,0.4-0.7c0.2-0.2,0.5-0.3,0.8-0.2c0.2,0,0.3,0.1,0.5,0.1c0.1,0.1,0.2,0.1,0.2,0.2c0,0,0,0.1-0.1,0.3
	c-0.1,0.2-0.1,0.3-0.1,0.4c0,0.2,0,0.4,0.1,0.5C96.8,7.9,97,8,97.2,8c0.3,0,0.5,0,0.7-0.2c0.2-0.1,0.3-0.3,0.3-0.6
	c0-0.1,0-0.3-0.2-0.5c-0.1-0.2-0.2-0.4-0.4-0.5c-0.2-0.2-0.3-0.4-0.5-0.6c-0.2-0.2-0.3-0.4-0.4-0.7c-0.1-0.2-0.1-0.5-0.1-0.8
	c0-0.3,0.2-0.6,0.5-0.9c0.3-0.2,0.7-0.3,1.1-0.3c0.2,0,0.4,0.1,0.6,0.1c0.2,0.1,0.3,0.2,0.4,0.2c0.1,0.1,0.2,0.1,0.2,0.2
	c0,0.1,0,0.1-0.1,0.2c-0.2,0-0.4,0-0.6,0.1c-0.1,0.1-0.2,0.2-0.2,0.4c0,0.2,0,0.4,0.2,0.6c0.1,0.2,0.2,0.4,0.4,0.5
	c0.2,0.2,0.3,0.3,0.5,0.5c0.2,0.2,0.3,0.4,0.4,0.6c0.1,0.2,0.1,0.4,0.1,0.7C100,7.6,99.7,8.1,99.2,8.5"/>
<path class="st2" d="M105.3,7.8c0.3-0.3,0.5-0.7,0.6-1.2c0.1-0.5,0.1-0.9,0-1.3c-0.1-0.4-0.4-0.6-0.7-0.6c-0.3,0-0.6,0.1-0.9,0.4
	c-0.3,0.3-0.5,0.7-0.6,1.2c-0.1,0.5-0.1,1,0,1.3c0.1,0.3,0.4,0.5,0.7,0.6C104.7,8.3,105,8.2,105.3,7.8 M107.3,8.3
	c0,0.1,0.1,0.2,0.1,0.3c0.1,0.1,0.1,0.1,0.3,0.2c0.1,0,0.1,0.1,0.1,0.1c0,0.2-0.2,0.4-0.5,0.5c-0.3,0.2-0.6,0.2-0.9,0.2
	c-0.3,0-0.6-0.2-0.7-0.4c-0.2-0.2-0.2-0.5-0.2-0.9l0,0c-0.2,0.3-0.5,0.6-0.9,0.8c-0.3,0.2-0.7,0.2-1.1,0.2c-0.7-0.1-1.1-0.4-1.4-1
	s-0.4-1.3-0.2-2.1c0.2-0.8,0.5-1.4,1-2c0.5-0.5,1.1-0.7,1.8-0.7c0.8,0.1,1.3,0.4,1.5,1.1l0,0c0.1-0.3,0.2-0.5,0.2-0.8
	c0,0,0,0,0.1-0.1c0.3,0,0.5,0,0.8,0c0.3,0,0.6,0.1,0.8,0.1c0,0,0.1,0,0.1,0.1c-0.3,1.2-0.6,2.5-0.8,3.6C107.3,8,107.3,8.2,107.3,8.3
	"/>
<path class="st2" d="M110.5,6.1c0.1-0.3,0.1-0.5,0-0.7c-0.1-0.1-0.2-0.2-0.3-0.3c0,0-0.1-0.1-0.1-0.1c0-0.1,0.2-0.3,0.5-0.5
	c0.3-0.2,0.6-0.3,1-0.2c0.3,0,0.5,0.1,0.7,0.3c0.1,0.2,0.2,0.4,0.2,0.7c0,0.1,0,0.2-0.1,0.4l0,0c0.3-0.4,0.6-0.7,1.1-0.9
	c0.4-0.2,0.8-0.3,1.2-0.2c0.5,0,0.8,0.2,1,0.5c0.2,0.3,0.2,0.8,0.1,1.3c-0.1,0.5-0.3,1.2-0.5,2.2c-0.1,0.2-0.1,0.4,0,0.6
	c0,0.1,0.1,0.2,0.1,0.3c0.1,0.1,0.1,0.1,0.3,0.2c0.1,0,0.1,0.1,0.1,0.1c0,0.1-0.2,0.3-0.5,0.5c-0.3,0.2-0.6,0.3-0.9,0.2
	c-0.4,0-0.6-0.2-0.8-0.4c-0.2-0.2-0.2-0.5-0.1-0.9c0.2-0.8,0.4-1.7,0.6-2.5c0.1-0.3,0.1-0.6,0-0.7c-0.1-0.2-0.2-0.2-0.4-0.2
	c-0.3,0-0.6,0.1-0.9,0.5c-0.3,0.3-0.5,0.8-0.7,1.3c-0.2,0.8-0.4,1.7-0.6,2.5c0,0,0,0,0,0c0,0,0,0,0,0l0,0c-0.2,0-0.5,0-0.8,0
	c-0.3,0-0.5-0.1-0.8-0.2c0,0,0-0.1,0-0.1C109.9,8.6,110.2,7.4,110.5,6.1"/>
<path class="st2" d="M120,6.6c-0.3,0.3-0.5,0.7-0.6,1.1c0.2,0.1,0.4,0.1,0.6,0.1c0.4,0,0.7,0,1-0.1c0.3-0.1,0.5-0.3,0.5-0.6
	c0.1-0.2,0-0.4-0.1-0.5c-0.1-0.2-0.3-0.3-0.6-0.3C120.6,6.2,120.3,6.3,120,6.6 M122.6,9.7c0,0.1-0.1,0.3-0.3,0.4
	c-0.1,0.2-0.3,0.3-0.6,0.5c-0.2,0.2-0.5,0.3-0.9,0.4c-0.4,0.1-0.7,0.1-1.1,0.1c-0.9-0.1-1.5-0.4-1.9-1c-0.4-0.6-0.5-1.3-0.3-2.2
	c0.2-0.9,0.7-1.5,1.3-2c0.7-0.5,1.5-0.6,2.3-0.5c0.8,0.1,1.3,0.3,1.6,0.7c0.3,0.4,0.4,0.8,0.3,1.2c-0.2,0.6-0.5,1-1.1,1.2
	c-0.5,0.2-1.1,0.3-1.7,0.2c-0.2,0-0.4-0.1-0.5-0.1s-0.3-0.1-0.5-0.1c-0.1,0-0.2-0.1-0.2-0.1c-0.1,0.4,0,0.7,0.3,1
	c0.2,0.3,0.6,0.4,1,0.5c0.3,0,0.7,0,1,0c0.3-0.1,0.5-0.1,0.7-0.2c0.2-0.1,0.3-0.1,0.3-0.1C122.7,9.6,122.7,9.7,122.6,9.7"/>
<path class="st2" d="M128.4,11.6c-0.6,0.3-1.3,0.5-2.1,0.3c-0.4-0.1-0.7-0.2-1-0.3c-0.3-0.1-0.6-0.4-0.8-0.7c-0.2-0.3-0.3-0.6-0.2-1
	c0.1-0.3,0.2-0.5,0.4-0.6c0.2-0.2,0.5-0.2,0.8-0.2c0.2,0,0.3,0.1,0.4,0.2c0.1,0.1,0.2,0.2,0.1,0.2c0,0,0,0.1-0.1,0.3
	c-0.1,0.1-0.1,0.3-0.2,0.4c0,0.2,0,0.4,0.1,0.5c0.1,0.2,0.3,0.3,0.5,0.3c0.3,0.1,0.5,0,0.7-0.1c0.2-0.1,0.3-0.3,0.4-0.5
	c0-0.1,0-0.3-0.1-0.5c-0.1-0.2-0.2-0.4-0.4-0.6c-0.1-0.2-0.3-0.4-0.4-0.6c-0.1-0.2-0.3-0.4-0.3-0.7c-0.1-0.3-0.1-0.5-0.1-0.8
	c0-0.3,0.2-0.6,0.6-0.8c0.3-0.2,0.7-0.3,1.1-0.2c0.2,0,0.4,0.1,0.6,0.2c0.2,0.1,0.3,0.2,0.4,0.3c0.1,0.1,0.1,0.1,0.2,0.2
	c0,0.1,0,0.1-0.1,0.2c-0.2,0-0.4,0-0.6,0.1c-0.2,0.1-0.2,0.2-0.3,0.4c0,0.2,0,0.4,0.1,0.6c0.1,0.2,0.2,0.4,0.4,0.5
	c0.1,0.2,0.3,0.3,0.4,0.5c0.1,0.2,0.2,0.4,0.3,0.6c0.1,0.2,0.1,0.4,0.1,0.7C129.2,10.8,128.9,11.3,128.4,11.6"/>
<path class="st2" d="M132.7,5.9c-0.2-0.2-0.2-0.4-0.2-0.7c0.1-0.2,0.2-0.4,0.5-0.6c0.3-0.1,0.6-0.2,0.9-0.1c0.3,0,0.5,0.2,0.7,0.4
	s0.2,0.4,0.1,0.7c-0.1,0.2-0.2,0.4-0.5,0.6c-0.3,0.1-0.6,0.2-0.9,0.1C133.1,6.2,132.9,6.1,132.7,5.9 M131.1,12.3
	c-0.2-0.2-0.2-0.5-0.1-0.9c0.4-1.4,0.8-2.9,1.2-4.3c0,0,0,0,0.1,0c0.3,0,0.6,0,0.8,0c0.3,0.1,0.6,0.1,0.8,0.2c0,0,0,0.1,0,0.1
	c-0.3,1.2-0.7,2.4-1,3.6c-0.1,0.2-0.1,0.4-0.1,0.6c0,0.1,0.1,0.2,0.1,0.3c0.1,0.1,0.1,0.1,0.3,0.2c0.1,0,0.1,0.1,0.1,0.1
	c0,0.1-0.2,0.3-0.5,0.5c-0.3,0.2-0.6,0.2-0.9,0.2C131.5,12.7,131.3,12.5,131.1,12.3"/>
</svg>
