<?xml version="1.0" encoding="utf-8"?>
<!-- Generator: Adobe Illustrator 21.1.0, SVG Export Plug-In . SVG Version: 6.00 Build 0)  -->
<svg version="1.1" id="Layer_1" xmlns="http://www.w3.org/2000/svg" xmlns:xlink="http://www.w3.org/1999/xlink" x="0px" y="0px"
	 viewBox="0 0 85 60" style="enable-background:new 0 0 85 60;" xml:space="preserve">
<style type="text/css">
	.st0{fill:#191917;}
	.st1{fill:#FF5000;}
</style>
<g>
	<g>
		<path class="st0" d="M5.9,52.6H5.5c-0.3,0-0.5-0.2-0.5-0.5V49c0-2-0.8-2.3-1.6-2.3c-0.6,0-1.4,0.3-1.9,0.8v4.6
			c0,0.3-0.2,0.5-0.5,0.5H0.5c-0.3,0-0.5-0.2-0.5-0.5V37.6c0-0.3,0.2-0.5,0.5-0.5H1c0.3,0,0.5,0.2,0.5,0.5v8.3
			c0.5-0.3,1.2-0.5,1.9-0.5c2,0,3,1.2,3,3.5v3.1C6.4,52.4,6.2,52.6,5.9,52.6z"/>
	</g>
	<g>
		<path class="st1" d="M42.3,0C30.4,0,20.8,9.3,20.8,20.6c0,11.4,9.6,20.6,21.5,20.6c11.9,0,21.5-9.3,21.5-20.6
			C63.8,9.3,54.1,0,42.3,0z M42.3,40c-11.1,0-20.1-8.7-20.1-19.3c0-10.7,9-19.3,20.1-19.3c11.1,0,20.1,8.7,20.1,19.3
			C62.4,31.3,53.4,40,42.3,40z"/>
		<path class="st1" d="M42.8,45.6h-0.5c-0.3,0-0.5,0.2-0.5,0.5v6.1c0,0.3,0.2,0.5,0.5,0.5h0.5c0.3,0,0.5-0.2,0.5-0.5v-6.1
			C43.4,45.8,43.1,45.6,42.8,45.6z"/>
	</g>
	<g>
		<path class="st0" d="M82.3,60c-0.4,0-0.6-0.3-0.6-0.6v-6.8c-2.1-0.4-2.8-2.1-2.8-3.6c0-1.8,1.1-3.6,3.7-3.6c0.9,0,1.7,0.3,2.4,0.9
			c0.1,0.1,0.2,0.2,0.2,0.4c0,0.1-0.1,0.3-0.2,0.3l-0.2,0.2c-0.2,0.2-0.5,0.2-0.7,0c-0.5-0.3-1-0.5-1.5-0.5c-1,0-2.2,0.7-2.2,2.3
			c0,1.6,1.1,2.3,2.2,2.3c0.5,0,1-0.2,1.5-0.6c0.2-0.1,0.5-0.1,0.7,0.1l0.2,0.2c0.1,0,0.1,0.2,0.1,0.3c0,0.1,0,0.3-0.2,0.4
			c-0.6,0.5-1.2,0.8-1.9,0.9l0,6.7C82.9,59.7,82.6,60,82.3,60z"/>
	</g>
</g>
</svg>
