<?xml version="1.0" encoding="utf-8"?>
<!-- Generator: Adobe Illustrator 24.0.1, SVG Export Plug-In . SVG Version: 6.00 Build 0)  -->
<svg version="1.1" id="Layer_1" xmlns="http://www.w3.org/2000/svg" xmlns:xlink="http://www.w3.org/1999/xlink" x="0px" y="0px"
	 viewBox="0 0 465.2 214.6" style="enable-background:new 0 0 465.2 214.6;" xml:space="preserve">
<style type="text/css">
	.st0{fill:#020202;}
</style>
<g>
	<g>
		<path class="st0" d="M79.5,197.6h10.4l-10.8,15.3v1.9h13.4V213H81.6l10.9-15.5v-1.7h-13V197.6z M106.4,214.8h13.4V213h-11.1v-6.9
			h9.5v-1.8h-9.5v-6.7h11.1v-1.8h-13.4V214.8z M138.3,204.9l-5.1-9.1h-2.5l6.4,11.2v7.9h2.3V207l6.4-11.2h-2.5L138.3,204.9z
			 M156.1,197.6h6.2v17.2h2.3v-17.2h6.2v-1.8H156v1.8H156.1z M186.3,193.5v-2H184v2H186.3z M184,214.8h2.3v-19.1H184V214.8z
			 M215.2,211l-11.5-15.2h-2.2v19.1h2.3v-15.3l11.5,15.3h2.2v-19.1h-2.3V211z M237.6,204.9l-5.1-9.1H230l6.4,11.2v7.9h2.3V207
			l6.4-11.2h-2.5L237.6,204.9z M261.5,195.8l-7.9,19.1h2.5l1.7-4.3h9.4l1.7,4.3h2.5l-7.9-19.1H261.5z M258.4,208.8l4.1-10.1l4,10.1
			H258.4z M290.3,206.6h5.3v1.4c0,1.5-0.3,2.5-1.2,3.5c-1,1.1-2.5,1.6-4.1,1.6c-1.4,0-2.8-0.5-3.7-1.3c-1.4-1.2-1.5-2.5-1.5-6.5
			s0.2-5.3,1.5-6.5c0.9-0.9,2.3-1.4,3.7-1.4c2.7,0,4.6,1.5,5.2,3.9h2.3c-0.6-3.3-3.4-5.7-7.5-5.7c-2.2,0-4.1,0.7-5.5,2
			c-2,1.8-2,3.7-2,7.7s0,5.9,2,7.7c1.5,1.3,3.4,2,5.5,2c2.2,0,4.2-0.7,5.8-2.2c1.3-1.3,1.8-2.7,1.8-4.9v-3h-7.6L290.3,206.6
			L290.3,206.6z M295.3,190h-1.7c-0.2,1.4-1.5,2.2-3.3,2.2s-3.1-0.8-3.3-2.2h-1.7c0.2,2.4,1.9,3.7,5,3.7S295.1,192.4,295.3,190z
			 M314.7,195.8h-2.3v19.1h13.3V213h-11V195.8z M344,195.8l-7.9,19.1h2.5l1.7-4.3h9.4l1.7,4.3h2.5l-7.9-19.1H344z M340.9,208.8
			l4.1-10.1l4,10.1H340.9z M381.1,201.1c0-3.3-2.6-5.3-6.4-5.3h-8.3v19.1h2.3v-8.5h5.2l4.9,8.5h2.7l-5.1-8.6
			C379.2,205.7,381.1,203.9,381.1,201.1z M368.7,204.6v-7h5.8c2.5,0,4.3,1.2,4.3,3.5s-1.8,3.5-4.3,3.5H368.7z M395.4,214.8h2.3
			v-19.1h-2.3V214.8z M211,63.1c-0.3,0.1-2.7,0.2-7.6,3.4C206,65.2,208.5,64.1,211,63.1z M261.7,35.4c1.1,1.5,2.2,3.1,3.3,4.9
			C263.2,36.3,261.7,35.5,261.7,35.4z M265.1,28.4l-3.9,0.6C261.1,29,262.3,29.2,265.1,28.4z M276.6,96.4V0.1h-88.1v96.3H276.6z
			 M266.5,89.4h-0.8c0-0.3,0.3-0.6,0.4-0.6c0.2-0.2,0.5-0.6,0.8-0.8c0,0,0.1,0.5,0.1,0.9C266.9,89,266.5,89.3,266.5,89.4z
			 M269.6,89.4h-1.9c0-0.1-0.4-0.3-0.4-0.4c0.2-0.7,0.3-1.7,0.3-1.7c0.3-0.2,0.5-0.4,0.7-0.6c0,0,0.2,0.3,0.2,0.7
			c0,0.6-0.2,1.7-0.2,1.7s0.4-0.8,0.5-1.5s0.4-1.4,0.5-1.5c0,0,0.2-0.2,0.3-0.2V89.4z M269.1,85.3c0.1-0.1,0.4-0.1,0.5-0.2v0.4
			c-0.5,0.6-1.8,1.3-3,2.2c-0.6,0.4-1.1,1.3-1.7,1.7h-0.4c1.1-0.9,1-1.7,1-1.7c-0.6,0.4-1.6,1.2-2.2,1.7H259
			c0.1-0.1,0.3-0.4,0.5-0.5c0.1-0.1,1.2-0.2,2.2-0.2c0.9,0,1.6,0.2,1.6,0.2s-0.7-0.5-1.3-0.6c-0.9-0.1-1.7,0-1.7,0
			c0.3-0.2,0.7-0.4,1.1-0.6c0.1,0,0.9-0.1,1.7-0.1c0.8,0,1.7,0.2,1.7,0.2s-0.2-0.2-0.7-0.3c-0.7-0.2-1.7-0.3-1.9-0.2
			c0.2-0.1,0.5-0.2,0.7-0.3c0.1,0,0.9-0.1,1.7-0.2c0.7,0,1.4,0,1.4,0s-0.2-0.1-0.7-0.2c-0.6-0.1-1.5,0-1.4-0.1
			c0.3-0.1,0.6-0.2,0.9-0.3c0.1,0,0.7-0.1,1.2-0.1s1,0,1,0s-0.1-0.1-0.4-0.2s-0.7-0.1-0.6-0.1s0.2-0.1,0.3-0.1
			c0.1,0,0.5-0.1,0.8-0.2c0.4-0.1,0.8-0.1,0.8-0.1s-0.2-0.1-0.4-0.1c-0.2,0-0.4,0.1-0.4,0c1.1-0.5,2.4-0.5,2.4-0.5s-1.4,0.7-2.2,1.5
			c-0.2,0.2-0.4,0.5-0.6,0.6C267.1,86.6,268.4,86,269.1,85.3z M242.1,80.2c0,0,0.6,0.2,1.6,0.4c0.2,0,0.4,0.1,0.6,0.1
			c0.1,0,0.1,0.4-0.5,0.7c-1.1,0.6-3.2,1.3-3.2,1.3s1.8-0.2,3.3-0.6c1.3-0.4,2.3-0.9,2.4-0.9c0.1,0,0.2,0,0.3,0.1
			c0.4,0.1,0.9,0.2,1.4,0.3c0.2,0-0.1,0.6-0.9,1.1c-1.1,0.6-2.9,1.2-2.9,1.2s1.5-0.1,3-0.6c1.4-0.5,2.8-1.2,3-1.2
			c0.6,0.1,1.3,0.2,1.9,0.3c0.2,0,0.3,0,0.5,0.1c0.1,0-0.8,0.6-1.9,1.1c-1.7,0.7-3.8,1.5-3.8,1.5s2-0.2,4-0.8c2-0.6,4-1.5,4.3-1.5
			c0.7,0.1,1.3,0.1,2,0.2c0.1,0-0.4,0.5-1.3,0.9c-1.7,0.8-4.2,1.7-4.2,1.7s2.2-0.5,4.3-1.1c1.8-0.6,3.4-1.3,3.6-1.3
			c0.8,0.1,1.5,0.1,2.2,0.1c0.1,0-0.5,0.5-1.5,1c-1.5,0.7-3.5,1.5-3.5,1.5s1.7-0.3,3.4-0.9c1.8-0.6,3.5-1.5,3.6-1.5
			c2,0.1,3.3,0.1,3.3,0.1s-10.7,5.4-22.3,2.4c-5.4-1.5-8.5-4.6-9.9-6.6c-0.7-1-0.9-1.8-0.9-1.8s0.5-0.7,1.5-1.4
			c0.1-0.1,1-0.1,1.6,0.2c0.8,0.4,1.4,1.2,1.4,1.2s0.1-0.5-0.3-0.9c-0.4-0.5-1.3-1.1-1.1-1.1c0.3-0.1,0.6-0.2,1-0.3
			c0.1,0,1.6,0.7,2.6,1.4c0.7,0.6,1,1.2,1,1.2s0.1-0.5-0.4-1.2c-0.6-0.8-1.6-1.8-1.5-1.8c0.4-0.1,0.8-0.1,1.3-0.2
			c0.1,0,1.6,0.7,2.9,1.9c0.9,0.8,1.7,2.1,1.6,2.1c0,0-0.2-1.6-0.7-2.3c-0.9-1.2-2.3-1.8-2.1-1.8c0.5,0,1,0,1.5,0
			c0.2,0,1.9,1.2,3.2,2.6c0.8,1,1.3,2.3,1.3,2.3s0-1.5-0.4-2.2c-0.8-1.4-2.3-2.6-2.1-2.5c0.5,0.1,1,0.1,1.5,0.2
			c0.2,0,1.9,1.3,3.1,2.5c1,1.1,1.5,2.2,1.5,2.2s-0.1-1.3-0.6-2.2c-0.8-1.2-2.1-2.1-1.8-2.1c0.8,0.2,1.7,0.4,2.5,0.7
			c0.1,0,1.3,0.9,2.2,2c0.8,1,1.4,2.2,1.4,2.2s0.1-0.5-0.1-1.1c-0.4-1-1.2-2.5-1.6-2.6c0.5,0.2,1,0.3,1.6,0.5
			c0.1,0.1,1.3,0.9,2.2,1.8c0.8,0.8,1.4,1.7,1.4,1.7s0.1-0.4-0.3-1c-0.5-0.8-1.6-1.9-1.3-1.8c0.6,0.2,1.2,0.4,1.8,0.6
			c0.2,0.1,1.1,0.7,1.7,1.4c0.6,0.6,1,1.2,1,1.2s0.1-0.3,0-0.7c-0.1-0.4-0.5-1-0.3-0.9s0.4,0.1,0.5,0.2c0.2,0.1,0.8,0.4,1.4,0.8
			s1.2,0.9,1.2,0.9s-0.1-0.3-0.3-0.6c-0.2-0.2-0.6-0.5-0.5-0.4c2.4,0.8,3.9,1.3,3.9,1.3s-3.5,0.1-6.2,0c-0.8,0-1.6,0-2.2,0
			c0.8,0.1,3.3,0.5,5.6,0.6c1.6,0.1,3.6,0.2,4.5,0.2c-1.5,0.2-6.2,0.5-12.1-0.1c-3.1-0.3-6.5-0.6-9.5-1.3c-3.3-0.7-6.3-1.6-6.3-1.6
			s-1.6,1.7-3.5,1.5C238.2,80.9,240.1,81.3,242.1,80.2z M269.6,78.5c-0.6-0.4-1.9-1.1-2.5-1.5c-0.5-0.3-1-0.6-1.3-0.9
			c0.4,0.4,2.1,1.5,3.4,2.5c0.1,0,0.3,0.2,0.4,0.3v0.4c-1.2-0.8-3.4-2.1-5.2-3.6c-1.7-1.4-3.6-2.9-5.1-4.5c-1.7-1.7-3.1-3.4-3.1-3.4
			s-1.6,0.2-2.7-0.7c0,0,0.9,1,2.6,1.3c0,0,0.3,0.3,0.8,0.9c0.1,0.1,0.2,0.2,0.3,0.3c0.1,0.1-0.1,0.2-0.6,0.1
			c-0.9-0.2-2.4-0.7-2.4-0.7s1.2,0.7,2.2,1.1c0.9,0.4,1.7,0.5,1.8,0.6c0,0.1,0.1,0.1,0.1,0.2c0.2,0.2,0.5,0.5,0.7,0.7
			c0.1,0.1-0.3,0.3-1,0.1c-0.9-0.1-2.2-0.6-2.2-0.6s1,0.6,2,0.9c1,0.4,2.2,0.5,2.2,0.6c0.3,0.3,0.7,0.6,1,0.9
			c0.1,0.1,0.2,0.2,0.3,0.2c0.1,0.1-0.7,0-1.6-0.2c-1.3-0.3-2.8-0.8-2.8-0.8s1.3,0.7,2.7,1.3c1.4,0.5,3,0.9,3.1,1
			c0.4,0.3,0.7,0.6,1.1,0.9c0.1,0.1-0.4,0.1-1.2-0.1c-1.3-0.3-3.1-0.8-3.1-0.8s1.5,0.7,3,1.2c1.3,0.4,2.5,0.7,2.6,0.8
			c0.4,0.3,0.8,0.7,1.2,1c0.1,0.1-0.5,0.1-1.2-0.1c-1.1-0.2-2.6-0.6-2.6-0.6s1.1,0.5,2.3,0.9c1.2,0.4,2.6,0.6,2.7,0.6
			c0.7,0.5,1.8,0.9,2.1,1.1V80c-1.5-0.3-9-2-14.3-7.9c-2.7-3.1-3.2-5.9-3.2-7.4c0-0.8,0.2-1.2,0.2-1.2s0.6-0.2,1.5,0
			c0.1,0,0.6,0.3,0.9,0.7c0.3,0.5,0.3,1.1,0.3,1.1s0.2-0.2,0.2-0.6s-0.3-1-0.2-1c0.2,0.1,0.5,0.2,0.7,0.3c0.1,0,0.7,1,0.9,1.7
			c0.2,0.6,0.1,1,0.1,1s0.2-0.2,0.2-0.7c0-0.6-0.2-1.5-0.1-1.5c0.3,0.1,0.5,0.3,0.8,0.4c0.1,0.1,0.6,1,0.9,2.1
			c0.2,0.7,0.1,1.7,0.1,1.7s0.6-0.9,0.5-1.4c0-1-0.6-1.8-0.5-1.7c0.3,0.2,0.6,0.4,0.9,0.6c0.1,0.1,0.7,1.4,0.8,2.6
			c0.1,0.8-0.2,1.7-0.2,1.7s0.6-0.8,0.7-1.3c0.1-1-0.3-2.2-0.2-2.1c0.3,0.2,0.5,0.5,0.8,0.7c0.1,0.1,0.6,1.4,0.8,2.5
			c0.2,0.9,0,1.7,0,1.7s0.5-0.7,0.5-1.3c0-0.9-0.3-1.9-0.2-1.8c0.4,0.4,0.8,0.9,1.2,1.3c0.1,0.1,0.4,1,0.5,1.9
			c0.1,0.8-0.1,1.7-0.1,1.7s0.2-0.2,0.4-0.6c0.2-0.7,0.3-1.7,0.1-2c0.2,0.3,0.5,0.6,0.7,0.9c0.1,0.1,0.4,1,0.6,1.8s0.1,1.4,0.1,1.4
			s0.2-0.1,0.3-0.6c0-0.6-0.2-1.6-0.1-1.4c0.3,0.3,0.5,0.7,0.8,1c0.1,0.1,0.3,0.8,0.4,1.3s0.1,1,0.1,1s0.2-0.1,0.3-0.4
			c0.1-0.3,0.1-0.7,0.2-0.6s0.2,0.2,0.2,0.3c0.1,0.1,0.7,0.5,0.9,0.9c0.2,0.4,0.1,0.7,0.1,0.7s0.4,0.1,0.4,0L269.6,78.5L269.6,78.5z
			 M269.6,7.1v10.1c-1.2,0.8-5,3.3-12,7.2c-0.2,0.1-0.5,0.2-0.7,0.4c-3.5-2.4-3-12.8-3-12.7c0-0.5,0-1-0.1-1.6
			c0.2,0.1,0.3,0.3,0.4,0.4c-0.6,2.1,0.9,4.7,3.5,6.1c3.1,1.7,7.2,1.7,8.6-0.2s-0.1-5.2-3-7.1c-2.8-1.9-7-2-8.6,0.1l0,0l0,0
			c0,0-0.6,0.4-0.9-0.2l-0.1,0.1c-0.1-0.8-0.2-1.8-0.5-2.6H269.6z M265.2,16.3l-0.1,0.1c-0.2,0.1-0.3,0.1-0.5,0.1
			c-0.3,0-0.7-0.3-1.1-0.6c-0.8-0.7-1.7-1.7-3-2.4c-1.2-0.6-2.7-0.9-3.8-1.2c-0.7-0.2-1.2-0.4-1.4-0.6c0,0,0,0,0-0.1c0,0,0,0,0-0.1
			c0,0,0-0.1-0.1-0.1c0-0.1,0-0.2,0-0.3c0-0.2,0.1-0.4,0.3-0.7c0.1-0.1,0.2-0.2,0.3-0.3s0.1-0.1,0.2-0.1s0.1-0.1,0.2-0.1
			c0.2-0.2,0.5-0.3,0.8-0.4c0.6-0.2,1.2-0.4,1.9-0.4c1.4,0,2.8,0.4,4,1.2c0.6,0.4,1.1,0.8,1.6,1.3c0.1,0.1,0.1,0.1,0.2,0.2
			c0.1,0.1,0.1,0.1,0.2,0.2c0.1,0.1,0.2,0.2,0.3,0.4c0.2,0.3,0.3,0.5,0.5,0.8c0.5,1,0.7,2.1,0.1,3c-0.1,0.1-0.1,0.2-0.2,0.3
			C265.3,16.2,265.3,16.3,265.2,16.3z M265.3,16.7c0,0.1-0.1,0.2-0.2,0.3c-0.3,0.1-0.6,0.3-0.8,0.4c-0.1,0-0.1,0-0.2,0.1
			c-0.1,0-0.1,0-0.2,0.1c-0.1,0-0.3,0.1-0.4,0.1c-0.6,0.1-1.1,0.1-1.6-0.1c-0.4-0.1-0.6-0.3-0.8-0.4c-0.1-0.1-0.1-0.2-0.2-0.3v-0.1
			v-0.1c0-0.2,0.1-0.4,0.2-0.4c0,0,0,0,0.1,0l0,0l0,0c0.1,0,0.1,0,0.2,0h0.1c0,0,0,0,0.1,0c0,0,0,0,0.1,0s0.2,0.1,0.3,0.1
			c1.2,0.5,2.2,1,3.3,0.4h0.1C265.3,16.6,265.3,16.6,265.3,16.7L265.3,16.7L265.3,16.7z M256,29.4c0.2,0.2,0.5,0.5,0.8,0.9
			c-0.1,0.2-0.4,0.5-1,0.7c-1,0.3-1,0.4-2.2,0.9c-3.6,1.7-3.2,3.6-3.2,3.6c1.4,0.3,2.7,0.1,3.6-0.5c1.2-0.7,2.2-2,2.7-2.8
			c0.3-0.5,0.2-0.9,0.3-1c0.1-0.2,0.1-0.3,0.2-0.4c0.7,1.1,1.4,2.4,1.6,2.9c0.6,1.8,0.4,1.9,1.2,4.1c1.4,3.4,3.4,5.2,4.8,6.4
			c0.7,0.6,1.5,0.8,1.9,1.1c0.2,0.1,0.4,0.2,0.5,0.3h0.1c0,0,0,0,0.1,0l0,0c0.3-0.7,0.6-1.5,0.7-2.3c0.1-0.4,0.4-0.9,0.5-1.2
			c0-0.4,0.1-0.8,0.1-1.2c0-1.5-0.2-2.9-0.7-3.9c-1.3-2.6-4.3-4.4-6.1-5.3c-0.7-0.3-1.4-0.5-1.8-0.6c0,0-0.7-0.2-1.4-0.3
			c-0.1,0-0.6-0.5-1.1-1.1c0.1,0,0.2,0.1,0.3,0.1c0.1,0,0.5,0.5,1.3,0.7c1.3,0.3,3.7,0.7,5.6,0.2c1.4-0.4,2.9-1.4,3.9-3
			c0,0-1.7-2.2-6.9-0.4c-1.7,0.6-1.7,0.5-3,1.2c-0.9,0.5-1.5,0.4-1.8,0.3c4.7-2.9,11.6-6.9,12.8-7.7v54.6c-0.8-1.1-2-2.4-3.8-4.8
			c-4.2-5.1-7.9-7.3-10.6-8.2c-1.3-0.5-2.4-0.6-3.2-0.6s-1.2,0.1-1.2,0.1c-0.4,4.1,1,8,3.4,10.6c3.2,3.5,8.5,6.1,12,7.3
			c1.1,0.4,2.6,0.7,3.4,0.7v0.4c-1.6-0.4-3.9-0.9-5.2-1.4c-4.7-1.7-4.2-2.3-9.8-4.3c-17.4-5.7-23.1,1.6-23.1,1.6
			c3.3,5.5,9.2,8.9,13.6,10.1c5.9,1.5,12.7,0,17.5-1.3c2.8-0.8,4.7-1.8,5.1-2s1.4-0.6,1.8-0.7V84c-0.5,0.3-1.6,0.5-2.3,0.8
			c-2.4,1-2.8,0.8-5.7,1.9c-1.8,0.8-3.3,1.9-4.1,2.8h-47.2c0,0,0.4-1.1,0.4-1.2c1.7-4.5,5-13.3,6.9-15.1c0.5-0.5,1.1-1.4,1.6-2.7
			c0.1,0.6,0.2,1.4,0.2,2.1c0,2.5-0.2,2.2-0.1,5.2c0.8,9.4,6.9,10.8,6.9,10.8c2.8-2.5,3.3-5.6,2.8-8.1c-0.7-3.4-3.2-6.5-5.2-8.4
			c-1.2-1.1-2.3-1.7-2.5-1.9c-0.3-0.2-0.6-0.5-0.8-0.7c0.3,0.1,0.6,0.2,0.9,0.3c1.3,0.6,1.2,0.8,2.8,1.5c2.5,1.1,4.4,1,5.8,1
			c0.7,0,1.2-0.3,1.5-0.3c0.2,0,0.3-0.1,0.4-0.1c0,0,0,0,0.1,0l0,0l0,0c-0.2-0.5-0.5-1-0.8-1.5c-0.2-0.2-0.2-0.6-0.4-0.9
			c-0.2-0.2-0.4-0.5-0.6-0.7c-0.8-0.8-1.6-1.4-2.4-1.7c-2.1-0.7-4.5-0.2-5.9,0.2c-0.5,0.2-0.9,0.4-1.2,0.6c0,0-0.3,0.2-0.7,0.4
			c2.2-6.1,4.3-16.1,5.1-20.1c0.2-0.2,0.4-0.4,0.6-0.6l1.7-1.5c0.3-0.3,0.6-0.5,0.7-0.6c0.1,0,0.2-0.1,0.3-0.2
			c0.4,0.6,0.6,1.4,0.6,1.8c-3.4,3.1-3.7,9.4-0.6,14.7c3.5,6.3,11,10.4,15.7,8.2c4.6-2.1,5.7-9.6,2.7-15.8s-10.3-10.6-15.6-8.5l0,0
			l0,0c0,0-1.4,0.1-1.4-1c3-1,8.9-2.4,11.1-3.3c0.3,0.5,0.7,1.3,1.3,2.4c0.2,0.3,0.2,1.7,1.3,3.3c2,2.8,5.9,7,10.6,9.1
			c3.5,1.5,8.3,1.7,13,0.1c0,0,0.6-6.8-12.7-11.5c-4.4-1.4-4.3-1.6-8-2.3c-1.7-0.3-2.8-0.9-3.4-1.4c0.1,0,0.2,0,0.4,0.1
			c0.1,0,0.6,0.4,1.4,0.5c1.4,0.1,3.7,0.1,5.6-0.7c1.4-0.6,2.7-1.9,3.4-3.7c0,0-2-1.9-6.9,0.7c-1.6,0.9-1.6,0.8-2.8,1.7
			c-0.8,0.6-1.4,0.7-1.7,0.6c0.7-0.7,1.4-1.5,2-2.1c0.8-0.7,2.3-2.3,2.3-2.3s2.2-1.9,1.8-1.7c1.3-1.2,2.5-2.2,3.6-2.7
			C252.8,31.3,254.2,30.5,256,29.4z M252.4,34.3c0,0,0.1-0.1,0.3-0.2c0,0,0.1,0,0.1-0.1c0,0,0.1,0,0,0.2s-0.3,0.6-0.3,0.6
			s0.2-0.3,0.4-0.5c0.1-0.2,0.2-0.4,0.2-0.5c0,0,0,0,0.1,0s0.2-0.1,0.3-0.2c0,0,0.1,0.1,0,0.3s-0.2,0.6-0.2,0.6s0.2-0.2,0.4-0.5
			c0.1-0.3,0.2-0.6,0.2-0.6c0.1-0.1,0.2-0.1,0.3-0.2c0,0,0.1,0,0.1-0.1c0,0,0,0.2-0.1,0.4c-0.1,0.3-0.3,0.7-0.3,0.7s0.3-0.3,0.5-0.7
			s0.4-0.7,0.4-0.8c0.1-0.1,0.2-0.2,0.3-0.2c0,0,0,0.1,0,0.3c-0.1,0.3-0.3,0.8-0.3,0.8s0.3-0.4,0.4-0.7c0.2-0.3,0.3-0.6,0.3-0.7
			c0.1-0.1,0.2-0.2,0.3-0.3c0,0,0,0.1-0.1,0.3c-0.1,0.3-0.3,0.7-0.3,0.7s0.2-0.3,0.3-0.6s0.2-0.6,0.3-0.7c0.3-0.2,0.5-0.4,0.5-0.4
			s-0.5,2-2.9,3.3c-1.1,0.6-2,0.6-2.5,0.5c-0.3,0-0.4-0.1-0.4-0.1s0-0.2,0-0.4c0,0,0.1-0.2,0.3-0.2c0.2-0.1,0.4,0,0.4,0
			s-0.1-0.1-0.2-0.1c-0.1,0-0.4,0-0.3,0c0-0.1,0.1-0.1,0.1-0.2c0,0,0.3-0.1,0.6-0.2c0.2,0,0.3,0,0.3,0s-0.1-0.1-0.2-0.1
			c-0.2,0-0.5,0-0.5,0c0.1-0.1,0.1-0.1,0.2-0.2c0,0,0.4-0.1,0.7-0.1s0.6,0,0.6,0s-0.3-0.2-0.5-0.2c-0.3,0-0.6,0.1-0.6,0
			c0.1-0.1,0.2-0.1,0.2-0.2c0,0,0.5-0.1,0.9-0.1c0.3,0,0.6,0.1,0.6,0.1s-0.2-0.2-0.4-0.2c-0.3-0.1-0.7,0-0.7,0
			c0.1-0.1,0.2-0.1,0.3-0.2c0,0,0.5-0.1,0.9-0.1c0.3,0,0.6,0.1,0.6,0.1s-0.2-0.2-0.4-0.2c-0.3-0.1-0.6,0-0.6,0
			c0.2-0.1,0.3-0.2,0.5-0.3c0,0,0.3-0.1,0.6,0c0.3,0,0.6,0.1,0.6,0.1s-0.1-0.1-0.2-0.1c-0.2-0.1-0.6-0.2-0.7-0.1
			c0.1,0,0.2-0.1,0.3-0.1c0,0,0.3-0.1,0.6-0.1s0.5,0,0.5,0s0-0.1-0.2-0.1s-0.5,0-0.5-0.1c0.1-0.1,0.2-0.1,0.4-0.2c0,0,0.3,0,0.5,0
			s0.3,0,0.3,0s0-0.1-0.1-0.1s-0.2-0.1-0.2-0.1h0.1c0,0,0.2-0.1,0.3-0.1s0.3,0,0.3,0H256c-0.1,0-0.2,0-0.1,0
			c0.5-0.2,0.8-0.3,0.8-0.3s-0.5,0.5-0.9,0.8c-0.1,0.1-0.2,0.2-0.3,0.3c0.1-0.1,0.5-0.4,0.9-0.7c0.4-0.3,0.6-0.6,0.6-0.6
			s-0.5,0.7-1.7,1.6c-0.5,0.4-1.1,0.8-1.6,1.2c-0.6,0.4-1.2,0.7-1.2,0.7s0,0.4-0.3,0.7C252,34.9,252.3,34.7,252.4,34.3z M259.6,29.2
			c-0.7,0-1.7,0.1-1.7,0.1s0.4-0.2,1.1-0.4l-0.1,0.1c-0.1,0.1-0.1,0.2-0.1,0.2s0.2-0.1,0.3-0.3c0.2-0.1,0.3-0.2,0.4-0.2
			c0,0,0.1,0,0.1-0.1c0.1,0-0.1,0.1-0.1,0.3c0,0.1,0,0.2,0,0.2s0.1-0.2,0.3-0.3c0.2-0.2,0.4-0.4,0.5-0.4c0.2-0.1,0.3-0.1,0.5-0.2
			c0.1,0-0.2,0.3-0.4,0.5c-0.1,0.2-0.1,0.3-0.1,0.3s0.2-0.2,0.4-0.5c0.3-0.3,0.6-0.5,0.7-0.5c0.1-0.1,0.3-0.1,0.5-0.2
			c-0.1,0-0.4,0.5-0.5,0.7s-0.1,0.3-0.1,0.3s0.2-0.3,0.4-0.6c0.3-0.3,0.6-0.6,0.6-0.6c0.2-0.1,0.5-0.1,0.7-0.2
			c0.1,0-0.3,0.2-0.5,0.6c-0.2,0.2-0.2,0.6-0.2,0.6s0.2-0.3,0.5-0.6c0.3-0.4,0.9-0.7,0.9-0.7c0.1,0,0.3-0.1,0.4-0.1
			s-0.4,0.3-0.6,0.7c-0.1,0.2-0.1,0.6-0.1,0.6s0.2-0.4,0.4-0.7c0.4-0.4,0.9-0.7,0.9-0.7c0.2,0,0.3,0,0.4,0s-0.3,0.2-0.6,0.5
			c-0.1,0.2-0.2,0.6-0.2,0.6s0.2-0.4,0.5-0.6c0.4-0.3,0.8-0.6,0.8-0.6c0.1,0,0.3,0,0.4,0c0,0-0.3,0.3-0.4,0.5s-0.1,0.3-0.1,0.3
			s0.1-0.2,0.3-0.3c0.3-0.2,0.7-0.4,0.7-0.4c0.1,0,0.2,0,0.3,0.1c0,0-0.2,0.2-0.3,0.3c-0.1,0.1-0.1,0.3-0.1,0.3s0.2-0.2,0.4-0.3
			c0.2-0.1,0.4-0.1,0.5-0.1c0.3,0.2,0.4,0.4,0.4,0.4s0,0.2-0.3,0.5c-0.4,0.6-1.3,1.4-3,1.9c-3.6,1-6.3-0.4-6.3-0.4s0.3,0,0.9-0.1
			c0,0,0.5,0.2,1,0.4c0.4,0.1,0.9,0.2,0.9,0.2s-0.6-0.2-1-0.4c-0.3-0.1-0.4-0.3-0.4-0.3c0.2,0,0.4,0,0.6-0.1c0.1,0,0.5,0.2,1,0.3
			c0.6,0.2,1.2,0.3,1.2,0.3s-0.7-0.2-1.2-0.4c-0.3-0.1-0.4-0.2-0.4-0.3c0.2,0,0.4,0,0.6-0.1c0.1,0,0.6,0.2,1.2,0.4
			c0.6,0.1,1.2,0.2,1.2,0.2s-0.6-0.2-1.1-0.4c-0.3-0.1-0.6-0.3-0.5-0.3h0.1c0.2,0,0.4-0.1,0.6-0.1c0,0,0.4,0.2,0.9,0.3
			c0.4,0.1,0.9,0.1,0.9,0.1s-0.5-0.1-0.8-0.3c-0.2-0.1-0.3-0.3-0.3-0.3c0.1,0,0.3-0.1,0.4-0.1h0.1c0,0,0.3,0.1,0.7,0.2
			c0.4,0.1,1,0.1,1,0.1s-0.6-0.2-0.9-0.3c-0.2-0.1-0.2-0.2-0.1-0.2s0.1,0,0.2,0c0.3-0.1,0.5-0.1,0.5-0.1c0.6,0.3,1.1,0.2,1.1,0.2
			c-0.6,0.1-1-0.4-1-0.4s-0.9,0.3-1.8,0.5s-1.9,0.3-2.8,0.4c-2.1,0.3-3.3,0.1-3.3,0.1s0.6,0,1.2-0.1s1.3-0.2,1.6-0.2
			C260.1,29.2,259.8,29.2,259.6,29.2z M265.6,40.4c0,0-0.1-0.3-0.3-0.7c0-0.1-0.1-0.2-0.1-0.3s0.2-0.1,0.5,0
			c0.6,0.2,1.5,0.8,1.5,0.8s-0.6-0.7-1.2-1.1c-0.5-0.4-1.1-0.5-1.1-0.6c0,0,0-0.1-0.1-0.1c-0.1-0.2-0.2-0.4-0.3-0.6
			c0-0.1,0.3-0.2,0.7,0c0.6,0.2,1.4,0.6,1.4,0.6s-0.5-0.5-1.2-0.8c-0.6-0.3-1.4-0.5-1.4-0.6c-0.1-0.2-0.3-0.5-0.5-0.7
			c0-0.1-0.1-0.1-0.1-0.2c0,0,0.5,0,1,0.2c0.8,0.3,1.8,0.7,1.8,0.8c0,0-0.7-0.6-1.6-1c-0.9-0.5-1.8-0.7-1.9-0.8
			c-0.2-0.2-0.3-0.4-0.5-0.6c0,0,0.3-0.1,0.8,0.1c0.8,0.2,2,0.7,2,0.7s-0.9-0.5-1.8-0.9c-0.8-0.3-1.5-0.6-1.6-0.6
			c-0.2-0.2-0.4-0.5-0.6-0.7c0,0,0.3,0,0.8,0.1c0.7,0.2,1.6,0.5,1.6,0.5s-0.6-0.4-1.3-0.7c-0.7-0.3-1.5-0.4-1.6-0.5
			c-0.5-0.6-0.9-0.9-0.9-0.9c-0.1,0,4.9,0.7,7.6,5.9c1,2.5,0.4,5,0,6.1c-0.2,0.6-0.5,0.9-0.5,0.9s-0.4-0.1-1-0.4
			c-0.1,0-0.3-0.4-0.4-0.7c-0.1-0.4,0.1-0.9,0.1-0.9s-0.2,0.1-0.3,0.4c-0.1,0.3-0.1,0.8-0.1,0.7c-0.1-0.1-0.3-0.2-0.4-0.3
			s-0.2-0.8-0.2-1.3c0-0.4,0.2-0.7,0.2-0.7s-0.2,0.1-0.4,0.5c-0.2,0.4-0.2,1.1-0.3,1c-0.1-0.1-0.3-0.3-0.4-0.4
			c0-0.1-0.2-0.8-0.1-1.5c0.1-0.5,0.4-1.2,0.4-1.2s-0.6,0.5-0.7,0.9c-0.2,0.6-0.1,1.3-0.1,1.2c-0.1-0.2-0.3-0.3-0.4-0.5
			c-0.1-0.1-0.1-0.9,0.1-1.7c0.1-0.5,0.5-1.1,0.5-1.1s-0.6,0.5-0.8,0.8c-0.3,0.7-0.3,1.4-0.4,1.4c-0.1-0.2-0.2-0.4-0.3-0.5
			c0-0.1-0.1-0.9,0.1-1.7c0.1-0.6,0.4-1.1,0.4-1.1s-0.5,0.4-0.7,0.8c-0.3,0.6-0.2,1.2-0.3,1.2c-0.2-0.3-0.3-0.6-0.5-1
			c0-0.1,0-0.7,0.2-1.2s0.5-1.1,0.5-1.1s-0.2,0.1-0.4,0.4c-0.3,0.4-0.6,1.1-0.6,1.3c-0.1-0.2-0.2-0.4-0.3-0.6c0-0.1,0-0.7,0.1-1.2
			s0.3-0.9,0.3-0.9s-0.2,0.1-0.3,0.4c-0.2,0.4-0.3,1-0.3,0.9c-0.1-0.2-0.2-0.5-0.3-0.7c0-0.1,0-0.5,0.1-0.9s0.2-0.6,0.2-0.6
			s-0.2,0.1-0.3,0.2c-0.1,0.2-0.2,0.4-0.3,0.4c0-0.1,0-0.1-0.1-0.2c0-0.1-0.1-0.4-0.1-0.6c0-0.3,0-0.6,0-0.6s-0.1,0.1-0.2,0.3
			c0,0.1,0,0.3,0,0.3c-0.3-0.9-0.6-1.5-0.6-1.5s1,0.9,1.7,1.7c0.2,0.2,0.5,0.5,0.6,0.6c-0.2-0.3-0.8-1.1-1.3-1.8
			c-0.6-0.7-1.2-1.2-1.2-1.2s1.5,0.9,3.4,3.3c0.8,1,1.7,2.1,2.4,3.4c0.7,1.3,1.2,2.7,1.2,2.7s1.2,0.1,1.6,1
			C267,41.7,266.7,40.8,265.6,40.4z M220.9,71.7c-0.5-1.1-1-2.1-1-2.1s1.6,1.9,3,5.6c0.6,1.5,1.3,3.2,1.7,4.8
			c0.4,1.8,0.6,3.4,0.6,3.4s1.5,0.5,1.9,1.4c0,0-0.2-1-1.5-1.8c0,0,0-0.3-0.1-0.8c0-0.1,0-0.2-0.1-0.3c0-0.1,0.3-0.1,0.6,0.1
			c0.7,0.4,1.7,1.3,1.7,1.3s-0.6-0.9-1.3-1.5c-0.6-0.6-1.2-1-1.2-1c0-0.1,0-0.1,0-0.2c-0.1-0.2-0.1-0.5-0.2-0.7c0-0.1,0.5,0,0.9,0.2
			c0.7,0.4,1.5,1.2,1.5,1.2s-0.5-0.7-1.2-1.3c-0.7-0.6-1.6-1.1-1.6-1.2c-0.1-0.3-0.2-0.7-0.3-1c0-0.1-0.1-0.2-0.1-0.2
			c0-0.1,0.6,0.2,1.2,0.7c0.9,0.7,2,1.6,2,1.6s-0.7-1-1.6-1.8c-0.9-0.9-2-1.6-2.1-1.8c-0.1-0.3-0.3-0.7-0.4-1c0-0.1,0.4,0.1,1,0.4
			c0.9,0.6,2.2,1.7,2.2,1.7s-0.9-1-1.9-1.8c-0.8-0.7-1.7-1.4-1.8-1.4c-0.2-0.4-0.3-0.7-0.5-1.1c0-0.1,0.4,0.1,1,0.5
			c0.8,0.5,1.9,1.3,1.9,1.3s-0.6-0.7-1.4-1.4c-0.8-0.7-1.8-1.3-1.8-1.4c-0.4-0.9-0.7-1.5-0.7-1.5s6.1,3.5,7.3,10.1
			c0.5,3-0.8,5.1-1.7,6.1c-0.5,0.5-1,0.7-1,0.7s-0.6-0.1-1.3-0.5c-0.1,0-0.3-0.4-0.3-0.8c0.1-0.4,0.4-0.9,0.4-0.9s-0.3,0.1-0.5,0.3
			c-0.2,0.3-0.4,0.8-0.4,0.7c-0.2-0.1-0.3-0.3-0.5-0.4c-0.1-0.1,0-0.9,0.3-1.5c0.2-0.5,0.5-0.7,0.5-0.7s-0.4,0.1-0.7,0.4
			c-0.4,0.4-0.7,1.1-0.8,1c-0.1-0.2-0.3-0.4-0.4-0.6c0-0.1,0.1-0.9,0.5-1.7c0.3-0.6,1-1.2,1-1.2s-1,0.4-1.3,0.7
			c-0.6,0.6-0.6,1.4-0.7,1.3c-0.1-0.2-0.3-0.5-0.4-0.7c0-0.1,0.3-1.1,0.9-2c0.4-0.6,1.2-1.1,1.2-1.1s-1,0.3-1.4,0.6
			c-0.7,0.6-1.1,1.6-1.1,1.4c-0.1-0.2-0.2-0.5-0.2-0.8c0-0.1,0.3-1.1,0.9-1.9c0.4-0.7,1-1.1,1-1.1s-0.8,0.3-1.3,0.7
			c-0.6,0.6-0.9,1.4-0.9,1.3c-0.1-0.4-0.2-0.9-0.2-1.3c0-0.1,0.3-0.8,0.8-1.4s1.1-1.1,1.1-1.1s-0.3,0-0.7,0.3
			c-0.6,0.4-1.3,1-1.3,1.3c0-0.3,0-0.6-0.1-0.8c0-0.1,0.3-0.8,0.6-1.4s0.8-1,0.8-1s-0.3,0-0.6,0.3c-0.4,0.4-0.9,1.1-0.9,1
			c0-0.3,0-0.6,0-1c0-0.1,0.2-0.6,0.5-1s0.5-0.7,0.5-0.7s-0.2,0-0.5,0.1s-0.5,0.4-0.5,0.3s0-0.2,0-0.3c0-0.1,0.1-0.5,0.2-0.8
			c0.1-0.3,0.3-0.7,0.3-0.7s-0.2,0.1-0.3,0.2s-0.2,0.4-0.2,0.3c0-1.2-0.1-2-0.1-2s0.9,1.6,1.5,2.8c0.2,0.4,0.4,0.8,0.5,1
			C221.7,74,221.3,72.8,220.9,71.7z M228.5,70c0,0-0.2-0.1-0.5-0.2c-0.1,0-0.1-0.1-0.2-0.1c0,0,0-0.1,0.2-0.2
			c0.4-0.2,1.2-0.3,1.2-0.3s-0.7,0-1.2,0c-0.5,0.1-0.8,0.2-0.9,0.2H227c-0.1,0-0.3-0.1-0.4-0.1c-0.1,0,0.1-0.2,0.3-0.4
			c0.4-0.2,1-0.3,1-0.3s-0.5,0-1,0.1s-1,0.4-1,0.4c-0.2-0.1-0.4-0.1-0.6-0.1h-0.1c0,0,0.3-0.2,0.7-0.4c0.6-0.2,1.3-0.5,1.3-0.5
			s-0.7,0-1.3,0.2c-0.7,0.2-1.3,0.5-1.4,0.5c-0.2,0-0.4-0.1-0.6-0.1c0,0,0.1-0.2,0.4-0.3c0.5-0.3,1.4-0.6,1.4-0.6s-0.7,0.2-1.4,0.4
			c-0.6,0.2-1.1,0.4-1.1,0.4c-0.2,0-0.5-0.1-0.7-0.1c0,0,0.1-0.2,0.4-0.3c0.4-0.2,1.1-0.5,1.1-0.5s-0.5,0.1-1,0.3
			c-0.5,0.2-1,0.5-1.1,0.5c-0.6,0-0.9-0.1-0.9-0.1s2.9-2,7-0.6c1.8,0.8,2.8,2.4,3.2,3.1c0.2,0.4,0.2,0.7,0.2,0.7s-0.3,0.2-0.7,0.2
			c0,0-0.4-0.1-0.6-0.2c-0.3-0.2-0.4-0.5-0.4-0.5s-0.1,0.1,0,0.3c0.1,0.2,0.4,0.4,0.3,0.4c-0.1,0-0.3,0-0.4,0
			c-0.1,0-0.5-0.3-0.8-0.6c-0.2-0.2-0.3-0.4-0.3-0.4s-0.1,0.2,0.1,0.4c0.1,0.3,0.4,0.7,0.4,0.7c-0.1,0-0.3,0-0.4,0
			c-0.1,0-0.5-0.3-0.8-0.7c-0.2-0.3-0.4-0.8-0.4-0.8s0,0.5,0.1,0.8c0.2,0.4,0.6,0.7,0.5,0.7c-0.2,0-0.3,0-0.5-0.1
			c-0.1,0-0.5-0.4-0.9-0.9c-0.2-0.3-0.3-0.8-0.3-0.8s-0.1,0.5,0,0.8c0.2,0.5,0.6,0.9,0.5,0.9c-0.2,0-0.3-0.1-0.5-0.1
			c-0.1,0-0.5-0.5-0.8-0.9s-0.4-0.8-0.4-0.8s0,0.4,0.1,0.8c0.2,0.4,0.5,0.8,0.5,0.7c-0.2-0.1-0.5-0.2-0.7-0.3c0,0-0.3-0.3-0.6-0.7
			c-0.2-0.4-0.3-0.8-0.3-0.8s0,0.2,0,0.4c0.1,0.4,0.3,0.9,0.4,0.9c-0.2-0.1-0.3-0.1-0.5-0.2c0,0-0.4-0.3-0.6-0.6
			c-0.2-0.3-0.3-0.6-0.3-0.6s-0.1,0.1,0,0.4s0.4,0.7,0.3,0.6c-0.2-0.1-0.3-0.2-0.5-0.2c-0.1,0-0.3-0.3-0.4-0.5
			c-0.2-0.2-0.2-0.4-0.2-0.4s-0.1,0.1,0,0.3c0,0.2,0.1,0.3,0.1,0.3s-0.1,0-0.1-0.1c0,0-0.2-0.1-0.4-0.3c-0.2-0.1-0.3-0.3-0.3-0.3
			s0,0.1,0,0.2s0.2,0.2,0.1,0.2c-0.6-0.3-1-0.5-1-0.5s1,0,1.7,0c0.2,0,0.5,0,0.6,0c-0.2-0.1-1-0.2-1.6-0.3c-0.6-0.1-1.2-0.1-1.2-0.1
			s1.2-0.2,3.5,0.1c0.9,0.1,2,0.3,3,0.6c1.1,0.3,2,0.8,2,0.8s0.7-0.5,1.3-0.3C229.9,70,229.2,69.7,228.5,70z M224.8,27.4
			c0,0-0.2,2.1-0.5,3.7c-0.2,1.1-0.6,1.8-0.6,1.7c-0.3-0.6-0.6-1.2-0.9-1.9c-0.1-0.2,0.2-1.9,0.3-3.8c0-2.1-0.2-4.4-0.2-4.4
			s-0.2,2.7-0.5,4.5c-0.2,1-0.6,1.7-0.6,1.6c-0.3-0.6-0.6-1.1-0.9-1.7c-0.1-0.2,0.2-2.5,0.2-4.6s-0.5-4-0.5-4s-0.1,2.3-0.3,4.2
			c-0.2,1.3-0.5,2.4-0.6,2.3s-0.2-0.3-0.2-0.4c-0.3-0.6-0.7-1.1-1-1.6c-0.1-0.1,0.3-1.8,0.3-3.3c0-1.6-0.4-3.1-0.4-3.1
			s0,1.9-0.3,3.2c-0.2,0.9-0.8,1.5-0.9,1.3c-0.3-0.4-0.6-0.8-0.8-1.2c-0.1-0.1-0.1-0.2-0.2-0.2c-0.1-0.1,0.2-1.3,0.2-2.7
			c-0.1-1.6-0.5-3.4-0.5-3.4s0,2.3-0.3,3.6c-0.1,0.7-0.5,0.9-0.6,0.8c-0.1-0.2-0.3-0.3-0.4-0.5c-0.6-0.8-1-1.3-1-1.3
			c0.6-2.4-0.6-3.9-0.6-3.9c0.9,1.7-0.5,4-0.5,4s2.1,2.3,4,5.1c1.8,2.6,3.3,5.6,4.7,8.2c3.4,6.4,4,10.5,4,10.5s-0.6-1.9-1.6-3.8
			c-1-1.9-2.2-3.9-2.6-4.6c0.2,0.5,0.5,1.2,0.8,1.9c1,2.3,2,5.3,2,5.3s-1.1-1.1-2.8-2.7c-0.1-0.1,0.4,0.2,0.7,0.2c0.4,0,0.7,0,0.7,0
			s-0.8-0.3-1.4-0.6c-0.6-0.3-1.2-0.7-1.4-0.9c-0.1-0.1-0.3-0.2-0.4-0.4c-0.1-0.1,0.6-0.1,1.1-0.1c0.5-0.1,0.8-0.4,0.8-0.4
			s-0.8-0.1-1.7-0.3c-0.9-0.3-1.9-0.7-2.1-0.9c-0.4-0.4-0.9-0.8-1.3-1.3c-0.2-0.2,1.4,0.3,2.5,0.4c0.8,0.1,1.2-0.2,1.2-0.2
			s-1.2-0.1-2.4-0.4c-1.3-0.4-2.7-1.1-2.8-1.2c-0.4-0.4-0.7-0.8-1.1-1.2c0.3,0.3,2.2,0.4,3.5,0.3c0.8-0.1,1.3-0.4,1.3-0.4
			s-1.6,0.1-3-0.2c-1.5-0.3-2.9-0.9-3-1c-0.6-0.6-1.1-1.3-1.6-2c-0.1-0.2,1.3,0.6,3,0.7c1.2,0.1,2.7-0.4,2.7-0.4s-1.4,0-3-0.4
			c-1.8-0.5-3.8-1.5-3.9-1.6c-0.3-0.4-0.5-0.8-0.8-1.3c-0.1-0.2,1.7,0.6,3.5,0.7c0.9,0,2.6-0.7,2.6-0.7s-1.7,0.2-3.1-0.2
			c-2-0.5-3.9-1.5-3.9-1.7c-0.2-0.5-0.4-0.9-0.6-1.4c-0.1-0.2,1.1,0.8,2.7,1c0.9,0.1,2.8-0.5,2.8-0.5s-1.7-0.1-2.9-0.5
			c-1.7-0.6-3.1-1.6-3.1-1.7c-0.1-0.4-0.2-0.8-0.3-1.2c0-0.2,1.4,0.4,2.5,0.5c0.9,0.1,1.4-0.2,1.4-0.2s-0.8,0.1-1.7-0.3
			c-1.1-0.5-2.4-1.5-2.4-1.7c0-0.4,0-0.7,0-1.1c0-0.1,0.9,0.4,1.6,0.5c0.6,0.1,1.1-0.1,1.1-0.1s-1.1-0.1-1.8-0.7
			c-0.6-0.4-0.8-1.2-0.7-1.4c0.4-1.3,1-2.1,1-2.1s0.9-0.2,2.3-0.1c2.7,0.3,7.2,1.7,10.8,6.2c7.7,10,4.9,21.2,4.9,21.2
			s-0.5-1.1-1.2-2.8c-0.1-0.1,0.4-2,0.5-3.7C225,29,224.8,27.4,224.8,27.4z M242.4,68.3c-0.4,0-0.7-0.1-1-0.3
			c-0.5-0.4-0.9-1.2-1.2-2.2c-0.6-2-1.1-4.9-2.6-7.5c-1.4-2.4-3.8-4.4-5.4-6.1c-1-1-1.7-1.8-1.9-2.6v-0.1v-0.1c0-0.1,0-0.2,0-0.3
			c0-0.2,0.1-0.3,0.2-0.5c0.2-0.3,0.7-0.6,1.3-0.9c0.3-0.1,0.6-0.2,0.9-0.3c0.2,0,0.3-0.1,0.5-0.1s0.3-0.1,0.5-0.1
			c0.6-0.1,1.3-0.1,1.9,0c1.3,0.2,2.6,0.6,3.8,1.3c2.5,1.3,4.7,3.6,5.9,6.2c0.6,1.3,1.1,2.6,1.3,4c0,0.2,0.1,0.3,0.1,0.5
			s0.1,0.3,0.1,0.5c0,0.3,0.1,0.6,0.1,1c0,0.6,0,1.3,0,1.9c-0.2,2.4-1.2,4.5-3.2,5.4c-0.3,0.1-0.5,0.2-0.7,0.3c-0.1,0-0.2,0-0.3,0.1
			C242.6,68.3,242.5,68.3,242.4,68.3z M242.4,69L242.4,69c0,0.1,0,0.1-0.1,0.1c-0.1,0.2-0.4,0.3-0.6,0.3c-0.7,0-1.3-0.1-1.9-0.2
			c-0.2,0-0.3-0.1-0.5-0.1S239,69,238.9,69c-0.3-0.1-0.6-0.2-0.9-0.3c-1.1-0.4-2.1-1-2.9-1.8c-0.5-0.6-0.8-1.1-0.9-1.6
			c-0.1-0.2-0.1-0.4,0-0.6c0-0.1,0-0.2,0.1-0.3c0-0.1,0.1-0.2,0.2-0.3c0.2-0.4,0.5-0.6,0.9-0.5h0.1c0,0,0,0,0.1,0c0,0,0,0,0.1,0
			s0.2,0.1,0.3,0.2c0.1,0,0.1,0.1,0.2,0.1l0.1,0.1l0.1,0.1c0.1,0.1,0.2,0.3,0.4,0.4c1.6,2.1,2.9,4,5.5,4.1c0.1,0,0.2,0.1,0.2,0.1
			C242.4,68.9,242.4,68.9,242.4,69z M247.1,45.6c-1.5-1.1-3.4-2.5-3.4-2.5s1.1,0.3,2.8,0.9c0.1,0-0.3,0-0.5,0
			c-0.3,0.1-0.4,0.2-0.4,0.2s0.6,0,1.1,0s1.1,0.1,1.2,0.2c0.1,0,0.3,0.1,0.4,0.1c0.1,0-0.4,0.2-0.6,0.4c-0.3,0.2-0.4,0.4-0.4,0.4
			s0.5-0.1,1.2-0.2c0.7-0.1,1.5-0.1,1.6,0c0.4,0.1,0.9,0.3,1.3,0.4c0.2,0-1,0.2-1.7,0.4c-0.6,0.2-0.7,0.4-0.7,0.4s0.8-0.2,1.7-0.3
			c1-0.1,2.1-0.1,2.2,0c0.4,0.1,0.8,0.3,1.2,0.4c-0.3-0.1-1.5,0.3-2.3,0.7c-0.5,0.2-0.6,0.5-0.6,0.5s1-0.4,1.9-0.6
			c1.1-0.2,2.2-0.2,2.3-0.1c0.6,0.2,1.2,0.5,1.8,0.7c0.1,0.1-1.1,0-2.1,0.3c-0.8,0.2-1.5,0.9-1.5,0.9s0.9-0.4,2-0.5
			c1.3-0.2,2.9-0.1,3.1,0c0.3,0.2,0.7,0.3,1,0.5c0.1,0.1-1.3,0.1-2.5,0.5c-0.6,0.2-1.4,1-1.4,1s1-0.5,2-0.7c1.4-0.2,3-0.1,3.1,0
			c0.3,0.2,0.6,0.4,0.9,0.6c0.1,0.1-1-0.2-2.1,0.1c-0.6,0.1-1.5,0.9-1.5,0.9s1.1-0.4,2-0.4c1.3-0.1,2.5,0.2,2.6,0.2
			c0.2,0.2,0.5,0.4,0.7,0.6c0.1,0.1-1,0.1-1.8,0.3c-0.6,0.2-0.8,0.4-0.8,0.4s0.5-0.2,1.2-0.2c0.9,0,2.1,0.3,2.2,0.3
			c0.2,0.2,0.3,0.4,0.4,0.6c0,0.1-0.7,0-1.2,0.1c-0.4,0.1-0.6,0.4-0.6,0.4s0.7-0.2,1.4-0.1c0.5,0.1,1,0.5,1,0.6
			c0.3,0.8,0.2,1.4,0.2,1.4s-0.5,0.3-1.4,0.6c-1.8,0.5-5.2,0.8-9.2-0.8c-8.9-3.8-11.6-10.7-11.6-10.7s0.7,0.5,1.9,1.3
			c0.1,0.1,0.6,1.2,1.2,2.2c0.6,1,1.4,1.8,1.4,1.8s-0.7-1.3-1.2-2.2c-0.3-0.7-0.4-1.2-0.3-1.1c0.4,0.3,0.9,0.6,1.3,0.8
			c0.1,0.1,0.6,1.1,1.4,2.2c0.8,1.2,1.9,2.4,1.9,2.4s-1-1.6-1.5-2.7c-0.3-0.6-0.4-1.1-0.3-1.1c0.4,0.2,0.8,0.5,1.2,0.7
			c0.2,0.1,0.8,1.4,1.7,2.6c0.9,1.1,2,2.1,2,2.1s-0.9-1.3-1.5-2.4c-0.4-0.8-0.6-1.5-0.6-1.4c0.1,0.1,0.2,0.1,0.3,0.2
			c0.4,0.2,0.9,0.5,1.3,0.7c0.1,0.1,0.5,1.1,1.1,1.9c0.6,0.9,1.5,1.6,1.5,1.6s-0.8-1-1.1-1.9c-0.2-0.6-0.1-1,0-1
			c0.3,0.2,0.7,0.3,1,0.5c0.1,0,0.1,0.1,0.2,0.1s0.4,0.8,1,1.5c0.7,0.9,1.7,1.8,1.7,1.8s-0.9-1.3-1.3-2.1c-0.2-0.4,0-0.6,0.1-0.6
			c0.2,0.1,0.3,0.1,0.4,0.2c0.7,0.3,1.1,0.5,1.1,0.5c0.6,1.5,1.9,2,1.9,2c-1.2-0.7-1.3-2.3-1.3-2.3s-2.2-0.8-4.5-1.9
			c-2.1-1-4.3-2.3-6.2-3.4c-4.7-2.8-6.7-4.9-6.7-4.9s1.2,0.9,2.5,1.8c1.4,0.8,2.9,1.7,3.5,2C248,46.3,247.6,45.9,247.1,45.6z
			 M245.2,40.3c-0.7,0.2-1.7,0.3-1.7,0.3s0.4-0.2,1-0.6c0,0-0.1,0.1-0.1,0.2c0,0.1-0.1,0.2-0.1,0.2s0.2-0.2,0.3-0.3s0.3-0.3,0.4-0.3
			l0.1-0.1c0,0,0,0.1-0.1,0.3c0,0.1,0,0.2,0,0.2s0.1-0.2,0.2-0.4c0.2-0.2,0.4-0.4,0.4-0.5c0.2-0.1,0.3-0.2,0.5-0.3
			c0.1,0-0.2,0.3-0.3,0.6c-0.1,0.2,0,0.3,0,0.3s0.1-0.3,0.3-0.6s0.5-0.6,0.6-0.6c0.1-0.1,0.3-0.2,0.4-0.2c-0.1,0.1-0.3,0.5-0.4,0.8
			c0,0.2,0,0.3,0,0.3s0.1-0.4,0.3-0.7c0.2-0.4,0.5-0.7,0.6-0.7c0.2-0.1,0.5-0.2,0.7-0.3c0.1,0-0.3,0.3-0.5,0.7
			c-0.1,0.3-0.1,0.7-0.1,0.7s0.1-0.3,0.4-0.7c0.3-0.4,0.7-0.9,0.8-0.9c0.1-0.1,0.3-0.1,0.4-0.1c0.1,0-0.3,0.4-0.5,0.8
			c-0.1,0.2,0,0.7,0,0.7s0.1-0.4,0.3-0.7c0.3-0.5,0.8-0.9,0.8-0.9c0.1,0,0.3-0.1,0.4-0.1c0.1,0-0.3,0.2-0.5,0.6
			c-0.1,0.2-0.1,0.7-0.1,0.7s0.2-0.4,0.4-0.7c0.3-0.4,0.7-0.7,0.8-0.7s0.3,0,0.4,0c0,0-0.2,0.3-0.4,0.6c-0.1,0.2-0.1,0.3-0.1,0.3
			s0-0.2,0.2-0.4c0.2-0.3,0.6-0.5,0.7-0.5c0.1,0,0.2,0,0.3,0c0,0-0.2,0.2-0.3,0.4s-0.1,0.3-0.1,0.3s0.1-0.3,0.3-0.4
			c0.2-0.1,0.4-0.2,0.4-0.1c0.3,0.1,0.5,0.3,0.5,0.3s0,0.2-0.2,0.6c-0.3,0.6-1.1,1.7-2.7,2.4c-3.5,1.6-6.4,0.6-6.4,0.6
			s0.3-0.1,0.9-0.2c0,0,0.5,0.1,1,0.2c0.5,0.1,1,0.1,1,0.1s-0.6-0.1-1-0.2c-0.3-0.1-0.5-0.2-0.4-0.2c0.2-0.1,0.4-0.1,0.6-0.2
			c0.1,0,0.5,0.1,1,0.2c0.6,0.1,1.3,0.1,1.3,0.1s-0.7-0.1-1.2-0.3c-0.3-0.1-0.4-0.2-0.4-0.2c0.2-0.1,0.4-0.1,0.6-0.2
			c0.1,0,0.7,0.1,1.3,0.2c0.6,0,1.2,0,1.2,0s-0.6-0.1-1.1-0.2c-0.4-0.1-0.6-0.2-0.6-0.2h0.1c0.2-0.1,0.4-0.1,0.5-0.2
			c0,0,0.5,0.1,0.9,0.2c0.4,0,0.9,0,0.9,0s-0.5-0.1-0.9-0.2c-0.2-0.1-0.3-0.2-0.3-0.2c0.1-0.1,0.3-0.1,0.4-0.2h0.1
			c0,0,0.4,0.1,0.7,0.1c0.5,0,1,0,1,0s-0.6-0.1-1-0.2c-0.2-0.1-0.2-0.2-0.2-0.2c0.1,0,0.1-0.1,0.2-0.1c0.3-0.1,0.4-0.2,0.4-0.2
			c0.6,0.2,1.1,0,1.1,0c-0.6,0.2-1.1-0.2-1.1-0.2S250,39,249,39.4c-0.9,0.4-1.9,0.6-2.7,0.9c-2.1,0.6-3.3,0.7-3.3,0.7
			s0.6-0.1,1.2-0.3c0.6-0.2,1.3-0.4,1.5-0.5C245.6,40.2,245.4,40.3,245.2,40.3z M247.1,26.9c0.1,1.2,0.3,2.2,0.3,2.2s-0.8-2-1-6
			c-0.1-1.6-0.2-3.4-0.1-5.1c0.1-1.8,0.3-3.5,0.3-3.5s-1.1-0.6-1.2-1.7c0,0-0.1,1,0.7,1.9c0,0,0,0.3-0.1,0.9c0,0.1,0,0.2,0,0.3
			s-0.2,0.1-0.4-0.2c-0.4-0.5-1-1.5-1-1.5s0.3,0.9,0.6,1.7c0.3,0.6,0.7,1.1,0.7,1.2s0,0.1,0,0.2c0,0.2,0,0.5,0,0.8
			c0,0.1-0.4,0-0.7-0.3c-0.4-0.5-0.9-1.4-0.9-1.4s0.2,0.8,0.6,1.5c0.4,0.7,0.9,1.3,0.9,1.4c0,0.3,0,0.7,0,1c0,0.1,0,0.2,0,0.3
			c0,0.1-0.4-0.3-0.8-0.9c-0.5-0.8-1.1-1.8-1.1-1.8s0.3,1,0.8,2s1.2,1.9,1.2,2c0,0.3,0,0.7,0.1,1c0,0.1-0.3-0.1-0.6-0.5
			c-0.6-0.7-1.3-1.9-1.3-1.9s0.5,1.1,1,2c0.5,0.8,1,1.5,1,1.6c0,0.4,0.1,0.8,0.1,1.1c0,0.1-0.3-0.2-0.7-0.6
			c-0.5-0.6-1.1-1.5-1.1-1.5s0.3,0.8,0.8,1.5c0.5,0.8,1.1,1.5,1.1,1.6c0.1,1,0.2,1.6,0.2,1.6s-3.8-4.2-3.2-11.1
			c0.3-3.1,1.8-5.1,2.7-6.1c0.5-0.5,0.9-0.7,0.9-0.7s0.4,0.2,0.9,0.6c0,0,0.2,0.5,0,0.8c-0.1,0.5-0.5,0.8-0.5,0.8s0.3,0,0.5-0.3
			c0.3-0.3,0.5-0.8,0.5-0.7c0.1,0.1,0.2,0.3,0.3,0.5c0,0.1-0.2,0.9-0.5,1.5c-0.3,0.5-0.6,0.7-0.6,0.7s0.3,0,0.6-0.3
			c0.4-0.4,0.8-1.1,0.9-1c0.1,0.2,0.1,0.4,0.2,0.6c0,0.1-0.3,0.9-0.8,1.7c-0.4,0.5-1,1.1-1,1.1s0.9-0.3,1.2-0.6
			c0.6-0.6,0.8-1.4,0.8-1.3c0,0.3,0.1,0.5,0.1,0.8c0,0.1-0.5,1.1-1.1,2c-0.5,0.6-1.2,1-1.2,1s0.8-0.2,1.2-0.5
			c0.7-0.6,1.2-1.5,1.2-1.4c0,0.3,0,0.5,0,0.8c0,0.1-0.5,1.1-1.1,1.9c-0.5,0.7-1.1,1.1-1.1,1.1s0.7-0.2,1.1-0.6c0.6-0.6,1-1.3,1-1.2
			c0,0.4-0.1,0.9-0.1,1.4c0,0.1-0.4,0.8-0.9,1.4s-1.1,1-1.1,1s0.3,0,0.6-0.2c0.5-0.3,1.3-1,1.3-1.2c0,0.3-0.1,0.6-0.2,0.9
			c0,0.1-0.4,0.8-0.8,1.4c-0.4,0.5-0.8,0.9-0.8,0.9s0.2,0,0.5-0.3c0.4-0.4,0.9-1,0.9-0.9c-0.1,0.3-0.1,0.7-0.2,1
			c0,0.1-0.3,0.6-0.6,1s-0.6,0.7-0.6,0.7s0.2,0,0.4-0.1s0.5-0.4,0.5-0.3s0,0.2-0.1,0.3c0,0.1-0.1,0.5-0.3,0.8s-0.4,0.7-0.4,0.7
			s0.2-0.1,0.3-0.2s0.2-0.4,0.2-0.3c-0.3,1.3-0.4,2.1-0.4,2.1s-0.3-1.7-0.5-3c-0.1-0.4-0.1-0.8-0.2-1.1
			C247,24.5,247,25.8,247.1,26.9z M195.6,7.1h54.5c0,0,0.4,0.5,0.4,0.6c1.6,6.8,1.2,15.2,1,18.8l-0.4,1.2c-0.6,0.3-1.2,0.7-1.8,1
			c-0.2,0.1-0.4,0.2-0.6,0.4c-0.1-0.6-0.1-1.4,0.3-2.5c0.8-2.6,0.6-2.6,1.3-5.8c1.6-10-3.4-12.1-3.4-12.1c-2.8,2.4-4.4,5.5-4.6,8.2
			c-0.3,3.7,1.2,7.6,2.4,9.9c0.7,1.3,1.7,1.8,1.8,2c0.4,0.6,0.8,1.1,1,1.5c-0.3,0.1-0.5,0.2-0.5,0.2s-0.1,0-0.1-0.1l0,0
			c-0.9-1.2-2.3-3.1-3.1-4.7c-1.6-3.1-1-3.3-3-7.1C234,7.2,226,9.3,226,9.3c-1.5,4.9-0.1,9.8,2.1,12.6c2.9,3.8,7.7,5.9,11.2,7
			c2,0.7,3.6,0.7,4,0.8c0.5,0.1,1,0.3,1.4,0.4c-0.6,0.1-1.3,0.1-2.1,0c-1.9-0.3-2-0.7-4.2-1.1c-3.4-0.6-5,0.6-6.6,1.3
			c-1.5,0.8-2.5,2-2.5,2c1.8,2,5.8,3.3,7.8,3.3c2.7,0,4.6-1.6,6-2.7c0.8-0.6,1.3-1.3,1.4-1.4c0.4-0.4,1-0.8,1.2-0.9
			c0.1,0,0.4,0.2,0.7,0.5c-2.6,2.4-5,5.3-7.6,6.5c-4.4,2-9.4,1.9-12.1,3.7c0-0.1-0.1-0.2-0.1-0.4c0.2-0.2,0.9-0.7,1.7-1
			c0.2-0.1,1.3-0.3,2.5-1.1c1.1-0.7,2.6-1.5,3.8-2.6c-0.3-0.1-0.7-0.2-1-0.4c-2.4,2.5-5,3.1-5,3.2c0,0,0.3-0.5,0.8-1.2
			c0-0.1,0.9-0.3,1.7-0.7c0.7-0.4,1.4-0.9,1.4-0.9s-1,0.4-1.7,0.7c-0.5,0.2-0.9,0.2-0.9,0.2c0.2-0.3,0.3-0.6,0.5-0.9
			c0-0.1,0.8-0.4,1.6-0.8c0.1-0.1,0.2-0.1,0.3-0.2c-0.1-0.1-0.2-0.1-0.3-0.2c-0.1,0-0.2,0.1-0.3,0.1c-0.5,0.2-0.9,0.2-0.8,0.1
			c0.1-0.2,0.2-0.4,0.4-0.7c-0.1-0.1-0.2-0.2-0.4-0.2c-0.2,0.3-0.3,0.6-0.5,0.8c-1.5,3-3.2,4.3-3.2,4.2c0,0,0.7-0.7,1.2-1.6
			c0.5-0.9,1-1.9,1.1-2.2c-0.1,0.2-0.3,0.5-0.5,0.8c-0.6,1-1.6,2.1-1.6,2.1s0.2-0.7,0.4-1.8c0-0.1,0,0.2,0.1,0.3
			c0.1,0.2,0.2,0.3,0.2,0.3s-0.1-0.4-0.1-0.8c0-0.3,0-0.7,0-0.8s0-0.2,0-0.3s0.2,0.2,0.3,0.4c0.2,0.2,0.3,0.3,0.3,0.3
			s-0.2-0.3-0.3-0.8c-0.1-0.4-0.2-1-0.2-1.1c0-0.3,0.1-0.6,0.1-0.9c0-0.1,0.3,0.7,0.5,1.1c0.2,0.4,0.4,0.5,0.4,0.5s-0.3-0.5-0.5-1.1
			s-0.3-1.4-0.3-1.5c0-0.3,0.1-0.5,0.1-0.8c0,0.1,0,0.2,0.1,0.3c0.1-0.1,0.2-0.2,0.3-0.3c-0.2-0.5-0.2-0.8-0.2-0.9
			c0.1-0.4,0.2-0.8,0.3-1.1c0-0.1,0.2,0.7,0.6,1.4l0,0c0.1-0.1,0.2-0.1,0.3-0.2v-0.1c-0.3-0.9-0.5-1.9-0.4-2
			c0.1-0.2,0.2-0.4,0.3-0.6c0-0.1,0.2,0.8,0.7,1.6c0.1,0.1,0.2,0.3,0.4,0.4c0.1,0,0.1-0.1,0.2-0.1c-0.1-0.2-0.3-0.5-0.4-0.7
			c-0.4-0.9-0.5-2-0.4-2.1c0.1-0.2,0.3-0.4,0.5-0.6c0.1-0.1,0,0.6,0.3,1.4c0.2,0.4,1,1,1,1s-0.5-0.8-0.6-1.4
			c-0.2-0.6-0.2-1.2-0.1-1.5c-0.3-0.2-0.6-0.5-0.9-0.8c-1.2,1.2-2.4,2.8-2.8,5.7c-0.3,2.9,0.1,3.2-0.3,5.6c-0.2,1-0.5,1.9-0.9,2.6
			c0-0.6,0-1.2,0-1.9c0.1-0.4,0.6-2.5,0.6-5.2c0-4.7-0.7-11.5-4.6-16.6c-2.9-3.8-8.7-7.6-16-8c0,0-6.2,8.8,6.1,22
			c4.2,4.1,4.7,3.5,8.2,6.7c2.1,2,3.8,4.3,4.7,5.6c-0.2,0.1-0.3,0.3-0.5,0.5c-0.2-0.2-0.7-0.7-1.3-1.6c-0.2-0.3-0.5-1.7-1.9-3.1
			c-2.5-2.4-7.1-6-12.2-7.2c-3.7-0.9-8.5-0.4-12.9,2c0,0,0.6,6.8,14.7,9.3c4.7,0.6,4.5,0.5,8.4,1c1.7,0.2,3.2,0.3,4.3,0.4
			c-2.7,2.4-7,5.7-10.4,6.3c-2.3,0.4-7.9,3.7-13.2,4.6c-0.2,0-0.3,0.1-0.5,0.1c0.8-0.4,1.9-1,2.8-1.4c2-0.8,2.1-0.4,4.5-1.4
			c7.3-3.3,6.3-7.8,6.3-7.8c-3-1-6-0.4-7.8,0.6c-2.5,1.4-3.9,4.1-4.8,5.9c-0.5,1.1-0.6,2-0.7,2.2c-0.1,0.3-0.2,0.5-0.3,0.8
			c0-0.3,0-0.8,0.1-1.2c0.3-1,0.5-1.1,0.9-2.3c0.5-1.9-0.2-2.8-0.5-3.7c-0.4-0.9-1.1-1.5-1.1-1.5c-1.3,0.9-2.2,3.1-2.3,4.2
			c-0.1,1.5,0.8,2.6,1.4,3.5c0.4,0.5,0.7,0.8,0.8,0.8c0.2,0.2,0.4,0.6,0.5,0.7c0,0.1-0.6,0.7-0.7,0.8l0,0c-1.8,0.2-3.4-0.5-3.4-0.5
			V7.1L195.6,7.1z M230.5,16.1c0,0,0.3,0.4,0.7,1c0.1,0.1,0.2,0.2,0.3,0.4c0.1,0.1-0.2,0.3-0.7,0.2c-1-0.1-2.7-0.7-2.7-0.7
			s1.2,0.7,2.4,1.1c1,0.4,2,0.5,2,0.5c0,0.1,0.1,0.1,0.1,0.2c0.2,0.3,0.4,0.5,0.7,0.8c0.1,0.1-0.5,0.3-1.2,0.3
			c-1-0.1-2.4-0.6-2.4-0.6s1,0.6,2.2,1c1.1,0.4,2.4,0.5,2.5,0.6c0.3,0.4,0.6,0.7,1,1.1c0.1,0.1,0.2,0.2,0.2,0.3
			c0.1,0.1-0.8,0-1.8-0.2c-1.4-0.3-3.2-0.8-3.2-0.8s1.4,0.8,2.9,1.3c1.6,0.5,3.3,0.8,3.4,1c0.3,0.3,0.7,0.7,1,1
			c0.1,0.1-0.5,0.2-1.3,0c-1.4-0.2-3.5-0.8-3.5-0.8s1.6,0.7,3.2,1.2c1.4,0.4,2.8,0.6,2.9,0.7c0.4,0.4,0.8,0.7,1.2,1.1
			c0.1,0.1-0.6,0.1-1.4,0c-1.2-0.2-2.9-0.5-2.9-0.5s1.2,0.5,2.4,0.9c1.3,0.4,2.8,0.5,2.9,0.6c1.1,0.9,1.7,1.5,1.7,1.5
			s-8.9-0.8-14.5-8.3c-2.4-3.5-2.4-6.9-2-8.7c0.2-1,0.6-1.5,0.6-1.5s0.7-0.2,1.8-0.2c0.1,0,0.7,0.3,0.8,0.8c0.2,0.6,0.1,1.4,0.1,1.4
			s0.3-0.3,0.4-0.7c0.1-0.5-0.1-1.2,0-1.2c0.3,0.1,0.5,0.2,0.8,0.3c0.1,0,0.5,1.2,0.7,2c0.1,0.7-0.2,1.2-0.2,1.2s0.3-0.3,0.5-0.9
			c0.2-0.8,0.1-1.9,0.2-1.8c0.3,0.1,0.6,0.3,0.9,0.5c0.1,0.1,0.5,1.2,0.5,2.5c0,0.9-0.3,2.1-0.3,2.1s0.9-1.1,1-1.7
			c0.2-1.2-0.2-2.2-0.1-2.1c0.3,0.2,0.6,0.5,0.9,0.7c0.1,0.1,0.4,1.6,0.3,3c-0.1,1-0.6,2.1-0.6,2.1s0.9-1,1.1-1.6
			c0.4-1.3,0.2-2.6,0.3-2.5c0.3,0.3,0.5,0.5,0.7,0.8c0.1,0.1,0.4,1.7,0.3,3c-0.1,1.1-0.4,2.1-0.4,2.1s0.7-0.9,0.9-1.7
			c0.3-1.1,0.1-2.3,0.2-2.2c0.4,0.5,0.7,1,1.1,1.5c0.1,0.1,0.2,1.2,0,2.3c-0.1,1-0.6,2.1-0.6,2.1s0.3-0.3,0.6-0.8
			c0.4-0.8,0.8-2.2,0.6-2.4c0.2,0.3,0.4,0.7,0.6,1c0.1,0.1,0.2,1.2,0.2,2.1s-0.2,1.7-0.2,1.7s0.3-0.2,0.5-0.8
			c0.2-0.7,0.2-1.9,0.3-1.8c0.2,0.4,0.4,0.8,0.6,1.2c0.1,0.2,0.2,0.9,0.1,1.6c0,0.7-0.2,1.2-0.2,1.2s0.3-0.1,0.5-0.5
			c0.2-0.3,0.3-0.8,0.4-0.7c0.1,0.1,0.1,0.2,0.2,0.4c0.1,0.1,0.2,0.6,0.3,1.1s0.1,1.1,0.1,1.1s0.2-0.2,0.2-0.5c0-0.2-0.1-0.6,0-0.5
			c0.8,1.6,1.4,2.5,1.4,2.5s-2-1.4-3.5-2.6c-0.4-0.4-0.9-0.7-1.2-1c0.4,0.4,1.6,1.7,2.8,2.8c1.2,1.1,2.4,2,2.4,2s-2.9-1.4-6.8-5.2
			c-1.6-1.6-3.4-3.3-4.9-5.1c-1.6-1.9-2.8-3.9-2.8-3.9s-2,0.3-3.1-0.6C227.7,14.8,228.6,15.9,230.5,16.1z M234.7,32.6
			c0,0,0.2,0,0.6,0c0.1,0,0.2,0,0.2,0s0.1,0.2-0.1,0.4c-0.3,0.4-1.1,1-1.1,1s0.7-0.3,1.2-0.7c0.4-0.3,0.7-0.7,0.8-0.7h0.1
			c0.2,0,0.4,0,0.5,0s0,0.3-0.2,0.6c-0.3,0.4-0.9,0.9-0.9,0.9s0.6-0.2,1-0.6c0.5-0.4,0.8-0.9,0.9-0.9c0.2,0,0.5,0,0.7-0.1
			c0.1,0,0.1,0,0.2,0c0,0-0.2,0.3-0.5,0.7c-0.5,0.5-1.1,1.1-1.1,1.1s0.7-0.3,1.3-0.8s1.1-1.1,1.2-1.1c0.2,0,0.5-0.1,0.7-0.1
			c0,0-0.1,0.3-0.3,0.5c-0.4,0.5-1.2,1.2-1.2,1.2s0.7-0.5,1.3-1c0.5-0.4,0.9-0.9,1-0.9c0.3,0,0.5-0.1,0.8-0.1c0,0-0.1,0.2-0.3,0.5
			c-0.4,0.4-0.9,1-0.9,1s0.5-0.3,1-0.7s0.9-0.9,0.9-0.9c0.7-0.1,1.1-0.3,1.1-0.3c-0.1,0-2.3,3.2-7.2,3.3c-2.3,0-4.1-1.1-4.8-1.8
			c-0.4-0.4-0.5-0.7-0.5-0.7s0.2-0.4,0.6-0.8c0,0,0.4-0.2,0.7-0.1s0.6,0.3,0.6,0.3s0-0.2-0.2-0.4c-0.2-0.2-0.6-0.3-0.5-0.3
			c0.1-0.1,0.2-0.2,0.4-0.3c0.1,0,0.7,0.1,1.1,0.3c0.3,0.2,0.5,0.4,0.5,0.4s0-0.2-0.3-0.5s-0.8-0.6-0.7-0.6c0.1-0.1,0.3-0.2,0.4-0.2
			c0.1,0,0.7,0.1,1.2,0.5c0.4,0.2,0.9,0.7,0.9,0.7s-0.3-0.7-0.5-0.9c-0.5-0.4-1-0.5-0.9-0.5c0.2-0.1,0.4-0.1,0.5-0.2
			c0.1,0,0.8,0.3,1.4,0.8c0.4,0.3,0.8,0.9,0.8,0.9s-0.2-0.7-0.4-0.9c-0.5-0.5-1.1-0.9-1-0.9c0.2,0,0.4,0,0.5-0.1
			c0.1,0,0.8,0.4,1.4,0.8c0.5,0.4,0.8,0.8,0.8,0.8s-0.2-0.6-0.5-0.9c-0.4-0.5-1-0.7-0.9-0.7c0.3,0,0.6,0,0.9,0.1
			c0.1,0,0.6,0.3,1,0.7c0.4,0.4,0.8,0.8,0.8,0.8s0-0.2-0.2-0.4c-0.3-0.4-0.8-0.9-0.9-1c0.2,0,0.4,0.1,0.6,0.1c0.1,0,0.6,0.3,1,0.6
			c0.4,0.3,0.7,0.6,0.7,0.6s0-0.2-0.2-0.4c-0.3-0.3-0.8-0.6-0.7-0.6c0.2,0,0.5,0.1,0.7,0.1c0.1,0,0.5,0.2,0.8,0.4
			c0.3,0.2,0.5,0.4,0.5,0.4s0-0.1-0.1-0.3c-0.1-0.2-0.3-0.4-0.2-0.3c0.1,0,0.1,0,0.2,0c0.1,0,0.3,0.1,0.6,0.2s0.5,0.3,0.5,0.3
			s-0.1-0.1-0.2-0.2c-0.1-0.1-0.3-0.1-0.2-0.1c0.9,0.1,1.5,0.2,1.5,0.2s-1.1,0.4-2,0.6c-0.3,0.1-0.5,0.1-0.7,0.2
			c0.3,0,1.1-0.1,1.9-0.2c0.8-0.1,1.5-0.4,1.5-0.4s-1.3,0.8-3.9,1.1c-1.1,0.1-2.3,0.3-3.4,0.4c-1.3,0.1-2.5,0-2.5,0
			s-0.4,0.9-1.3,1.1C233.3,33.4,234.1,33.4,234.7,32.6z M218.4,40.4c1.7,0.8,3.8,1.9,3.8,1.9s-1.1-0.2-3-0.4c-0.1,0,0.3,0,0.5-0.1
			s0.4-0.3,0.4-0.3s-0.6,0.1-1.1,0.2c-0.5,0.1-1.1,0.1-1.2,0c-0.1,0-0.3,0-0.4,0c-0.1,0,0.3-0.2,0.6-0.5c0.2-0.2,0.3-0.5,0.3-0.5
			s-0.5,0.2-1.1,0.4s-1.4,0.3-1.6,0.3c-0.5-0.1-0.9-0.1-1.4-0.2c-0.2,0,1-0.3,1.6-0.7c0.5-0.3,0.6-0.5,0.6-0.5s-0.7,0.4-1.6,0.6
			c-0.9,0.3-2.1,0.4-2.2,0.4c-0.4-0.1-0.8-0.1-1.2-0.2c0.3,0.1,1.5-0.6,2.2-1.1c0.4-0.3,0.5-0.6,0.5-0.6s-0.9,0.6-1.8,0.9
			c-1,0.4-2.1,0.5-2.2,0.5c-0.6-0.1-1.3-0.3-1.9-0.4c-0.2,0,1.1-0.2,2.1-0.7c0.7-0.4,1.3-1.1,1.3-1.1s-0.8,0.5-1.9,0.8
			c-1.3,0.4-2.9,0.6-3,0.5c-0.4-0.1-0.7-0.2-1.1-0.4c-0.2-0.1,1.3-0.3,2.4-0.9c0.5-0.3,1.2-1.2,1.2-1.2s-0.9,0.7-1.8,1
			c-1.4,0.5-3,0.6-3.1,0.5c-0.4-0.2-0.7-0.3-1-0.5c-0.2-0.1,1,0,2.1-0.4c0.6-0.2,1.3-1.2,1.3-1.2s-1.1,0.5-1.9,0.7
			c-1.3,0.3-2.5,0.3-2.6,0.2c-0.3-0.2-0.5-0.3-0.8-0.5c-0.1-0.1,1-0.3,1.7-0.6c0.6-0.2,0.7-0.6,0.7-0.6s-0.4,0.3-1.1,0.4
			c-0.9,0.1-2.2,0.1-2.2,0c-0.2-0.2-0.4-0.3-0.5-0.5c-0.1-0.1,0.7-0.1,1.2-0.3c0.4-0.2,0.6-0.5,0.6-0.5s-0.7,0.3-1.4,0.3
			c-0.5,0-1.1-0.3-1.1-0.4c-0.4-0.8-0.5-1.4-0.5-1.4s0.4-0.4,1.3-0.8c1.7-0.8,5-1.6,9.3-0.7c9.5,2.3,13.4,8.7,13.4,8.7
			s-0.8-0.4-2.1-0.9c-0.1,0-0.8-1.1-1.6-2s-1.7-1.6-1.7-1.6s1,1.1,1.6,2c0.4,0.6,0.6,1.1,0.5,1c-0.5-0.2-1-0.4-1.5-0.6
			c-0.1-0.1-0.8-1-1.8-2c-1-1.1-2.3-2.1-2.3-2.1s1.3,1.4,2,2.4c0.4,0.6,0.5,1,0.5,1c-0.4-0.2-0.9-0.3-1.4-0.5
			c-0.2-0.1-1.1-1.3-2.2-2.3c-1.1-1-2.3-1.8-2.3-1.8s1.1,1.2,1.9,2.2c0.6,0.7,0.9,1.3,0.8,1.3c-0.1,0-0.2-0.1-0.3-0.1
			c-0.5-0.2-0.9-0.3-1.4-0.5c-0.1,0-0.7-1-1.5-1.7c-0.8-0.8-1.7-1.4-1.7-1.4s0.9,0.9,1.4,1.7c0.3,0.5,0.3,1,0.2,1
			c-0.4-0.1-0.7-0.2-1-0.3c-0.1,0-0.1,0-0.2-0.1c-0.1,0-0.5-0.7-1.3-1.4c-0.8-0.8-2-1.5-2-1.5s1.1,1.1,1.6,1.9
			c0.3,0.4,0.1,0.6,0.1,0.6c-0.2,0-0.3-0.1-0.5-0.1c-0.8-0.2-1.2-0.3-1.2-0.3c-0.9-1.4-2.3-1.7-2.3-1.7c1.3,0.5,1.7,2.1,1.7,2.1
			s2.3,0.4,4.8,1.1c2.3,0.7,4.7,1.6,6.8,2.4c5.2,2,7.6,3.8,7.6,3.8s-1.3-0.7-2.8-1.3s-3.2-1.2-3.8-1.4
			C217.4,39.9,217.9,40.2,218.4,40.4z M210.1,44.7c0,0-0.7,0.4-0.9,1.5c0,0-0.2,0.1-0.6,0.3c-0.1,0-0.2,0.1-0.2,0.1
			s-0.2-0.1-0.1-0.4c0.1-0.6,0.5-1.5,0.5-1.5s-0.5,0.7-0.8,1.3c-0.3,0.5-0.4,1.1-0.4,1.1s-0.1,0-0.1,0.1c-0.2,0.1-0.3,0.2-0.5,0.3
			c-0.1,0-0.2-0.3-0.1-0.7c0.1-0.6,0.4-1.3,0.4-1.3s-0.4,0.5-0.7,1.2c-0.3,0.6-0.4,1.3-0.4,1.4c-0.2,0.2-0.5,0.3-0.7,0.5
			c-0.1,0-0.1,0.1-0.2,0.1c0,0,0-0.4,0.2-1c0.2-0.8,0.6-1.7,0.6-1.7s-0.5,0.7-0.9,1.5s-0.6,1.8-0.7,1.9c-0.2,0.2-0.4,0.4-0.7,0.5
			c0,0-0.1-0.3,0-0.7c0.2-0.8,0.6-1.9,0.6-1.9s-0.5,0.9-0.8,1.7s-0.5,1.5-0.6,1.6c-0.2,0.2-0.5,0.4-0.7,0.6c0,0,0-0.3,0.1-0.8
			c0.2-0.7,0.5-1.6,0.5-1.6s-0.4,0.6-0.6,1.3c-0.3,0.7-0.4,1.5-0.5,1.6c-0.6,0.6-1,0.9-1,0.9s0.8-4.9,5.7-7.7c2.3-1.2,4.3-1,5.4-0.8
			c0.6,0.2,0.9,0.4,0.9,0.4s0.1,0.4,0,1c0,0.1-0.2,0.4-0.5,0.4c-0.4,0.1-0.8,0-0.8,0s0.1,0.2,0.4,0.2c0.3,0.1,0.8,0,0.7,0.1
			s-0.1,0.3-0.2,0.4c0,0.1-0.7,0.3-1.3,0.3c-0.4,0-0.7-0.1-0.7-0.1s0.2,0.2,0.5,0.3c0.5,0.1,1.1,0.1,1.1,0.2
			c-0.1,0.2-0.2,0.3-0.3,0.5c0,0.1-0.8,0.2-1.5,0.2c-0.5,0-1.3-0.3-1.3-0.3s0.6,0.5,1,0.6c0.7,0.2,1.3,0,1.3,0
			c-0.1,0.2-0.3,0.3-0.5,0.5c-0.1,0.1-1,0.2-1.9,0c-0.6-0.1-1.3-0.4-1.3-0.4s0.6,0.6,0.9,0.7c0.8,0.3,1.6,0.2,1.5,0.3
			c-0.2,0.1-0.3,0.3-0.5,0.4c-0.1,0-1,0.1-1.8,0c-0.7-0.1-1.2-0.3-1.2-0.3s0.5,0.4,1,0.6c0.7,0.2,1.4,0.1,1.3,0.2
			c-0.3,0.2-0.6,0.4-1,0.5c-0.1,0-0.7,0.1-1.4-0.1c-0.6-0.1-1.2-0.4-1.2-0.4s0.1,0.2,0.4,0.4c0.5,0.3,1.3,0.5,1.5,0.5
			c-0.2,0.1-0.4,0.2-0.7,0.3c-0.1,0-0.7,0.1-1.3,0s-1-0.2-1-0.2s0.1,0.2,0.5,0.3s1.2,0.2,1.1,0.2c-0.3,0.1-0.5,0.2-0.8,0.3
			c-0.1,0-0.6,0.1-1,0c-0.4,0-0.7-0.1-0.7-0.1s0.1,0.2,0.3,0.3s0.5,0.2,0.4,0.2s-0.2,0.1-0.2,0.1c-0.1,0-0.4,0.1-0.7,0.1
			s-0.7,0-0.7,0s0.1,0.1,0.3,0.1c0.1,0,0.4,0,0.3,0c-1,0.4-1.6,0.7-1.6,0.7s0.9-1,1.7-1.8c0.2-0.2,0.5-0.5,0.6-0.6
			c-0.3,0.2-1.1,0.8-1.9,1.4c-0.7,0.6-1.3,1.3-1.3,1.3s1-1.6,3.5-3.6c1-0.8,2.2-1.8,3.3-2.5c1.3-0.8,2.5-1.4,2.5-1.4
			S209.4,45.3,210.1,44.7z M199.8,52.3l0.1-0.1c-0.1,0.5-0.2,0.8-0.2,0.8s-0.2-0.6-0.3-1.1c0-0.1-0.1-0.3-0.1-0.4
			c0,0.2,0,0.6,0.1,1.1c0.1,0.4,0.2,0.8,0.2,0.8s-0.4-0.8-0.5-2.2c0-0.6-0.1-1.3-0.1-1.9c0-0.7,0.1-1.4,0.1-1.4s-0.6-0.3-0.6-0.7
			c0,0,0,0.5,0.4,0.8c0,0,0,0.1,0,0.4v0.1c0,0-0.1,0-0.2-0.1c-0.2-0.2-0.5-0.7-0.5-0.7s0.2,0.4,0.4,0.7s0.4,0.4,0.4,0.5
			c0,0,0,0,0,0.1s0,0.2,0,0.3c0,0-0.2,0-0.3-0.1c-0.2-0.2-0.5-0.5-0.5-0.5s0.1,0.3,0.3,0.6s0.5,0.5,0.5,0.5c0,0.1,0,0.3,0,0.4v0.1
			c0,0-0.2-0.1-0.4-0.3c-0.3-0.3-0.6-0.7-0.6-0.7s0.2,0.4,0.4,0.8c0.3,0.4,0.6,0.7,0.6,0.7c0,0.1,0,0.3,0,0.4c0,0-0.2,0-0.3-0.2
			c-0.3-0.3-0.7-0.7-0.7-0.7s0.3,0.4,0.5,0.8c0.2,0.3,0.5,0.6,0.5,0.6c0,0.1,0,0.3,0.1,0.4c0,0-0.1-0.1-0.3-0.2
			c-0.2-0.2-0.6-0.5-0.6-0.5s0.2,0.3,0.4,0.6s0.5,0.5,0.5,0.6c0.1,0.4,0.1,0.6,0.1,0.6s-1.9-1.4-1.8-4.2c0.1-1.3,0.8-2.2,1.3-2.6
			c0.2-0.2,0.4-0.3,0.4-0.3s0.2,0.1,0.5,0.4c0,0,0.1,0.2,0,0.4s-0.2,0.3-0.2,0.3s0.1,0,0.2-0.1c0.1-0.1,0.2-0.3,0.2-0.3
			c0,0.1,0.1,0.1,0.1,0.2c0,0-0.1,0.4-0.2,0.6c-0.1,0.2-0.3,0.3-0.3,0.3s0.1,0,0.3-0.1c0.2-0.2,0.4-0.4,0.4-0.4
			c0,0.1,0.1,0.2,0.1,0.3c0,0-0.1,0.4-0.3,0.7c-0.2,0.2-0.5,0.4-0.5,0.4s0.4-0.1,0.6-0.3c0.3-0.2,0.4-0.5,0.4-0.5
			c0,0.1,0.1,0.2,0.1,0.3c0,0-0.2,0.4-0.5,0.8c-0.2,0.2-0.6,0.4-0.6,0.4s0.4-0.1,0.6-0.2c0.3-0.2,0.6-0.6,0.6-0.5s0,0.2,0,0.3
			c0,0-0.2,0.4-0.5,0.7c-0.2,0.3-0.5,0.4-0.5,0.4s0.3-0.1,0.6-0.3s0.5-0.5,0.5-0.5c0,0.2,0,0.3-0.1,0.5c0,0-0.2,0.3-0.5,0.5
			c-0.2,0.2-0.5,0.4-0.5,0.4s0.1,0,0.3-0.1c0.3-0.1,0.6-0.4,0.6-0.5c0,0.1-0.1,0.2-0.1,0.3c0,0-0.2,0.3-0.4,0.5s-0.4,0.4-0.4,0.4
			s0.1,0,0.3-0.1c0.2-0.2,0.4-0.4,0.4-0.4c0,0.1-0.1,0.2-0.1,0.4c0,0-0.2,0.2-0.3,0.4s-0.3,0.3-0.3,0.3s0.1,0,0.2,0
			c0.1-0.1,0.2-0.2,0.2-0.1V52C200,52,199.9,52.2,199.8,52.3c0,0.1-0.1,0.3-0.1,0.3S199.7,52.3,199.8,52.3z M204.1,59.5
			c4.5-1.6,7.7-3.5,9.4-3.8s4.4-1.1,5.8-2.2l0,0c0.6,1.3,1.3,4-0.3,6.5l0,0c0,0-1.2,0.2-2.2-0.1c-0.3-0.1-1.4-0.6-3-0.8
			c-2.8-0.3-7.4-0.2-11,2c-1.3,0.8-2.7,2.1-3.8,4c-0.3,0.5-0.5,0.9-0.8,1.4c-0.2,0.5-0.5,1-0.7,1.5c-0.4,1.1-0.7,2.2-0.9,3.2
			c0,0,0,0,0.1,0h0.1h0.1c0.2,0,0.5,0,0.8,0c0.7,0,1.8-0.1,3.1-0.3c2.6-0.5,6.2-1.3,10.5-4.3c2.7-2.1,2.4-2,4.5-3.7
			c0.8-0.6,1.7-1.2,2.4-1.6c-1.5,3.3-1.8,8.8-3.8,11.5c-0.4,0.5-1.4,2.8-2.7,5.4c-0.8,0.6-1.8,0.4-1.8,0.4l0,0l0,0
			c-0.9-2.5-4.8-3.6-8.1-2.6c-3.3,0.9-5.8,3.6-5.1,5.9s4.6,3.5,8.1,2.7c3-0.6,5.2-2.7,5.3-4.8c0.2-0.1,0.5-0.2,0.8,0.2
			c-1.6,3.5-3.7,7.6-4.5,9.5h-10.9l-0.1-28.1C197.6,61.1,201.1,60.6,204.1,59.5z M214,62c1.5-0.4,3.3-0.7,3.3-0.7s-0.7,0.5-1.8,1.3
			c-0.1,0,0.1-0.2,0.2-0.3c0-0.2,0-0.4,0-0.4s-0.2,0.4-0.4,0.7s-0.5,0.6-0.6,0.7c-0.1,0.1-0.2,0.1-0.2,0.2c-0.1,0.1,0-0.3,0-0.6
			s-0.2-0.5-0.2-0.5s-0.1,0.4-0.3,0.9s-0.5,1-0.6,1.1c-0.3,0.2-0.6,0.4-0.8,0.6c-0.1,0.1,0.2-0.7,0.3-1.3c0.1-0.5-0.1-0.7-0.1-0.7
			s-0.1,0.6-0.4,1.3c-0.3,0.7-0.8,1.4-0.9,1.5c-0.3,0.2-0.5,0.4-0.8,0.6c0.2-0.1,0.3-1.2,0.3-1.9c0-0.4-0.2-0.7-0.2-0.7
			s0,0.9-0.3,1.6c-0.2,0.8-0.7,1.5-0.8,1.6c-0.4,0.3-0.9,0.5-1.3,0.8c-0.1,0.1,0.4-0.7,0.6-1.6c0.1-0.6-0.1-1.5-0.1-1.5
			s0,0.8-0.4,1.6c-0.4,1-1.1,2-1.2,2c-0.3,0.1-0.6,0.3-0.8,0.4c-0.1,0.1,0.5-0.9,0.6-1.9c0.1-0.5-0.3-1.5-0.3-1.5s0,1-0.2,1.7
			c-0.4,1.1-1.1,2.1-1.2,2.1c-0.3,0.1-0.6,0.2-0.9,0.3c-0.1,0,0.5-0.6,0.8-1.5c0.1-0.5-0.2-1.5-0.2-1.5s-0.1,1-0.5,1.6
			c-0.5,0.9-1.2,1.7-1.2,1.7c-0.3,0.1-0.6,0.1-0.8,0.2c-0.1,0,0.3-0.8,0.4-1.4c0.1-0.5-0.1-0.8-0.1-0.8s0,0.4-0.3,1
			c-0.4,0.6-1.1,1.4-1.2,1.5c-0.3,0-0.5,0.1-0.7,0.1c-0.1,0,0.3-0.5,0.4-1c0.1-0.4-0.1-0.6-0.1-0.6s-0.1,0.6-0.5,1.1
			c-0.3,0.4-0.9,0.6-1,0.6c-0.9,0-1.5-0.2-1.5-0.2s-0.1-0.5,0.1-1.3c0.4-1.6,1.7-5,4.8-7.2c7.2-4.3,13.7-1.5,13.6-1.6
			c0,0-0.7,0.2-1.7,0.5c-0.1,0-1.2-0.4-2.2-0.5c-1-0.2-2.1-0.2-2.1-0.2s1.3,0.3,2.3,0.5c0.6,0.2,1.1,0.4,1,0.5
			c-0.4,0.1-0.8,0.2-1.2,0.4c-0.1,0-1.2-0.3-2.3-0.4c-1.3-0.2-2.8-0.2-2.8-0.2s1.8,0.3,2.9,0.6c0.6,0.2,1.1,0.4,1,0.5
			c-0.4,0.1-0.7,0.3-1.1,0.4c-0.2,0.1-1.5-0.3-2.9-0.4c-1.3-0.1-2.7,0.1-2.7,0.1s1.5,0.1,2.7,0.4c0.8,0.2,1.5,0.4,1.4,0.4
			s-0.2,0.1-0.3,0.1c-0.4,0.2-0.7,0.3-1.1,0.5c-0.1,0-1.1-0.3-2.1-0.3c-1-0.1-2,0.2-2,0.2s1.2,0,2.1,0.2c0.6,0.2,0.9,0.5,0.8,0.5
			c-0.3,0.1-0.5,0.3-0.8,0.4c-0.1,0-0.1,0.1-0.2,0.1c-0.1,0-0.8-0.1-1.8-0.1c-1.1,0-2.3,0.4-2.3,0.4s1.6-0.1,2.4,0.1
			c0.4,0.1,0.6,0.3,0.5,0.4s-0.2,0.2-0.3,0.2c-0.6,0.4-0.9,0.6-0.9,0.6c-1.6-0.3-2.7,0.6-2.7,0.6c1.2-0.7,2.7,0,2.7,0
			s1.6-1.3,3.5-2.3c1.7-0.9,3.7-1.7,5.4-2.3c4.1-1.5,6.6-1.5,6.6-1.5s-1.2,0.2-2.4,0.6c-1.2,0.4-2.5,0.9-2.9,1.1
			C213.1,62.2,213.5,62.1,214,62z M199.7,81.8c-0.5,0.2-0.9,0.3-1.2,0.3c-0.2,0-0.3-0.1-0.4-0.2l-0.1-0.1l-0.1-0.1
			c0-0.1-0.1-0.2-0.1-0.3c-0.3-1,0.2-2,1-2.8c0.2-0.2,0.4-0.4,0.7-0.6c0.1-0.1,0.3-0.2,0.4-0.3c0.1,0,0.1-0.1,0.2-0.1
			c0.1,0,0.1-0.1,0.2-0.1c0.6-0.3,1.2-0.6,1.9-0.8c1.4-0.4,2.9-0.4,4.2,0.1c0.6,0.2,1.2,0.5,1.7,0.9c0.2,0.2,0.4,0.4,0.6,0.6
			c0,0.1,0.1,0.1,0.1,0.2s0.1,0.1,0.1,0.2c0.1,0.1,0.1,0.3,0.2,0.4c0.1,0.3,0.1,0.5,0.1,0.7c0,0.1-0.1,0.2-0.1,0.2l-0.1,0.1
			c0,0,0,0-0.1,0c0,0,0,0-0.1,0c-0.3,0.2-0.9,0.2-1.6,0.2c-1.2,0-2.7-0.2-4,0.1C201.9,80.6,200.7,81.3,199.7,81.8z M202.1,83.2
			c0,0,0,0.1-0.1,0.1l-0.1,0.1c-0.1,0.1-0.1,0.1-0.3,0.2s-0.5,0.2-0.9,0.2c-0.6,0-1.1-0.1-1.6-0.4c-0.1-0.1-0.2-0.1-0.4-0.2
			c-0.1,0-0.1-0.1-0.2-0.1c-0.1,0-0.1-0.1-0.2-0.1c-0.2-0.2-0.5-0.4-0.7-0.6c-0.1-0.1-0.1-0.2-0.1-0.3l0,0l0,0l0,0h0.1
			c0.8,0.8,2,0.7,3.3,0.6c0.1,0,0.2,0,0.3,0c0,0,0,0,0.1,0c0,0,0,0,0.1,0h0.1c0.1,0,0.1,0,0.2,0l0,0l0,0c0,0,0,0,0.1,0
			C202.2,82.9,202.2,83,202.1,83.2z M265.7,41.5c0.1,0.2,0.2,0.5,0.3,0.7c0.4-0.1,1,0.4,1,0.4C266.5,41.6,265.7,41.5,265.7,41.5z
			 M266.4,28.2l-0.4,0.1c0,0,0.3,0.3,0.9,0.2C266.9,28.6,266.4,28.4,266.4,28.2z M222.4,76l2.3,6.8C223.8,77.8,222.4,76,222.4,76z
			 M212.8,62.3c-0.1,0-0.2,0.1-0.2,0.1C212.6,62.4,212.7,62.4,212.8,62.3z M199.1,67.8c0,0,1.2-0.1,1.5,0.3c0.3-0.2,0.6-0.4,0.9-0.6
			C201.5,67.4,200.5,66.9,199.1,67.8z M251.6,35c0.3-0.3,0.3-0.6,0.3-0.6l-0.3,0.2C251.7,34.7,251.6,35,251.6,35z M226.8,85.8
			c-0.4-1-1.5-1.4-1.5-1.4l0.1,0.8C226,85.1,226.8,85.8,226.8,85.8z M221.8,74.4C221.8,74.5,221.8,74.5,221.8,74.4
			C221.9,74.6,221.9,74.5,221.8,74.4z M223.9,69.3c1.4,0.3,2.8,0.5,4.2,1C225.1,69.1,223.9,69.4,223.9,69.3z M256.3,81.1
			c-4.5-0.6-8.9-1.2-13.4-1.8C252.4,81.8,256.3,81.1,256.3,81.1z M236.7,80c2.1,0.2,3.2-1,3.2-1c-0.5-0.1-1-0.3-1.5-0.4
			C238.2,79.4,236.7,80,236.7,80z M265.9,76.1c-0.1,0-0.1-0.1-0.2-0.1C265.7,75.9,265.7,76,265.9,76.1z M259.5,81.6
			c-0.1,0-0.2,0-0.3,0C259.2,81.5,259.3,81.5,259.5,81.6z M266.8,86.9c-0.1,0.1-0.1,0.1-0.1,0.1C266.7,86.9,266.7,86.9,266.8,86.9z
			 M253,65.9c1.1,1,2.3,0.8,2.3,0.8c-0.2-0.3-0.5-0.5-0.7-0.8C254.1,66.2,253,65.9,253,65.9z M259.1,20.9c-1.1,1.2-1.2,1.8-1.2,1.8
			C258.2,22,258.6,21.4,259.1,20.9z M264.2,74.6c-2.4-2.1-4.8-4.3-7.2-6.4C261.6,73.3,264.2,74.6,264.2,74.6z M259.7,19.4
			c-0.2,0-0.4,0-0.5,0s-0.3,0.1-0.4,0.2c-0.5,0.2-1,0.5-1.3,0.8c-0.7,0.8-0.9,2-1,2.7c0,0.3,0,0.5,0.1,0.6c0,0,0.1,0.7,0.3,0.8
			c0.2-0.2,0.4-0.6,0.7-0.8c0.5-0.5,0.6-0.4,1.3-1c1-1,1.3-1.8,1.5-2.5c0.1-0.3,0.1-0.6,0.1-0.8c0-0.1,0-0.2,0-0.2l0,0l0,0l0,0
			C260.3,19.3,260,19.4,259.7,19.4z M260.3,20c0,0-0.1,0.2-0.2,0.2c-0.1,0.1-0.3,0.1-0.3,0.1s0.1,0.1,0.2,0c0.1,0,0.3-0.1,0.3-0.1
			c0,0.1,0,0.1-0.1,0.2c0,0-0.3,0.2-0.4,0.2c-0.2,0.1-0.3,0-0.3,0s0.1,0.1,0.2,0c0.2,0,0.4-0.1,0.4,0s-0.1,0.1-0.1,0.2
			c0,0-0.2,0.2-0.5,0.2c-0.2,0.1-0.5,0-0.5,0s0.3,0.1,0.4,0.1c0.3,0,0.5-0.2,0.4-0.1c0,0.1-0.1,0.1-0.1,0.2c0,0-0.3,0.2-0.6,0.2
			c-0.2,0-0.5,0-0.5,0s0.2,0.1,0.4,0.1c0.3,0,0.6-0.1,0.5-0.1c0,0.1-0.1,0.1-0.1,0.2c0,0-0.3,0.2-0.6,0.2c-0.2,0-0.4,0-0.4,0
			s0.2,0.1,0.4,0.1c0.2,0,0.5-0.1,0.4-0.1c-0.1,0.1-0.2,0.2-0.3,0.3c0,0-0.2,0.1-0.5,0.1c-0.2,0-0.5,0-0.5,0s0.1,0.1,0.2,0.1
			c0.2,0,0.5,0,0.5,0c-0.1,0.1-0.1,0.1-0.2,0.2c0,0-0.2,0.1-0.4,0.2c-0.2,0-0.4,0-0.4,0s0.1,0,0.2,0c0.2,0,0.4-0.1,0.4,0
			c-0.1,0.1-0.1,0.1-0.2,0.2c0,0-0.2,0.1-0.3,0.1c-0.1,0-0.3,0-0.3,0s0,0,0.1,0.1c0.1,0,0.2,0,0.2,0s0,0-0.1,0.1
			c0,0-0.1,0.1-0.2,0.1s-0.2,0.1-0.2,0.1h0.1h0.1c-0.3,0.2-0.4,0.4-0.4,0.4s0.2-0.4,0.3-0.8c0-0.1,0.1-0.2,0.1-0.3
			c-0.1,0.1-0.3,0.4-0.4,0.7c-0.2,0.3-0.3,0.6-0.3,0.6s0.1-0.6,0.7-1.6c0.2-0.4,0.5-0.9,0.8-1.2c0.3-0.4,0.8-0.8,0.8-0.8
			s-0.1-0.4,0.1-0.7c0,0-0.3,0.2-0.3,0.6c0,0-0.1,0.1-0.2,0.2c0,0,0,0-0.1,0.1c0,0-0.1,0-0.1-0.1c0-0.2,0.1-0.6,0.1-0.6
			s-0.1,0.3-0.2,0.6c0,0.2,0,0.4,0,0.4l0,0c0,0.1-0.1,0.1-0.2,0.2c0,0-0.1-0.1-0.1-0.2c0-0.2,0-0.5,0-0.5s-0.1,0.2-0.1,0.5
			c0,0.2,0,0.5,0,0.5c-0.1,0.1-0.1,0.2-0.2,0.2c0,0,0,0,0,0.1c0,0-0.1-0.2-0.1-0.4c0-0.3,0-0.7,0-0.7s-0.1,0.3-0.1,0.7
			c0,0.3,0,0.7,0,0.7c-0.1,0.1-0.1,0.2-0.2,0.3c0,0-0.1-0.1-0.1-0.3c0-0.3,0-0.7,0-0.7s-0.1,0.4-0.1,0.7c0,0.3,0,0.6,0,0.6
			c-0.1,0.1-0.1,0.2-0.2,0.3c0,0-0.1-0.1-0.1-0.3c0-0.2-0.1-0.6-0.1-0.6s0,0.3,0,0.5c0,0.3,0.1,0.6,0.1,0.6
			c-0.1,0.2-0.2,0.4-0.2,0.4s-0.5-1.7,1-3.3c0.7-0.7,1.7-0.9,2.1-0.9c0.2,0,0.4,0,0.4,0C260.3,19.6,260.4,19.8,260.3,20z
			 M259.6,19.9c-0.3,0.3-0.2,0.6-0.2,0.6c0.1-0.1,0.1-0.1,0.2-0.2C259.5,20.1,259.6,19.9,259.6,19.9z M254.7,32.4l-2.3,1.6
			C254.2,33.1,254.7,32.4,254.7,32.4z M254,12.1c0,0.1,0,0.1,0,0.2C254,12.2,254,12.1,254,12.1z M201.3,33.1c0,0,0.8,0.9,0.6,1.4
			l1.1,0.3C203,34.8,202.8,33.7,201.3,33.1z M247,22.4l-0.2-7.2C246.3,20.4,247,22.4,247,22.4z M229.6,70.8c0.1-0.2,0.7-0.3,0.7-0.3
			c-0.8-0.3-1.2,0.1-1.2,0.1C229.3,70.6,229.5,70.7,229.6,70.8z M217,39.8c-0.1,0-0.2-0.1-0.2-0.1S216.9,39.7,217,39.8z M241,31.4
			h-0.1C240.9,31.4,240.9,31.4,241,31.4z M247,24.1c0-0.1,0-0.1,0-0.2C247,23.9,247,24,247,24.1z M229.4,35.6c0,0,0-0.1,0.1-0.1
			C229.5,35.5,229.5,35.6,229.4,35.6z M232.5,33.2c0.9-0.2,1.2-0.8,1.2-0.8c-0.2,0-0.4,0-0.6,0C233.1,32.7,232.6,33.2,232.5,33.2z
			 M227.4,13.6c1.1,1.1,2.5,0.8,2.5,0.8l-0.7-0.9C228.7,13.9,227.4,13.6,227.4,13.6z M235,32.1c3.8,0,4.9-0.6,4.9-0.6
			C238.3,31.7,236.7,31.8,235,32.1z M246.6,39.9c0,0,1.1,0,3.8-1.3L246.6,39.9z M238.5,23.1l-6.9-7.2
			C235.8,21.8,238.5,23.1,238.5,23.1z M240,24.8c-0.1-0.1-0.1-0.1-0.1-0.2C239.9,24.7,240,24.7,240,24.8z M246.8,12.7
			c-0.4,0-0.9-0.7-0.9-0.7c0.1,1.1,0.8,1.5,0.8,1.5L246.8,12.7z M210.8,45.6c-0.2-0.3,0-1,0-1c-0.7,0.6-0.6,1.4-0.6,1.4L210.8,45.6z
			 M248.4,46.5c0.1,0.1,0.2,0.1,0.2,0.1C248.5,46.6,248.4,46.5,248.4,46.5z M199.3,50.8c0-0.9-0.1-1.8-0.2-2.8
			C199,50.1,199.3,50.8,199.3,50.8z M204.5,50.4l4.7-3.5C205.4,48.9,204.5,50.4,204.5,50.4z M262.5,55.5c0,0-0.6-1-0.3-1.5l-1.1-0.4
			C261.1,53.6,261.2,54.7,262.5,55.5z M212.8,17.5l6.7,11.5C219.5,29,218.8,25.1,212.8,17.5z M198.6,46.6c0.1,0.5,0.4,0.7,0.4,0.7
			c0-0.1,0-0.2,0-0.4C198.9,47,198.6,46.7,198.6,46.6z M221,31.6c-0.1-0.2-0.2-0.2-0.2-0.2C220.9,31.5,221,31.5,221,31.6z
			 M210.5,13.6l0.9,1.2c0,0,0.9-1.6,0-3.4C211.4,11.4,211.3,13.1,210.5,13.6z M250.4,47.6c0,0,1.9,2,8.8,4.8L250.4,47.6z
			 M252.3,38.4c0,0-0.5-0.1-0.5-0.3l-0.4,0.2C251.3,38.3,251.7,38.6,252.3,38.4z M214.7,39c0,0-2.3-1.7-9.6-3.3L214.7,39z
			 M23.8,117.4L0.3,178.2h13.1l3.9-10.8h22.9l3.8,10.8h13.1l-23.6-60.8C33.5,117.4,23.8,117.4,23.8,117.4z M20.9,157.4l8.2-22.1
			l7.9,22.1H20.9z M92.3,168.7c-3.2,0-6-0.4-8.5-1.1c-2.8-0.9-5.1-2.2-7-4l-8.1,7.7c3.1,2.9,6.5,5,10.4,6.3
			c3.5,1.1,7.9,1.7,12.9,1.7c6.9,0,12.5-1.6,16.9-4.8c4.6-3.4,6.8-7.9,6.8-13.7c0-5.6-1.6-9.9-4.9-12.9c-2.8-2.4-6.8-4-12.2-4.7
			l-7.6-1c-2.5-0.3-4.5-1.1-5.9-2.4c-1.3-1.1-1.9-2.6-1.9-4.4c0-5.1,3.3-7.7,9.9-7.7c2.6,0,4.8,0.2,6.7,0.7c2.5,0.7,4.7,1.9,6.5,3.5
			l7.9-7.4c-5.2-4.7-12-7.1-20.7-7.1c-6.8,0-12.3,1.7-16.4,5.1c-4,3.4-5.9,7.8-5.9,13.3c0,5.1,1.5,9.1,4.6,12c2.8,2.6,7,4.3,12.4,5
			l7.7,1c2.6,0.4,4.5,1.1,5.7,2.1c1.3,1.2,2,2.9,2,5.1C103.7,166.2,99.9,168.7,92.3,168.7z M136.4,126.6h12v-9.1h-12V126.6z
			 M136.6,178.8h11.7v-44.6h-11.7V178.8z M213.6,168.2h-29v-50.3H172v60.9h41.5v-10.6L213.6,168.2L213.6,168.2z M267.5,117.9h-45.9
			v10.6h16.7v50.3h12.5v-50.3h16.7V117.9z M298.4,117.9l-23.3,60.9h13L292,168h22.7l3.8,10.8h13l-23.4-60.9H298.4z M295.5,158
			l8.1-22.1l7.8,22.1H295.5z M385.8,155.2l-25.4-37.3h-11.1v60.9h12.5v-37.4l25.4,37.4h11.1v-60.9h-12.5V155.2z M465.2,128.5v-10.6
			H423v60.9h42.2v-10.6h-29.7v-14.8h25.3v-10.6h-25.3v-14.3L465.2,128.5L465.2,128.5z"/>
	</g>
</g>
</svg>
