<?xml version="1.0" encoding="utf-8"?>
<!-- Generator: Adobe Illustrator 25.4.1, SVG Export Plug-In . SVG Version: 6.00 Build 0)  -->
<svg version="1.1" id="katman_1" xmlns="http://www.w3.org/2000/svg" xmlns:xlink="http://www.w3.org/1999/xlink" x="0px" y="0px"
	 viewBox="0 0 206 135.4" style="enable-background:new 0 0 206 135.4;" xml:space="preserve">
<style type="text/css">
	.st0{fill:#FFFFFF;}
</style>
<g id="Group_3466" transform="translate(-308.847 -47.712)">
	<g id="Group_56" transform="translate(404.891 47.712)">
		<g id="Group_44" transform="translate(3.996 6.867)">
			<g id="Group_43">
				<path id="Path_26" class="st0" d="M61.2,95c0-0.4,0-0.8,0-1.2c0.1-0.7,0.1-1.3,0.2-1.8c0.1-0.4,0.1-0.8,0.1-1.3
					c0-0.2,0-0.7,0-1.7s0-1.9,0.1-3s0.2-4.5,0.2-4.7c0-0.7,0.1-1.5,0.1-2.2"/>
				<path id="Path_27" class="st0" d="M60.7,104c0-0.7,0.1-1.4,0.2-2.1"/>
				<path id="Path_28" class="st0" d="M62.4,71.3c0-0.6-0.1-1.1-0.4-1.6c-0.2-0.5-0.4-1-0.7-1.4c-0.3-0.5-0.7-0.9-1.2-1.1
					c-0.4-0.2-0.7-0.4-1-0.7c-0.3-0.2-0.6-0.4-1-0.5c-0.2-1.5-0.2-3.1-0.2-4.7c0-3.5,2-7.5,2.1-9.9s-0.8-3.5-2.2-8.3
					s2.9-6.1,4.6-6.4s4.8-3.2,5.9-3.9s3.2-5.6,3.6-6.4c0.6-2.2,0.6-4.5,0.1-6.6c-0.6-1.9,3,0.8,3.2,0.7s3.2,0.8,5.1,1.3
					s4-0.6,6.2-2.1s3-1,3-1s0.4,0.4-0.2-0.3s-2.2-0.5-4,0.5s-3.9,1.7-5.1,1.2c-1.5-0.6-3-1.2-4.6-1.6c-0.3,0-2.8-1.2-1.1-2.9
					S77,9.1,77,9.1c0.3-1,0.9-1.8,1.7-2.4C79.9,6,81.8,7,83.4,6.9s1.2-1.6,1.4-2.3s0.4-1,1.6-1.4c0.8-0.3,1.3-0.9,1.6-1.7
					c-0.2,0.7-2.3,1-3.3,1.4s-0.5,1.7-1.5,2.4s-3-0.2-4.3-0.1c-1.1,0.2-2.1,0.6-2.9,1.2c-0.5-0.9-1.1-1.7-1.8-2.5
					c-1-0.9,1.1-1.3,1.3-2.1C75.6,1.1,75.4,0.5,75,0c0.8,0.8-0.6,2-1.9,2.8s-0.3,2,1.3,3.2s0.4,4.7,0.5,6.4s-2.9,2.4-3.9,3.5
					s-2.1,2.2-1.4,4.7s-1.1,6.2-3.1,9s-3.4,3.1-6.6,3.7s-2.9,0.9-4.3,0.8s-2.3-6.7-3.5-11.4s3.7-6.3,4.6-6.7s1.8-0.9,2.4,0.3
					c0.5,1.1,1.5,2,2.6,2.5c1.1,0.3,2,1.4,1.9,1.1c0.1-1-0.6-1.8-1.6-1.9c-1.7-0.3-1.6-2.1-2.4-3.3s-2.5,0.3-3.1,0.2
					s-0.1-0.9,0.5-3.4s-0.4-3.3-0.4-3.3c0.1,2-0.2,3.9-0.8,5.8c-1,2.3-2.6,1.8-5.1,3.8s-1.5,3.3-0.8,5.4s0.5,3.5-1.2,3.1
					s-3-5-3.6-6.7s-1.5-5.2-1.5-5.2c-0.2-0.8-0.3-1.7-0.2-2.6c0.2-1.2,1.4-1.4,1.7-2.9s-0.5-2-0.5-2c0.5,0.9,0.5,2-1,3.1
					c-0.9,0.7-1.3,1.9-1.2,3c0-0.2-0.3-1.3-2.3-2.8c-2.3-1.8-5.6-1.5-6.8-1.8s-0.6-2.1-0.6-2.1c-1.2,2.3-0.8,3.4,3.7,3.8
					s5.2,3.5,5.9,5.5c0.5,1.2,0.6,2.5,0.5,3.8c-2.6,0.3-3.2,2.8-3.8,2.9s-1.6-2.1-2-3.4s-3.8-1.6-5.7-2c-1-0.1-1.9-0.9-2.1-1.9
					c-1.1,0.6-0.4,2.1,1.5,2.6c1.7,0.4,3.3,1,4.9,1.7c2.2,1,1,2.4,2.7,3.7s3.5-1.8,4.7-2.2s1.4,2.4,2.3,5.4s3.9,2.5,5.5,3.7
					s2.9,7.7,3.4,11.6s3,9.6,3.2,11.9s-1.8,7.5-1.9,9.1c0,0.9,0.2,1.9,0.5,2.8c-0.2,0-0.4-0.1-0.6-0.1v0c-0.8-2.6-0.7-5.3,0.4-7.8
					c1.6-4.3-1.3-9.4-1.3-9.4s0.2,2.9,0.1,5.1c-0.1,1.5-0.5,3-1.1,4.4c-1.1,2.6-1.5,5.4-1.1,8.1c0.1,0.4,0.2,0.8,0.4,1.1l0,0
					c-0.1,0.6-0.2,1.2-0.2,1.8c-0.2-0.5-0.4-0.9-0.7-1.4c-1.8-2.8,1.6-12.4,1.9-15.3s0.5-5.3-1.8-8.3S46,41,43.5,40.8
					c-1.9-0.2-3.8-0.9-5.4-1.9c-1.2-0.6-1.6-5.8-2.6-7s-2.1-1.1-5.9-1.2s-5.6-0.5-7-2.8s2.2-3.6,2.3-6.4c0.1-1.4-1.9-3.1-2.8-4
					s-0.2-4.2-0.3-3.6s-0.4,2-0.8,3.1s1.5,2.5,2,3.9s-1.2,2.5-1.8,3.4s-1.1,3.3,1.4,6.6s9.7,0.9,11.4,2.3s1.7,5,1.7,5
					s-2.4-0.3-5.2-0.8s-6.8,3.1-7.6,3.3s-4-2.5-5.8-3s-3.8,1.1-5.3,1.3c-1.5,0-2.9-0.8-3.5-2.2c-0.6-1.2-1.3-2.3-2.1-3.4
					c-0.7-0.8-1.8-1.3-2.8-1.4C2.1,31.8,1,31.3,0,30.7c1.3,1.2,2.7,2.1,4.2,2.9c1.7,0.7,2.7,3.5,4,5.8s3.5,0.9,5.7,0.6
					s2.3-1,4.7,0.3c1,0.6,2,1.1,3.1,1.6c-0.1,0.4-0.3,0.9-0.6,1.3c-0.4,0.5-2.5,3.4-3.2,3.6s-2,1.8-2,2.6s-1.4,1.5-2.6,1.4
					s-1.7,0.9-1.9,1.8s-2.1,1.5-2.1,1.5s-0.8,0.1,0.6,0.2c1.2,0,2.2-0.9,2.5-2.1c0.2-0.9,2.3-0.2,3.6-0.8c1.3-0.6,1.1-1.5,2-1.5
					s2.1,2.3,2.3,3.5c0.1,0.6-0.8,1.3-1.7,2s-0.4,2-0.4,2c0-1.4,1.6-1.7,2.4-2.3s1.1-2.6-0.3-4.2s0.7-3.6,1.4-5s5.5-4.9,6.9-5.7
					s5.4-0.3,6.3,0.1s4.6,2.3,5.7,2.4s4.6,0.1,4.6,0.1s-3,1.3-3.4,2c-0.4,1.1-0.5,2.3-0.3,3.5c0.2,1.3-0.1,2.7-0.7,3.9
					c-0.4,0.5-2.5,0.5-3.5,1.9c-0.5,1-0.6,2.1-0.1,3.1l0-1.5c0-1.5,1.1-2,2.8-2.6s2-0.9,2.1-3.1s0.5-4.8,2.1-5.7s4.4-1.4,6.5,2.7
					s-1.1,9.2-2,12s0.7,6,1.1,8.2c0.2,1.3,1.4,2,2.1,2.9l0.2,0.7c0,1.5-0.1,2.1-0.2,3.2c0,0.4-0.1,0.9-0.2,1.3
					c-0.1,0.8-0.1,1.6-0.1,2.3c0,0.7-0.1,1.5-0.2,2.2c0,0.4,0,1.1-0.1,2.2s-0.1,2.2-0.2,3.5C51,86.8,50.9,88,50.9,89
					c0,1.1-0.1,1.8-0.1,2.1c-0.1,0.7-0.1,1.3-0.2,1.9c-0.1,0.6-0.1,1.2-0.1,1.9c-0.1,1.1-0.2,2.1-0.2,3.2c0,1.1,0,2.1-0.1,3.2
					c0,1.3-0.1,2.6,0,4c0,1.3,0,2.7,0,4c0,0.9,0.1,1.7,0.2,2.6c0.2,0.9,0.5,1.7,1,2.5c-1.9,1.9-3.9,7.9-3.9,7.9
					c-0.5,2.3-7.3,1.3-9.7,1.2s-4.1,0.3-5.6,2c-0.8,1-2,1.6-3.2,1.9c0,0,1.1,0.5,4.9-1.5s6.7,2.6,12.6,0.2s4.2-4.6,5.1-6.4
					c0.7-1.5,1.5-1.6,2.3-2.6c0.2,0.2,0.5,0.3,0.8,0.4c-0.2,1.2-0.2,2.4,0,3.6c0.6,2.4,3.5,5.3,8.3,3.7s10.3,1.7,10.3,1.7
					c2.1,1.3,3.9,0.7,5.7,1.7s8.9-0.5,5.8-0.7c-0.1,0-0.3,0-0.4,0c-2.8-0.1-4.2,0.3-6.9-2.1c-2.9-2.6-7.4-2.7-12.9-3.2
					c-3.8-0.4-5.9-1.9-6.6-3.8c0.5,0.1,1,0,1.5-0.2c0.4,1.4,1.3,2.2,3.6,3c3.3,1.2,7.6-0.6,12.6-0.4s7.1,2.4,8.7,3.3
					s7.6-0.1,9.6-0.6c2.1-0.4,4.3-0.6,6.4-0.7c0,0,1.9,0.3,0.3-0.2s-7.8,0.8-11.8,0.8s-4.9-0.6-7.8-2.6s-6.9-0.9-10.4-1.1
					s-3.7-0.7-6.1-1.2l-3.4-1.7c0.1-0.1,0.2-0.2,0.3-0.3c0.5-0.6,0.9-1.2,1.3-1.8c0.4-0.6,0.8-1.3,1.3-1.9c0.6-0.9,1.1-1.8,1.6-2.8
					c0.4-1,1-1.9,1.6-2.8c0.7-1,1.3-2,1.9-3c0.6-1,1.2-2,1.8-3.1c0.2-0.3,0.3-0.6,0.5-0.9c0.1-0.3,0.2-0.6,0.4-0.9
					c0.1-0.3,0.2-0.6,0.2-0.9c0-0.3,0.1-0.6,0.2-0.9c0.2-0.4,0.3-0.7,0.5-0.8s0-0.2-0.5-0.3l-0.4,0c-0.1,0-0.2,0.1-0.3,0.2
					c-0.2,0.4-0.3,0.8-0.5,1.1s-0.3,0.8-0.5,1.1c-0.1,0.2-0.2,0.5-0.2,0.7c0,0.2-0.1,0.5-0.2,0.7c-0.1,0.3-0.3,0.8-0.6,1.4
					s-0.5,1.1-0.6,1.4c-1,1.8-2,3.5-3.2,5.1c-1.1,1.5-2.3,3.2-3.5,5c-0.2,0.2-0.4,0.4-0.5,0.6s-0.3,0.4-0.5,0.6c-0.1,0-0.1,0-0.1,0
					s0,0-0.1,0l0-0.4"/>
				<path id="Path_29" class="st0" d="M103.6,32c-1.2,0.2-2.2,0.9-2.6,2.1c-0.7,1.7-2.1,3-3.9,3.5c-0.8,0.2-1.5,0.5-2.2,0.9
					c-0.4-0.7-1-1.3-1.7-1.8c-1.2-0.9-1.4-0.5-0.8-1.1s-0.1-2.3-0.1-2.3c-0.2,0.9-0.6,1.8-1,2.6c-0.5,0.7,2.3,2.3,2.5,3
					s0.8,0.9-2.6,2s-2.8,2.8-4.4,3.2s-2.6,0.3-4.7,1.3s-3.6,4.9-6,6.1s-7.5,1.8-10.1,2.3s-5,6.2-5,6.2c-0.1-1,0-1.9,0.3-2.8
					c0.3-2,0.4-3.9,0.2-5.9c-0.3,1.8-0.9,3.5-1.8,5.1c-1.4,2.4-0.9,7.9-0.9,7.9l3.8,5.2c-0.6-2.7,2.5-6.8,3.1-9.4s1.6-1,4.6-3.8
					s3.9-1.4,7.5-2.5s3.5-2.2,4.9-5c1.4-2.8,5.6-2.2,5.6-2.2c0.1,0.5,0.2,1,0.2,1.4c-0.1,0.4,0.4,0.9,0.8,2.2s3,0.5,4.6-0.1
					c0.9-0.3,1.9,0.1,2.3,1c-0.1-0.8-0.4-1.5-1-2.1c-0.9-1-1.7-0.1-3.8,0.1s-0.6-0.9-1-1.6c-0.4-1.1-0.6-2.3-0.3-3.5
					c0.3-0.9,2.5-2.1,3.7-2.9c1.7-1.1,3.5-2,5.3-2.8c1.4-0.9,2.5-2.2,3-3.7C102.9,32.6,104.1,31.9,103.6,32z"/>
			</g>
		</g>
		<g id="Group_55">
			<path id="Path_30" class="st0" d="M48.8,52.2c0.7,1.7,2.4,2.7,4.1,2.5C52.9,54.7,52.7,51.5,48.8,52.2z"/>
			<path id="Path_31" class="st0" d="M49.8,54.9c0,1.8,1.2,3.3,3,3.8C52.8,58.7,53.7,55.6,49.8,54.9z"/>
			<path id="Path_32" class="st0" d="M46.9,57.9c0,1.8,1.2,3.3,3,3.8C49.8,61.7,50.8,58.7,46.9,57.9z"/>
			<path id="Path_33" class="st0" d="M45.9,59.5c-0.8,1.6-0.4,3.5,0.9,4.7C46.8,64.2,49.1,61.9,45.9,59.5z"/>
			<path id="Path_34" class="st0" d="M47.6,53.1c-0.7,1.6-0.3,3.6,1.1,4.7C48.7,57.8,50.9,55.4,47.6,53.1z"/>
			<path id="Path_35" class="st0" d="M85.6,58.9c0.7,1.7,2.4,2.7,4.1,2.5C89.7,61.4,89.5,58.1,85.6,58.9z"/>
			<path id="Path_36" class="st0" d="M86.6,61.5c0,1.8,1.2,3.3,3,3.8C89.6,65.3,90.5,62.3,86.6,61.5z"/>
			<path id="Path_37" class="st0" d="M105.8,43.3c0.7,1.7,2.4,2.7,4.1,2.5C109.9,45.8,109.7,42.6,105.8,43.3z"/>
			<path id="Path_38" class="st0" d="M106.8,45.9c0,1.8,1.2,3.3,3,3.8C109.8,49.7,110.7,46.7,106.8,45.9z"/>
			<path id="Path_39" class="st0" d="M88.5,55.8c0.7,1.7,2.4,2.7,4.1,2.5C92.7,58.3,92.4,55.1,88.5,55.8z"/>
			<path id="Path_40" class="st0" d="M89.6,58.5c0,1.8,1.2,3.3,3,3.8C92.5,62.3,93.5,59.2,89.6,58.5z"/>
			<path id="Path_41" class="st0" d="M84.4,59.8c-0.7,1.6-0.3,3.6,1.1,4.7C85.5,64.5,87.7,62.1,84.4,59.8z"/>
			<path id="Path_42" class="st0" d="M102.3,46c0.7,1.7,2.4,2.7,4.1,2.5C106.5,48.5,106.2,45.3,102.3,46z"/>
			<path id="Path_43" class="st0" d="M103.4,48.7c0,1.8,1.2,3.3,3,3.8C106.3,52.5,107.3,49.4,103.4,48.7z"/>
			<path id="Path_44" class="st0" d="M101.2,46.9c-0.7,1.6-0.3,3.6,1.1,4.7C102.3,51.6,104.4,49.2,101.2,46.9z"/>
			<path id="Path_45" class="st0" d="M99.3,48.9c-0.9,2.1-0.3,4.5,1.4,5.9C100.6,54.9,103.3,51.8,99.3,48.9z"/>
			<path id="Path_46" class="st0" d="M89.8,27.6c0.7,1.7,2.4,2.7,4.1,2.5C94,30.1,93.7,26.9,89.8,27.6z"/>
			<path id="Path_47" class="st0" d="M90.9,30.3c0,1.8,1.2,3.3,3,3.8C93.8,34.1,94.8,31,90.9,30.3z"/>
			<path id="Path_48" class="st0" d="M88.7,28.5c-0.7,1.6-0.3,3.6,1.1,4.7C89.8,33.2,91.9,30.8,88.7,28.5z"/>
			<path id="Path_49" class="st0" d="M83,15.2c0.9,1.5,2.8,2.3,4.5,1.8C87.5,17,86.8,13.9,83,15.2z"/>
			<path id="Path_50" class="st0" d="M84.5,17.7c0.3,1.8,1.8,3.1,3.5,3.3C88,21,88.4,17.8,84.5,17.7z"/>
			<path id="Path_51" class="st0" d="M82,16.3c-0.5,1.7,0.3,3.6,1.8,4.5C83.9,20.8,85.6,18.1,82,16.3z"/>
			<path id="Path_52" class="st0" d="M56.5,27.5c1.3,0.5,2.7,0,3.5-1.1C60,26.5,58.1,25,56.5,27.5z"/>
			<path id="Path_53" class="st0" d="M58.5,28.3c1,0.9,2.5,1,3.7,0.3C62.2,28.6,60.9,26.5,58.5,28.3z"/>
			<path id="Path_54" class="st0" d="M56.4,28.7c0.6,1.3,1.9,2,3.2,1.8C59.6,30.5,59.4,28,56.4,28.7z"/>
			<path id="Path_55" class="st0" d="M58.3,17.6c-0.3-1.3-1.5-2.3-2.9-2.3C55.4,15.3,55.3,17.8,58.3,17.6z"/>
			<path id="Path_56" class="st0" d="M57.8,15.5c0.2-1.4-0.6-2.7-1.9-3.2C55.9,12.3,54.9,14.6,57.8,15.5z"/>
			<path id="Path_57" class="st0" d="M59.3,17.1c0.7-1.2,0.6-2.7-0.3-3.7C58.9,13.4,57.1,15,59.3,17.1z"/>
			<path id="Path_58" class="st0" d="M61.9,15.5c1.3,0.5,2.7,0,3.5-1.1C65.5,14.4,63.5,12.9,61.9,15.5z"/>
			<path id="Path_59" class="st0" d="M64,16.3c1,0.9,2.5,1,3.7,0.3C67.7,16.6,66.4,14.5,64,16.3z"/>
			<path id="Path_60" class="st0" d="M61.9,16.6c0.6,1.3,1.9,2,3.2,1.8C65.1,18.4,64.8,16,61.9,16.6z"/>
			<path id="Path_61" class="st0" d="M64.7,22.1c1.3-0.3,2.3-1.4,2.5-2.8C67.2,19.4,64.7,19.1,64.7,22.1z"/>
			<path id="Path_62" class="st0" d="M66.8,21.4c1.4,0.2,2.7-0.5,3.3-1.7C70.1,19.7,67.9,18.6,66.8,21.4z"/>
			<path id="Path_63" class="st0" d="M65.2,23.2c1.1,0.8,2.6,0.7,3.7-0.1C68.9,23,67.4,21,65.2,23.2z"/>
			<path id="Path_64" class="st0" d="M71.9,31.1c-0.5-1.1-1.6-1.8-2.8-1.6C69.1,29.5,69.3,31.7,71.9,31.1z"/>
			<path id="Path_65" class="st0" d="M71.1,29.1c-0.1-1.4-1-2.5-2.3-2.9C68.8,26.2,68.1,28.6,71.1,29.1z"/>
			<path id="Path_66" class="st0" d="M72.8,30.4c0.5-1.3,0.2-2.7-0.9-3.6C71.9,26.8,70.3,28.7,72.8,30.4z"/>
			<path id="Path_67" class="st0" d="M40.9,17.8c-0.7,1.2-0.5,2.7,0.5,3.7C41.4,21.5,43.2,19.8,40.9,17.8z"/>
			<path id="Path_68" class="st0" d="M36.9,16.7c-1.1,0.9-1.4,2.3-0.8,3.6C36,20.3,38.3,19.3,36.9,16.7z"/>
			<path id="Path_69" class="st0" d="M36.9,16.7c-1.3-0.4-2.7,0.1-3.5,1.3C33.4,18,35.4,19.4,36.9,16.7z"/>
			<path id="Path_70" class="st0" d="M26.5,23.5c1.2-0.6,1.9-2,1.6-3.3C28,20.2,25.6,20.6,26.5,23.5z"/>
			<path id="Path_71" class="st0" d="M28.3,22c1.4-0.1,2.5-1.1,2.8-2.4C31.1,19.6,28.7,19,28.3,22z"/>
			<path id="Path_72" class="st0" d="M25.2,21.8c-0.1-1.4-1.2-2.5-2.5-2.7C22.7,19.1,22.2,21.5,25.2,21.8z"/>
			<path id="Path_73" class="st0" d="M26.5,23.5c1.2,0.6,2.7,0.4,3.7-0.6C30.1,22.9,28.4,21.2,26.5,23.5z"/>
			<path id="Path_74" class="st0" d="M26.3,28.2C25,28,23.6,28.7,23.1,30C23.1,30,25.3,31.1,26.3,28.2z"/>
			<path id="Path_75" class="st0" d="M24,28.4c-1.2-0.7-2.7-0.6-3.7,0.3C20.3,28.6,21.8,30.5,24,28.4z"/>
			<path id="Path_76" class="st0" d="M26.3,28.3c-0.6-1.2-1.9-1.9-3.3-1.7C23,26.5,23.4,29,26.3,28.3z"/>
			<path id="Path_77" class="st0" d="M27.4,24.5c0.4,1.3,1.6,2.2,2.9,2.3C30.3,26.8,30.4,24.3,27.4,24.5z"/>
			<path id="Path_78" class="st0" d="M33.2,21c0.4,1.3,1.6,2.2,2.9,2.3C36.1,23.3,36.2,20.9,33.2,21z"/>
			<path id="Path_79" class="st0" d="M39.8,17.5c-1.3,0.4-2.3,1.5-2.3,2.9C37.5,20.5,40,20.6,39.8,17.5z"/>
			<path id="Path_80" class="st0" d="M42,62.1c0.1,1.8,1.3,3.3,3,3.8C45,65.9,45.9,62.8,42,62.1z"/>
			<path id="Path_81" class="st0" d="M40.8,64.5c-1.2,1.3-1.3,3.3-0.3,4.8C40.4,69.4,43.2,67.7,40.8,64.5z"/>
			<path id="Path_82" class="st0" d="M39.6,64.2c-1.8,0-3.4,1.2-3.9,2.9C35.8,67.1,38.9,68,39.6,64.2z"/>
			<path id="Path_83" class="st0" d="M40.3,63c-1.2-1.3-3.2-1.7-4.7-0.8C35.5,62.2,36.9,65.1,40.3,63z"/>
			<path id="Path_84" class="st0" d="M41,59.8c-1.2-1.3-3.2-1.7-4.7-0.8C36.2,59,37.6,61.9,41,59.8z"/>
			<path id="Path_85" class="st0" d="M43.6,57.8c-0.9-1-2.4-1.2-3.6-0.6C40,57.1,41,59.3,43.6,57.8z"/>
			<path id="Path_86" class="st0" d="M44.7,56.7c-0.4-1.8-1.9-3.2-3.8-3.3C40.9,53.4,40.5,56.7,44.7,56.7z"/>
			<path id="Path_87" class="st0" d="M44.5,54.5c0.5-1.8-0.3-3.7-1.9-4.7C42.6,49.8,40.8,52.6,44.5,54.5z"/>
			<path id="Path_88" class="st0" d="M40.5,52.2c0.4-1.4-0.2-2.8-1.4-3.6C39,48.6,37.6,50.8,40.5,52.2z"/>
			<path id="Path_89" class="st0" d="M40.2,55.2c0.4-1.4-0.2-2.8-1.4-3.6C38.8,51.6,37.4,53.8,40.2,55.2z"/>
			<path id="Path_90" class="st0" d="M37,53.4c1.2-1.3,1.4-3.2,0.6-4.7C37.5,48.8,34.8,50.3,37,53.4z"/>
			<path id="Path_91" class="st0" d="M33,50.5c1.7,0.2,3.4-0.8,4-2.4C37,48.1,34.1,46.8,33,50.5z"/>
			<path id="Path_92" class="st0" d="M29.6,49.7c-0.8,1.5-0.5,3.4,0.7,4.6C30.3,54.4,32.6,52.2,29.6,49.7z"/>
			<path id="Path_93" class="st0" d="M26.2,52.6c0,1.7,1.2,3.3,2.8,3.8C29.1,56.4,30,53.4,26.2,52.6z"/>
			<path id="Path_94" class="st0" d="M24.1,56.1c1,1.4,2.8,2,4.5,1.4C28.6,57.5,27.6,54.5,24.1,56.1z"/>
			<path id="Path_95" class="st0" d="M25.5,59.7c1.4,1.1,3.3,1.2,4.7,0.2C30.2,59.9,28.5,57.3,25.5,59.7z"/>
			<path id="Path_96" class="st0" d="M25.4,61.1c0.4,1.7,1.9,2.9,3.6,3C29,64.1,29.3,61,25.4,61.1z"/>
			<path id="Path_97" class="st0" d="M24.7,62.2c-0.7,1.4-0.4,3.1,0.8,4.1C25.5,66.3,27.4,64.3,24.7,62.2z"/>
			<path id="Path_98" class="st0" d="M22.1,64.5c-0.7,1.4-0.3,3.1,0.8,4.1C22.9,68.6,24.8,66.6,22.1,64.5z"/>
			<path id="Path_99" class="st0" d="M21.1,66.3c-1,0.5-1.5,1.7-1.3,2.8C19.8,69.1,21.8,68.7,21.1,66.3z"/>
			<path id="Path_100" class="st0" d="M21.6,63.7c-1.5,0.1-2.8,1.2-3.1,2.8C18.5,66.5,21.2,67.1,21.6,63.7z"/>
			<path id="Path_101" class="st0" d="M23,61c-0.5-1.5-1.9-2.4-3.5-2.3C19.6,58.6,19.6,61.4,23,61z"/>
			<path id="Path_102" class="st0" d="M20.1,62.8c0.8-1.3,0.6-3-0.5-4.1C19.6,58.7,17.6,60.6,20.1,62.8z"/>
			<path id="Path_103" class="st0" d="M15.2,65.5c0.8-1.3,0.6-3-0.5-4.1C14.7,61.4,12.6,63.3,15.2,65.5z"/>
			<path id="Path_104" class="st0" d="M11.6,65.4c1.4-0.7,2-2.3,1.7-3.8C13.3,61.6,10.6,62.1,11.6,65.4z"/>
			<path id="Path_105" class="st0" d="M8.7,63.1c1.5,0.1,3-0.8,3.5-2.2C12.3,60.9,9.7,59.8,8.7,63.1z"/>
			<path id="Path_106" class="st0" d="M10.1,58.8c0.9,1.3,2.5,1.9,3.9,1.4C14,60.2,13.2,57.5,10.1,58.8z"/>
			<path id="Path_107" class="st0" d="M13.3,55.7c-0.6,1.4-0.2,3.1,1,4.1C14.2,59.8,16.1,57.7,13.3,55.7z"/>
			<path id="Path_108" class="st0" d="M18.2,53.3c-1.2,1-1.5,2.7-0.9,4.1C17.4,57.4,19.9,56.3,18.2,53.3z"/>
			<path id="Path_109" class="st0" d="M22.9,47.7c-1.2,1-1.5,2.7-0.9,4.1C22.1,51.8,24.6,50.7,22.9,47.7z"/>
			<path id="Path_110" class="st0" d="M21.8,47.3c-1.5,0.3-2.7,1.5-2.8,3.1C19,50.3,21.7,50.7,21.8,47.3z"/>
			<path id="Path_111" class="st0" d="M14.8,48.8c-1.5,0.3-2.7,1.5-2.8,3.1C12,51.9,14.7,52.2,14.8,48.8z"/>
			<path id="Path_112" class="st0" d="M14.7,48.9c-1.5-0.5-3.1,0.1-4,1.3C10.8,50.2,13,51.8,14.7,48.9z"/>
			<path id="Path_113" class="st0" d="M12.1,47.2c-1.5-0.5-3.1,0.1-4,1.3C8.1,48.5,10.4,50.1,12.1,47.2z"/>
			<path id="Path_114" class="st0" d="M10.1,43.5c-1.3,0.3-2.3,1.3-2.4,2.7C7.7,46.2,10.1,46.5,10.1,43.5z"/>
			<path id="Path_115" class="st0" d="M9.8,43.1c-1.4-1-3.3-1-4.7,0C5.2,43.1,7,45.7,9.8,43.1z"/>
			<path id="Path_116" class="st0" d="M6.2,40.1c-1.7-0.1-3.3,1-3.8,2.7C2.4,42.7,5.3,43.8,6.2,40.1z"/>
			<path id="Path_117" class="st0" d="M9.4,34.3c-1.5,0.8-2.4,2.5-2.1,4.2C7.4,38.5,10.4,38,9.4,34.3z"/>
			<path id="Path_118" class="st0" d="M3.6,34.4c0,1.7,1.2,3.2,2.9,3.6C6.5,38,7.4,35,3.6,34.4z"/>
			<path id="Path_119" class="st0" d="M0.7,39.3c1.3,1.1,3.2,1.2,4.6,0.2C5.4,39.5,3.7,36.9,0.7,39.3z"/>
			<path id="Path_120" class="st0" d="M0,37c1,0.9,2.5,1,3.6,0.2C3.6,37.2,2.4,35.2,0,37z"/>
			<path id="Path_121" class="st0" d="M9.2,39.1c1.3-0.1,2.5-1,2.8-2.3C11.9,36.7,9.6,36.1,9.2,39.1z"/>
			<path id="Path_122" class="st0" d="M11.6,41.5c1.3-0.1,2.5-1,2.8-2.3C14.4,39.1,12.1,38.5,11.6,41.5z"/>
			<path id="Path_123" class="st0" d="M12.6,42.8c1.4,0.8,3.2,0.5,4.3-0.7C16.9,42,14.9,40,12.6,42.8z"/>
			<path id="Path_124" class="st0" d="M19.4,44c1.4-0.8,2.1-2.5,1.7-4.1C21.1,40,18.2,40.6,19.4,44z"/>
			<path id="Path_125" class="st0" d="M27.7,46.4c-0.6-1.5-2.1-2.5-3.7-2.4C24,44,24.1,46.9,27.7,46.4z"/>
			<path id="Path_126" class="st0" d="M19.4,44c1.6,0.1,3.1-0.8,3.7-2.4C23.1,41.6,20.4,40.5,19.4,44z"/>
			<path id="Path_127" class="st0" d="M33,43.7c-1.2-1.1-3-1.2-4.4-0.3C28.7,43.4,30.2,45.9,33,43.7z"/>
			<path id="Path_128" class="st0" d="M33,43.7c-0.4-1.6-1.8-2.7-3.4-2.7C29.6,40.9,29.4,43.8,33,43.7z"/>
			<path id="Path_129" class="st0" d="M28.6,45.7c0.1-1.4-0.7-2.6-2-3.1C26.7,42.6,25.7,44.9,28.6,45.7z"/>
			<path id="Path_130" class="st0" d="M35.2,44.3c0.1-1.4-0.7-2.6-2-3.1C33.2,41.2,32.3,43.4,35.2,44.3z"/>
			<path id="Path_131" class="st0" d="M45.9,46.3c0.2-1.6-0.7-3.2-2.2-3.8C43.7,42.5,42.5,45.2,45.9,46.3z"/>
			<path id="Path_132" class="st0" d="M51.9,46.3c-0.6-1.5-2.2-2.4-3.8-2.2C48.1,44.1,48.3,47,51.9,46.3z"/>
			<path id="Path_133" class="st0" d="M51.9,46.3c0.4-1.6-0.4-3.2-1.8-4C50.1,42.3,48.6,44.8,51.9,46.3z"/>
			<path id="Path_134" class="st0" d="M47,46.1c0.7-1.2,0.6-2.6-0.4-3.6C46.7,42.5,44.8,44.1,47,46.1z"/>
			<path id="Path_135" class="st0" d="M53.5,47.8c0.6-1,0.5-2.4-0.3-3.3C53.2,44.6,51.5,46,53.5,47.8z"/>
			<path id="Path_136" class="st0" d="M55.7,48.9c0.9-1.4,0.7-3.2-0.4-4.4C55.2,44.5,53,46.4,55.7,48.9z"/>
			<path id="Path_137" class="st0" d="M45.6,43.4c0.7-1.2,0.6-2.7-0.4-3.7C45.3,39.7,43.4,41.3,45.6,43.4z"/>
			<path id="Path_138" class="st0" d="M38.7,14.6c0.4-1.6-0.3-3.2-1.7-4.1C37,10.5,35.5,13,38.7,14.6z"/>
			<path id="Path_139" class="st0" d="M44.6,15.3c-0.4-1.6-1.8-2.7-3.5-2.7C41.2,12.6,41,15.6,44.6,15.3z"/>
			<path id="Path_140" class="st0" d="M44.6,15.3c0.6-1.5,0-3.2-1.3-4.2C43.4,11.1,41.6,13.4,44.6,15.3z"/>
			<path id="Path_141" class="st0" d="M39.9,14.5c0.9-1.1,0.9-2.6,0.1-3.7C40,10.9,37.9,12.2,39.9,14.5z"/>
			<path id="Path_142" class="st0" d="M46.1,17.1c0.9-1.1,0.9-2.6,0.1-3.7C46.2,13.4,44.2,14.7,46.1,17.1z"/>
			<path id="Path_143" class="st0" d="M35.1,37c0.1-1.4-0.7-2.6-2-3.1C33.1,33.9,32.2,36.1,35.1,37z"/>
			<path id="Path_144" class="st0" d="M34.5,34c0.1-1.1-0.6-2.1-1.6-2.5C32.9,31.5,32.2,33.3,34.5,34z"/>
			<path id="Path_145" class="st0" d="M37.3,37c1.3-0.4,2.2-1.6,2.1-3C39.4,34,37,34,37.3,37z"/>
			<path id="Path_146" class="st0" d="M40.8,39.5c0.2,1.3,1.2,2.4,2.6,2.6C43.3,42.2,43.8,39.8,40.8,39.5z"/>
			<path id="Path_147" class="st0" d="M41.6,38.9c1,0.9,2.5,1.1,3.6,0.4C45.3,39.3,44.1,37.1,41.6,38.9z"/>
			<path id="Path_148" class="st0" d="M41.8,37.9c1.4-0.1,2.5-1.1,2.8-2.4C44.6,35.5,42.2,34.9,41.8,37.9z"/>
			<path id="Path_149" class="st0" d="M44.8,37.6c0.6,0.6,1.5,0.7,2.2,0.2C47.1,37.9,46.3,36.6,44.8,37.6z"/>
			<path id="Path_150" class="st0" d="M44.9,37c0.8-0.1,1.5-0.7,1.7-1.5C46.6,35.6,45.2,35.2,44.9,37z"/>
			<path id="Path_151" class="st0" d="M49,43.1c0.6-0.5,0.9-1.4,0.5-2.2C49.5,40.9,48.1,41.5,49,43.1z"/>
			<path id="Path_152" class="st0" d="M48.4,42.9c0-0.8-0.5-1.6-1.3-1.9C47.1,41.1,46.6,42.5,48.4,42.9z"/>
			<g id="Group_45" transform="translate(49.661 24.159)">
				<path id="Path_153" class="st0" d="M0,4.2c1-0.4,1.6-1.3,1.6-2.4C1.6,1.8-0.3,1.9,0,4.2z"/>
				<path id="Path_154" class="st0" d="M1.9,7.6c0.7-0.8,0.8-2,0.2-2.9C2,4.8,0.4,5.8,1.9,7.6z"/>
				<path id="Path_155" class="st0" d="M1.8,7.6c1-0.3,1.7-1.2,1.8-2.2C3.6,5.4,1.7,5.3,1.8,7.6z"/>
				<path id="Path_156" class="st0" d="M0.5,4.8c0.9,0.1,1.7-0.5,2-1.3C2.5,3.5,1,2.9,0.5,4.8z"/>
				<path id="Path_157" class="st0" d="M2,1.4c0.9,0.1,1.7-0.5,2-1.3C4,0.1,2.5-0.5,2,1.4z"/>
			</g>
			<path id="Path_158" class="st0" d="M65.2,39.7c0.6-0.5,0.7-1.3,0.4-1.9C65.6,37.7,64.4,38.2,65.2,39.7z"/>
			<path id="Path_159" class="st0" d="M64.7,39.5c0-0.7-0.4-1.4-1.1-1.6C63.6,37.9,63.1,39.1,64.7,39.5z"/>
			<path id="Path_160" class="st0" d="M59.6,33.3c0.6,0.5,1.4,0.5,2,0.2C61.6,33.4,60.9,32.3,59.6,33.3z"/>
			<path id="Path_161" class="st0" d="M59.7,32.7c0.7-0.1,1.3-0.6,1.5-1.3C61.2,31.4,59.9,31.1,59.7,32.7z"/>
			<path id="Path_162" class="st0" d="M59.9,23.9c-0.4,0.6-0.3,1.4,0.2,2C60.1,25.9,61.1,25,59.9,23.9z"/>
			<path id="Path_163" class="st0" d="M60.5,23.9c0.2,0.7,0.9,1.2,1.6,1.2C62,25.1,62.1,23.8,60.5,23.9z"/>
			<path id="Path_164" class="st0" d="M62.2,20.6c0.7-0.2,1.2-0.9,1.2-1.6C63.4,19,62.1,18.9,62.2,20.6z"/>
			<path id="Path_165" class="st0" d="M61.8,20.6c0.3-0.7,0.2-1.5-0.4-1.9C61.5,18.6,60.6,19.6,61.8,20.6z"/>
			<g id="Group_46" transform="translate(61.689 26.947)">
				<path id="Path_166" class="st0" d="M2.6,7.2c0.2-1.8-0.7-3.4-2.4-4.1C0.2,3.1-1.1,5.9,2.6,7.2z"/>
				<path id="Path_167" class="st0" d="M9.1,7.2C8.4,5.5,6.8,4.5,5,4.7C5,4.7,5.3,7.9,9.1,7.2z"/>
				<path id="Path_168" class="st0" d="M3.8,7c0.8-1.3,0.6-2.9-0.4-4C3.5,3,1.5,4.7,3.8,7z"/>
				<path id="Path_169" class="st0" d="M2.3,4c0.8-1.3,0.6-2.9-0.4-4C1.9,0-0.1,1.7,2.3,4z"/>
				<path id="Path_170" class="st0" d="M5.9,3.7c0.7-0.6,0.9-1.6,0.6-2.4C6.5,1.3,5,1.9,5.9,3.7z"/>
				<path id="Path_171" class="st0" d="M5.3,3.5c0-0.9-0.5-1.7-1.4-2C3.9,1.5,3.4,3,5.3,3.5z"/>
			</g>
			<g id="Group_47" transform="translate(70.58 5.855)">
				<path id="Path_172" class="st0" d="M5.2,4.8C4.1,4,2.6,4.1,1.5,5C1.5,5,3,6.9,5.2,4.8z"/>
				<path id="Path_173" class="st0" d="M7.6,0.3C6.2,0.2,4.9,1,4.4,2.3C4.4,2.3,6.7,3.2,7.6,0.3z"/>
				<path id="Path_174" class="st0" d="M5.5,3.9c-0.6-1-1.8-1.5-2.9-1.2C2.6,2.7,3.1,4.7,5.5,3.9z"/>
				<path id="Path_175" class="st0" d="M2.9,3.8C2.3,2.8,1.1,2.4,0,2.7C0,2.7,0.5,4.7,2.9,3.8z"/>
				<path id="Path_176" class="st0" d="M4,1.2C3.9,0.6,3.3,0,2.6,0C2.6,0,2.4,1.3,4,1.2z"/>
				<path id="Path_177" class="st0" d="M3.6,1.6C3,1.3,2.3,1.3,1.7,1.8C1.7,1.8,2.6,2.8,3.6,1.6z"/>
			</g>
			<g id="Group_48" transform="translate(68.782 20.109)">
				<path id="Path_178" class="st0" d="M3.5,4.9C2.6,4,1.1,3.9,0,4.6C0,4.6,1.2,6.6,3.5,4.9z"/>
				<path id="Path_179" class="st0" d="M6.3,0.8C5,0.6,3.7,1.2,3,2.3C3,2.3,5.1,3.5,6.3,0.8z"/>
				<path id="Path_180" class="st0" d="M3.9,4C3.5,3,2.4,2.4,1.3,2.6C1.3,2.6,1.5,4.5,3.9,4z"/>
				<path id="Path_181" class="st0" d="M2.8,1.3C2.7,0.7,2.2,0.1,1.6,0C1.6,0,1.3,1.2,2.8,1.3z"/>
				<path id="Path_182" class="st0" d="M2.4,1.6c-0.5-0.4-1.3-0.4-1.8,0C0.6,1.6,1.3,2.6,2.4,1.6z"/>
			</g>
			<path id="Path_183" class="st0" d="M54,44.1c0.6-0.5,0.9-1.4,0.5-2.2C54.6,41.9,53.2,42.5,54,44.1z"/>
			<path id="Path_184" class="st0" d="M53.5,43.9c0-0.8-0.5-1.6-1.3-1.9C52.2,42,51.7,43.4,53.5,43.9z"/>
			<path id="Path_185" class="st0" d="M41,38.5c0.8-1.5,0.4-3.2-0.8-4.4C40.2,34.1,38.1,36.2,41,38.5z"/>
			<path id="Path_186" class="st0" d="M23.6,32.7c-0.4-1.3-1.6-2.2-2.9-2.2C20.6,30.5,20.6,32.9,23.6,32.7z"/>
			<path id="Path_187" class="st0" d="M22.8,33.5c-1.1-0.8-2.6-0.7-3.7,0.2C19.1,33.7,20.7,35.6,22.8,33.5z"/>
			<path id="Path_188" class="st0" d="M17.4,44.4c-1.1-0.8-2.6-0.7-3.7,0.2C13.7,44.6,15.3,46.5,17.4,44.4z"/>
			<path id="Path_189" class="st0" d="M23.9,33.7c-1.3,0.3-2.3,1.4-2.4,2.8C21.5,36.5,23.9,36.7,23.9,33.7z"/>
			<path id="Path_190" class="st0" d="M48,35.5c0.8-1.5,0.4-3.2-0.8-4.4C47.3,31.1,45.2,33.2,48,35.5z"/>
			<path id="Path_191" class="st0" d="M44.9,33.8c1.4-0.9,2-2.6,1.5-4.2C46.4,29.7,43.6,30.4,44.9,33.8z"/>
			<path id="Path_192" class="st0" d="M42,35.5c1.4-0.9,2-2.6,1.5-4.2C43.6,31.3,40.7,32.1,42,35.5z"/>
			<path id="Path_193" class="st0" d="M39.5,33.3c1.3,0,2.5-1,2.8-2.2C42.3,31,40,30.4,39.5,33.3z"/>
			<path id="Path_194" class="st0" d="M38.4,31.8c1.4-0.8,2-2.4,1.6-4C40,27.8,37.2,28.5,38.4,31.8z"/>
			<path id="Path_195" class="st0" d="M37,31c1.6-0.3,2.7-1.6,2.9-3.2C39.9,27.9,37.1,27.5,37,31z"/>
			<path id="Path_196" class="st0" d="M35.3,29.3c1.6-0.3,2.7-1.6,2.9-3.2C38.2,26.2,35.3,25.8,35.3,29.3z"/>
			<path id="Path_197" class="st0" d="M33.6,29c1-1.2,1.2-2.9,0.3-4.3C33.9,24.7,31.4,26.2,33.6,29z"/>
			<path id="Path_198" class="st0" d="M30.8,25.1c0.9,0.4,1.9,0.1,2.5-0.6C33.4,24.5,32.1,23.3,30.8,25.1z"/>
			<path id="Path_199" class="st0" d="M28.7,33.9c1.5,0.1,3-0.8,3.5-2.2C32.2,31.6,29.6,30.6,28.7,33.9z"/>
			<path id="Path_200" class="st0" d="M27.6,35.2c1.1,1.1,2.8,1.3,4.1,0.5C31.7,35.7,30.4,33.3,27.6,35.2z"/>
			<path id="Path_201" class="st0" d="M26.9,34.1c1-0.2,1.7-1,1.8-1.9C28.7,32.2,27,32,26.9,34.1z"/>
			<path id="Path_202" class="st0" d="M22.8,24.4c-1.3-0.9-3-0.8-4.1,0.2C18.7,24.5,20.4,26.7,22.8,24.4z"/>
			<path id="Path_203" class="st0" d="M24.5,23.7c-0.4-1.5-1.8-2.5-3.3-2.5C21.1,21.2,21.1,24,24.5,23.7z"/>
			<path id="Path_204" class="st0" d="M24.5,25c-0.9-0.3-1.9,0-2.5,0.8C22,25.8,23.4,26.9,24.5,25z"/>
			<path id="Path_205" class="st0" d="M30.2,31.3c1.1-1.1,1.3-2.8,0.5-4.2C30.7,27.1,28.2,28.4,30.2,31.3z"/>
			<path id="Path_206" class="st0" d="M25.9,20c1.1-1.1,1.3-2.8,0.5-4.2C26.3,15.9,23.9,17.2,25.9,20z"/>
			<path id="Path_207" class="st0" d="M36.7,36.7c0.8-1.7,0.3-3.6-1.1-4.8C35.6,31.8,33.4,34.3,36.7,36.7z"/>
			<path id="Path_208" class="st0" d="M0.7,33.6c0.2,1.3,1.2,2.4,2.5,2.6C3.2,36.2,3.7,33.8,0.7,33.6z"/>
			<path id="Path_209" class="st0" d="M15,49c-0.3,0.8,0.1,1.8,0.8,2.3C15.8,51.2,16.8,49.9,15,49z"/>
			<path id="Path_210" class="st0" d="M15.4,48.7c0.7,1,2,1.3,3.1,0.9C18.5,49.6,17.8,47.6,15.4,48.7z"/>
			<path id="Path_211" class="st0" d="M9.9,56.6c0.4,1,1.4,1.6,2.4,1.5C12.3,58.1,12.2,56.2,9.9,56.6z"/>
			<path id="Path_212" class="st0" d="M26.5,37.9c-1,0.9-1.4,2.3-0.8,3.6C25.7,41.4,27.9,40.5,26.5,37.9z"/>
			<path id="Path_213" class="st0" d="M24.7,40.4c-0.8,0.7-1.1,1.9-0.6,2.9C24.1,43.3,25.9,42.5,24.7,40.4z"/>
			<path id="Path_214" class="st0" d="M20.1,39.5c-1.3-0.3-2.7,0.2-3.4,1.4C16.7,40.9,18.8,42.2,20.1,39.5z"/>
			<path id="Path_215" class="st0" d="M17,39.5c-1.1-0.3-2.2,0.2-2.7,1.1C14.3,40.7,16,41.7,17,39.5z"/>
			<path id="Path_216" class="st0" d="M25,36.1c-1.3-0.4-2.7,0.2-3.4,1.4C21.6,37.5,23.6,38.8,25,36.1z"/>
			<path id="Path_217" class="st0" d="M25.1,37c-1.7,0.6-2.8,2.3-2.6,4.2C22.5,41.1,25.8,41,25.1,37z"/>
			<path id="Path_218" class="st0" d="M45,25.2c-1.2-0.6-2.7-0.2-3.6,0.8C41.4,26,43.2,27.6,45,25.2z"/>
			<path id="Path_219" class="st0" d="M40.1,22.8c-1-0.4-2.2-0.2-2.9,0.6C37.2,23.5,38.6,24.8,40.1,22.8z"/>
			<path id="Path_220" class="st0" d="M45.9,23.1c-0.2-1.3-1.3-2.4-2.7-2.5C43.2,20.6,42.9,23,45.9,23.1z"/>
			<path id="Path_221" class="st0" d="M45.2,23.6c-1.3-1.3-3.3-1.5-4.9-0.6C40.3,22.9,41.9,25.9,45.2,23.6z"/>
			<path id="Path_222" class="st0" d="M69.3,37c-1-0.9-2.5-0.9-3.7-0.2C65.6,36.8,66.9,38.9,69.3,37z"/>
			<path id="Path_223" class="st0" d="M66.5,35.7c-0.8-0.7-2-0.8-2.9-0.1C63.6,35.6,64.6,37.2,66.5,35.7z"/>
			<path id="Path_224" class="st0" d="M63.2,39.9c-0.3-1-1.3-1.7-2.4-1.7C60.8,38.3,60.8,40.2,63.2,39.9z"/>
			<path id="Path_225" class="st0" d="M58.4,31.6c-0.3-0.8-1-1.3-1.8-1.3C56.5,30.3,56.5,31.8,58.4,31.6z"/>
			<path id="Path_226" class="st0" d="M70,35.6c-0.7-1.2-2.1-1.8-3.4-1.4C66.6,34.1,67.1,36.5,70,35.6z"/>
			<g id="Group_49" transform="translate(56.106 5.213)">
				<path id="Path_227" class="st0" d="M9.2,1.3C8.6,2.5,8.8,4,9.8,4.9C9.8,4.9,11.6,3.2,9.2,1.3z"/>
				<path id="Path_228" class="st0" d="M15.5,2.9c-0.1-1.4-1-2.5-2.3-2.9C13.2,0,12.5,2.4,15.5,2.9z"/>
				<path id="Path_229" class="st0" d="M6.2,7.4c0.2-1.8-0.7-3.4-2.4-4.1C3.8,3.2,2.5,6.1,6.2,7.4z"/>
				<path id="Path_230" class="st0" d="M4.1,7.3C3.4,5.7,1.8,4.7,0,4.9C0,4.9,0.3,8.1,4.1,7.3z"/>
				<path id="Path_231" class="st0" d="M7.7,7.9c0.8-1.3,0.6-2.9-0.4-4C7.3,3.9,5.3,5.7,7.7,7.9z"/>
				<path id="Path_232" class="st0" d="M12.4,5.2C13.2,4,13,2.4,12,1.3C12,1.3,10,3,12.4,5.2z"/>
				<path id="Path_233" class="st0" d="M10.6,7c0.7-0.6,0.9-1.6,0.6-2.4C11.2,4.7,9.7,5.3,10.6,7z"/>
				<path id="Path_234" class="st0" d="M10,6.8c0-0.9-0.5-1.7-1.4-2C8.6,4.8,8,6.3,10,6.8z"/>
				<path id="Path_235" class="st0" d="M6.7,8.4c-0.8-0.7-2-0.8-2.9-0.1C3.7,8.3,4.8,10,6.7,8.4z"/>
				<path id="Path_236" class="st0" d="M11.7,8.9C11,7.7,9.6,7.1,8.3,7.4C8.3,7.4,8.8,9.8,11.7,8.9z"/>
				<path id="Path_237" class="st0" d="M12.2,13.2c1.9-0.4,3.3-1.9,3.5-3.9C15.6,9.3,12.2,8.9,12.2,13.2z"/>
				<path id="Path_238" class="st0" d="M13.5,7.6c1.2,1.1,2.9,1.3,4.3,0.4C17.8,8,16.4,5.5,13.5,7.6z"/>
				<path id="Path_239" class="st0" d="M13.4,7.2c0.9-0.7,1.2-2,0.8-3.1C14.1,4.1,12.2,4.8,13.4,7.2z"/>
				<path id="Path_240" class="st0" d="M11.7,10.6c0.8-0.3,1.4-1.1,1.3-2C13,8.6,11.4,8.7,11.7,10.6z"/>
			</g>
			<path id="Path_241" class="st0" d="M77.7,17c-1.6-0.2-3.1,0.7-3.7,2.1C74,19.1,76.6,20.3,77.7,17z"/>
			<path id="Path_242" class="st0" d="M74.2,17.5c-1.2-0.2-2.4,0.5-2.9,1.7C71.3,19.2,73.3,20.1,74.2,17.5z"/>
			<path id="Path_243" class="st0" d="M78,14.4c-0.7-1.4-2.3-2.1-3.8-1.8C74.2,12.6,74.7,15.3,78,14.4z"/>
			<path id="Path_244" class="st0" d="M77.4,15.2c-1.9-1-4.2-0.6-5.6,1C71.8,16.1,74.5,18.8,77.4,15.2z"/>
			<path id="Path_245" class="st0" d="M54.5,23.9c-0.1-1.6-1.2-2.9-2.8-3.2C51.7,20.7,51,23.5,54.5,23.9z"/>
			<path id="Path_246" class="st0" d="M52.7,20.4c-0.1-1.3-1-2.3-2.2-2.6C50.5,17.8,50,20,52.7,20.4z"/>
			<path id="Path_247" class="st0" d="M56.8,22.7c1.2-1,1.7-2.6,1.1-4.1C57.9,18.6,55.3,19.6,56.8,22.7z"/>
			<path id="Path_248" class="st0" d="M55.8,22.9c0.6-2-0.2-4.2-2-5.3C53.7,17.5,51.6,20.7,55.8,22.9z"/>
			<path id="Path_249" class="st0" d="M79.5,29.4c0.8,1.3,2.4,1.8,3.9,1.4C83.4,30.8,82.7,28.1,79.5,29.4z"/>
			<path id="Path_250" class="st0" d="M82.1,31.6c0.7,1,1.9,1.5,3.1,1.1C85.2,32.8,84.6,30.6,82.1,31.6z"/>
			<path id="Path_251" class="st0" d="M77.6,31.6c-0.6,1.4-0.2,3,1,4C78.6,35.6,80.4,33.5,77.6,31.6z"/>
			<path id="Path_252" class="st0" d="M78.3,30.7c0.5,2,2.2,3.4,4.2,3.6C82.6,34.2,82.9,30.6,78.3,30.7z"/>
			<g id="Group_50" transform="translate(63.365 34.554)">
				<path id="Path_253" class="st0" d="M21.1,13.1c-2.1-0.2-4,1.1-4.7,3C16.4,16.1,19.9,17.5,21.1,13.1z"/>
				<path id="Path_254" class="st0" d="M20.6,5.5c-1.9,0.9-2.9,2.9-2.6,4.9C18.1,10.4,21.7,10,20.6,5.5z"/>
				<path id="Path_255" class="st0" d="M20.6,5.5c-2-0.3-4,0.7-4.9,2.6C15.7,8.1,19,9.8,20.6,5.5z"/>
				<path id="Path_256" class="st0" d="M20.8,11.7c-1.5-0.8-3.4-0.5-4.6,0.7C16.2,12.4,18.3,14.6,20.8,11.7z"/>
				<path id="Path_257" class="st0" d="M22.5,3.3c-1.4-0.7-3-0.5-4.1,0.6C18.3,4,20.3,6,22.5,3.3z"/>
				<path id="Path_258" class="st0" d="M23.7,0.6c-1.8-1-4.1-0.6-5.5,0.8C18.2,1.4,20.8,4.1,23.7,0.6z"/>
				<path id="Path_259" class="st0" d="M17.3,13.6c-1.5-0.8-3.4-0.5-4.6,0.7C12.7,14.3,14.9,16.5,17.3,13.6z"/>
				<path id="Path_260" class="st0" d="M9.9,24.6C9.3,23,7.7,22,5.9,22.1C5.9,22.1,6.1,25.2,9.9,24.6z"/>
				<path id="Path_261" class="st0" d="M12.8,20.1c1.7-0.3,3-1.7,3.2-3.4C16,16.7,12.9,16.2,12.8,20.1z"/>
				<path id="Path_262" class="st0" d="M11.9,19c1.1-1.3,1.2-3.2,0.3-4.6C12.2,14.4,9.6,16,11.9,19z"/>
				<path id="Path_263" class="st0" d="M10.7,18.8c-0.2-1.7-1.5-3.1-3.2-3.4C7.5,15.5,6.9,18.5,10.7,18.8z"/>
				<path id="Path_264" class="st0" d="M10.1,15c0.7-0.8,0.8-2,0.2-2.8C10.3,12.2,8.7,13.2,10.1,15z"/>
				<path id="Path_265" class="st0" d="M9.4,15c-0.1-1.1-0.9-1.9-2-2.1C7.4,12.9,7.1,14.8,9.4,15z"/>
				<path id="Path_266" class="st0" d="M16.8,9.4c-0.7-0.8-1.9-1-2.8-0.5C14,8.9,14.8,10.7,16.8,9.4z"/>
				<path id="Path_267" class="st0" d="M16.6,10.2c-1.1,0-2,0.7-2.3,1.7C14.3,11.9,16.2,12.5,16.6,10.2z"/>
				<path id="Path_268" class="st0" d="M17.7,2.9c-0.7-0.8-1.9-1-2.8-0.5C14.9,2.4,15.7,4.2,17.7,2.9z"/>
				<path id="Path_269" class="st0" d="M17.5,3.7c-1.1,0-2,0.7-2.3,1.7C15.2,5.4,17,6,17.5,3.7z"/>
				<path id="Path_270" class="st0" d="M11.5,19.8C9.6,19,7.4,19.5,6,21.1C6,21.1,8.8,23.6,11.5,19.8z"/>
				<path id="Path_271" class="st0" d="M7.2,11.1c-1.9-0.9-4.1-0.3-5.5,1.3C1.8,12.4,4.5,14.9,7.2,11.1z"/>
				<path id="Path_272" class="st0" d="M5.4,15.2C4.2,13.5,2,12.8,0,13.5C0,13.5,1.2,17.1,5.4,15.2z"/>
				<path id="Path_273" class="st0" d="M7.6,18.7C6.4,17,4.2,16.3,2.2,17C2.2,17,3.4,20.6,7.6,18.7z"/>
				<path id="Path_274" class="st0" d="M5,22c-0.1-1.7-1.4-3.1-3-3.4C2,18.6,1.3,21.6,5,22z"/>
				<path id="Path_275" class="st0" d="M9.1,6c-1.3,1.1-1.7,3-0.9,4.5C8.2,10.6,11,9.4,9.1,6z"/>
				<path id="Path_276" class="st0" d="M10.5,6.5c-0.3,1.7,0.6,3.4,2.2,4.1C12.6,10.6,14,7.8,10.5,6.5z"/>
				<path id="Path_277" class="st0" d="M11.1,6c0.9,1.1,2.4,1.6,3.8,1C14.9,7,14,4.5,11.1,6z"/>
				<path id="Path_278" class="st0" d="M10.4,5.5c2.1-0.3,3.7-1.9,4-3.9C14.4,1.6,10.7,0.9,10.4,5.5z"/>
			</g>
			<path id="Path_279" class="st0" d="M86.2,45.4c1.4-1,1.9-2.8,1.3-4.4C87.5,41,84.6,42,86.2,45.4z"/>
			<path id="Path_280" class="st0" d="M86.2,45.4c1.7-0.1,3.2-1.2,3.6-2.9C89.7,42.5,86.8,41.7,86.2,45.4z"/>
			<path id="Path_281" class="st0" d="M85.1,40.4c1.4,0.4,2.8-0.1,3.6-1.3C88.7,39.1,86.6,37.7,85.1,40.4z"/>
			<path id="Path_282" class="st0" d="M85.1,47.4c1.2,0.4,2.5-0.1,3.2-1.2C88.3,46.3,86.4,44.9,85.1,47.4z"/>
			<path id="Path_283" class="st0" d="M84.5,49.9c1.6,0.5,3.4-0.1,4.3-1.6C88.8,48.3,86.3,46.6,84.5,49.9z"/>
			<path id="Path_284" class="st0" d="M88.6,41.6c0.7,0.5,1.7,0.5,2.3-0.1C91,41.5,90,40.3,88.6,41.6z"/>
			<path id="Path_285" class="st0" d="M88.7,41c0.9-0.2,1.5-0.9,1.6-1.8C90.2,39.2,88.7,39,88.7,41z"/>
			<path id="Path_286" class="st0" d="M107.6,42c0.7,0.5,1.7,0.5,2.3-0.1C110,41.9,109,40.7,107.6,42z"/>
			<path id="Path_287" class="st0" d="M107.6,41.4c0.9-0.2,1.5-0.9,1.6-1.8C109.2,39.6,107.6,39.4,107.6,41.4z"/>
			<path id="Path_288" class="st0" d="M95.3,53.9c0.8,0.6,2,0.6,2.8-0.1C98.1,53.8,97,52.3,95.3,53.9z"/>
			<path id="Path_289" class="st0" d="M95.4,53.1c1-0.2,1.8-1.1,1.9-2.1C97.2,51,95.4,50.8,95.4,53.1z"/>
			<path id="Path_290" class="st0" d="M100.1,58.8c-0.1,1,0.5,2,1.5,2.4C101.6,61.2,102.4,59.5,100.1,58.8z"/>
			<path id="Path_291" class="st0" d="M100.8,58.5c0.7,0.8,1.8,1,2.8,0.6C103.6,59,102.8,57.3,100.8,58.5z"/>
			<path id="Path_292" class="st0" d="M89,47c0.7,0.5,1.7,0.5,2.3-0.1C91.3,46.9,90.4,45.7,89,47z"/>
			<path id="Path_293" class="st0" d="M89,46.3c0.9-0.2,1.5-0.9,1.6-1.8C90.6,44.6,89,44.4,89,46.3z"/>
			<path id="Path_294" class="st0" d="M86.7,33.3c0.9-1.1,0.9-2.7,0-3.8C86.8,29.5,84.7,31,86.7,33.3z"/>
			<path id="Path_295" class="st0" d="M94.2,43c-0.1-1.4-1-2.6-2.4-2.9C91.8,40,91.1,42.5,94.2,43z"/>
			<path id="Path_296" class="st0" d="M93.8,43.5c-0.9-0.8-2.2-0.9-3.2-0.2C90.5,43.3,91.7,45.1,93.8,43.5z"/>
			<path id="Path_297" class="st0" d="M94.5,43.7c-1.6,0.5-2.7,2.1-2.6,3.8C91.9,47.5,94.9,47.5,94.5,43.7z"/>
			<path id="Path_298" class="st0" d="M91.1,24.3c0.1-1.4-0.7-2.6-2-3.1C89.1,21.2,88.2,23.4,91.1,24.3z"/>
			<path id="Path_299" class="st0" d="M90.5,21.3c0.1-1.1-0.6-2.1-1.6-2.5C88.9,18.8,88.2,20.6,90.5,21.3z"/>
			<path id="Path_300" class="st0" d="M93.7,24.4c1.2-0.7,1.8-2.1,1.4-3.4C95.1,21.1,92.7,21.6,93.7,24.4z"/>
			<path id="Path_301" class="st0" d="M92.7,24c0.8-1.7,0.3-3.6-1.1-4.8C91.6,19.2,89.4,21.6,92.7,24z"/>
			<path id="Path_302" class="st0" d="M37.4,20.5c-0.9,0.7-1.3,1.9-0.9,3C36.5,23.5,38.5,22.8,37.4,20.5z"/>
			<path id="Path_303" class="st0" d="M52,37.2c-0.8-1.1-2.3-1.4-3.5-0.9C48.4,36.2,49.3,38.5,52,37.2z"/>
			<path id="Path_304" class="st0" d="M51.6,38.2c-1.3-0.3-2.7,0.3-3.3,1.6C48.2,39.8,50.4,41,51.6,38.2z"/>
			<path id="Path_305" class="st0" d="M51.9,38.8c-0.9,0.7-1.3,1.9-1,3C51,41.7,52.9,41.1,51.9,38.8z"/>
			<path id="Path_306" class="st0" d="M52.3,38.2c0.1,1.6,1.3,3,2.9,3.3C55.2,41.5,55.9,38.7,52.3,38.2z"/>
			<path id="Path_307" class="st0" d="M58.5,37.4c0,1.4,0.9,2.5,2.2,2.9C60.8,40.3,61.5,38,58.5,37.4z"/>
			<path id="Path_308" class="st0" d="M59.5,36.8c0.9,1,2.3,1.4,3.6,0.8C63,37.7,62.1,35.4,59.5,36.8z"/>
			<path id="Path_309" class="st0" d="M59.5,36.2c1.2,0.1,2.2-0.7,2.6-1.7C62.1,34.4,60.2,33.7,59.5,36.2z"/>
			<g id="Group_52" transform="translate(87.933 11.39)">
				<path id="Path_310" class="st0" d="M1.3,2c0.3,0.7,1,1.1,1.7,1C3,3,2.9,1.7,1.3,2z"/>
				<path id="Path_311" class="st0" d="M1.6,1.6c0.7,0.2,1.5,0,1.9-0.6C3.5,0.9,2.4,0.2,1.6,1.6z"/>
				<g id="Group_51" transform="translate(3.779)">
					<path id="Path_312" class="st0" d="M1.4,4.7C2.3,3.2,2.1,1.3,1,0C1,0-1.5,2.1,1.4,4.7z"/>
					<path id="Path_313" class="st0" d="M7.3,7.4C7.4,5.6,6.3,4,4.6,3.5C4.6,3.5,3.5,6.5,7.3,7.4z"/>
					<path id="Path_314" class="st0" d="M2.6,5c1.2-0.8,1.7-2.4,1.3-3.8C3.9,1.3,1.4,2,2.6,5z"/>
					<path id="Path_315" class="st0" d="M5.9,2.9c0.9-0.2,1.5-1,1.5-1.9C7.4,1,5.7,0.9,5.9,2.9z"/>
					<path id="Path_316" class="st0" d="M5.4,2.5C5.8,1.7,5.6,0.7,5,0.1C5,0.1,3.8,1.2,5.4,2.5z"/>
				</g>
				<path id="Path_317" class="st0" d="M6.5,7.1C6.1,6.1,5,5.6,3.9,5.8C3.9,5.8,4.2,7.7,6.5,7.1z"/>
				<path id="Path_318" class="st0" d="M9.7,8.4C9.6,7,8.6,5.9,7.2,5.7C7.2,5.7,6.7,8.1,9.7,8.4z"/>
				<path id="Path_319" class="st0" d="M0,4.6C1,5.2,2.3,5,3.1,4.1C3.1,4.1,1.6,2.7,0,4.6z"/>
			</g>
			<g id="Group_53" transform="translate(82.352 22.519)">
				<path id="Path_320" class="st0" d="M1.9,2.5c0.5-0.5,0.5-1.4,0.2-2C2,0.5,0.9,1.2,1.9,2.5z"/>
				<path id="Path_321" class="st0" d="M1.4,2.4C1.3,1.7,0.7,1.1,0,0.9C0,0.9-0.3,2.2,1.4,2.4z"/>
				<path id="Path_322" class="st0" d="M4.8,2.6C4.9,1.4,4.2,0.4,3.1,0C3.1,0,2.3,1.9,4.8,2.6z"/>
			</g>
			<path id="Path_323" class="st0" d="M58.9,36.4c0.9-1.4,0.8-3.2-0.3-4.4C58.6,32,56.3,33.8,58.9,36.4z"/>
			<path id="Path_324" class="st0" d="M81,1.4c1,0.9,2.5,1,3.7,0.3C84.7,1.6,83.4-0.5,81,1.4z"/>
			<path id="Path_325" class="st0" d="M78.9,1.7c0.6,1.3,1.9,2,3.2,1.8C82.1,3.5,81.9,1.1,78.9,1.7z"/>
			<path id="Path_326" class="st0" d="M82.1,6.3c0.5,0.5,1.4,0.5,2,0.2C84.1,6.5,83.4,5.3,82.1,6.3z"/>
			<path id="Path_327" class="st0" d="M82.2,5.8c0.7-0.1,1.3-0.6,1.5-1.3C83.7,4.4,82.4,4.2,82.2,5.8z"/>
			<g id="Group_54" transform="translate(84.191)">
				<path id="Path_328" class="st0" d="M2.6,7.2c0.2-1.8-0.7-3.4-2.4-4.1C0.2,3.1-1.1,5.9,2.6,7.2z"/>
				<path id="Path_329" class="st0" d="M9.1,7.2C8.4,5.5,6.8,4.5,5,4.7C5,4.7,5.3,7.9,9.1,7.2z"/>
				<path id="Path_330" class="st0" d="M3.8,7c0.8-1.3,0.6-2.9-0.4-4C3.5,3,1.5,4.7,3.8,7z"/>
				<path id="Path_331" class="st0" d="M2.3,4c0.8-1.3,0.6-2.9-0.4-4C1.9,0-0.1,1.7,2.3,4z"/>
				<path id="Path_332" class="st0" d="M5.9,3.7c0.7-0.6,0.9-1.5,0.6-2.4C6.5,1.3,5,1.9,5.9,3.7z"/>
				<path id="Path_333" class="st0" d="M5.3,3.5c0-0.9-0.5-1.7-1.4-2C3.9,1.5,3.4,3,5.3,3.5z"/>
			</g>
			<path id="Path_334" class="st0" d="M96.4,10c-1-0.9-2.5-0.9-3.7-0.2C92.7,9.8,94,11.9,96.4,10z"/>
			<path id="Path_335" class="st0" d="M89,8.8c-0.8-0.7-2-0.8-2.9-0.1C86.1,8.6,87.1,10.3,89,8.8z"/>
			<path id="Path_336" class="st0" d="M80.9,4.7c-0.3-0.8-1-1.3-1.8-1.3C79,3.4,79,4.9,80.9,4.7z"/>
			<path id="Path_337" class="st0" d="M82,9.9c0.9,1,2.3,1.4,3.6,0.8C85.5,10.7,84.6,8.5,82,9.9z"/>
			<path id="Path_338" class="st0" d="M82,9.2c1.2,0.1,2.2-0.7,2.6-1.7C84.6,7.5,82.7,6.8,82,9.2z"/>
			<path id="Path_339" class="st0" d="M81.4,9.5c0.9-1.4,0.8-3.2-0.2-4.4C81.1,5,78.8,6.9,81.4,9.5z"/>
			<path id="Path_340" class="st0" d="M83.1,63.7c-0.6-0.9-1.7-1.2-2.7-0.9C80.3,62.8,80.9,64.7,83.1,63.7z"/>
			<path id="Path_341" class="st0" d="M82.8,64.4c-1-0.1-2.1,0.4-2.5,1.4C80.3,65.8,82,66.6,82.8,64.4z"/>
			<path id="Path_342" class="st0" d="M73.8,64.8c-1.4,1-2,2.8-1.5,4.4C72.3,69.2,75.2,68.4,73.8,64.8z"/>
			<path id="Path_343" class="st0" d="M74.8,66.2c-0.5,1.6,0.2,3.4,1.6,4.3C76.5,70.5,78.2,67.9,74.8,66.2z"/>
			<path id="Path_344" class="st0" d="M76.2,65.9c0.7,1.3,2.2,1.9,3.6,1.5C79.8,67.4,79.2,64.8,76.2,65.9z"/>
			<path id="Path_345" class="st0" d="M75.4,65.3c2.1,0,3.9-1.4,4.5-3.4C80,62,76.4,60.8,75.4,65.3z"/>
			<path id="Path_346" class="st0" d="M95.3,40.3c0.4-1.7-0.3-3.5-1.9-4.4C93.5,35.8,91.8,38.6,95.3,40.3z"/>
			<path id="Path_347" class="st0" d="M95.7,62.5c0.4-1.7-0.3-3.5-1.9-4.5C93.8,58.1,92.1,60.8,95.7,62.5z"/>
			<path id="Path_348" class="st0" d="M87.9,36.7c0.7,0.7,1.9,0.9,2.8,0.4C90.7,37.1,89.9,35.4,87.9,36.7z"/>
			<path id="Path_349" class="st0" d="M88.1,35.9c1.1,0,2-0.8,2.2-1.8C90.3,34.1,88.5,33.6,88.1,35.9z"/>
			<path id="Path_350" class="st0" d="M104.2,38.4c1.2-1.2,1.6-3.1,0.8-4.6C105,33.8,102.2,35.2,104.2,38.4z"/>
			<path id="Path_351" class="st0" d="M102.9,38c0.2-1.7-0.7-3.3-2.3-4C100.6,34,99.3,36.8,102.9,38z"/>
			<path id="Path_352" class="st0" d="M102.2,38.6c-0.9-1.1-2.5-1.5-3.8-0.9C98.4,37.7,99.4,40.1,102.2,38.6z"/>
			<path id="Path_353" class="st0" d="M103,39c-2.1,0.3-3.6,2-3.9,4.1C99.1,43,102.8,43.6,103,39z"/>
		</g>
	</g>
	<path id="Path_354" class="st0" d="M380.1,143.4c1.8-0.5,3.6-0.9,5.4-1.2c1.1-0.2,2.2-0.4,3.3-0.5c0.3,0,0.4,0.1,0.4,0.3
		c0,0.4-0.1,0.8-0.3,1.2c-0.4,1.1-0.6,2.3-0.6,3.5c0,1.4,0.8,3.2,2.4,5.5c1.4,1.9,2.3,4.1,2.5,6.5c0.1,4-1.8,7.9-5.5,11.6
		c-3.8,3.8-7.7,5.7-11.8,5.8c-1.7,0-3.4-0.4-4.9-1.3c-1.5-0.9-2.2-1.9-2.2-3c0-0.6,0.7-1.8,2.1-3.6c1.4-1.8,2.4-2.7,3.1-2.7
		c0.8,0,1.6,1,2.3,3.2c0.7,2.1,1.8,3.2,3.4,3.2c1.7-0.1,3.4-0.9,4.4-2.3c1.3-1.3,2-3,2-4.8c0-1.6-0.9-3.8-2.8-6.5
		c-1.5-2.1-2.7-4.4-3.6-6.8c-3.3,5.4-7.1,10.5-11.3,15.2l-0.9,0l-0.1-3.5C373.7,156.1,377.9,149.5,380.1,143.4z"/>
	<path id="Path_355" class="st0" d="M417.2,165.7c-2.6,2.7-5.4,5.2-8.4,7.4c-2,1.5-4.4,2.3-6.8,2.4c-2.2,0.1-4.3-1-5.5-2.7
		c-1.5-2.2-2.3-4.8-2.2-7.4c0.1-3.7,0.7-7.3,1.8-10.8l1.6-6l-3,0.2l1.2-6.2l3.7-0.2l3.5-12.3l10.4-2.3l-3.8,13.7l5.5-0.4l-1.2,6.1
		l-6.1,0.6l-2.5,8.8c-0.7,2.4-1.2,4.8-1.2,7.3c0,1.1,0.3,2.1,1,3c0.6,0.7,1.5,1.1,2.4,1.1c1.4,0,2.8-0.5,3.9-1.3
		c2.1-1.6,4-3.4,5.7-5.4L417.2,165.7z"/>
	<path id="Path_356" class="st0" d="M459.2,165c-2.8,2.9-5.8,5.5-9,7.9c-1.5,1.1-3.3,1.8-5.1,1.9c-4.1,0.1-6.1-3.5-6-10.8
		c-2,3.1-4.4,5.9-7.1,8.4c-1.9,1.7-4.3,2.7-6.8,2.8c-2.4,0-4.6-1.2-5.9-3.1c-1.7-2.3-2.6-5.1-2.5-7.9c-0.1-4,1-7.9,3-11.2
		c2-3.5,4.8-6.5,8.1-8.7c3.3-2.2,6.3-3.4,8.9-3.4c3-0.2,5.8,1.6,6.9,4.4l7.9-4.6l2.2,0l-3.3,11.5c-1.7,5.8-2.5,9.8-2.5,11.9
		c0,2.2,0.9,3.4,2.4,3.3c1.3-0.1,2.5-0.7,3.3-1.7c1.2-1.1,3.1-3,5.3-5.2L459.2,165z M430.4,167.6c2.6,0,5-2.3,7.3-6.8
		c2.1-3.8,3.2-8,3.3-12.4c0.1-1.2-0.3-2.4-1-3.4c-0.6-0.8-1.6-1.2-2.6-1.2c-2.6,0-5,2.3-7.3,6.8c-2.1,3.8-3.2,8-3.3,12.3
		c0,1.2,0.3,2.4,1.1,3.4C428.3,167.2,429.3,167.7,430.4,167.6L430.4,167.6z"/>
	<path id="Path_357" class="st0" d="M497.1,164.4c-6,6.5-10.5,9.8-13.5,9.9c-1.8,0-3.4-1-4.3-2.5c-1.2-1.9-1.9-4.1-1.8-6.4
		c-0.1-5.6,1.7-13.3,5.3-23.2l9.9-2.2l0.5,0l-3.7,12.3c-1.5,5.1-2.3,8.7-2.2,10.9c0,0.7,0.2,1.5,0.6,2.1c0.3,0.5,0.9,0.8,1.4,0.8
		c1.1-0.1,2.2-0.5,3.1-1.2c1.7-1.5,3.3-3.1,4.8-4.9L497.1,164.4z"/>
	<g id="Group_57" transform="translate(308.847 119.089)">
		<path id="Path_358" class="st0" d="M59.6,47.4c-5.8,6.5-10.5,9.4-14.8,9.4c-2.4,0-4.7-1.1-6.3-2.9c-2-2-2.9-5.3-2.8-10.1
			c-4.4,8.8-9.5,13.3-15.4,13.4c-2.7,0.1-5.2-1-6.8-3.1c-1.7-2.1-2.6-5-2.7-8.7c-0.1-3.9,1.4-10.5,4.5-19.6c2.6-7.8,3.8-13,3.8-15.6
			c0.1-1.6-0.4-3.1-1.3-4.4c-0.8-1.1-2-1.7-3.3-1.6c-2.1,0-4,1.3-5.9,3.8c-1.8,2.2-2.8,4.9-2.8,7.7c0,2.3,1,4.4,2.7,5.9
			c0.7,0.6,1,1,1,1.4c-0.2,1.2-0.8,2.4-1.7,3.2c-1.1,1.3-2.1,1.9-3.1,1.9c-1.1,0-2.1-0.7-3.1-2.3c-1-1.5-1.5-3.2-1.5-5
			c0-5.1,1.8-10,5.2-13.8c3.5-4.2,7.4-6.4,11.7-6.4c3.2-0.1,6.2,1.3,8.2,3.8c2.1,2.6,3.2,5.9,3.3,10.1c0.1,4.9-1.3,11.7-4.3,20.4
			c-2,6-3,10.1-3,12.1c0,1.1,0.3,2.3,1,3.2c0.6,0.8,1.6,1.2,2.5,1.1c2,0,3.9-1.4,5.7-4.2c1.8-2.7,3.2-5.6,4.2-8.6
			c1-3,2.3-7.4,3.7-13.1l3.2-12.2c0.9-3.3,1.7-5.9,2.3-8c0.3-1.2,0.8-2.4,1.3-3.5c0.2-0.3,0.6-0.5,1-0.6c0.5-0.1,1.3-0.3,2.6-0.4
			L54.2,0c0.8,0,1.2,0.2,1.1,0.5l-1.7,6.7c-1.6,6.2-3.3,13.5-5.2,21.9c-1.8,8.4-2.7,13.8-2.7,16.1c0,1.4,0.3,2.9,1,4.1
			c0.5,0.9,1.6,1.5,2.6,1.5c1.5-0.1,2.9-0.7,4-1.7c1.9-1.5,3.7-3.3,5.2-5.2L59.6,47.4z"/>
	</g>
</g>
</svg>
