<svg xmlns="http://www.w3.org/2000/svg" width="25" height="22" viewBox="0 0 25 22">
    <g fill="none" fill-rule="evenodd">
        <g fill="#FFF" fill-rule="nonzero">
            <g>
                <path d="M18.122 5.34c-.107-1.328-.918-2.291-1.93-2.291h-1.517c-.979 0-1.767.889-1.917 2.161L12.2 9.95c-.051.438.294.822.74.822h4.812c.433 0 .776-.366.742-.794l-.372-4.638zM13.776 9.3l.461-3.92c.07-.6.357-.858.438-.858h1.517c.086 0 .394.291.446.934l.308 3.843h-3.17zM5.154 6.3H3.179c-.408 0-.74.32-.74.712 0 .393.332.712.74.712h1.975c.409 0 .74-.319.74-.712 0-.393-.331-.711-.74-.711zM5.147 12.602H1.56c-.412 0-.747.318-.747.711 0 .393.335.711.747.711h3.587c.413 0 .747-.318.747-.711 0-.393-.334-.711-.747-.711zM5.15 9.35H2.37c-.41 0-.744.318-.744.711 0 .393.333.711.744.711h2.78c.411 0 .744-.318.744-.711 0-.393-.333-.711-.744-.711zM5.152 15.65H.742c-.41 0-.742.319-.742.712 0 .393.332.711.742.711h4.41c.41 0 .742-.318.742-.711 0-.393-.332-.712-.742-.712z" transform="translate(-247 -19) translate(247 19)"/>
                <path d="M23.342 9.391l-1.421-.021c-.11-.002-.203-.082-.221-.192l-1.243-7.476C20.293.716 19.454 0 18.462 0h-6.357c-.997 0-1.837.72-1.997 1.712l-2.362 14.63c-.168 1.038.628 1.98 1.67 1.98h3.157c.314 2.053 2.079 3.63 4.201 3.63 2.123 0 3.887-1.577 4.202-3.63h2.34c.929 0 1.684-.762 1.684-1.697v-5.537c0-.92-.744-1.682-1.658-1.697zm-6.568 11.09c-1.54 0-2.793-1.263-2.793-2.816 0-1.552 1.253-2.816 2.793-2.816 1.54 0 2.794 1.264 2.794 2.816 0 1.553-1.253 2.817-2.794 2.817zm6.768-3.856c0 .125-.101.227-.226.227H20.95c-.378-1.975-2.106-3.472-4.175-3.472-2.068 0-3.796 1.497-4.174 3.472-3.448 0-3.262.036-3.363-.083-.103-.123-.216.827 2.31-14.821.045-.277.28-.478.558-.478h6.357c.277 0 .511.2.557.475l1.243 7.476c.134.809.822 1.405 1.636 1.418l1.422.022c.122.002.222.104.222.227v5.537z" transform="translate(-247 -19) translate(247 19)"/>
            </g>
        </g>
    </g>
</svg>
