<svg xmlns="http://www.w3.org/2000/svg" id="Layer_2" data-name="Layer 2" viewBox="0 0 54.24 14.99"><defs><style> .cls-1 { fill-rule: evenodd; } .cls-1, .cls-2 { fill: #b75141; } </style></defs><g id="Layer_1-2" data-name="Layer 1"><g><g><g><path class="cls-2" d="M5.93,6.24c.24-.03.48-.04.71-.05.23,0,.46-.01.7-.03s.48-.04.72-.07c.25-.03.51-.08.78-.16.07-.89.12-1.61.16-2.16.04-.55.07-.99.12-1.31.04-.32.1-.56.16-.72.06-.15.15-.28.27-.39.17-.15.35-.24.54-.25.19-.02.35-.01.5.01.04,0,.07.03.07.07,0,.04-.01.08-.06.1-.11.05-.2.16-.26.34-.06.17-.11.43-.15.76-.04.33-.08.75-.11,1.26-.03.51-.08,1.13-.13,1.85.15-.09.27-.16.35-.22.09-.06.15-.09.2-.08.05,0,.08.06.09.17.01.11.01.28,0,.53,0,.11-.05.23-.16.36-.11.13-.3.25-.58.36l-.24,3.01c-.01.1,0,.2.01.31.02.11.06.21.11.3.05.09.1.18.16.25.06.07.12.13.18.16.05.02.08.06.07.12,0,.06-.04.09-.1.09-.29.05-.54.05-.74,0-.2-.05-.36-.12-.48-.23-.12-.1-.2-.23-.25-.37-.05-.14-.06-.29-.04-.43l.23-2.99c-.24.02-.52.04-.83.05-.31,0-.6.01-.88.02-.28,0-.53,0-.75,0-.22,0-.37,0-.45,0"></path><path class="cls-1" d="M0,2.19c3.63.1,5.39,1.68,5.27,4.74.81-2.36.36-4.98-1.21-6.93,1.96,1.31,3.06,3.58,2.87,5.94-.19,2.35-1.65,4.42-3.8,5.39,1.06-.98,1.63-2.38,1.56-3.83-.07-1.44-.77-2.78-1.92-3.66.98.96,1.52,2.19,1.62,3.68-2.49-.45-3.72-1.51-3.69-3.17.1-1.16-.14-1.88-.71-2.17Z"></path></g><g><path class="cls-2" d="M12.03,10.77L15.42,1.94h.78l3.39,8.83h-.92l-1.56-4.14h-2.86l-1.3,4.14h-.92ZM15.51,2.6l-1.17,3.73h2.66l-1.41-3.73h-.08Z"></path><path class="cls-2" d="M22.89,10.77V2.19c-.13,0-.39.03-.78.08l-2.47.32v-.64h7.36v.64l-2.47-.32c-.39-.05-.66-.08-.78-.08v8.57h-.86Z"></path><path class="cls-2" d="M28.86,10.77l.31-9h.15l6.34,7.67h.08l-.28-7.49h.86l-.32,9h-.15l-6.34-7.67h-.08l.28,7.49h-.86Z"></path><path class="cls-2" d="M38.1,10.77l3.39-8.83h.78l3.39,8.83h-.92l-1.56-4.14h-2.86l-1.3,4.14h-.92ZM41.58,2.6l-1.17,3.73h2.66l-1.41-3.73h-.08Z"></path><path class="cls-2" d="M47.71,1.94h1.69c.89,0,1.58.19,2.07.56.49.37.74.9.74,1.57,0,.52-.15.95-.46,1.3-.31.35-.75.58-1.33.69v.08c.55.11,1.01.37,1.36.78.35.41.62.92.79,1.53.16.55.32.99.47,1.29.16.31.33.53.52.66.19.13.41.23.67.29v.08h-.52c-.37,0-.67-.07-.91-.2-.24-.13-.44-.36-.61-.68-.17-.32-.33-.76-.48-1.32-.24-.87-.57-1.48-.97-1.84-.4-.36-.9-.54-1.48-.54h-.08v-.23h.08c1.35,0,2.03-.62,2.03-1.87s-.63-1.84-1.9-1.84h-.83v8.52h-.86V1.94Z"></path></g></g><g><path class="cls-2" d="M19.94,13.71v.78h-.27v-.78l-.72-1.19h.23s.04,0,.06.02c.01.01.03.03.04.04l.45.77s.03.06.05.09c.01.03.03.06.04.08,0-.03.02-.06.03-.08s.03-.06.04-.09l.45-.77s.02-.03.03-.04c.01-.01.03-.02.06-.02h.24l-.72,1.19Z"></path><path class="cls-2" d="M21.68,14.3s-.07.07-.11.1-.09.05-.13.07c-.05.02-.1.03-.15.04-.05,0-.1.01-.15.01-.1,0-.19-.02-.27-.05-.08-.03-.15-.08-.21-.14-.06-.06-.11-.14-.14-.23-.03-.09-.05-.2-.05-.32,0-.1.01-.19.04-.27.03-.08.07-.16.13-.22s.12-.11.21-.15c.08-.04.17-.05.27-.05.08,0,.16.01.23.04.07.03.13.07.18.12s.09.12.12.2c.03.08.04.17.04.26,0,.04,0,.06-.01.08,0,.01-.02.02-.05.02h-.93c0,.09.01.16.04.23.02.06.05.12.09.16s.08.08.14.1c.05.02.11.03.18.03.06,0,.11,0,.16-.02.04-.01.08-.03.12-.05.03-.02.06-.03.08-.05s.04-.02.06-.02c.02,0,.04,0,.05.02l.07.09ZM21.49,13.64c0-.06,0-.11-.02-.16-.02-.05-.04-.09-.07-.12-.03-.03-.07-.06-.11-.08-.04-.02-.09-.03-.15-.03-.12,0-.21.03-.28.1s-.11.16-.13.28h.76Z"></path><path class="cls-2" d="M22.24,13.38c.04-.1.1-.17.16-.22.06-.05.14-.08.24-.08.03,0,.06,0,.08,0,.03,0,.05.02.07.03l-.02.18s-.02.03-.04.03c-.01,0-.03,0-.06,0-.02,0-.05,0-.08,0-.04,0-.08,0-.12.02-.03.01-.07.03-.09.06-.03.02-.05.06-.07.09s-.04.08-.06.13v.88h-.25v-1.39h.14s.04,0,.05.02c.01.01.02.03.02.05l.02.21Z"></path><path class="cls-2" d="M24.08,14.3s-.07.07-.11.1-.09.05-.13.07c-.05.02-.1.03-.15.04-.05,0-.1.01-.15.01-.1,0-.19-.02-.27-.05-.08-.03-.15-.08-.21-.14-.06-.06-.11-.14-.14-.23-.03-.09-.05-.2-.05-.32,0-.1.01-.19.04-.27.03-.08.07-.16.13-.22s.12-.11.21-.15c.08-.04.17-.05.27-.05.08,0,.16.01.23.04.07.03.13.07.18.12s.09.12.12.2c.03.08.04.17.04.26,0,.04,0,.06-.01.08,0,.01-.02.02-.05.02h-.93c0,.09.01.16.04.23.02.06.05.12.09.16s.08.08.14.1c.05.02.11.03.18.03.06,0,.11,0,.16-.02.04-.01.08-.03.12-.05.03-.02.06-.03.08-.05s.04-.02.06-.02c.02,0,.04,0,.05.02l.07.09ZM23.88,13.64c0-.06,0-.11-.02-.16-.02-.05-.04-.09-.07-.12-.03-.03-.07-.06-.11-.08-.04-.02-.09-.03-.15-.03-.12,0-.21.03-.28.1s-.11.16-.13.28h.76Z"></path><path class="cls-2" d="M24.65,12.47v2.02h-.24v-2.02h.24Z"></path><path class="cls-2" d="M27.49,14.49h-.24s-.05,0-.06,0-.03-.02-.05-.04l-.2-.2c-.09.08-.19.15-.3.2-.11.05-.24.07-.37.07-.07,0-.15-.01-.22-.04-.07-.02-.13-.06-.19-.11s-.1-.1-.13-.17-.05-.14-.05-.23c0-.06.01-.12.03-.18.02-.06.05-.11.09-.16.04-.05.08-.09.14-.13.05-.04.11-.07.17-.1-.06-.07-.1-.14-.12-.21s-.04-.14-.04-.21c0-.07.01-.13.04-.19.02-.06.06-.11.11-.15.05-.04.1-.08.17-.1.07-.02.14-.04.22-.04.07,0,.14.01.2.04s.11.05.15.09.08.08.1.13.04.1.04.16l-.15.03s-.05,0-.07-.04c0-.02-.02-.05-.03-.07-.01-.03-.03-.05-.05-.07-.02-.02-.05-.04-.08-.05-.03-.01-.07-.02-.11-.02-.05,0-.09,0-.12.02s-.07.04-.09.06c-.03.03-.05.06-.06.09-.01.04-.02.07-.02.11,0,.03,0,.06.01.09,0,.03.02.06.04.09.02.03.04.06.06.09.02.03.05.06.09.1l.57.58c.04-.06.06-.13.08-.19s.04-.13.04-.2c0-.02,0-.03.02-.04,0,0,.02-.01.04-.01h.15c0,.1-.02.21-.05.31-.03.1-.08.2-.14.29l.41.42ZM26.23,13.52c-.1.05-.17.11-.22.19-.05.07-.07.15-.07.24,0,.06.01.11.03.16.02.04.05.08.09.11.04.03.08.05.12.07.05.02.09.02.14.02.1,0,.2-.02.28-.06.08-.04.15-.09.21-.15l-.58-.59Z"></path><path class="cls-2" d="M30.18,13.51c0,.15-.02.28-.07.4-.05.12-.11.22-.2.31-.08.09-.19.15-.31.2-.12.05-.25.07-.4.07h-.74v-1.97h.74c.14,0,.28.02.4.07.12.05.22.11.31.2.09.09.15.19.2.31.05.12.07.25.07.4ZM29.91,13.51c0-.12-.02-.23-.05-.32s-.08-.18-.14-.24-.13-.12-.22-.15-.18-.05-.29-.05h-.47v1.54h.47c.11,0,.2-.02.29-.05s.16-.08.22-.15.11-.15.14-.24.05-.2.05-.32Z"></path><path class="cls-2" d="M31.07,13.08c.1,0,.19.02.28.05.08.03.15.08.21.14s.1.14.13.23c.03.09.05.19.05.3s-.02.21-.05.3c-.03.09-.08.16-.13.23-.06.06-.13.11-.21.14-.08.03-.17.05-.28.05s-.19-.02-.28-.05c-.08-.03-.15-.08-.21-.14-.06-.06-.1-.14-.13-.23-.03-.09-.05-.19-.05-.3s.02-.21.05-.3c.03-.09.08-.16.13-.23s.13-.11.21-.14c.08-.03.17-.05.28-.05ZM31.07,14.32c.14,0,.24-.05.31-.14.07-.09.1-.22.1-.39s-.03-.3-.1-.39c-.07-.09-.17-.14-.31-.14-.07,0-.13.01-.18.04-.05.02-.09.06-.13.1-.04.04-.06.1-.08.17-.02.07-.03.14-.03.22,0,.16.03.29.1.39.07.09.17.14.31.14Z"></path><path class="cls-2" d="M33.21,13.15v.09s-.02.05-.06.06l-.16.02c.03.06.05.13.05.2,0,.07-.01.13-.04.19-.03.06-.06.1-.11.14-.05.04-.1.07-.17.09-.06.02-.13.03-.21.03-.06,0-.13,0-.18-.02-.03.02-.05.04-.07.06-.02.02-.02.04-.02.06,0,.03.01.06.04.07.03.02.06.03.11.04s.09.01.15.01c.06,0,.11,0,.17,0,.06,0,.12.01.17.02.06,0,.11.03.15.05s.08.05.11.09c.03.04.04.09.04.16,0,.06-.01.12-.04.17-.03.06-.07.11-.13.15-.06.04-.12.08-.21.1-.08.03-.17.04-.27.04s-.19,0-.27-.03c-.08-.02-.14-.05-.19-.08-.05-.03-.09-.07-.11-.12s-.04-.09-.04-.14c0-.07.02-.13.06-.17.04-.05.1-.09.18-.11-.04-.02-.07-.04-.1-.07s-.04-.07-.04-.12c0-.02,0-.04.01-.06,0-.02.02-.04.03-.06.01-.02.03-.04.06-.06.02-.02.05-.04.08-.05-.07-.04-.12-.09-.16-.15-.04-.06-.06-.14-.06-.22,0-.07.01-.13.04-.18.03-.06.06-.1.11-.14.05-.04.1-.07.17-.09s.13-.03.21-.03c.06,0,.12,0,.17.02.05.01.1.03.14.06h.38ZM32.97,14.57s0-.06-.03-.08c-.02-.02-.05-.04-.08-.05-.03-.01-.07-.02-.11-.03-.04,0-.09,0-.14-.01-.05,0-.1,0-.15,0-.05,0-.1,0-.14-.01-.05.02-.09.05-.13.09-.03.04-.05.08-.05.13,0,.03,0,.06.02.09.02.03.04.05.07.07.03.02.07.04.12.05.05.01.11.02.18.02s.12,0,.18-.02c.05-.01.1-.03.13-.05s.06-.05.08-.08c.02-.03.03-.06.03-.1ZM32.56,12.89c-.07,0-.13,0-.18-.03-.05-.02-.09-.05-.12-.08-.03-.03-.05-.07-.06-.12s-.02-.09-.02-.14h.17s0,.06,0,.08c0,.03.02.05.03.07.02.02.04.03.06.04.03.01.06.02.1.02s.07,0,.1-.02c.03-.01.05-.02.06-.04.02-.02.03-.04.03-.07,0-.03,0-.05,0-.08h.17c0,.05,0,.1-.02.14-.01.04-.03.08-.06.12-.03.03-.07.06-.12.08-.05.02-.11.03-.18.03ZM32.52,13.81s.09,0,.13-.02.07-.03.09-.06.04-.05.06-.09c.01-.03.02-.07.02-.11,0-.08-.03-.15-.08-.2-.05-.05-.13-.08-.22-.08s-.17.02-.23.08c-.05.05-.08.12-.08.2,0,.04,0,.08.02.11.01.03.03.06.06.09.03.02.06.04.1.06.04.01.08.02.13.02Z"></path><path class="cls-2" d="M33.43,13.3c.08-.07.16-.13.25-.17s.19-.05.29-.05c.08,0,.15.01.21.04.06.03.11.06.15.11s.07.1.09.17c.02.06.03.14.03.21v.89h-.11s-.04,0-.05-.01c-.01,0-.02-.02-.03-.05l-.03-.13s-.07.06-.11.09c-.04.03-.07.05-.11.07-.04.02-.08.03-.12.04-.04,0-.09.01-.14.01s-.11,0-.15-.02c-.05-.02-.09-.04-.12-.07s-.06-.07-.08-.11-.03-.1-.03-.16c0-.06.02-.11.05-.16s.08-.1.15-.14c.07-.04.16-.07.26-.1.11-.03.24-.04.4-.04v-.11c0-.11-.02-.19-.07-.25-.05-.06-.11-.08-.2-.08-.06,0-.11,0-.15.02-.04.01-.08.03-.11.05-.03.02-.06.04-.08.05s-.04.02-.06.02c-.02,0-.03,0-.04-.01-.01,0-.02-.02-.03-.03l-.04-.08ZM34.22,13.86c-.11,0-.21.01-.29.03s-.14.03-.19.06-.09.05-.11.08c-.02.03-.03.07-.03.1s0,.07.02.1c.01.03.03.05.05.06.02.02.04.03.07.04s.06.01.09.01c.04,0,.08,0,.12-.01.04,0,.07-.02.1-.04.03-.02.06-.04.09-.06.03-.02.06-.05.08-.08v-.29Z"></path><path class="cls-2" d="M35.09,12.47v2.02h-.24v-2.02h.24Z"></path></g></g></g></svg>