<?xml version="1.0" encoding="UTF-8"?> <svg xmlns="http://www.w3.org/2000/svg" width="14" height="14" viewBox="0 0 16 16" fill="none"><path d="M10.8276 5.7931C10.8276 6.63218 10.5287 7.35057 9.93103 7.94828C9.34483 8.53448 8.63218 8.82759 7.7931 8.82759C6.95402 8.82759 6.23563 8.53448 5.63793 7.94828C5.05172 7.35057 4.75862 6.63218 4.75862 5.7931C4.75862 4.95402 5.05172 4.24138 5.63793 3.65517C6.23563 3.05747 6.95402 2.75862 7.7931 2.75862C8.63218 2.75862 9.34483 3.05747 9.93103 3.65517C10.5287 4.24138 10.8276 4.95402 10.8276 5.7931ZM9.44828 5.7931C9.44828 5.33333 9.28736 4.94253 8.96552 4.62069C8.64368 4.29885 8.25287 4.13793 7.7931 4.13793C7.33333 4.13793 6.94253 4.29885 6.62069 4.62069C6.29885 4.94253 6.13793 5.33333 6.13793 5.7931C6.13793 6.25287 6.29885 6.64368 6.62069 6.96552C6.94253 7.28736 7.33333 7.44828 7.7931 7.44828C8.25287 7.44828 8.64368 7.28736 8.96552 6.96552C9.28736 6.64368 9.44828 6.25287 9.44828 5.7931ZM13.5862 6.06897C13.5862 6.78161 13.3851 7.5977 12.9828 8.51724C12.5805 9.43678 12.1034 10.3506 11.5517 11.2586C11 12.1667 10.431 13.0172 9.84483 13.8103C9.25862 14.6034 8.78161 15.2356 8.41379 15.7069C8.36782 15.7529 8.31609 15.7931 8.25862 15.8276C8.21264 15.8736 8.16667 15.908 8.12069 15.931C8.06322 15.954 8.00575 15.9713 7.94828 15.9828C7.9023 15.9943 7.85057 16 7.7931 16C7.73563 16 7.67816 15.9943 7.62069 15.9828C7.57471 15.9713 7.52299 15.954 7.46552 15.931C7.41954 15.908 7.36782 15.8736 7.31034 15.8276C7.26437 15.7931 7.21839 15.7529 7.17241 15.7069C6.8046 15.2356 6.32759 14.6034 5.74138 13.8103C5.15517 13.0172 4.58621 12.1667 4.03448 11.2586C3.48276 10.3506 3.00575 9.43678 2.60345 8.51724C2.20115 7.5977 2 6.78161 2 6.06897C2 5.17241 2.14943 4.35057 2.44828 3.60345C2.73563 2.85632 3.13793 2.21839 3.65517 1.68966C4.17241 1.14943 4.78736 0.735632 5.5 0.448276C6.20115 0.149425 6.96552 0 7.7931 0C8.62069 0 9.3908 0.149425 10.1034 0.448276C10.8046 0.747126 11.4138 1.16667 11.931 1.7069C12.4483 2.23563 12.8563 2.86782 13.1552 3.60345C13.4425 4.35057 13.5862 5.17241 13.5862 6.06897ZM12.2069 6.06897C12.2069 5.35632 12.092 4.7069 11.8621 4.12069C11.6437 3.54598 11.3333 3.05747 10.931 2.65517C10.5402 2.24138 10.0747 1.92529 9.53448 1.7069C9.00575 1.48851 8.42529 1.37931 7.7931 1.37931C7.16092 1.37931 6.58046 1.48851 6.05172 1.7069C5.51149 1.92529 5.04023 2.24138 4.63793 2.65517C4.24713 3.05747 3.94253 3.54598 3.72414 4.12069C3.49425 4.7069 3.37931 5.35632 3.37931 6.06897C3.37931 6.29885 3.41954 6.57471 3.5 6.89655C3.58046 7.21839 3.7069 7.58621 3.87931 8C4.04023 8.3908 4.23563 8.8046 4.46552 9.24138C4.6954 9.66667 4.94253 10.0977 5.2069 10.5345C5.64368 11.2471 6.09195 11.9253 6.55172 12.569C7.01149 13.2126 7.42529 13.7701 7.7931 14.2414C8.16092 13.7701 8.57471 13.2126 9.03448 12.569C9.49425 11.9253 9.94253 11.2471 10.3793 10.5345C10.6437 10.0977 10.8908 9.66667 11.1207 9.24138C11.3506 8.8046 11.546 8.3908 11.7069 8C11.8793 7.58621 12.0057 7.21839 12.0862 6.89655C12.1667 6.57471 12.2069 6.29885 12.2069 6.06897Z" fill="#333333"></path></svg> 