<?xml version="1.0" encoding="UTF-8" standalone="no"?>
<!-- Created with Inkscape (http://www.inkscape.org/) -->

<svg
   version="1.1"
   id="svg1"
   width="401.33334"
   height="88"
   viewBox="0 0 401.33334 88"
   sodipodi:docname="go-logo-2025.ai"
   xmlns:inkscape="http://www.inkscape.org/namespaces/inkscape"
   xmlns:sodipodi="http://sodipodi.sourceforge.net/DTD/sodipodi-0.dtd"
   xmlns="http://www.w3.org/2000/svg"
   xmlns:svg="http://www.w3.org/2000/svg">
  <defs
     id="defs1">
    <clipPath
       clipPathUnits="userSpaceOnUse"
       id="clipPath2">
      <path
         d="M 0,66 H 301 V 0 H 0 Z"
         transform="translate(-15.8857,-31.125401)"
         id="path2" />
    </clipPath>
    <clipPath
       clipPathUnits="userSpaceOnUse"
       id="clipPath4">
      <path
         d="M 0,66 H 301 V 0 H 0 Z"
         transform="translate(-35.770101,-29.0551)"
         id="path4" />
    </clipPath>
    <clipPath
       clipPathUnits="userSpaceOnUse"
       id="clipPath6">
      <path
         d="M 0,66 H 301 V 0 H 0 Z"
         id="path6" />
    </clipPath>
    <clipPath
       clipPathUnits="userSpaceOnUse"
       id="clipPath8">
      <path
         d="M 0,66 H 301 V 0 H 0 Z"
         transform="translate(-80.6344,-43.927701)"
         id="path8" />
    </clipPath>
    <clipPath
       clipPathUnits="userSpaceOnUse"
       id="clipPath10">
      <path
         d="M 0,66 H 301 V 0 H 0 Z"
         transform="translate(-202.08181,-20.716401)"
         id="path10" />
    </clipPath>
    <clipPath
       clipPathUnits="userSpaceOnUse"
       id="clipPath12">
      <path
         d="M 0,66 H 301 V 0 H 0 Z"
         transform="translate(-224.98491,-47.118301)"
         id="path12" />
    </clipPath>
    <clipPath
       clipPathUnits="userSpaceOnUse"
       id="clipPath14">
      <path
         d="M 0,66 H 301 V 0 H 0 Z"
         id="path14" />
    </clipPath>
    <clipPath
       clipPathUnits="userSpaceOnUse"
       id="clipPath16">
      <path
         d="M 0,66 H 301 V 0 H 0 Z"
         transform="translate(-271.39611,-47.118301)"
         id="path16" />
    </clipPath>
    <clipPath
       clipPathUnits="userSpaceOnUse"
       id="clipPath18">
      <path
         d="M 0,66 H 301 V 0 H 0 Z"
         transform="translate(-281.08651,-28.932001)"
         id="path18" />
    </clipPath>
    <clipPath
       clipPathUnits="userSpaceOnUse"
       id="clipPath20">
      <path
         d="M 0,66 H 301 V 0 H 0 Z"
         transform="translate(-140.8068,-2.2298003)"
         id="path20" />
    </clipPath>
    <clipPath
       clipPathUnits="userSpaceOnUse"
       id="clipPath22">
      <path
         d="M 0,66 H 301 V 0 H 0 Z"
         transform="translate(-160.08411,-26.1739)"
         id="path22" />
    </clipPath>
  </defs>
  <sodipodi:namedview
     id="namedview1"
     pagecolor="#ffffff"
     bordercolor="#000000"
     borderopacity="0.25"
     inkscape:showpageshadow="2"
     inkscape:pageopacity="0.0"
     inkscape:pagecheckerboard="0"
     inkscape:deskcolor="#d1d1d1">
    <inkscape:page
       x="0"
       y="0"
       inkscape:label="1"
       id="page1"
       width="401.33334"
       height="88"
       margin="0 0.12266667 0 0.1229248"
       bleed="0" />
  </sodipodi:namedview>
  <g
     id="layer-MC0"
     inkscape:groupmode="layer"
     inkscape:label="Layer 1">
    <path
       id="path1"
       d="m 0,0 h 6.58 v -8.575 c -1.635,-1.076 -4.426,-1.834 -7.617,-1.834 -7.259,0 -11.725,5.703 -11.725,12.284 0,6.58 4.466,12.323 11.725,12.323 3.51,0 6.222,-1.196 8.176,-3.27 l 1.994,1.994 c -2.393,2.353 -5.743,3.789 -10.21,3.789 -8.415,0 -14.717,-6.262 -14.717,-14.836 0,-8.575 6.182,-14.836 14.717,-14.836 3.829,0 7.458,0.917 10.529,2.751 V 2.513 L 0,2.513 Z"
       style="fill:#155734;fill-opacity:1;fill-rule:nonzero;stroke:none"
       transform="matrix(1.3333333,0,0,-1.3333333,21.180933,46.499467)"
       clip-path="url(#clipPath2)" />
    <path
       id="path3"
       d="M 0,0 6.222,14.996 12.443,0 Z M 7.697,18.186 H 4.906 L -7.298,-10.05 h 3.151 l 3.07,7.418 H 13.52 l 3.111,-7.418 h 3.19 z"
       style="fill:#155734;fill-opacity:1;fill-rule:nonzero;stroke:none"
       transform="matrix(1.3333333,0,0,-1.3333333,47.693467,49.259867)"
       clip-path="url(#clipPath4)" />
    <path
       id="path5"
       d="M 62.788,47.118 H 59.917 V 18.881 h 2.871 z"
       style="fill:#155734;fill-opacity:1;fill-rule:nonzero;stroke:none"
       transform="matrix(1.3333333,0,0,-1.3333333,0,88)"
       clip-path="url(#clipPath6)" />
    <path
       id="path7"
       d="M 0,0 6.221,-14.996 H -6.222 Z M -7.299,-17.628 H 7.298 l 3.111,-7.418 h 3.19 L 1.475,3.191 H -1.316 L -13.52,-25.046 h 3.15 z"
       style="fill:#155734;fill-opacity:1;fill-rule:nonzero;stroke:none"
       transform="matrix(1.3333333,0,0,-1.3333333,107.51253,29.429733)"
       clip-path="url(#clipPath8)" />
    <path
       id="path9"
       d="m 0,0 c -7.258,0 -11.685,5.703 -11.685,12.284 0,6.58 4.427,12.323 11.685,12.323 7.259,0 11.686,-5.743 11.686,-12.323 C 11.686,5.703 7.259,0 0,0 m 0,27.12 c -8.415,0 -14.717,-6.262 -14.717,-14.836 0,-8.575 6.302,-14.836 14.717,-14.836 8.415,0 14.717,6.261 14.717,14.836 C 14.717,20.858 8.415,27.12 0,27.12"
       style="fill:#155734;fill-opacity:1;fill-rule:nonzero;stroke:none"
       transform="matrix(1.3333333,0,0,-1.3333333,269.4424,60.378133)"
       clip-path="url(#clipPath10)" />
    <path
       id="path11"
       d="m 0,0 h -2.871 v -28.237 h 16.699 v 2.553 l -13.828,0 z"
       style="fill:#155734;fill-opacity:1;fill-rule:nonzero;stroke:none"
       transform="matrix(1.3333333,0,0,-1.3333333,299.97987,25.1756)"
       clip-path="url(#clipPath12)" />
    <path
       id="path13"
       d="m 243.12,18.882 h 2.871 v 28.237 h -2.871 z"
       style="fill:#155734;fill-opacity:1;fill-rule:nonzero;stroke:none"
       transform="matrix(1.3333333,0,0,-1.3333333,0,88)"
       clip-path="url(#clipPath14)" />
    <path
       id="path15"
       d="m 0,0 -9.173,-24.527 h -0.08 L -18.426,0 h -3.111 l 10.769,-28.237 h 3.031 L 3.071,0 Z"
       style="fill:#155734;fill-opacity:1;fill-rule:nonzero;stroke:none"
       transform="matrix(1.3333333,0,0,-1.3333333,361.86147,25.1756)"
       clip-path="url(#clipPath16)" />
    <path
       id="path17"
       d="M 0,0 6.222,14.996 12.443,0 Z M 7.697,18.186 H 4.905 L -7.298,-10.05 h 3.151 l 3.07,7.418 H 13.52 l 3.111,-7.418 h 3.19 z"
       style="fill:#155734;fill-opacity:1;fill-rule:nonzero;stroke:none"
       transform="matrix(1.3333333,0,0,-1.3333333,374.782,49.424)"
       clip-path="url(#clipPath18)" />
    <path
       id="path19"
       d="m 0,0 c -16.967,0 -30.77,13.804 -30.77,30.77 0,16.967 13.803,30.771 30.77,30.771 16.967,0 30.77,-13.804 30.77,-30.771 C 30.77,13.804 16.967,0 0,0 m 0,63.77 c -18.196,0 -33,-14.804 -33,-33 0,-18.196 14.804,-33 33,-33 18.196,0 33,14.804 33,33 0,18.196 -14.804,33 -33,33"
       style="fill:#155734;fill-opacity:1;fill-rule:nonzero;stroke:none"
       transform="matrix(1.3333333,0,0,-1.3333333,187.7424,85.026933)"
       clip-path="url(#clipPath20)" />
    <path
       id="path21"
       d="m 0,0 c -0.876,-0.184 -2.507,-0.525 -4.347,0.174 -0.252,0.095 -0.488,0.204 -0.712,0.321 1.161,0.155 2.294,0.492 3.376,1.01 1.152,0.553 2.049,1.21 2.584,1.603 C 1.429,3.495 1.913,3.903 2.358,4.325 3.351,3.813 4.158,3.181 4.78,2.582 3.723,1.565 2.139,0.448 0,0 m -18.263,-1.673 v 4.63 c 0.901,-0.383 1.534,-1.276 1.534,-2.315 0,-1.039 -0.633,-1.932 -1.534,-2.315 m -3.493,2.315 c 0,1.039 0.634,1.932 1.535,2.315 v -4.63 c -0.901,0.383 -1.535,1.276 -1.535,2.315 M -34.27,-0.07 c -1.84,-0.698 -3.472,-0.357 -4.348,-0.173 -2.139,0.448 -3.723,1.565 -4.78,2.582 0.665,0.64 1.539,1.319 2.627,1.846 0.425,-0.398 0.885,-0.783 1.385,-1.15 1.106,-0.811 3.104,-2.276 6.097,-2.634 -0.299,-0.175 -0.625,-0.335 -0.981,-0.471 m -9.079,10.973 c 1.617,0.612 3.789,1.129 6.26,0.943 0.14,-0.483 0.318,-0.975 0.541,-1.471 1.024,-2.278 2.553,-3.686 3.773,-4.587 -0.293,0.156 -0.604,0.302 -0.938,0.428 -2.27,0.862 -4.267,0.444 -5.227,0.243 -0.515,-0.108 -1,-0.25 -1.459,-0.416 -1.49,1.617 -2.401,3.386 -2.95,4.86 m 7.376,4.555 c 0.748,-0.778 1.504,-1.274 1.972,-1.58 1.107,-0.723 2.234,-1.174 3.3,-1.445 0.259,-0.477 0.57,-0.963 0.941,-1.447 -0.663,0.477 -1.38,0.886 -2.149,1.216 -1.174,0.504 -2.259,0.747 -2.907,0.892 -0.336,0.075 -0.669,0.136 -0.997,0.187 -0.141,0.782 -0.18,1.52 -0.16,2.177 m -0.624,6.843 c 0.946,0.142 2.401,0.174 3.91,-0.504 0.147,-0.066 0.286,-0.138 0.421,-0.211 -0.122,-0.929 -0.17,-1.923 -0.105,-2.969 -1.506,0.2 -2.833,0.079 -3.779,-0.091 -0.617,1.461 -0.585,2.857 -0.447,3.775 m 6.815,2.648 c 1.761,-0.681 3.94,-1.883 5.759,-3.981 -0.147,-0.302 -0.288,-0.615 -0.414,-0.946 -0.507,-1.338 -0.749,-2.756 -0.719,-4.218 0,-0.002 0,-0.004 0,-0.006 0,-0.022 -0.001,-0.044 0,-0.067 0.008,-0.421 0.039,-0.822 0.081,-1.193 -0.43,0.522 -0.955,1.073 -1.591,1.602 -0.263,1.142 -0.725,2.366 -1.508,3.565 -0.399,0.61 -1.12,1.711 -2.374,2.645 0.195,0.971 0.471,1.846 0.766,2.599 m 8.131,3.179 c 0.588,1.548 1.639,2.554 2.409,3.122 0.77,-0.568 1.821,-1.574 2.408,-3.122 0.645,-1.697 0.404,-3.215 0.219,-4.129 -0.816,0.832 -1.622,1.421 -2.207,1.791 l -0.42,0.266 -0.42,-0.266 c -0.585,-0.37 -1.392,-0.959 -2.207,-1.791 -0.186,0.914 -0.426,2.432 0.218,4.129 m 12.948,-3.106 c 0.289,-0.737 0.559,-1.591 0.753,-2.536 -1.372,-0.961 -2.146,-2.141 -2.565,-2.781 -0.812,-1.243 -1.281,-2.513 -1.538,-3.692 -0.525,-0.46 -0.969,-0.933 -1.342,-1.385 0.045,0.417 0.074,0.869 0.073,1.35 0.007,1.191 -0.165,2.565 -0.726,4.044 -0.132,0.348 -0.28,0.677 -0.436,0.993 1.824,2.115 4.013,3.323 5.781,4.007 m 2.7,-3.225 c 1.001,0.45 1.978,0.587 2.798,0.587 0.417,0 0.793,-0.035 1.112,-0.083 0.136,-0.897 0.17,-2.25 -0.404,-3.674 -0.932,0.154 -2.195,0.251 -3.617,0.063 0.066,1.058 0.017,2.062 -0.108,3 0.072,0.036 0.144,0.073 0.219,0.107 m 3.332,-8.443 C -3,13.303 -3.332,13.242 -3.669,13.167 c -1.152,-0.258 -3.105,-0.695 -5.056,-2.102 0.342,0.447 0.65,0.92 0.923,1.418 1.01,0.276 2.071,0.714 3.114,1.395 0.509,0.333 1.36,0.89 2.17,1.794 0.031,-0.693 -0.002,-1.479 -0.153,-2.318 M -7.965,4.421 C -8.474,3.893 -8.843,3.383 -9.084,3.002 L -9.35,2.582 -9.193,2.335 c -0.793,0.221 -1.481,0.513 -2.042,0.803 1.063,0.283 2.166,0.693 3.27,1.283 m -10.303,0.187 c 0.392,0.383 0.8,0.817 1.206,1.303 -0.063,-0.625 -0.087,-1.216 -0.085,-1.764 -0.344,0.206 -0.721,0.363 -1.121,0.461 m -3.069,-0.461 c -0.001,0.552 -0.028,1.146 -0.094,1.774 0.409,-0.49 0.82,-0.927 1.215,-1.313 -0.4,-0.098 -0.777,-0.254 -1.121,-0.461 m -5.718,0.493 c -1.223,0.346 -2.5,0.884 -3.752,1.702 -1.092,0.714 -3.123,2.042 -4.308,4.678 -0.088,0.194 -0.164,0.387 -0.236,0.579 0.064,-0.013 0.128,-0.024 0.192,-0.038 1.273,-0.285 3.642,-0.814 5.677,-2.866 1.312,-1.322 2.031,-2.813 2.427,-4.055 M -15.54,4.153 h -0.037 c -10e-4,0.81 0.058,1.726 0.229,2.702 1.189,0.281 2.762,0.838 4.288,1.939 -1.195,-1.56 -1.8,-3.197 -2.107,-4.459 -0.852,-0.131 -1.655,-0.182 -2.373,-0.182 m -5.382,9.902 c 0.098,-1.887 -0.375,-3.497 -0.918,-4.692 -0.594,1.085 -1.092,2.332 -1.389,3.748 -0.147,0.706 -0.365,1.75 -0.357,3 0.014,0.989 0.172,2.103 0.618,3.28 0.017,0.043 0.035,0.084 0.052,0.126 0.779,-1.13 1.865,-2.95 1.994,-5.462 m 5.405,5.336 c 0.447,-1.177 0.605,-2.291 0.618,-3.28 0.009,-1.249 -0.209,-2.294 -0.357,-3 -0.293,-1.402 -0.785,-2.638 -1.37,-3.714 -0.551,1.198 -1.035,2.823 -0.937,4.731 0.128,2.492 1.198,4.303 1.976,5.434 0.023,-0.057 0.048,-0.112 0.07,-0.171 m -3.836,-5.255 c -0.062,1.206 -0.323,2.388 -0.772,3.525 0.12,-0.118 0.239,-0.231 0.355,-0.336 l 0.528,-0.48 0.528,0.479 c 0.098,0.09 0.199,0.185 0.301,0.284 -0.369,-0.966 -0.652,-2.096 -0.719,-3.399 -0.141,-2.73 0.744,-4.953 1.531,-6.36 -0.538,-0.746 -1.103,-1.388 -1.641,-1.924 -0.531,0.528 -1.088,1.16 -1.619,1.893 0.781,1.409 1.648,3.614 1.508,6.318 m 0.111,9.973 c 0.61,-0.429 1.373,-1.064 2.091,-1.929 -0.55,-1.349 -1.347,-2.406 -2.091,-3.179 -0.745,0.773 -1.541,1.83 -2.091,3.179 0.718,0.864 1.481,1.5 2.091,1.929 M -22.908,4.08 h -0.036 c -0.719,0 -1.522,0.051 -2.374,0.183 -0.306,1.262 -0.912,2.898 -2.107,4.459 1.527,-1.102 3.1,-1.659 4.288,-1.939 0.171,-0.976 0.231,-1.893 0.229,-2.703 m -6.509,-7.774 c 0.043,0.846 0.261,2.013 0.991,3.131 0.314,0.48 0.899,1.374 2.037,1.886 0.549,0.247 1.146,0.372 1.774,0.372 0.184,0 0.37,-0.011 0.554,-0.032 0.071,-0.602 0.055,-1.451 -0.34,-2.329 -0.512,-1.138 -1.405,-1.722 -1.886,-2.036 -1.118,-0.731 -2.284,-0.948 -3.13,-0.992 m 16.649,0.992 c -0.48,0.314 -1.374,0.898 -1.886,2.036 -0.395,0.878 -0.411,1.727 -0.34,2.329 0.184,0.021 0.37,0.032 0.554,0.032 0.628,0 1.225,-0.125 1.775,-0.372 1.138,-0.512 1.722,-1.406 2.036,-1.886 0.731,-1.118 0.948,-2.285 0.992,-3.131 -0.846,0.044 -2.013,0.261 -3.131,0.992 m 5.091,9.117 c -1.252,-0.818 -2.529,-1.356 -3.753,-1.702 0.396,1.242 1.115,2.733 2.428,4.055 2.035,2.051 4.404,2.581 5.676,2.865 0.065,0.015 0.128,0.025 0.193,0.039 -0.072,-0.193 -0.149,-0.386 -0.236,-0.58 C -4.554,8.457 -6.586,7.129 -7.677,6.415 m -1.198,7.428 c -0.673,-0.136 -1.31,-0.193 -1.879,-0.204 0.009,0.467 0.049,0.979 0.137,1.518 0.562,0.443 1.214,0.86 1.979,1.204 0.217,0.097 0.431,0.181 0.645,0.26 -0.153,-0.719 -0.389,-1.709 -0.882,-2.778 m 2.571,3.228 c 1.122,0.194 2.148,0.177 2.975,0.085 -0.761,-1.008 -1.666,-1.601 -2.219,-1.963 -0.465,-0.303 -0.936,-0.551 -1.403,-0.753 0.282,0.843 0.439,1.584 0.542,2.076 0.04,0.186 0.074,0.371 0.105,0.555 m -1.394,3.612 c 0.056,-0.738 0.056,-1.514 -0.02,-2.322 -0.513,-0.144 -1.036,-0.33 -1.564,-0.567 -0.23,-0.103 -0.448,-0.213 -0.66,-0.326 0.199,0.459 0.444,0.92 0.742,1.377 0.303,0.463 0.768,1.173 1.502,1.838 m -4.628,-7.238 c -10e-4,-0.215 0.004,-0.422 0.013,-0.618 l 0.034,-0.712 0.713,-0.034 c 0.192,-0.01 0.393,-0.015 0.604,-0.015 0.331,0 0.686,0.014 1.058,0.045 -0.246,-0.331 -0.522,-0.661 -0.838,-0.982 -1.363,-1.386 -2.918,-2.13 -4.186,-2.53 0.348,1.132 0.862,2.303 1.613,3.454 0.246,0.376 0.568,0.865 0.989,1.392 m -15.401,-1.379 c 0.21,0 0.412,0.005 0.603,0.015 l 0.713,0.034 0.034,0.712 c 0.012,0.249 0.016,0.517 0.012,0.797 0.525,-0.622 0.91,-1.208 1.195,-1.644 0.752,-1.15 1.266,-2.322 1.613,-3.453 -1.268,0.399 -2.822,1.143 -4.185,2.529 -0.336,0.341 -0.626,0.691 -0.884,1.043 0.314,-0.022 0.615,-0.033 0.899,-0.033 m -2.765,4.482 c 0.214,-0.078 0.429,-0.163 0.645,-0.26 0.665,-0.299 1.247,-0.652 1.757,-1.03 0.1,-0.577 0.145,-1.124 0.155,-1.619 -0.517,0.01 -1.089,0.059 -1.692,0.168 -0.482,1.055 -0.713,2.031 -0.865,2.741 m -1.584,-0.105 c 0.115,-0.545 0.268,-1.268 0.542,-2.087 -0.534,0.216 -1.074,0.489 -1.607,0.837 -0.537,0.351 -1.405,0.921 -2.151,1.875 0.849,0.105 1.927,0.135 3.111,-0.07 0.032,-0.184 0.066,-0.369 0.105,-0.555 m 1.282,4.055 c 0.622,-0.609 1.029,-1.232 1.304,-1.653 0.29,-0.442 0.527,-0.89 0.723,-1.334 -0.142,0.072 -0.285,0.143 -0.435,0.21 -0.528,0.238 -1.052,0.423 -1.564,0.567 -0.072,0.767 -0.076,1.506 -0.028,2.21 m 1.26,-17.739 c -0.341,0.54 -0.939,1.339 -1.834,2.082 1.383,-0.858 2.783,-1.421 4.119,-1.776 -0.568,-0.293 -1.268,-0.589 -2.073,-0.811 l 0.054,0.085 z m -3.03,-0.848 c -2.884,0.184 -4.841,1.62 -5.892,2.391 -0.223,0.164 -0.435,0.333 -0.64,0.504 0.156,0.042 0.315,0.081 0.478,0.115 0.876,0.184 2.507,0.525 4.348,-0.174 1.547,-0.587 2.553,-1.638 3.121,-2.408 -0.101,-0.137 -0.217,-0.283 -0.346,-0.434 -0.346,-0.016 -0.702,-0.017 -1.069,0.006 m 25.593,0.066 c -0.193,0.211 -0.359,0.417 -0.498,0.605 0.568,0.77 1.574,1.821 3.122,2.409 C -2.507,5.689 -0.876,5.348 0,5.164 0.251,5.111 0.495,5.049 0.731,4.979 0.489,4.773 0.238,4.57 -0.028,4.375 -1.079,3.604 -3.036,2.168 -5.921,1.984 -6.281,1.961 -6.631,1.961 -6.971,1.977 M 4.865,10.976 C 4.326,9.529 3.438,7.798 1.997,6.206 1.475,6.406 0.918,6.577 0.322,6.702 -0.638,6.903 -2.635,7.321 -4.905,6.46 -4.938,6.447 -4.97,6.432 -5.003,6.419 c 1.064,0.898 2.233,2.174 3.067,4.029 0.223,0.496 0.4,0.988 0.541,1.47 2.47,0.187 4.642,-0.331 6.26,-0.942 M 6.456,3.11 C 5.76,3.876 4.77,4.772 3.476,5.506 5.139,7.461 6.077,9.558 6.6,11.184 l 0.218,0.679 -0.655,0.283 c -1.746,0.752 -4.269,1.501 -7.216,1.369 0.242,1.716 0.065,3.207 -0.136,4.18 0.008,0.018 0.017,0.034 0.025,0.051 1.001,2.226 0.749,4.338 0.51,5.4 l -0.109,0.484 -0.484,0.11 c -1.041,0.234 -3.092,0.477 -5.27,-0.456 -0.277,1.174 -0.655,2.204 -1.032,3.05 l -0.291,0.651 -0.676,-0.226 c -1.952,-0.654 -4.579,-1.918 -6.806,-4.323 -0.016,0.023 -0.032,0.047 -0.048,0.069 0.094,0.307 0.179,0.624 0.248,0.954 0.201,0.96 0.619,2.957 -0.243,5.227 -0.866,2.281 -2.538,3.597 -3.457,4.179 l -0.42,0.265 -0.42,-0.265 c -0.92,-0.582 -2.591,-1.898 -3.457,-4.179 -0.862,-2.27 -0.444,-4.268 -0.243,-5.227 0.069,-0.33 0.153,-0.647 0.247,-0.954 -0.026,-0.036 -0.051,-0.074 -0.076,-0.112 -2.221,2.386 -4.834,3.642 -6.777,4.293 l -0.677,0.227 -0.29,-0.652 c -0.379,-0.849 -0.758,-1.885 -1.036,-3.066 -0.025,0.011 -0.047,0.024 -0.071,0.034 -2.226,1.001 -4.339,0.75 -5.4,0.511 l -0.485,-0.11 -0.109,-0.484 c -0.239,-1.062 -0.49,-3.175 0.51,-5.4 0.058,-0.129 0.119,-0.253 0.181,-0.374 -0.178,-0.97 -0.309,-2.355 -0.086,-3.93 -2.947,0.132 -5.47,-0.617 -7.216,-1.369 l -0.655,-0.283 0.218,-0.679 c 0.528,-1.644 1.481,-3.769 3.179,-5.743 -1.388,-0.751 -2.44,-1.698 -3.169,-2.501 l -0.48,-0.528 0.48,-0.528 c 1.181,-1.3 3.203,-2.978 6.134,-3.592 0.518,-0.108 1.337,-0.28 2.338,-0.28 0.855,0 1.843,0.125 2.889,0.523 1.269,0.481 2.238,1.212 2.949,1.924 0.479,0.051 0.937,0.129 1.371,0.229 -0.101,-0.143 -0.186,-0.272 -0.255,-0.379 -1.12,-1.713 -1.287,-3.499 -1.229,-4.695 l 0.032,-0.663 0.662,-0.032 c 0.131,-0.006 0.268,-0.01 0.411,-0.01 1.09,0 2.719,0.215 4.285,1.239 0.562,0.367 1.732,1.132 2.419,2.66 0.036,0.08 0.068,0.159 0.099,0.238 0.509,-1.133 1.52,-1.993 2.748,-2.296 v -7.193 c 0,-1.106 -0.163,-2.363 -0.672,-3.703 -1.119,-2.947 -3.26,-4.594 -4.267,-5.259 h 5.918 5.918 c -1.007,0.665 -3.148,2.312 -4.268,5.259 -0.508,1.34 -0.672,2.597 -0.671,3.703 v 7.193 c 1.014,0.25 1.88,0.881 2.438,1.731 0.697,-1.311 1.737,-1.993 2.258,-2.333 1.566,-1.024 3.194,-1.239 4.284,-1.239 0.143,0 0.281,0.004 0.411,0.01 l 0.663,0.032 0.032,0.663 c 0.057,1.196 -0.11,2.982 -1.229,4.695 -0.113,0.173 -0.265,0.404 -0.464,0.661 0.667,-0.203 1.402,-0.363 2.198,-0.444 0.692,-0.655 1.603,-1.307 2.767,-1.748 1.046,-0.397 2.034,-0.523 2.89,-0.523 1,0 1.82,0.172 2.337,0.28 2.931,0.614 4.954,2.292 6.134,3.592 l 0.48,0.528 z"
       style="fill:#155734;fill-opacity:1;fill-rule:nonzero;stroke:none"
       transform="matrix(1.3333333,0,0,-1.3333333,213.44547,53.101467)"
       clip-path="url(#clipPath22)" />
  </g>
</svg>
