<svg xmlns="http://www.w3.org/2000/svg" width="51.981" height="51.991" viewBox="0 0 51.981 51.991"><path d="M53.312,19.874a9.842,9.842,0,0,0-4.679,2.246A43.709,43.709,0,0,0,54.352,11.2a.894.894,0,0,0-.52-1.175.915.915,0,0,0-1.123.593,41.983,41.983,0,0,1-9.561,15.311c.655-.894,3.255-4.591,2.667-8.469C45.145,13.006,40.569,10,40.569,10s-3.494,4.222-2.828,8.677c.639,4.274,4.877,7.216,5.2,7.45q-1.435,1.451-3.01,2.756h0v-.062c-.52.452-1.1.889-1.669,1.31.4-1.648.983-5.287-.66-8.23-2.168-3.92-7.513-5.142-7.513-5.142s-1.783,5.2.411,9.119c1.726,3.119,5.4,4.5,6.889,4.96q-1.191.863-2.423,1.622c-.78-1.445-2.823-4.632-6.088-5.719-4.31-1.43-9.057,1.284-9.057,1.284S22,33.048,26.272,34.473a9.312,9.312,0,0,0,4.315.286c-1.04.473-2.08.91-3.171,1.3h0a7.627,7.627,0,0,0-1.705-1.107c-4.882-2.277-11.235,1.04-14.193,7.367-2.194,4.705-1.9,9.764.385,13a1.7,1.7,0,0,0,.665.556l5.563,2.6a1.7,1.7,0,0,0,.853.151,11.194,11.194,0,0,0,6.239-2.8h0a11.474,11.474,0,0,0,4.809,5.932,1.7,1.7,0,0,0,.837.224h6.177a1.7,1.7,0,0,0,.837-.224c3.437-1.96,5.844-6.421,5.844-11.61s-2.418-9.686-5.875-11.63h0a41.9,41.9,0,0,1,1.04-6.109c.915,1.56,2.875,4.32,5.859,5.313,4.279,1.425,9.036-1.289,9.036-1.289s-2.184-5.028-6.452-6.452a10.423,10.423,0,0,0-6.125.114A43.771,43.771,0,0,0,46.1,25.307c.962.717,4.606,3.208,8.433,2.636C58.985,27.272,62,22.692,62,22.692S57.773,19.2,53.312,19.874ZM28.955,33.267h0a6.858,6.858,0,0,1-2.168-.333,9.705,9.705,0,0,1-4.705-4.159,11.786,11.786,0,0,1,4.092-.832,6.852,6.852,0,0,1,2.168.333,9.611,9.611,0,0,1,4.679,4.159,11.786,11.786,0,0,1-4.066.832Zm10.4-14.833a9.821,9.821,0,0,1,1.56-6.078,9.7,9.7,0,0,1,3.281,5.35,9.792,9.792,0,0,1-1.56,6.078,9.74,9.74,0,0,1-3.286-5.35ZM33.967,37.478a7.949,7.949,0,0,0-4.414,1.373h0a9.155,9.155,0,0,0-.858-1.414,43.61,43.61,0,0,0,8.215-4.159,43.553,43.553,0,0,0-.743,4.539A7.632,7.632,0,0,0,33.967,37.478Zm2.641.473Zm.27-9a9.654,9.654,0,0,1-4.96-3.879,9.734,9.734,0,0,1-.665-6.239,9.681,9.681,0,0,1,4.955,3.847A9.817,9.817,0,0,1,36.878,28.951ZM18.848,57.011h-.036l-5.563-2.6h-.026c-2.033-2.865-2.126-7.326-.239-11.365C14.974,38.772,18.764,35.9,22.4,35.9a6.13,6.13,0,0,1,2.6.567,7.146,7.146,0,0,1,3.78,5.157A13.091,13.091,0,0,1,27.7,49.909C25.83,53.933,22.352,56.73,18.848,57.011ZM25.9,55.227Zm-.322.3Zm16.507-5.376c0,4.461-1.97,8.464-5.022,10.2H30.858a10.065,10.065,0,0,1-4.331-5.761h0a15.987,15.987,0,0,0,2.662-4.014,14.451,14.451,0,0,0,.972-10.185h0a6.452,6.452,0,0,1,3.806-1.284C38.443,39.11,42.088,44.06,42.088,50.153ZM26.22,54.921Zm3.8-14.953v.042Zm7.4-1.669h.042Zm-.411-.187h.031Zm7.643-6.92a6.852,6.852,0,0,1,2.168.333A9.611,9.611,0,0,1,51.5,35.684a11.786,11.786,0,0,1-4.06.827h0a6.853,6.853,0,0,1-2.168-.333A9.611,9.611,0,0,1,40.6,32.019a11.786,11.786,0,0,1,4.055-.827Zm9.629-4.861a6.239,6.239,0,0,1-.92.068,10.606,10.606,0,0,1-5.157-1.643,9.732,9.732,0,0,1,5.35-3.286,6.239,6.239,0,0,1,.92-.068,10.606,10.606,0,0,1,5.157,1.643A9.711,9.711,0,0,1,54.285,26.331Z" transform="translate(-10.019 -9.99)"/></svg>